<svg width="95" height="89" viewBox="0 0 95 89" fill="none" xmlns="http://www.w3.org/2000/svg">
<path d="M66.315 66.8478C68.2125 65.641 71.1426 62.883 68.6138 60.8138C66.4317 58.9751 62.1775 59.9518 59.7639 60.7564C54.1322 62.6539 49.7647 66.3881 45.3398 70.1812C44.9456 70.5787 44.448 70.8581 43.9034 70.9876C43.3591 70.9976 42.8225 70.8585 42.3517 70.5853C37.7607 68.4379 30.583 64.1111 27.3531 65.8729C26.6804 66.2442 26.1543 66.8337 25.8618 67.5441C25.5693 68.2546 25.5277 69.0435 25.744 69.7808C26.28 71.6882 28.3298 72.5967 29.7667 73.7461C32.295 75.8148 34.249 78.8607 35.5132 81.8488C36.7812 84.8729 37.385 87.3287 40.5126 89.4344C43.0789 91.193 46.0716 92.2277 49.176 92.4299C52.2805 92.6321 55.3821 91.9942 58.1549 90.5833C61.9935 88.4662 66.9307 84.546 67.7518 80.2397C67.8866 78.827 67.3576 77.3171 65.9336 76.8167C66.6684 73.0051 64.8568 70.5687 62.094 70.073C63.1908 68.6423 64.8155 67.8079 66.315 66.8478Z" fill="white"/>
<path d="M68.7427 60.6565C66.442 58.7187 62.0896 59.7657 59.6993 60.5616C51.4339 63.3448 45.6622 70.3697 43.9028 70.7805C43.3879 70.7905 42.8804 70.6577 42.4365 70.3968C37.7402 68.2014 30.5943 63.869 27.2566 65.6901C26.5445 66.0847 25.9875 66.7096 25.6772 67.4623C25.3669 68.215 25.3217 69.0509 25.5489 69.8327C26.584 73.5162 31.6147 72.3877 35.8299 83.1825C36.9006 85.9215 37.8308 87.8673 40.3948 89.5931C46.805 93.9075 55.254 93.9526 62.9905 87.4584C66.3163 84.6668 67.5079 82.5781 67.9495 80.2523C68.0852 78.832 67.5786 77.2841 66.1564 76.6812C66.1602 76.6722 66.163 76.6628 66.1649 76.6532C66.5999 74.5309 66.2337 72.9261 65.0905 71.5452C64.4198 70.7264 63.4923 70.1581 62.4582 69.9324C63.5218 68.6905 65.0397 67.8954 66.4206 67.0121C69.0335 65.3528 71.1473 62.6233 68.7427 60.6565ZM64.7826 71.8042C65.8556 73.1002 66.1844 74.5475 65.7788 76.5546C64.1565 76.1238 59.909 76.8914 57.9043 78.6095C56.6449 78.794 55.3603 78.6968 54.143 78.3249C52.8342 77.8534 51.6435 76.5199 51.9134 75.1096C52.3072 73.3369 54.8118 70.7454 58.3506 70.3232C60.6585 70.031 63.2153 69.9101 64.7826 71.8023V71.8042ZM66.2057 66.6768C64.9562 67.4761 63.1669 68.4518 61.9957 69.8465C60.7669 69.7019 59.5241 69.7274 58.3023 69.9224C54.5979 70.3626 51.9495 73.0912 51.5188 75.0261C51.2057 76.6537 52.5368 78.1731 54.0045 78.7011C54.8028 78.9739 55.6425 79.1052 56.4859 79.0891C58.1709 79.0891 57.2582 78.6043 56.2454 80.7276C56.0497 81.0827 55.9385 81.4782 55.9203 81.8833C55.9021 82.2883 55.9775 82.6921 56.1406 83.0634C56.3033 83.4346 56.549 83.7635 56.8589 84.0247C57.1688 84.2859 57.5346 84.4725 57.928 84.57C59.6941 85.0401 61.5526 85.0401 63.3187 84.57C63.3443 84.5632 63.3682 84.5514 63.3892 84.5354C63.4102 84.5194 63.4278 84.4993 63.4411 84.4765C63.4544 84.4536 63.463 84.4284 63.4665 84.4022C63.47 84.376 63.4683 84.3493 63.4615 84.3238C63.4547 84.2983 63.443 84.2743 63.4269 84.2533C63.4109 84.2323 63.3908 84.2147 63.368 84.2014C63.3451 84.1882 63.3199 84.1795 63.2937 84.176C63.2675 84.1725 63.2408 84.1742 63.2153 84.181C61.5182 84.6331 59.7323 84.6331 58.0352 84.181C57.6793 84.0845 57.3508 83.9064 57.0757 83.661C56.8005 83.4156 56.5863 83.1095 56.4498 82.7669C55.9389 80.8927 57.7368 78.8771 59.4426 78.0612C61.0612 77.2889 64.738 76.2709 66.2764 77.194C67.303 77.7343 67.6554 79.1005 67.5515 80.1963C66.7408 84.4528 61.8387 88.3147 58.0594 90.3995C55.3214 91.8053 52.2533 92.4418 49.1821 92.2413C46.1109 92.0408 43.1516 91.0108 40.6196 89.261C38.1055 87.5694 37.226 85.6506 36.2047 83.0373C31.952 72.1467 26.9122 73.1903 25.9379 69.7246C25.7356 69.0307 25.7749 68.2887 26.0493 67.6201C26.3237 66.9514 26.8169 66.3957 27.4483 66.0439C30.5862 64.3334 37.7421 68.653 42.2444 70.7502C42.7614 71.047 43.3505 71.1948 43.9464 71.1771C44.5239 71.0428 45.052 70.7489 45.4706 70.3289C49.7702 66.6431 54.2165 62.8339 59.8269 60.9426C61.6864 60.323 66.2527 59.084 68.486 60.9653C70.6501 62.7366 68.5045 65.2124 66.2062 66.6749L66.2057 66.6768Z" fill="#562C13"/>
<path d="M50.5986 83.7673C50.9158 81.4802 50.4474 79.1532 49.2701 77.1669C48.0928 75.1806 46.2763 73.6527 44.1177 72.833C44.081 72.8187 44.0493 72.7939 44.0266 72.7616C44.0039 72.7293 43.9913 72.6911 43.9903 72.6517C43.9893 72.6122 43.9999 72.5734 44.0209 72.54C44.0419 72.5066 44.0723 72.4802 44.1082 72.464C44.156 72.4418 44.2105 72.4393 44.26 72.4569C46.5033 73.3087 48.3912 74.8965 49.6148 76.9607C50.8384 79.0248 51.3254 81.4431 50.9961 83.8199C50.9852 83.8692 50.9564 83.9127 50.9151 83.9417C50.8738 83.9708 50.8232 83.9833 50.7731 83.9769C50.7231 83.9701 50.6774 83.9448 50.6451 83.906C50.6128 83.8672 50.5962 83.8177 50.5986 83.7673Z" fill="#562C13"/>
<path d="M59.7642 24.6094V37.712L52.5234 43.1136V28.5172L59.7642 24.6094Z" fill="white"/>
<path d="M52.5243 28.514L39.1348 26.4453L39.4222 40.2371L52.5243 43.1104V28.514Z" fill="#FEF2EB"/>
<path d="M59.926 24.4847C59.796 24.3547 47.1654 22.8405 47.1009 22.8675L39.0333 26.2693C38.8744 26.3575 38.9351 26.2721 39.2202 40.2395C39.2212 40.2846 39.2373 40.328 39.2659 40.3629C39.2946 40.3977 39.3341 40.4219 39.3781 40.4316L52.4959 43.3077C52.6558 43.33 59.9644 37.8477 59.9644 37.7054V24.6336C59.9715 24.5809 59.9577 24.5274 59.926 24.4847ZM39.3383 26.6786L52.3237 28.6843V42.8589L39.6191 40.0725L39.3383 26.6786ZM59.5631 37.6058L52.725 42.7076V28.6321L59.5631 24.9415V37.6058Z" fill="#562C13"/>
<path d="M83.4418 11.2109V21.5551L77.6953 25.8073V14.3143L83.4418 11.2109Z" fill="white"/>
<path d="M77.6952 14.3122L67.2363 12.7031L67.4659 23.5643L77.6952 25.8052V14.3122Z" fill="#FEF2EB"/>
<path d="M83.6401 11.1887C83.6088 10.9306 73.5251 9.80019 73.4772 9.82059C67.0528 12.5468 67.1296 12.5145 67.0703 12.5904C67.0125 12.6753 67.0229 12.5994 67.2634 23.5716C67.2643 23.6168 67.2803 23.6604 67.309 23.6953C67.3376 23.7303 67.3772 23.7545 67.4214 23.7642C77.7555 26.0327 77.664 26.0274 77.7626 25.9971L83.5575 21.7183C83.7008 21.6139 83.6458 11.2361 83.6401 11.1887ZM67.4408 12.9438L77.4922 14.4898V25.5592L67.6623 23.4056L67.4408 12.9438ZM83.2373 21.4569L77.8931 25.4117V14.4357L83.2373 11.5497V21.4569Z" fill="#562C13"/>
<path d="M55.5127 3.33594V12.071L50.6855 15.6914V5.9796L55.5127 3.33594Z" fill="white"/>
<path d="M50.6851 5.98056L41.7773 4.60156L42.0074 13.7384L50.6851 15.6923V5.98056Z" fill="#FEF2EB"/>
<path d="M55.6995 3.26798C55.6407 3.10385 55.7033 3.16315 47.1457 2.16412C47.029 2.15037 41.6131 4.47478 41.6615 4.4411C41.5462 4.52174 41.5751 4.44442 41.8066 13.7473C41.8082 13.7918 41.8244 13.8346 41.8528 13.8689C41.8812 13.9033 41.9202 13.9272 41.9636 13.937C50.7395 15.909 50.6617 15.9123 50.7499 15.8853C50.8045 15.8635 50.7556 15.89 55.6331 12.235C55.7583 12.143 55.7308 3.35527 55.6995 3.26798ZM41.9831 4.84052L50.4838 6.15879V15.447L42.2051 13.5827L41.9831 4.84052ZM55.3129 11.975L50.888 15.2956V6.10329L55.3129 3.68021V11.975Z" fill="#562C13"/>
<path d="M33.158 15.125V24.6641L27.8711 28.572V17.9983L33.158 15.125Z" fill="white"/>
<path d="M27.8712 17.9943L18.2168 16.5L18.389 26.4992L27.8712 28.568V17.9943Z" fill="#FEF2EB"/>
<path d="M33.3601 15.1184C33.3601 14.8666 33.3743 15.0122 24.0458 13.8282C23.96 13.8173 18.1494 16.302 18.1053 16.3324C17.9791 16.4182 18.019 16.3352 18.1888 26.5014C18.1896 26.5467 18.2058 26.5904 18.2345 26.6255C18.2632 26.6605 18.303 26.6848 18.3472 26.6945C18.3947 26.7049 27.847 28.7756 27.9048 28.7656C27.918 28.7635 27.9309 28.7598 27.9432 28.7547L27.9518 28.7514L27.9665 28.7443L27.9902 28.7286C33.501 24.8596 33.3601 24.8165 33.3601 24.6576V15.1184ZM18.4226 16.7356L27.6729 18.1668V28.3183L18.5887 26.3354L18.4226 16.7356ZM32.9578 24.5575L28.0732 28.1679V18.1112L32.9592 15.4548L32.9578 24.5575Z" fill="#562C13"/>
<path d="M35.9169 50.75V57.7038L32.0664 60.5197V52.8192L35.9169 50.75Z" fill="white"/>
<path d="M32.0654 52.8186L25.0547 51.7266L25.1695 59.0247L32.0654 60.519V52.8186Z" fill="#FEF2EB"/>
<path d="M36.0226 50.6007C35.4694 50.4888 29.3216 49.7208 29.2291 49.7592C25.9768 51.115 25.2031 51.4233 24.9882 51.5352C24.9486 51.5501 24.9145 51.5766 24.8904 51.6114C24.8663 51.6461 24.8535 51.6874 24.8535 51.7297C24.9123 59.2248 24.8844 59.1683 25.1268 59.221C27.2102 59.6735 32.0858 60.7219 32.137 60.7067L36.0344 57.8638C36.1625 57.7689 36.117 57.8638 36.117 50.7701C36.117 50.6961 36.1004 50.6164 36.0226 50.6007ZM25.2596 51.9617L31.8642 52.9906V60.2693L25.3682 58.86L25.2596 51.9617ZM35.7147 57.6005L32.267 60.1223V52.9384L35.7147 51.0855V57.6005Z" fill="#562C13"/>
<path d="M56.8331 54.9453V62.8758L52.4082 66.1514V57.3589L56.8331 54.9453Z" fill="white"/>
<path d="M52.4086 57.3579L44.3633 56.0938L44.5355 64.4261L52.4086 66.1504V57.3579Z" fill="#FEF2EB"/>
<path d="M57.0349 54.9061C57.0274 54.8695 57.0102 54.8356 56.9852 54.8079C56.9602 54.7802 56.9282 54.7597 56.8926 54.7486C56.8451 54.7339 49.2514 53.8031 49.1722 53.8368C44.2122 55.935 44.2605 55.9075 44.2183 55.9549C44.1467 55.9549 44.1766 56.2286 44.3379 64.4276C44.3426 64.6738 44.3289 64.4589 52.3685 66.3441C52.3965 66.3511 52.4257 66.3516 52.4539 66.3455C52.4822 66.3394 52.5086 66.3269 52.5312 66.309C57.1682 63.0501 57.0377 63.0297 57.0377 62.8717L57.0349 54.9061ZM44.5708 56.3292L52.2081 57.5298V65.9001L44.7354 64.2611L44.5708 56.3292ZM56.634 62.7725L52.6114 65.7506V57.4743L56.634 55.2803V62.7725Z" fill="#562C13"/>
<path d="M73.0396 45.4609V51.9546L69.4766 54.5983V47.4149L73.0396 45.4609Z" fill="white"/>
<path d="M69.4776 47.4169L62.8691 46.3828L62.9839 53.2213L69.4776 54.6003V47.4169Z" fill="#FEF2EB"/>
<path d="M66.8566 44.5156C66.8016 44.509 63.5204 45.8629 62.8321 46.1921C62.7766 46.2186 62.6646 46.2343 62.666 46.3856C62.7253 53.4034 62.6973 53.3655 62.9402 53.4172L69.4306 54.7957C69.5591 54.8213 69.2541 55.0054 73.1586 52.1179C73.2853 52.023 73.2402 52.1179 73.2402 45.4625C73.2402 45.2301 73.2174 45.2751 66.8566 44.5156ZM63.0721 46.6176L69.2745 47.5886V54.3536L63.1807 53.0591L63.0721 46.6176ZM72.8375 51.8551L69.6767 54.1999V47.5355L72.8375 45.8026V51.8551Z" fill="#562C13"/>
<path d="M33.0646 18.0789L32.7871 17.5756L34.298 16.7421L34.576 17.245L33.0646 18.0789ZM36.0849 16.4101L35.8074 15.9068L37.3169 15.0738L37.5944 15.5771L36.0849 16.4101ZM39.1038 14.7436L38.8258 14.2408L40.3353 13.4073L40.6133 13.9106L39.1038 14.7436ZM42.1222 13.0771L41.8447 12.5743L43.3542 11.7408L43.6317 12.2441L42.1222 13.0771ZM45.1411 11.4111L44.8631 10.9078L45.4888 10.5625L45.7668 11.0653L45.1411 11.4111Z" fill="#FEF2EB"/>
<path d="M66.7856 14.5793L66.2244 14.3578L66.435 13.8231L66.9967 14.0447L66.7856 14.5793ZM64.6206 13.7254L63.0172 13.0921L63.2283 12.5575L64.8316 13.1908L64.6206 13.7254ZM61.4138 12.4593L59.81 11.826L60.0211 11.2914L61.6249 11.9247L61.4138 12.4593ZM58.2071 11.1918L56.6037 10.5585L56.8148 10.0239L58.4182 10.6572L58.2071 11.1918ZM54.9999 9.92571L53.3965 9.29243L53.6057 8.75781L55.2091 9.3911L54.9999 9.92571Z" fill="#FEF2EB"/>
<path d="M60.2763 27.8891L59.9414 27.4224L60.5785 26.9646L60.9134 27.4314L60.2763 27.8891ZM62.3161 26.4252L61.9807 25.9589L63.3811 24.9528L63.7164 25.4191L62.3161 26.4252ZM65.1149 24.4134L64.7795 23.9467L66.1798 22.941L66.5152 23.4078L65.1149 24.4134ZM67.9137 22.4016L67.5783 21.9349L68.9786 20.9292L69.314 21.396L67.9137 22.4016ZM70.7125 20.3898L70.379 19.9197L71.7793 18.9141L72.1147 19.3808L70.7125 20.3898Z" fill="#FEF2EB"/>
<path d="M42.5764 58.8903L40.9384 58.3509L41.1177 57.8049L42.7557 58.3443L42.5764 58.8903ZM39.3033 57.8116L37.6653 57.2722L37.845 56.7267L39.4826 57.266L39.3033 57.8116ZM36.0301 56.7333L34.3926 56.194L34.5724 55.6484L36.2094 56.1878L36.0301 56.7333Z" fill="#FEF2EB"/>
<path d="M56.9982 58.1694L56.6699 57.695L58.085 56.7102L58.4132 57.1818L56.9982 58.1694ZM59.8283 56.1998L59.5 55.7283L60.9151 54.743L61.2433 55.2174L59.8283 56.1998ZM62.6584 54.2298L62.3301 53.7582L63.7452 52.7734L64.0734 53.245L62.6584 54.2298Z" fill="#FEF2EB"/>
<path d="M50.512 55.0602H49.9375V53.3363H50.512V55.0602ZM50.512 51.612H49.9375V49.8881H50.512V51.612ZM50.512 48.1642H49.9375V46.4404H50.512V48.1642ZM50.512 44.716H49.9375V42.9922H50.512V44.716Z" fill="#FEF2EB"/>
<path d="M14.6925 27.3039L14.3984 26.8101L15.8794 25.9278L16.1735 26.4216L14.6925 27.3039ZM17.6545 25.5392L17.3604 25.0454L18.8419 24.1631L19.136 24.655L17.6545 25.5392ZM20.617 23.7746L20.3228 23.2808L21.8038 22.3984L22.0979 22.8923L20.617 23.7746Z" fill="#FEF2EB"/>
<path d="M73.4263 46.9711L73.1113 46.4906L74.5534 45.5457L74.8684 46.0267L73.4263 46.9711ZM76.3105 45.0817L75.9955 44.6007L77.4371 43.6562L77.7526 44.1368L76.3105 45.0817Z" fill="#FEF2EB"/>
<path d="M12.7571 29.2057C13.1077 29.2057 13.4438 29.0665 13.6917 28.8186C13.9395 28.5708 14.0787 28.2346 14.0787 27.8841C14.0787 27.5336 13.9395 27.1974 13.6917 26.9496C13.4438 26.7017 13.1077 26.5625 12.7571 26.5625C12.4066 26.5625 12.0705 26.7017 11.8226 26.9496C11.5748 27.1974 11.4355 27.5336 11.4355 27.8841C11.4355 28.2346 11.5748 28.5708 11.8226 28.8186C12.0705 29.0665 12.4066 29.2057 12.7571 29.2057Z" fill="white"/>
<path d="M12.7573 29.4053C12.3534 29.4053 11.9661 29.2449 11.6804 28.9592C11.3948 28.6736 11.2344 28.2863 11.2344 27.8823C11.2344 27.4784 11.3948 27.0911 11.6804 26.8054C11.9661 26.5198 12.3534 26.3594 12.7573 26.3594C13.1613 26.3594 13.5486 26.5198 13.8342 26.8054C14.1199 27.0911 14.2803 27.4784 14.2803 27.8823C14.2803 28.2863 14.1199 28.6736 13.8342 28.9592C13.5486 29.2449 13.1613 29.4053 12.7573 29.4053ZM12.7573 26.7616C12.61 26.7616 12.4641 26.7905 12.328 26.8469C12.1918 26.9032 12.0681 26.9858 11.9639 27.0899C11.8597 27.194 11.777 27.3177 11.7206 27.4538C11.6641 27.5899 11.635 27.7357 11.635 27.8831C11.6349 28.0304 11.6639 28.1763 11.7202 28.3124C11.7765 28.4486 11.8591 28.5723 11.9632 28.6765C12.0674 28.7807 12.191 28.8634 12.3271 28.9198C12.4632 28.9763 12.6091 29.0054 12.7564 29.0054C13.0541 29.0055 13.3396 28.8874 13.5502 28.677C13.7607 28.4666 13.8791 28.1812 13.8792 27.8835C13.8794 27.5859 13.7612 27.3003 13.5508 27.0898C13.3404 26.8792 13.055 26.7608 12.7573 26.7607V26.7616Z" fill="#FEF2EB"/>
<path d="M78.9583 43.6823C79.3088 43.6823 79.645 43.543 79.8928 43.2952C80.1407 43.0473 80.2799 42.7112 80.2799 42.3607C80.2799 42.0102 80.1407 41.674 79.8928 41.4261C79.645 41.1783 79.3088 41.0391 78.9583 41.0391C78.6078 41.0391 78.2717 41.1783 78.0238 41.4261C77.776 41.674 77.6367 42.0102 77.6367 42.3607C77.6367 42.7112 77.776 43.0473 78.0238 43.2952C78.2717 43.543 78.6078 43.6823 78.9583 43.6823Z" fill="white"/>
<path d="M78.9591 43.882C78.7339 43.8822 78.5114 43.8323 78.3077 43.7361C78.1041 43.6398 77.9243 43.4996 77.7813 43.3255C77.6384 43.1514 77.5359 42.9478 77.4812 42.7293C77.4264 42.5107 77.4209 42.2828 77.4649 42.0619C77.5233 41.7663 77.6681 41.4947 77.8812 41.2816C78.0942 41.0685 78.3657 40.9235 78.6612 40.8651C78.8821 40.8212 79.11 40.8269 79.3284 40.8817C79.5468 40.9365 79.7504 41.039 79.9245 41.1818C80.0986 41.3246 80.2389 41.5043 80.3352 41.7078C80.4316 41.9113 80.4817 42.1337 80.4819 42.3588C80.4815 42.7626 80.321 43.1498 80.0355 43.4353C79.75 43.7209 79.3629 43.8815 78.9591 43.882ZM78.9591 41.2384C78.7376 41.2387 78.5211 41.3046 78.337 41.4279C78.1528 41.5511 78.0093 41.726 77.9245 41.9307C77.8396 42.1354 77.8173 42.3606 77.8603 42.5779C77.9033 42.7953 78.0096 42.995 78.166 43.152C78.3229 43.3087 78.5227 43.4153 78.7402 43.4586C78.9577 43.5018 79.1831 43.4796 79.388 43.3949C79.593 43.3102 79.7682 43.1665 79.8914 42.982C80.0145 42.7976 80.08 42.5806 80.0796 42.3588C80.0792 42.0618 79.9611 41.777 79.751 41.567C79.541 41.3569 79.2562 41.2388 78.9591 41.2384Z" fill="#FEF2EB"/>
</svg>
