<svg width="469" height="297" viewBox="0 0 469 297" fill="none" xmlns="http://www.w3.org/2000/svg">
<path d="M327.003 181.039H106.191V318.432H327.003V181.039Z" fill="#FEF2EB"/>
<path d="M340.878 337.42C340.968 337.425 341.058 337.409 341.141 337.375C341.223 337.341 341.298 337.291 341.361 337.227C341.422 337.162 341.468 337.085 341.497 337C341.527 336.914 341.536 336.825 341.527 336.736V175.58C341.675 173.903 341.441 172.215 340.843 170.641C340.246 169.068 339.3 167.65 338.077 166.494C334.371 163.299 328.991 164.034 324.414 164.034H104.007C97.0993 164.034 92.869 167.81 92.869 175.783V336.002C92.869 337.408 92.3583 337.227 93.984 337.305C100.833 337.616 139.422 337.42 340.878 337.42ZM106.197 181.033H327.002V318.425H106.197V181.033Z" fill="#562C13"/>
<path d="M384.156 22.2891C342.208 22.2891 308.224 51.3146 308.224 86.9822C308.35 95.3638 310.235 103.626 313.756 111.233C317.278 118.84 322.357 125.623 328.666 131.143C320.792 142.736 305.496 166.079 308.224 168.048C310.894 169.975 335.836 154.242 350.26 144.86C401.236 166.34 460 134.608 460 86.9063C460 51.2267 426.016 22.2891 384.156 22.2891Z" fill="#FEF2EB"/>
<path d="M363.077 62.5313C358.316 62.5303 353.662 63.9413 349.702 66.5858C345.743 69.2303 342.657 72.9895 340.834 77.3881C339.011 81.7867 338.534 86.627 339.462 91.297C340.39 95.9669 342.683 100.257 346.049 103.624C349.415 106.991 353.705 109.284 358.374 110.213C363.044 111.143 367.884 110.666 372.283 108.844C376.682 107.022 380.442 103.937 383.088 99.9782C385.733 96.0194 387.145 91.365 387.145 86.6037C387.14 80.2218 384.602 74.1027 380.09 69.5895C375.578 65.0763 369.459 62.5379 363.077 62.5313ZM339.812 86.1972C339.971 80.1324 342.492 74.3694 346.838 70.136C351.184 65.9027 357.011 63.5336 363.077 63.5336C369.144 63.5336 374.971 65.9027 379.317 70.136C383.663 74.3694 386.184 80.1324 386.343 86.1972H339.812ZM386.343 86.9963C386.225 91.52 384.79 95.9113 382.215 99.6324C379.64 103.354 376.036 106.243 371.844 107.948C367.651 109.652 363.053 110.097 358.612 109.229C354.171 108.36 350.079 106.216 346.838 103.058C342.492 98.8245 339.971 93.0613 339.812 86.9963H386.343Z" fill="#562C13"/>
<path d="M384.99 119.808C384.931 119.808 384.873 119.796 384.819 119.771C384.766 119.746 384.719 119.71 384.681 119.664C384.644 119.619 384.617 119.566 384.602 119.509C384.588 119.452 384.586 119.392 384.597 119.335C385.71 113.49 384.821 112.366 385.56 112.195C386.335 112.004 387.152 112.085 387.874 112.424C388.597 112.763 389.182 113.339 389.531 114.057C389.757 114.726 389.787 115.447 389.617 116.133C389.448 116.819 389.086 117.443 388.575 117.93C387.542 118.826 386.314 119.469 384.99 119.808ZM386.047 112.916C386.024 114.896 385.842 116.871 385.501 118.822C386.424 118.482 387.28 117.981 388.029 117.344C388.424 116.97 388.706 116.493 388.841 115.967C388.977 115.44 388.962 114.886 388.797 114.368C388.546 113.871 388.147 113.464 387.654 113.204C387.161 112.945 386.6 112.845 386.047 112.919V112.916Z" fill="#562C13"/>
<path d="M389.33 51.5924C388.588 48.9908 387.542 46.4862 386.211 44.131C386.174 44.0668 386.12 44.0142 386.055 43.9787C385.99 43.9433 385.917 43.9265 385.843 43.9302C385.769 43.9339 385.697 43.9583 385.636 44.0004C385.575 44.0426 385.527 44.101 385.498 44.1689C384.376 46.6906 383.414 49.2804 382.618 51.923C382.596 51.9989 382.596 52.0799 382.62 52.1555C382.643 52.2312 382.689 52.2981 382.75 52.3477C382.812 52.3973 382.887 52.4274 382.966 52.4342C383.045 52.4409 383.124 52.424 383.194 52.3855C383.287 52.3344 383.355 52.2486 383.385 52.1468C383.638 51.2808 383.923 50.3968 384.247 49.4768C385.265 48.9504 386.411 48.7229 387.553 48.8206C387.923 49.7785 388.259 50.7744 388.563 51.8172C388.589 51.8897 388.634 51.9535 388.694 52.001C388.754 52.0485 388.827 52.0777 388.904 52.085C388.98 52.0924 389.057 52.0776 389.125 52.0426C389.193 52.0075 389.25 51.9535 389.289 51.8871C389.34 51.7978 389.354 51.6923 389.33 51.5924ZM384.624 48.443C385.002 47.4322 385.423 46.3704 385.909 45.2367C386.387 46.1267 386.823 47.0446 387.222 48.0005C386.335 47.9774 385.453 48.1277 384.624 48.443Z" fill="#562C13"/>
<path d="M425.305 119.002C422.116 117.68 422.154 113.146 425.263 112.11C425.716 111.922 426.217 111.887 426.692 112.008C427.167 112.13 427.59 112.401 427.898 112.783C427.949 112.844 427.981 112.918 427.99 112.997C427.999 113.076 427.984 113.156 427.947 113.226C427.91 113.296 427.853 113.354 427.783 113.392C427.713 113.429 427.633 113.445 427.554 113.437C427.449 113.428 427.352 113.377 427.284 113.295C427.081 113.044 426.802 112.865 426.488 112.786C426.175 112.707 425.845 112.731 425.547 112.856C424.997 113.072 424.526 113.452 424.199 113.944C423.871 114.436 423.702 115.016 423.714 115.607C423.724 116.198 423.916 116.771 424.263 117.25C424.609 117.729 425.094 118.09 425.653 118.285C425.842 118.392 426.052 118.459 426.269 118.483C426.485 118.507 426.704 118.487 426.913 118.424C427.122 118.361 427.316 118.257 427.483 118.117C427.65 117.977 427.787 117.805 427.886 117.61C427.907 117.563 427.938 117.519 427.976 117.483C428.014 117.448 428.059 117.419 428.107 117.401C428.156 117.382 428.208 117.373 428.261 117.375C428.313 117.376 428.365 117.388 428.412 117.41C428.46 117.431 428.504 117.461 428.54 117.499C428.576 117.537 428.604 117.581 428.623 117.63C428.642 117.679 428.651 117.731 428.65 117.783C428.649 117.836 428.637 117.887 428.616 117.935C428.403 118.376 428.06 118.742 427.633 118.982C427.207 119.223 426.717 119.327 426.229 119.282C425.905 119.252 425.591 119.157 425.305 119.002Z" fill="#562C13"/>
<path d="M345.89 115.601C346.616 115.189 347.327 114.341 347.064 113.555C346.775 112.689 345.742 112.421 345.02 112.303C344.065 112.038 343.051 112.084 342.124 112.433C342.056 112.462 341.998 112.51 341.955 112.57C341.913 112.63 341.888 112.701 341.883 112.774C341.878 112.848 341.893 112.921 341.928 112.986C341.962 113.051 342.013 113.106 342.077 113.144L341.552 119.647C341.515 120.123 342.163 120.153 342.635 120.095C343.41 119.987 344.191 119.926 344.973 119.912C345.502 119.851 346.003 119.64 346.415 119.304C346.828 118.967 347.136 118.52 347.302 118.014C347.357 117.513 347.25 117.008 346.996 116.574C346.741 116.139 346.354 115.798 345.89 115.601ZM344.858 113.085C345.62 113.211 346.593 113.504 346.233 114.188C346 114.585 345.636 114.889 345.204 115.046C344.358 115.139 343.519 115.284 342.691 115.479L342.891 113.025C343.542 112.894 344.215 112.915 344.858 113.085ZM346.531 117.834C346.405 118.174 346.19 118.473 345.907 118.699C345.624 118.925 345.284 119.07 344.925 119.117C344.074 119.131 343.225 119.198 342.383 119.317L342.625 116.32C343.525 116.073 344.471 116.057 345.379 116.272C345.72 116.363 346.02 116.567 346.229 116.851C346.439 117.135 346.545 117.482 346.531 117.834Z" fill="#562C13"/>
<path d="M386.535 68.375C382.537 68.3754 378.628 69.5615 375.304 71.7833C371.979 74.0051 369.388 77.1628 367.858 80.8571C366.329 84.5514 365.929 88.6163 366.709 92.5379C367.49 96.4596 369.415 100.062 372.243 102.889C375.071 105.716 378.673 107.641 382.595 108.421C386.517 109.2 390.582 108.8 394.276 107.269C397.97 105.739 401.127 103.147 403.348 99.8221C405.569 96.4972 406.754 92.5884 406.754 88.5899C406.748 83.2296 404.616 78.0907 400.825 74.3008C397.035 70.5109 391.895 68.3798 386.535 68.375ZM371.43 76.4038L373.208 77.6554L371.794 79.5692L370.018 78.3855C370.447 77.6963 370.919 77.0341 371.43 76.4038ZM386.535 108.006C383.149 107.998 379.823 107.106 376.888 105.417C373.952 103.729 371.509 101.303 369.799 98.3802C368.09 95.4572 367.173 92.1382 367.141 88.7521C367.109 85.3659 367.961 82.03 369.615 79.0748C371.821 80.5461 371.72 80.5131 371.893 80.5131C372.167 80.5131 372.065 80.5551 373.862 78.1159L403.098 98.7113C401.364 101.549 398.93 103.893 396.03 105.521C393.13 107.148 389.861 108.004 386.535 108.006ZM371.952 75.7895C374.31 73.101 377.364 71.116 380.778 70.0536C384.193 68.9912 387.834 68.8927 391.301 69.7689C394.768 70.645 397.925 72.4619 400.425 75.019C402.925 77.5761 404.669 80.774 405.467 84.2598C406.534 88.9312 405.836 93.8326 403.507 98.0201L371.952 75.7895Z" fill="#562C13"/>
<path d="M391.855 85.5061V80.9933C391.855 80.8873 391.898 80.7857 391.972 80.7108C392.047 80.6358 392.149 80.5938 392.255 80.5938C392.361 80.5938 392.463 80.6358 392.538 80.7108C392.612 80.7857 392.655 80.8873 392.655 80.9933V85.5061C392.655 85.6121 392.612 85.7137 392.538 85.7887C392.463 85.8636 392.361 85.9057 392.255 85.9057C392.149 85.9057 392.047 85.8636 391.972 85.7887C391.898 85.7137 391.855 85.6121 391.855 85.5061Z" fill="#562C13"/>
<path d="M411.058 98.9629C409.886 98.9629 408.415 98.7422 407.205 98.7422C407.105 98.7417 407.009 98.7783 406.936 98.8448C406.862 98.9112 406.815 99.0029 406.805 99.1018L406.256 104.496C406.251 104.548 406.256 104.601 406.271 104.652C406.286 104.702 406.311 104.749 406.344 104.79C406.378 104.831 406.419 104.865 406.465 104.89C406.512 104.915 406.563 104.93 406.615 104.936C406.668 104.941 406.721 104.936 406.771 104.921C406.822 104.906 406.869 104.881 406.909 104.847C406.95 104.814 406.984 104.773 407.009 104.726C407.034 104.68 407.05 104.629 407.055 104.577L407.326 101.92C408.051 101.79 408.791 101.767 409.523 101.854C409.629 101.854 409.731 101.812 409.806 101.737C409.881 101.662 409.923 101.56 409.923 101.454C409.923 101.348 409.881 101.247 409.806 101.172C409.731 101.097 409.629 101.055 409.523 101.055C408.821 100.991 408.115 101 407.415 101.083L407.571 99.5483C408.68 99.5832 409.954 99.762 411.067 99.762C411.12 99.7615 411.172 99.7507 411.22 99.7301C411.268 99.7095 411.312 99.6796 411.348 99.6421C411.385 99.6046 411.414 99.5603 411.433 99.5116C411.453 99.463 411.463 99.4109 411.462 99.3585C411.462 99.3059 411.451 99.254 411.431 99.2056C411.41 99.1572 411.38 99.1133 411.343 99.0765C411.305 99.0398 411.261 99.0108 411.212 98.9913C411.163 98.9718 411.111 98.9621 411.058 98.9629Z" fill="#562C13"/>
<path d="M425.933 108.498L387.292 54.6677C387.238 54.5906 387.158 54.5355 387.067 54.5122C386.975 54.489 386.878 54.4991 386.794 54.5409C386.738 54.5682 386.689 54.6082 386.651 54.6577L345.81 108.049C345.776 108.093 345.751 108.143 345.738 108.197C345.725 108.252 345.723 108.308 345.733 108.363C345.743 108.417 345.764 108.47 345.795 108.516C345.827 108.562 345.867 108.601 345.915 108.63C345.978 108.669 346.05 108.69 346.124 108.69L425.609 109.131C425.682 109.132 425.755 109.112 425.818 109.074C425.881 109.035 425.932 108.98 425.966 108.915C425.999 108.849 426.014 108.775 426.008 108.702C426.003 108.628 425.977 108.558 425.933 108.498ZM386.57 108.117L346.934 107.897L386.57 56.0811V108.117ZM387.369 105.719H389.433V108.133L387.369 108.122V105.719ZM390.232 108.137V105.32C390.232 105.214 390.19 105.112 390.115 105.037C390.04 104.962 389.938 104.92 389.832 104.92H387.369V56.143L424.826 108.328L390.232 108.137Z" fill="#562C13"/>
<path d="M361.638 80.8022C360.854 80.7898 360.078 80.9548 359.367 81.2847C359.273 81.3324 359.201 81.4156 359.167 81.5161C359.134 81.6165 359.142 81.7261 359.189 81.8211C359.212 81.8681 359.244 81.9101 359.284 81.9446C359.324 81.9792 359.37 82.0055 359.419 82.0222C359.469 82.0389 359.522 82.0456 359.574 82.042C359.627 82.0383 359.678 82.0243 359.725 82.0008C359.981 81.875 360.25 81.7811 360.529 81.7192C360.568 81.9569 360.603 82.1936 360.629 82.4354C360.576 82.6103 360.481 82.7695 360.352 82.899C360.223 83.0286 360.064 83.1246 359.89 83.1785C359.693 83.2375 359.485 83.245 359.285 83.2004C359.084 83.1558 358.899 83.0606 358.746 82.9238C358.353 82.4427 358.155 81.8308 358.193 81.2104C358.231 80.59 358.502 80.0069 358.952 79.5776C359.082 79.4966 359.234 79.4567 359.387 79.4629C359.541 79.4691 359.688 79.5213 359.812 79.6126C359.849 79.6499 359.893 79.6795 359.941 79.6996C359.99 79.7197 360.042 79.7298 360.094 79.7294C360.147 79.7298 360.199 79.7197 360.248 79.6996C360.296 79.6795 360.34 79.6499 360.377 79.6126C360.86 79.1291 359.778 78.2691 358.552 78.8874C358.111 79.1938 357.788 79.6422 357.637 80.158C356.591 82.5133 358.836 85.1023 360.746 83.612C360.791 83.6857 360.86 83.7426 360.941 83.774C361.022 83.8054 361.11 83.8096 361.194 83.786C361.277 83.7625 361.351 83.7124 361.403 83.6433C361.456 83.5743 361.485 83.49 361.485 83.4032C361.479 82.8004 361.423 82.1991 361.319 81.6053C361.425 81.5995 361.53 81.5965 361.636 81.5963C361.733 81.5856 361.824 81.5393 361.889 81.4662C361.955 81.3931 361.991 81.2984 361.992 81.2002C361.992 81.1019 361.956 81.007 361.891 80.9336C361.825 80.8602 361.735 80.8134 361.638 80.8022Z" fill="#562C13"/>
<path d="M369.639 74.784C369.627 74.6787 369.574 74.5823 369.491 74.5153C369.409 74.4494 369.303 74.4189 369.198 74.4304C368.396 74.5114 367.59 74.5471 366.785 74.5373C366.797 74.0279 366.829 73.5214 366.865 73.025H368.802C368.908 73.025 369.01 72.9829 369.085 72.908C369.16 72.8331 369.202 72.7314 369.202 72.6255C369.202 72.5195 369.16 72.4179 369.085 72.3429C369.01 72.268 368.908 72.2259 368.802 72.2259H366.923C366.957 71.7535 366.986 71.27 366.996 70.7776C367.704 70.6778 368.418 70.6197 369.133 70.6038C369.239 70.6038 369.34 70.5617 369.415 70.4867C369.49 70.4118 369.532 70.3102 369.532 70.2042C369.532 70.0983 369.49 69.9966 369.415 69.9217C369.34 69.8468 369.239 69.8047 369.133 69.8047C368.269 69.8277 367.406 69.9016 366.551 70.0274C366.454 70.0399 366.365 70.0873 366.3 70.1609C366.235 70.2345 366.2 70.3291 366.2 70.427C366.2 71.1831 365.98 74.1557 365.98 74.9418C365.98 75.0478 366.023 75.1494 366.097 75.2243C366.172 75.2993 366.274 75.3414 366.38 75.3414C367.35 75.3594 368.32 75.3213 369.286 75.2275C369.338 75.2224 369.389 75.2066 369.435 75.1812C369.481 75.1558 369.522 75.1212 369.554 75.0797C369.588 75.0387 369.613 74.9914 369.627 74.9406C369.642 74.8897 369.646 74.8365 369.639 74.784Z" fill="#562C13"/>
<path d="M349.44 88.4436C350.207 87.44 350.818 86.326 351.251 85.1393C351.269 85.0898 351.296 85.0442 351.331 85.0053C351.367 84.9663 351.409 84.9348 351.457 84.9125C351.505 84.8902 351.556 84.8776 351.609 84.8754C351.661 84.8731 351.714 84.8814 351.763 84.8996C351.812 84.9175 351.858 84.9449 351.897 84.9803C351.935 85.0158 351.967 85.0585 351.989 85.1061C352.011 85.1537 352.024 85.2052 352.026 85.2577C352.029 85.3102 352.021 85.3627 352.003 85.412C351.541 86.6773 350.89 87.8649 350.071 88.934C350.006 89.0177 349.91 89.0722 349.805 89.0854C349.7 89.0986 349.594 89.0695 349.51 89.0044C349.426 88.9394 349.372 88.8438 349.359 88.7386C349.345 88.6334 349.374 88.5273 349.44 88.4436Z" fill="#562C13"/>
<path d="M351.474 88.2089C351.882 87.1911 352.373 86.2792 353.028 84.9866C353.076 84.8918 353.159 84.8197 353.26 84.7861C353.36 84.7526 353.47 84.7604 353.565 84.8078C353.66 84.8553 353.732 84.9384 353.765 85.039C353.799 85.1396 353.791 85.2494 353.744 85.3442C353.087 86.6427 352.607 87.5317 352.216 88.5056C352.197 88.5546 352.169 88.5993 352.132 88.6371C352.095 88.6749 352.052 88.705 352.003 88.7257C351.955 88.7465 351.903 88.7574 351.85 88.7578C351.798 88.7583 351.746 88.7482 351.697 88.7283C351.648 88.709 351.604 88.6802 351.566 88.6435C351.528 88.6069 351.498 88.5632 351.478 88.515C351.457 88.4667 351.446 88.4148 351.445 88.3623C351.445 88.3098 351.455 88.2577 351.474 88.2089Z" fill="#562C13"/>
<path d="M372.865 87.9369L374.736 84.6347C374.762 84.5886 374.797 84.5481 374.838 84.5154C374.88 84.4828 374.927 84.4587 374.978 84.4445C375.029 84.4303 375.082 84.4262 375.134 84.4327C375.186 84.4391 375.237 84.4558 375.283 84.4819C375.329 84.5075 375.37 84.5421 375.402 84.5836C375.435 84.6251 375.459 84.6727 375.474 84.7236C375.488 84.7745 375.492 84.8278 375.485 84.8802C375.479 84.9327 375.462 84.9833 375.436 85.0292L373.564 88.3315C373.538 88.3777 373.504 88.4183 373.462 88.451C373.421 88.4838 373.373 88.5079 373.322 88.5222C373.271 88.5364 373.218 88.5403 373.165 88.5338C373.113 88.5273 373.062 88.5105 373.016 88.4843C372.971 88.4583 372.93 88.4236 372.898 88.382C372.865 88.3404 372.841 88.2929 372.827 88.242C372.813 88.1912 372.809 88.1381 372.815 88.0857C372.822 88.0334 372.839 87.9828 372.865 87.9369Z" fill="#562C13"/>
<path d="M374.168 89.0478L376.48 84.7527C376.536 84.6711 376.62 84.6129 376.716 84.5895C376.812 84.5661 376.913 84.5791 377 84.6259C377.088 84.6725 377.155 84.7502 377.188 84.8438C377.221 84.9374 377.218 85.04 377.179 85.1313L374.875 89.4264C374.822 89.5149 374.737 89.5795 374.637 89.607C374.538 89.6345 374.432 89.6227 374.341 89.574C374.25 89.5253 374.181 89.4435 374.149 89.3456C374.117 89.2476 374.123 89.141 374.168 89.0478Z" fill="#562C13"/>
<path d="M240.716 249.274C238.336 248.909 239.128 248.951 238.87 249.206C236.769 251.412 234.013 252.882 231.011 253.399C228.008 253.916 224.919 253.452 222.202 252.076C221.302 251.64 218.585 250.038 218.238 249C218.238 249 223.703 306.185 224.455 317.662H246.942C245.782 300.223 243.822 280.742 240.716 249.274Z" fill="#FEF2EB"/>
<path d="M219.609 227.555V238.829C225.362 241.208 231.825 241.208 237.578 238.829V233.087C231.222 232.765 225.046 230.864 219.609 227.555Z" fill="#FEF2EB"/>
<path d="M205.323 137.031C202.436 137.332 199.737 138.608 197.673 140.65C194.801 143.621 193.101 147.532 192.89 151.659C192.315 160.018 192.567 168.414 193.642 176.723C197.005 176.771 200.227 178.089 202.66 180.412C205.29 164.92 212.859 150.057 214.273 148.642C212.922 146.897 205.454 137.237 205.323 137.031Z" fill="#FEF2EB"/>
<path d="M269.615 136.208V136.009C269.614 135.919 269.631 135.829 269.665 135.746C269.699 135.663 269.75 135.587 269.814 135.524C269.942 135.397 270.115 135.325 270.296 135.325C272.02 135.431 273.679 136.024 275.079 137.035C274.197 134.74 273.001 132.579 271.526 130.612C269.966 128.545 267.956 126.862 265.648 125.689C263.339 124.517 260.794 123.887 258.205 123.847C257.589 123.917 257.453 123.233 257.589 122.823C258.495 121.129 258.894 119.209 258.736 117.293C258.579 115.378 257.872 113.549 256.701 112.025C255.832 111.011 254.792 110.156 253.628 109.5C253.691 111.242 253.362 112.975 252.664 114.572C251.966 116.169 250.918 117.588 249.597 118.724C248.048 119.805 246.223 120.421 244.336 120.5C237.864 120.886 225.782 119.797 218.989 121.388C215.588 122.189 212.531 124.051 210.257 126.703C207.984 129.356 206.612 132.662 206.34 136.145C206.497 136.304 208.237 138.581 215.084 147.486C219.324 146.222 223.634 145.214 227.998 144.481C245.064 141.853 265.035 146.77 269.331 163.951C274.189 156.336 272.796 144.462 269.615 136.208Z" fill="#FEF2EB"/>
<path d="M383.914 195.304C380.742 194.76 377.495 194.83 374.35 195.51C374.226 195.531 374.098 195.516 373.982 195.469C373.866 195.421 373.765 195.342 373.691 195.24C373.617 195.139 373.573 195.019 373.564 194.893C373.554 194.768 373.58 194.643 373.638 194.531C373.717 194.382 373.849 194.267 374.008 194.21C375.148 194.21 382.958 191.031 382.958 189.975C382.799 189.656 382.358 189.553 381.864 189.429C378.969 189.221 376.06 189.499 373.256 190.249C373.171 190.272 373.082 190.277 372.994 190.265C372.907 190.253 372.823 190.224 372.747 190.18C372.671 190.136 372.604 190.077 372.551 190.007C372.497 189.936 372.458 189.856 372.436 189.771C372.413 189.686 372.408 189.597 372.42 189.51C372.432 189.423 372.461 189.338 372.505 189.262C372.549 189.186 372.608 189.12 372.678 189.066C372.749 189.013 372.829 188.974 372.914 188.951C374.759 188.435 376.561 187.772 378.301 186.97C379.147 186.602 381.171 185.674 381.581 184.862C380.816 184.491 379.969 184.326 379.121 184.381C373.729 184.633 368.375 185.411 363.134 186.705C362.521 186.846 361.898 186.002 362.453 185.534C364.413 184.029 366.08 182.177 367.372 180.069C367.707 179.451 368.259 177.961 367.304 177.961C365.172 177.961 356.119 183.847 352.134 187.661C350.235 189.481 349.499 193.282 349.26 196.796C349.026 200.363 349.26 199.607 349.26 204.732L366.137 205.62C366.691 204.194 367.574 202.918 368.714 201.898C369.853 200.877 371.218 200.139 372.696 199.745C374.612 199.178 382.349 197.948 384.583 195.714C384.321 195.578 384.115 195.374 383.914 195.304Z" fill="white"/>
<path d="M86.586 270.462C90.1558 269.123 87.1763 270.383 101.753 263.904C99.9751 259.266 100.184 259.891 100.184 259.598C99.0156 255.796 97.1374 252.25 94.6485 249.147C93.7078 248.18 92.5647 247.432 91.3012 246.959C88.0058 245.79 84.6251 244.877 81.1892 244.228C80.1749 244.022 75.0849 243.057 74.5626 243.954C74.1597 244.642 75.5885 245.795 76.064 246.139C77.8439 247.427 79.8329 248.398 81.9434 249.009C82.4868 249.215 82.693 250.238 81.9434 250.309C78.8421 250.803 69.5288 252.145 65.4062 254.056C64.8543 254.247 64.3606 254.576 63.9727 255.012C65.0502 256.09 71.9368 255.972 73.6725 255.832C74.5626 255.762 74.4923 257.062 73.6725 257.198C73.6725 257.432 74.4525 256.926 69.7138 257.949C67.996 258.181 66.3568 258.813 64.9284 259.795C63.9445 260.451 65.1204 260.87 66.294 261.025C69.0345 261.419 71.8126 261.465 74.5626 261.161C75.3121 261.161 75.5183 262.393 74.7664 262.529C71.7413 263.011 68.8077 263.953 66.0667 265.321C64.8956 266.138 64.5817 266.764 65.528 267.026C68.1913 267.769 75.6939 266.37 78.5985 266.244C82.3041 266.806 84.6465 267.183 86.586 270.462Z" fill="white"/>
<path d="M121.297 275.512C121.157 275.278 121.239 275.512 111.733 260.891C89.7686 270.759 99.4731 266.423 77.5039 276.196L84.1984 291.637C89.6866 289.215 107.329 282.59 121.297 275.512Z" fill="white"/>
<path d="M215.506 236.297C208.21 237.271 194.465 242.359 194.465 242.926L198.496 286.445L213.722 284.395C214.19 284.327 214.473 284.864 214.406 285.283L208.479 317.599H223.168C222.695 310.717 219.128 269.608 215.506 236.297Z" fill="white"/>
<path d="M212.909 285.904L197.946 287.816C197.536 287.883 197.264 287.474 197.264 287.134L193.165 243.477C190.841 244.648 188.525 245.819 186.332 247.166C156.001 265.919 145.523 297.129 145.273 297.382C144.804 297.85 144.483 297.686 144.247 297.45C136.634 291.488 129.547 284.882 123.067 277.706C122.73 277.359 122.453 276.954 122.111 276.612C114.302 280.594 95.8882 288.249 87.7461 291.505C93.6934 302.151 101.477 311.682 112.137 317.604H207.034L212.909 285.904Z" fill="white"/>
<path d="M336.505 205.422C335.685 208.02 328.512 229.403 328.238 230.087L369.572 231.863L371.076 207.336C367.569 207.146 369.221 207.176 336.505 205.424V205.422Z" fill="white"/>
<path d="M253.291 283.024C253.345 282.858 253.458 282.717 253.61 282.63C253.762 282.544 253.94 282.517 254.111 282.555L268.184 284.537L258.072 238.012C252.305 236.574 246.429 235.614 240.504 235.141C240.914 239.104 247.473 305.852 248.292 317.672H260.728C253.235 283.038 253.291 283.588 253.291 283.024Z" fill="white"/>
<path d="M327.757 231.375C326.871 234.034 319.875 254.384 315.869 264.168C315.5 265.077 315.042 265.946 314.501 266.764C311.632 270.317 307.565 266.733 305.347 264.372C303.486 262.424 301.5 260.598 299.402 258.907C287.76 249.32 274.203 242.332 259.64 238.412C269.818 285.44 269.752 284.952 269.752 285.493C269.697 285.659 269.583 285.798 269.432 285.884C269.281 285.971 269.103 285.998 268.932 285.962L254.859 283.98L262.168 317.661H315.869C319.889 316.593 323.837 315.27 327.689 313.7C346.325 306.369 355.821 277.82 360.55 258.359C362.595 250.097 364.192 241.73 365.333 233.296L327.757 231.375Z" fill="white"/>
<path d="M219.609 238.82V248.658C222.042 250.944 225.255 252.217 228.594 252.217C231.932 252.217 235.145 250.944 237.578 248.658V238.82C231.825 241.2 225.362 241.2 219.609 238.82Z" fill="white"/>
<path d="M265.862 158.615C263.911 155.163 261.083 152.288 257.663 150.281C239.603 139.96 216.552 148.641 215.784 148.641C215.587 149.037 214.955 149.826 214.828 150.213C209.281 159.958 205.551 170.63 203.819 181.709C203.778 181.821 203.71 181.922 203.621 182.001C203.532 182.081 203.424 182.137 203.308 182.164C203.191 182.191 203.07 182.189 202.955 182.157C202.839 182.126 202.734 182.066 202.648 181.983C200.137 179.422 195.717 176.982 192.4 178.087C181.269 180.774 191.554 204.144 201.242 199.319C201.915 198.984 202.512 198.813 202.512 199.609C204.427 209.661 209.971 218.657 218.089 224.886C229.419 232.798 243.152 233.229 251.292 228.985C273.02 217.657 272.06 170.011 265.862 158.615Z" fill="white"/>
<path d="M223.379 208.828C225.227 208.828 226.999 208.094 228.306 206.787C229.613 205.48 230.347 203.707 230.347 201.859C230.347 200.011 229.613 198.239 228.306 196.932C226.999 195.625 225.227 194.891 223.379 194.891C221.531 194.891 219.758 195.625 218.451 196.932C217.144 198.239 216.41 200.011 216.41 201.859C216.41 203.707 217.144 205.48 218.451 206.787C219.758 208.094 221.531 208.828 223.379 208.828Z" fill="#FEF2EB"/>
<path d="M266.34 206.609C268.188 206.609 269.96 205.875 271.267 204.568C272.574 203.261 273.308 201.489 273.308 199.64C273.308 197.792 272.574 196.02 271.267 194.713C269.96 193.406 268.188 192.672 266.34 192.672C264.492 192.672 262.719 193.406 261.412 194.713C260.105 196.02 259.371 197.792 259.371 199.64C259.371 201.489 260.105 203.261 261.412 204.568C262.719 205.875 264.492 206.609 266.34 206.609Z" fill="#FEF2EB"/>
<path d="M273.85 188.616C273.934 185.899 273.231 183.215 271.825 180.888C270.419 178.561 268.371 176.689 265.926 175.499C259.065 172.557 250.874 177.659 249.869 186.703C248.525 185.857 246.942 185.473 245.36 185.609V174.679C245.366 174.586 245.353 174.492 245.322 174.404C245.291 174.316 245.241 174.236 245.177 174.167C245.114 174.099 245.036 174.045 244.95 174.008C244.864 173.971 244.772 173.953 244.678 173.953C244.585 173.953 244.492 173.972 244.406 174.009C244.321 174.046 244.243 174.1 244.179 174.168C244.115 174.236 244.066 174.317 244.034 174.405C244.002 174.492 243.989 174.586 243.994 174.679V185.747C242.535 185.969 241.111 186.382 239.759 186.977C239.398 183.311 237.619 179.931 234.801 177.558C231.983 175.184 228.35 174.006 224.676 174.274C221.002 174.542 217.578 176.235 215.134 178.991C212.69 181.748 211.42 185.35 211.594 189.03C211.768 192.71 213.373 196.176 216.067 198.689C218.761 201.202 222.33 202.563 226.013 202.482C229.696 202.402 233.201 200.885 235.782 198.256C238.363 195.627 239.814 192.094 239.827 188.41C241.145 187.837 242.519 187.402 243.926 187.113C243.894 187.773 243.894 188.434 243.926 189.094C244.025 189.694 243.381 188.86 252.328 200.162C252.872 200.848 253.832 199.888 253.287 199.206L245.36 188.954V186.972C246.143 186.897 246.933 186.98 247.684 187.214C248.435 187.449 249.132 187.831 249.733 188.338C249.499 197.005 256.472 204.032 264.148 202.275C270.29 200.879 273.853 194.559 273.85 188.616ZM225.89 201.186C224.235 201.181 222.597 200.851 221.069 200.213C219.542 199.576 218.155 198.644 216.987 197.47C215.82 196.296 214.895 194.904 214.266 193.373C213.637 191.842 213.315 190.203 213.32 188.547C213.324 186.892 213.655 185.254 214.292 183.726C214.93 182.199 215.862 180.812 217.035 179.645C218.209 178.477 219.601 177.553 221.132 176.923C222.663 176.294 224.303 175.972 225.958 175.977C229.288 176.033 232.464 177.387 234.812 179.749C237.16 182.111 238.493 185.296 238.53 188.626C238.51 191.965 237.17 195.16 234.801 197.514C232.433 199.867 229.229 201.188 225.89 201.186ZM272.485 188.616C272.577 191.065 271.962 193.487 270.713 195.595C269.465 197.703 267.637 199.407 265.446 200.504C263.322 201.347 260.969 201.419 258.797 200.708C256.625 199.996 254.771 198.546 253.558 196.609C247.103 187.005 254.439 174.019 263.944 176.249C269.414 177.532 272.487 183.288 272.485 188.616Z" fill="#562C13"/>
<path d="M238.731 216.679C240.708 217.358 242.831 217.498 244.88 217.089C245.766 216.934 245.349 215.664 244.538 215.791C243.131 216.157 241.651 216.135 240.255 215.726C238.859 215.317 237.601 214.537 236.614 213.47C235.44 211.83 234.775 209.881 234.7 207.867H250.347C250.528 207.867 250.702 207.795 250.83 207.667C250.958 207.539 251.03 207.365 251.03 207.184C251.03 207.003 250.958 206.829 250.83 206.701C250.702 206.573 250.528 206.501 250.347 206.501H234.018C233.928 206.496 233.837 206.51 233.751 206.543C233.666 206.575 233.589 206.625 233.524 206.689C233.46 206.754 233.41 206.831 233.377 206.916C233.344 207.001 233.33 207.092 233.334 207.183C233.162 209.126 233.586 211.077 234.55 212.773C235.514 214.47 236.973 215.832 238.731 216.679Z" fill="#562C13"/>
<path d="M225.345 167.842C226.514 167.603 227.714 167.557 228.898 167.707C229.786 167.842 230.128 166.549 229.24 166.407C226.966 166.136 224.66 166.452 222.543 167.325C220.426 168.199 218.568 169.6 217.146 171.396C216.601 172.077 217.566 173.036 218.104 172.352C219.915 170.047 222.478 168.451 225.345 167.842Z" fill="#562C13"/>
<path d="M256.906 167.298C258.295 167.181 259.692 167.413 260.968 167.974C262.244 168.534 263.36 169.405 264.214 170.508C264.342 170.628 264.512 170.694 264.688 170.691C264.864 170.689 265.032 170.618 265.156 170.494C265.28 170.37 265.352 170.202 265.355 170.026C265.358 169.85 265.292 169.68 265.172 169.552C264.153 168.262 262.818 167.257 261.297 166.634C259.776 166.011 258.12 165.792 256.489 165.996C256.323 166.05 256.183 166.164 256.096 166.316C256.01 166.467 255.983 166.645 256.02 166.816C256.095 166.982 256.222 167.119 256.382 167.206C256.542 167.293 256.726 167.325 256.906 167.298Z" fill="#562C13"/>
<path d="M227.67 181.777C227.724 181.596 227.704 181.401 227.615 181.234C227.525 181.068 227.373 180.944 227.192 180.889C227.011 180.835 226.815 180.855 226.649 180.945C226.482 181.034 226.358 181.186 226.304 181.367C226.304 182.122 225.109 182.133 224.875 182.187C224.134 182.459 223.504 182.968 223.083 183.635C222.662 184.303 222.473 185.091 222.547 185.876C222.547 187.926 223.777 189.624 225.278 189.624C227.714 189.624 229.068 185.408 226.986 182.862C226.981 183 227.56 182.44 227.67 181.777Z" fill="#562C13"/>
<path d="M258.685 189.698C261.224 189.698 262.421 185.247 260.393 183.003C260.608 182.861 260.788 182.673 260.92 182.453C261.053 182.232 261.134 181.985 261.159 181.729C261.197 181.555 261.166 181.372 261.07 181.221C260.975 181.071 260.824 180.963 260.65 180.923C260.564 180.903 260.475 180.901 260.388 180.916C260.301 180.931 260.218 180.963 260.143 181.01C260.068 181.057 260.004 181.119 259.953 181.191C259.902 181.263 259.866 181.345 259.847 181.431C259.847 181.935 259.325 182.047 258.821 182.047C257.32 182.047 256.09 183.755 256.09 185.795C256.09 187.835 257.181 189.698 258.685 189.698Z" fill="#562C13"/>
<path d="M381.458 193.53C378.467 193.53 380.406 193.867 383.233 191.684C384.348 190.824 384.943 189.36 383.439 188.473C382.135 187.884 380.691 187.671 379.272 187.859C380.718 187.135 383.268 185.908 382.894 184.373C382.439 182.523 378.998 182.858 377.633 182.94C373.522 183.258 369.434 183.851 365.403 184.715C366.562 183.622 367.572 182.382 368.408 181.026C370.411 177.822 368.682 175.957 366.427 176.653C361.485 178.782 356.902 181.663 352.841 185.193C351.547 186.204 350.477 187.473 349.701 188.92C348.924 190.367 348.458 191.96 348.332 193.598C347.772 197.239 347.589 200.928 347.786 204.607L335.966 203.991C335.817 203.983 335.669 204.024 335.545 204.109C335.421 204.194 335.329 204.317 335.282 204.459C334.669 206.305 319.694 250.206 317.862 255.427C316.67 258.908 315.255 262.309 313.625 265.607C313.256 266.232 312.659 266.689 311.959 266.881C311.259 267.072 310.512 266.984 309.877 266.633C306.79 264.963 307.087 264.057 301.678 259.323C284.169 244.066 262.078 235.075 238.891 233.77V233.219C254.374 233.837 263.605 222.444 267.791 207.53C270.841 195.74 271.72 183.494 270.387 171.39C269.829 164.927 269.133 166.206 270.115 164.899C274.387 158.089 274.455 150.35 272.778 142.283C272.426 140.424 271.924 138.596 271.277 136.818C273.022 137.27 274.622 138.164 275.922 139.414C276.026 139.536 276.171 139.618 276.33 139.645C276.489 139.672 276.652 139.643 276.792 139.562C276.931 139.48 277.038 139.353 277.093 139.201C277.148 139.05 277.148 138.884 277.093 138.732C274.413 130.11 268.895 123.654 260.012 122.471C259.738 122.471 259.544 122.403 259.26 122.403C259.893 120.946 260.213 119.373 260.202 117.784C260.19 116.195 259.846 114.627 259.192 113.179C257.902 110.656 255.737 108.689 253.102 107.646C252.561 107.428 252.146 108.056 252.282 108.466C252.546 110.091 252.396 111.756 251.847 113.308C251.297 114.86 250.366 116.249 249.139 117.346C246.286 119.848 242.739 119.056 234.656 119.056C229.497 118.845 224.329 119.096 219.215 119.806C215.48 120.579 212.091 122.528 209.546 125.369C207.001 128.21 205.434 131.791 205.074 135.589C201.713 136.114 198.61 137.705 196.223 140.129C193.836 142.553 192.292 145.679 191.818 149.048C191.207 153.369 191.002 157.738 191.205 162.097C191.565 171.329 192.228 176.189 192.228 176.786C179.043 179.862 189.865 205.209 201.317 200.629C203.351 210.033 208.416 218.508 215.732 224.756C216.538 225.388 217.371 225.986 218.191 226.602V234.39C199.15 237.852 183.477 244.388 168.533 259.531C158.243 269.931 150.066 282.226 144.455 295.737C137.417 290.146 130.837 284 124.779 277.359C121.837 274.15 123.971 277.724 112.62 259.526C112.52 259.373 112.368 259.261 112.192 259.211C112.016 259.16 111.828 259.175 111.662 259.252L102.995 263.148L101.491 259.252C101.491 259.243 101.491 259.234 101.487 259.227C101.484 259.218 101.479 259.21 101.473 259.203C101.466 259.196 101.458 259.191 101.449 259.189C101.442 259.184 101.433 259.184 101.424 259.184C100.669 256.981 99.7567 254.835 98.6923 252.764C97.4103 249.606 94.9642 247.062 91.8596 245.657C86.6926 243.673 81.257 242.476 75.7346 242.106C72.884 242.045 71.6893 244.289 74.5049 246.683C80.0399 251.384 82.8578 247.519 67.8104 251.738C66.2948 252.162 62.8914 253.291 62.4814 254.813C61.8982 257.008 65.7608 257.203 66.9905 257.273C62.2003 258.678 62.2214 261.203 64.1211 262.054C65.475 262.562 66.9085 262.817 68.3561 262.806C68.2203 262.874 68.0821 262.871 67.8877 262.942C61.9403 265.029 62.7789 267.861 66.3159 268.203C71.8814 268.727 76.9808 267.144 79.7752 267.453C80.8885 267.582 81.9559 267.971 82.8916 268.587C83.8274 269.204 84.6052 270.032 85.1627 271.004L76.0064 275.103C75.8524 275.203 75.7397 275.355 75.6893 275.531C75.6389 275.707 75.6542 275.895 75.7323 276.061L82.907 292.8C83.0067 292.953 83.1584 293.065 83.334 293.115C83.5097 293.165 83.6974 293.149 83.8627 293.072L86.1863 292.048C91.3911 301.368 103.354 316.54 111.807 318.845H316.152C321.582 317.407 326.849 315.41 331.867 312.886C353.398 300.11 363.07 257.659 366.368 233.156H369.922C370.012 233.16 370.103 233.147 370.189 233.116C370.274 233.083 370.352 233.033 370.418 232.968C370.482 232.903 370.533 232.825 370.566 232.739C370.596 232.653 370.61 232.563 370.605 232.472L372.245 206.579C372.248 206.408 372.186 206.243 372.071 206.116C371.957 205.989 371.799 205.911 371.629 205.895L367.326 205.621C367.847 204.473 368.621 203.458 369.592 202.654C370.562 201.849 371.702 201.275 372.927 200.976C376.44 200.018 383.73 198.845 385.498 196.399C387.098 194.172 382.823 193.53 381.458 193.53ZM206.421 136.01C206.739 132.55 208.129 129.276 210.396 126.643C212.663 124.01 215.695 122.15 219.07 121.321C224.166 120.434 229.347 120.136 234.511 120.433C242.999 120.433 246.223 121.216 249.678 118.658C251.027 117.545 252.095 116.13 252.796 114.527C253.496 112.925 253.809 111.18 253.709 109.433C258.089 111.624 260.305 116.695 257.67 122.757C257.466 123.167 257.67 123.849 258.286 123.781C259.794 123.719 261.301 123.928 262.736 124.397C265.652 125.365 268.297 127.009 270.458 129.193C272.618 131.377 274.233 134.04 275.17 136.966C273.769 135.956 272.11 135.364 270.387 135.258C270.295 135.252 270.203 135.265 270.118 135.297C270.032 135.33 269.954 135.38 269.89 135.446C269.825 135.51 269.775 135.588 269.743 135.674C269.711 135.759 269.698 135.851 269.705 135.942C271.351 140.463 272.299 145.209 272.516 150.015C272.732 153.965 272.054 157.912 270.534 161.563C270.206 162.32 269.782 163.065 269.363 163.817C268.456 159.53 266.264 155.621 263.078 152.613C254.646 144.494 240.163 142.602 228.029 144.344C223.665 145.072 219.352 146.077 215.116 147.352C215.116 147.352 206.646 136.284 206.449 136.01H206.421ZM192.894 151.655C193.087 147.524 194.789 143.607 197.677 140.646C199.76 138.632 202.449 137.361 205.327 137.027C205.475 137.261 205.353 137.027 214.209 148.504C212.126 151.905 210.325 155.469 208.822 159.162C205.994 165.958 203.907 173.038 202.596 180.281C200.157 177.966 196.939 176.65 193.578 176.592C192.496 168.323 192.267 159.964 192.894 151.648V151.655ZM202.664 199.746C202.664 199.678 202.596 199.54 202.596 199.472C202.514 199.069 201.872 198.828 201.638 199.062C192.128 204.321 181.154 181.37 192.552 178.215C195.875 177.107 200.312 179.576 202.8 182.111C202.867 182.195 202.957 182.259 203.059 182.294C203.161 182.329 203.271 182.335 203.376 182.311C203.481 182.286 203.577 182.232 203.653 182.155C203.729 182.079 203.781 181.982 203.804 181.876C204.224 179.714 207.451 162.402 215.917 148.76C216.289 148.76 235.438 141.824 251.922 147.736C257.831 149.505 262.857 153.436 265.997 158.745C272.19 170.099 273.333 217.387 251.582 229.251C246.646 231.67 241.083 232.505 235.654 231.643C218.426 229.94 206.18 216.705 202.664 199.746ZM219.606 227.553C225.038 230.881 231.213 232.807 237.575 233.156V248.665C235.141 250.95 231.929 252.223 228.59 252.223C225.252 252.223 222.039 250.95 219.606 248.665V227.553ZM82.8976 267.043C79.8885 265.945 76.6093 265.825 73.5281 266.701C69.607 267.148 65.9435 267.383 65.0557 266.495C65.1119 264.759 72.7317 263.063 74.5541 262.747C75.306 262.611 75.1678 261.382 74.3479 261.382C72.5185 261.564 65.5945 261.85 64.3062 260.562C64.9761 258.547 73.1814 257.486 73.4602 257.486V257.418C74.28 257.282 74.3503 255.999 73.4602 256.053C71.7034 256.156 65.5898 256.331 64.0907 255.437C63.9548 255.369 63.8869 255.301 63.7487 255.233C64.7629 253.204 79.4169 250.761 81.7171 250.518C82.469 250.438 82.2675 249.412 81.7171 249.22C79.636 248.539 77.6591 247.573 75.8424 246.35C75.3739 246.013 73.8607 244.847 74.3386 244.165C74.6126 243.697 75.9103 243.809 76.4467 243.823C81.4313 244.383 86.3363 245.507 91.0679 247.17C92.3574 247.59 93.5125 248.344 94.4151 249.356C95.4801 250.564 96.3978 251.894 97.1487 253.319C98.3434 255.433 99.2867 257.68 99.9596 260.014L101.531 264.113C86.4393 270.821 89.8733 269.357 86.3644 270.671C85.7018 269.072 84.4653 267.778 82.8976 267.043ZM84.1274 291.638L77.4329 276.197C107.476 262.845 77.461 276.258 111.66 260.892C121.177 275.534 120.715 274.878 121.226 275.513C104.975 283.693 93.7522 287.391 84.1274 291.638ZM207.037 317.667H112.14C110.91 316.915 109.62 316.289 108.451 315.481C99.8253 309.184 92.7459 301.006 87.7487 291.568C98.8891 287.148 111.433 281.891 122.114 276.675C123.17 277.996 130.361 285.274 131.61 286.513C135.598 290.524 139.867 294.245 144.385 297.649C144.734 297.859 144.987 297.733 145.275 297.445C145.563 297.157 145.275 297.021 147.597 292.057C157.09 271.74 172.876 253.097 193.168 243.549L197.267 287.206C197.267 287.548 197.539 287.958 197.948 287.888L212.912 285.977L207.037 317.667ZM214.345 285.342C214.415 284.932 214.141 284.386 213.663 284.454L198.438 286.504L194.397 242.994C201.053 239.778 208.141 237.545 215.439 236.367C216.395 245.179 222.682 311.792 223.092 317.735H208.403L214.345 285.342ZM224.525 317.667C223.305 299.117 221.204 278.434 218.308 249.004C218.505 249.595 218.777 249.77 219.48 250.304C228.699 257.306 239.088 250.66 239.088 248.936L240.863 249.21C241.273 253.242 246.672 311.382 247.082 317.608C223.546 317.599 224.525 317.432 224.525 317.667ZM248.371 317.667C246.64 292.734 243.229 260.726 240.582 235.135C246.506 235.615 252.381 236.576 258.15 238.007L268.26 284.531L254.187 282.55C254.016 282.512 253.837 282.538 253.685 282.625C253.534 282.712 253.421 282.852 253.367 283.018C253.367 283.547 253.297 283.034 260.881 317.655L248.371 317.667ZM364.244 239.918C360.133 263.881 350.264 304.842 327.623 313.567C323.767 315.125 319.821 316.449 315.805 317.531H262.102L254.791 283.85L268.866 285.829C269.037 285.866 269.215 285.839 269.368 285.754C269.519 285.667 269.632 285.526 269.686 285.36C269.686 284.829 269.752 285.323 259.574 238.279C264.089 239.48 268.517 240.987 272.827 242.788C278.625 248.817 284.954 261.1 288.2 268.954C295.666 287.019 294.448 288.926 295.93 288.63C296.096 288.576 296.236 288.463 296.324 288.312C296.41 288.16 296.437 287.981 296.399 287.811C292.302 273.878 285.174 256.277 275.835 244.156C286.804 249.042 296.802 255.866 305.349 264.3C309.839 268.924 313.547 270.107 315.871 264.094C317.11 260.887 317.117 261.752 323.111 244.76C324.681 240.309 326.255 235.81 327.759 231.301L365.267 233.076C364.981 235.365 364.64 237.646 364.244 239.918ZM371.076 207.261L369.572 231.788L328.239 230.012C328.707 228.82 336.187 206.331 336.505 205.349L371.076 207.261ZM372.578 199.814C371.096 200.201 369.728 200.936 368.587 201.958C367.447 202.979 366.566 204.259 366.019 205.689L349.154 204.801C349.018 201.956 349.035 199.106 349.205 196.263C349.162 193.182 350.151 190.176 352.016 187.723C354.463 185.421 357.142 183.38 360.011 181.633C362.205 180.07 364.623 178.849 367.183 178.011C368.141 178.011 367.525 179.513 367.251 180.12C365.97 182.235 364.301 184.089 362.332 185.584C361.777 186.053 362.402 186.887 363.016 186.756C365.359 186.221 379.79 183.242 381.462 184.912C380.664 186.51 373.17 189.011 372.796 189.011C372.69 189.04 372.592 189.095 372.512 189.17C372.432 189.245 372.371 189.338 372.336 189.442C372.3 189.546 372.29 189.657 372.307 189.766C372.324 189.874 372.367 189.977 372.433 190.065C372.512 190.172 372.622 190.252 372.748 190.295C372.873 190.339 373.009 190.343 373.138 190.309C374.901 189.84 382.097 188.552 382.837 190.035C382.837 191.082 375.108 194.272 373.889 194.272C373.719 194.337 373.581 194.467 373.505 194.633C373.428 194.798 373.419 194.988 373.48 195.16C373.852 196.097 374.25 195.16 380.174 194.954C381.397 194.822 382.633 194.962 383.795 195.364C384.02 195.462 384.21 195.625 384.341 195.832C383.465 197.573 372.814 199.749 372.575 199.814H372.578Z" fill="#562C13"/>
<path d="M360.752 188.472C360.526 189.889 359.862 191.199 358.853 192.22C358.727 192.347 358.656 192.518 358.656 192.697C358.656 192.876 358.727 193.048 358.853 193.175C358.915 193.238 358.99 193.289 359.072 193.323C359.154 193.357 359.242 193.375 359.331 193.375C359.419 193.375 359.507 193.357 359.589 193.323C359.671 193.289 359.746 193.238 359.808 193.175C360.94 192.088 361.75 190.71 362.151 189.193C362.488 188.027 360.961 187.509 360.752 188.472Z" fill="#562C13"/>
<path d="M87.4085 255.37C87.4937 255.393 87.5825 255.398 87.6698 255.386C87.7572 255.375 87.8413 255.346 87.9174 255.301C87.9935 255.257 88.0602 255.198 88.1135 255.128C88.1669 255.058 88.2059 254.978 88.2284 254.893C88.2508 254.807 88.2563 254.719 88.2444 254.631C88.2325 254.544 88.2036 254.46 88.1592 254.384C88.1149 254.308 88.0559 254.241 87.9858 254.188C87.9157 254.134 87.8357 254.095 87.7505 254.073C86.8628 254.073 85.1739 252.14 84.675 251.475C84.0894 250.498 83.1571 251.634 83.5787 252.255C84.4567 253.705 85.8101 254.806 87.4085 255.37Z" fill="#562C13"/>
<path d="M364.242 223.93C363.945 223.926 363.65 223.982 363.375 224.095C363.1 224.207 362.85 224.373 362.64 224.583C362.43 224.793 362.264 225.043 362.152 225.318C362.04 225.594 361.985 225.888 361.988 226.186C361.993 226.788 362.23 227.365 362.65 227.798C363.07 228.23 363.64 228.484 364.242 228.507C364.542 228.507 364.84 228.448 365.118 228.333C365.395 228.218 365.648 228.049 365.86 227.837C366.073 227.624 366.241 227.372 366.356 227.094C366.471 226.816 366.53 226.519 366.53 226.218C366.53 225.918 366.471 225.62 366.356 225.343C366.241 225.065 366.073 224.813 365.86 224.6C365.648 224.388 365.395 224.219 365.118 224.104C364.84 223.989 364.542 223.93 364.242 223.93Z" fill="#562C13"/>
<path d="M86.8012 281.188C86.4625 281.182 86.1268 281.251 85.8182 281.391C85.5097 281.531 85.2361 281.737 85.0172 281.996C84.7984 282.254 84.6398 282.558 84.5529 282.886C84.4661 283.213 84.4531 283.556 84.515 283.889C84.622 284.443 84.9302 284.939 85.3804 285.28C85.8306 285.622 86.391 285.785 86.9541 285.738C87.5171 285.691 88.043 285.438 88.4307 285.027C88.8184 284.616 89.0406 284.076 89.0546 283.512C89.0496 282.909 88.8127 282.331 88.3931 281.898C87.9735 281.466 87.4034 281.211 86.8012 281.188Z" fill="#562C13"/>
</svg>
