<svg width="321" height="297" viewBox="0 0 321 297" fill="none" xmlns="http://www.w3.org/2000/svg">
<path d="M52.1872 222.25C51.8509 222.474 31.8359 240.797 31.8359 240.797H84.494L92.5535 222.918L52.1872 222.25Z" fill="white"/>
<path d="M77.5766 198.696L67.7812 207.889H99.0328L102.959 198.297L77.5766 198.696Z" fill="#FCD7C1"/>
<path d="M207.852 200.499C207.852 205.645 211.612 210.581 218.307 214.22C225.001 217.859 234.081 219.904 243.548 219.904C253.016 219.904 262.095 217.859 268.79 214.22C275.484 210.581 279.245 205.645 279.245 200.499C279.245 195.352 275.484 190.416 268.79 186.777C262.095 183.138 253.016 181.094 243.548 181.094C234.081 181.094 225.001 183.138 218.307 186.777C211.612 190.416 207.852 195.352 207.852 200.499Z" fill="white"/>
<path d="M244.647 206.535C233.207 201.507 220.602 199.734 208.219 201.411C208.219 206.305 216.181 215.709 231.651 218.803C233.126 213.318 241.086 207 244.647 206.535Z" fill="#FCD7C1"/>
<path d="M257.28 218.614C242.528 224.147 209.363 216.643 207.671 201.406C189.547 203.603 176.184 212.39 176.184 222.826C176.184 235.09 194.49 244.975 217.006 244.975C239.523 244.975 258.013 235.273 258.013 223.008C258.038 221.511 257.789 220.022 257.28 218.614Z" fill="#FCD7C1"/>
<path d="M244.104 206.719C237.699 209.83 233.303 214.04 231.473 218.801C241.985 220.418 247.654 220.751 256.919 218.434C253.257 209.889 244.269 206.81 244.104 206.719Z" fill="white"/>
<path d="M244.285 206.722C249.826 209.124 254.401 213.313 257.282 218.62C266.681 216.114 279.06 211.321 279.06 201.597C273.932 200.412 258.635 200.311 244.285 206.722Z" fill="#FCD7C1"/>
<path d="M279.428 201.408C279.248 201.228 279.248 201.408 279.428 201.408V201.408Z" fill="#FEECE1"/>
<path d="M279.427 201.406C279.952 210.33 265.619 217.602 256.911 218.432C257.071 218.404 263.864 227.239 244.645 240.034C253.172 243.805 262.416 245.678 271.739 245.524C294.254 245.305 312.562 235.639 312.562 223.375C312.562 206.165 281.976 202.085 279.427 201.406Z" fill="#FEECE1"/>
<path d="M257.462 218.617C248.998 220.702 240.17 220.827 231.65 218.984C228.161 227.123 235.684 235.194 244.461 239.481C249.66 236.24 259.368 230.443 257.462 218.617Z" fill="white"/>
<path d="M280.049 200.542V200.501C280.049 189.36 263.676 180.297 243.55 180.297C223.425 180.297 207.053 189.36 207.053 200.501V200.755C188.982 203.257 175.562 212.285 175.562 223.014C175.562 235.664 194.236 245.964 217.186 245.964C226.546 246.105 235.825 244.199 244.372 240.38C252.918 244.2 262.196 246.105 271.556 245.964C294.508 245.964 313.179 235.669 313.179 223.014C313.182 211.962 298.943 202.709 280.049 200.542ZM244.375 238.668C236.559 234.804 229.556 228.032 232.027 219.67C240.17 221.144 248.521 221.04 256.625 219.363C259.363 227.794 252.369 234.716 244.375 238.668ZM232.579 218.16C234.424 213.944 238.615 210.206 244.375 207.358C250.002 210.141 254.13 213.774 256.037 217.87C248.302 219.409 240.35 219.507 232.579 218.16ZM230.996 217.856C218.851 215.352 209.972 209.324 208.788 202.137C219.838 200.871 232.477 202.078 242.613 206.536C236.945 209.566 232.828 213.472 230.996 217.856ZM246.136 206.536C255.795 202.288 267.709 200.997 278.339 201.971C277.311 208.93 269.07 214.825 257.61 217.525C255.719 213.275 251.661 209.489 246.136 206.536ZM208.654 200.501C208.654 190.243 224.309 181.898 243.55 181.898C262.718 181.898 278.323 190.179 278.446 200.381C267.279 199.353 254.572 200.792 244.375 205.652C233.846 200.634 220.473 199.191 208.654 200.552V200.501ZM217.189 244.368C195.121 244.368 177.167 234.792 177.167 223.019C177.167 213.09 189.95 204.714 207.203 202.341C208.484 210.13 217.772 216.657 230.464 219.364C227.932 228.042 234.627 235.234 242.613 239.495C234.557 242.827 225.906 244.484 217.189 244.363V244.368ZM271.559 244.368C262.842 244.487 254.192 242.829 246.136 239.495C254.353 235.106 260.977 227.738 258.178 219.012C270.188 216.095 278.835 209.697 279.929 202.139C297.994 204.197 311.581 212.777 311.581 223.019C311.581 234.787 293.628 244.363 271.559 244.363V244.368Z" fill="#562C13"/>
<path d="M226.158 182.194C225.954 182.346 225.784 182.538 225.658 182.759C225.532 182.979 225.453 183.223 225.426 183.475C225.426 184.025 226.158 184.391 226.707 184.574C227.402 184.658 228.108 184.587 228.772 184.365C229.437 184.144 230.044 183.778 230.55 183.293C231.565 182.302 232.374 181.12 232.93 179.815C235.858 182.194 242.083 186.22 245.926 184.939C246.293 184.757 246.842 184.574 247.025 184.207C247.111 184.125 247.18 184.025 247.228 183.915C247.275 183.805 247.299 183.687 247.299 183.567C247.299 183.447 247.275 183.328 247.228 183.218C247.18 183.108 247.111 183.009 247.025 182.926C246.239 182.226 245.298 181.724 244.28 181.461C245.537 178.108 243.827 175.557 241.899 172.857C241.242 172.04 240.434 171.357 239.519 170.844C237.76 170.188 235.833 170.138 234.042 170.701C232.251 171.265 230.7 172.41 229.634 173.956C228.902 175.054 229.112 176.527 228.718 177.799C228.174 179.424 227.303 180.92 226.158 182.194Z" fill="white"/>
<path d="M160.809 182.551C168.633 182.473 176.358 180.791 183.507 177.61C187.108 176.091 190.596 174.317 193.943 172.3C196.324 170.839 199.434 167.54 202.363 169.006C203.5 169.656 204.496 170.527 205.292 171.568L208.587 175.23C212.985 173.921 217.546 173.243 222.135 173.216C225.875 160.495 226.112 160.19 226.894 155.825C228.693 145.424 226.398 134.731 220.489 125.984C218.155 121.983 214.967 118.545 211.153 115.917C207.348 113.3 202.758 112.071 198.155 112.439C194.715 112.968 191.525 114.558 189.031 116.986C186.538 119.414 184.863 122.56 184.242 125.984C183.942 130.117 184.375 134.27 185.524 138.251L187.354 145.937C179.299 147.585 170.883 152.901 163.922 157.466C158.616 160.951 152.142 165.313 149.643 171.38C148.939 173.136 148.926 175.093 149.605 176.858C150.285 178.624 151.606 180.067 153.305 180.899C155.639 182.04 158.211 182.606 160.809 182.551Z" fill="#FCD7C1"/>
<path d="M170.872 103.471C169.812 103.769 168.818 104.266 167.943 104.936C167.226 105.653 168.252 104.146 155.133 124.888C153.857 121.274 152.39 117.73 150.739 114.272L143.965 102.372C144.82 105.249 144.757 108.32 143.782 111.159C141.766 117.612 133.681 119.777 129.87 114.821C129.686 114.454 129.503 114.454 129.137 114.454C129.875 115.905 130.429 117.442 130.784 119.031C133.1 124.617 136.182 129.854 139.941 134.591C141.798 137.039 143.882 139.307 146.165 141.364C148.291 143.015 150.631 144.37 153.121 145.392C154.229 146.03 155.537 146.226 156.784 145.941C158.094 145.234 159.27 144.305 160.262 143.195C162.942 140.343 165.39 137.283 167.583 134.042C169.21 131.64 172.344 128.001 172.893 125.074C180.282 139.853 181.519 143.952 184.423 146.852C186.723 148.351 189.37 149.233 192.109 149.414C190.763 146.541 189.72 143.536 188.998 140.447C187.745 134.436 186.855 127.29 189.364 121.591C191.049 117.763 194.855 114.635 199.067 115C201.195 115.377 203.203 116.255 204.924 117.562C208.739 120.293 212.079 123.633 214.809 127.447C216.31 129.62 216.126 131.291 216.64 133.672C217.229 136.408 218.512 138.786 219.202 141.544C220.534 146.852 220.779 150.912 223.045 160.582C224.428 166.073 225.527 171.632 226.341 177.236C228.347 174.894 230.901 173.084 233.775 171.966C236.649 170.849 239.755 170.459 242.817 170.831C243.893 170.833 244.933 171.223 245.745 171.929C243.915 170.464 242.836 166.611 241.902 164.424C240.657 161.551 239.558 158.618 238.608 155.636L229.087 119.58C228.171 116.284 227.806 112.806 226.707 109.512C226.092 107.337 224.888 105.373 223.229 103.837C221.17 102.18 218.705 101.105 216.089 100.724C210.965 99.4433 205.65 97.8148 200.529 96.697C198.879 96.3367 196.868 96.1478 196.501 94.5C196.881 95.4671 197.06 96.5012 197.029 97.5396C196.998 98.578 196.756 99.5994 196.319 100.542C194 104.018 188.24 102.247 188.632 98.3448C188.632 96.1478 188.435 96.4744 185.886 97.4304C180.727 99.3632 175.99 101.796 170.872 103.471Z" fill="#FEECE1"/>
<path d="M32.1845 240.797C32.1845 240.797 13.276 257.726 9.59294 261.35C5.90988 264.974 9.70823 266.697 12.8693 266.754C16.0303 266.812 63.0517 266.926 66.3856 266.983C68.2212 267.014 70.0268 266.516 71.5864 265.547C73.146 264.579 74.3937 263.182 75.1801 261.523C76.8471 257.84 84.4935 240.8 84.4935 240.8L32.1845 240.797Z" fill="#FCD7C1"/>
<path d="M104.055 191.087H87.1292C86.2785 191.043 85.4274 191.168 84.6255 191.455C83.8236 191.743 83.0869 192.187 82.4581 192.762L8.66253 261.249C8.1283 261.756 7.75971 262.413 7.605 263.133C7.45029 263.853 7.51669 264.604 7.7955 265.286C8.07431 265.967 8.55253 266.549 9.16754 266.955C9.78256 267.36 10.5057 267.571 11.2423 267.558L68.0286 267.569C69.6549 267.545 71.2401 267.055 72.5964 266.157C73.9527 265.26 75.0233 263.992 75.6813 262.504L105.834 194.144C106.018 193.834 106.115 193.48 106.117 193.12C106.118 192.759 106.023 192.405 105.842 192.093C105.66 191.782 105.399 191.524 105.085 191.347C104.771 191.17 104.416 191.08 104.055 191.087ZM83.7952 240.145H33.7553L51.5701 223.613C51.7303 223.64 50.1866 223.624 91.0845 223.624L83.7952 240.145ZM98.1432 207.624C97.911 207.524 99.8101 207.56 68.8661 207.56L77.7919 199.276H101.831L98.1432 207.624ZM74.2225 261.843C73.6684 263.106 72.7477 264.174 71.5796 264.908C70.4115 265.642 69.05 266.008 67.6715 265.959H11.2423C10.8246 265.971 10.4128 265.857 10.0619 265.63C9.711 265.403 9.43758 265.074 9.27809 264.688C9.11861 264.302 9.08062 263.876 9.16919 263.468C9.25776 263.059 9.46868 262.687 9.77385 262.402L32.0323 241.745H83.0955L74.2225 261.843Z" fill="#562C13"/>
<path d="M143.783 192.258L141.586 186.034C141.428 185.534 141.108 185.102 140.677 184.804C140.247 184.506 139.729 184.359 139.206 184.388L122.73 184.203C122.088 184.194 121.463 184.408 120.962 184.808C120.461 185.209 120.115 185.772 119.984 186.4L118.336 192.806C119.796 192.814 143.783 192.258 143.783 192.258Z" fill="#FCD7C1"/>
<path d="M146.381 201.031L116.464 201.521L113.098 213.297H150.665L146.381 201.031Z" fill="#FCD7C1"/>
<path d="M155.86 227.375H109.725L105.109 245.63C105.043 245.887 105.037 246.156 105.091 246.416C105.145 246.676 105.257 246.92 105.419 247.131C105.572 247.37 105.773 247.574 106.01 247.731C106.246 247.887 106.513 247.992 106.793 248.039H161.514C162.004 248.039 162.465 248.039 162.745 247.632C162.883 247.434 162.971 247.206 163.002 246.966C163.032 246.727 163.004 246.484 162.92 246.258L155.86 227.375Z" fill="#FCD7C1"/>
<path d="M142.156 185.769C141.942 185.115 141.521 184.548 140.957 184.154C140.393 183.76 139.717 183.559 139.029 183.583L122.657 183.408C121.841 183.325 121.023 183.541 120.355 184.017C119.687 184.493 119.216 185.196 119.028 185.994L104.368 245.554C104.294 245.91 104.294 246.277 104.368 246.632C104.443 246.988 104.59 247.324 104.8 247.621C105.011 247.917 105.28 248.166 105.592 248.353C105.903 248.54 106.25 248.661 106.61 248.707L161.174 249.441C161.921 249.439 162.636 249.142 163.164 248.613C163.692 248.085 163.988 247.369 163.989 246.622C163.994 246.139 163.837 248.243 142.156 185.769ZM120.566 186.425C120.659 185.987 120.911 185.599 121.274 185.337C121.636 185.074 122.084 184.956 122.529 185.005L139.023 185.187C139.378 185.163 139.732 185.26 140.026 185.461C140.32 185.662 140.538 185.957 140.645 186.297C141.285 188.134 141.904 189.916 142.502 191.642H119.285L120.566 186.425ZM116.679 202.213H146.187C147.495 205.948 148.696 209.372 149.804 212.511H114.151L116.679 202.213ZM161.175 247.85L106.743 247.128C106.476 247.071 106.241 246.913 106.088 246.686C105.935 246.459 105.877 246.182 105.925 245.913L110.191 228.594H155.527C160.431 242.215 161.925 245.822 162.376 246.766C162.34 247.059 162.199 247.33 161.98 247.527C161.76 247.725 161.477 247.837 161.182 247.842L161.175 247.85Z" fill="#562C13"/>
<path d="M139.022 97.4316C137.727 96.3579 136.234 95.5494 134.628 95.0521C133.85 94.7914 133.028 94.6895 132.211 94.7525C131.393 94.8155 130.597 95.042 129.869 95.4188C129.319 95.7855 128.77 96.1506 128.953 96.884C129.135 97.2491 129.319 97.4316 129.502 97.7983C130.387 98.4091 131.381 98.844 132.431 99.0794C133.31 99.5806 134.228 100.009 135.177 100.36C130.863 98.6342 125.952 102.088 126.573 107.682C126.576 108.862 126.761 110.036 127.122 111.16C127.326 111.714 127.668 112.208 128.117 112.592C128.566 112.977 129.105 113.24 129.684 113.357C129.441 121.085 140.551 119.775 143.414 112.625C144.355 110.305 144.731 107.796 144.513 105.302C144.186 101.273 141.951 99.6287 139.022 97.4316Z" fill="white"/>
<path d="M197.239 97.7906C197.257 98.7341 197.009 99.6634 196.523 100.473C196.038 101.282 195.335 101.938 194.495 102.367C193.63 102.74 192.661 102.797 191.758 102.53C190.855 102.263 190.074 101.687 189.551 100.904C189.117 100.116 188.867 99.2398 188.819 98.3415L188.086 94.6808C187.996 94.5117 187.949 94.3231 187.949 94.1316C187.949 93.9401 187.996 93.7515 188.086 93.5823L188.635 93.0331C189.767 92.3045 191.002 91.7492 192.298 91.3853C194.131 90.8473 194.52 91.3677 195.226 92.4838C196.284 94.0809 196.972 95.8939 197.239 97.7906Z" fill="white"/>
<path d="M197.055 87.912C197.583 88.241 198.201 88.3998 198.823 88.3668C199.445 88.3339 200.042 88.1109 200.533 87.7278C201.512 86.9928 202.324 86.0571 202.912 84.9832C204.021 83.6875 204.722 82.093 204.927 80.4002C204.937 79.1582 204.752 77.9223 204.377 76.7379C203.279 72.7106 201.879 68.608 198.702 65.937C196.883 64.4637 194.721 63.4733 192.417 63.0573C190.113 62.6414 187.742 62.8134 185.522 63.5574C173.992 67.2405 167.278 85.1049 177.1 94.13C182.795 99.3679 192.114 97.7906 197.055 87.912Z" fill="white"/>
<path d="M176.55 85.7763C176.392 85.7762 176.237 85.7292 176.106 85.6411C175.974 85.553 175.871 85.4279 175.811 85.2815C175.75 85.135 175.734 84.974 175.766 84.8186C175.797 84.6633 175.873 84.5206 175.985 84.4087C177.461 82.9334 178.845 81.3692 180.129 79.7248C180.554 79.2701 180.242 78.8745 179.809 77.1147C179.759 76.9093 179.793 76.6925 179.902 76.5116C180.011 76.3307 180.188 76.2004 180.393 76.149C180.598 76.0976 180.815 76.1294 180.996 76.2374C181.178 76.3454 181.31 76.5209 181.362 76.7256C181.878 78.7849 182.455 79.6624 181.335 80.7817C180.032 82.4542 178.626 84.0437 177.125 85.5409C177.05 85.6164 176.96 85.6762 176.862 85.7166C176.763 85.757 176.657 85.7773 176.55 85.7763Z" fill="#562C13"/>
<path d="M210.241 68.8692C210.592 68.4421 210.843 67.9412 210.973 67.404C210.994 67.1378 210.91 66.8742 210.739 66.669C210.568 66.4639 210.324 66.3334 210.059 66.3054C210.176 66.1279 210.256 65.9277 210.292 65.7177C210.328 65.5078 210.32 65.2926 210.268 65.0859C210.217 64.8792 210.122 64.6856 209.992 64.5173C209.861 64.349 209.697 64.2097 209.509 64.1084C209.437 64.0391 209.35 63.9868 209.255 63.9552C209.16 63.9236 209.06 63.9136 208.96 63.9259C209.154 63.7039 209.29 63.4367 209.354 63.1488C209.418 62.8609 209.409 62.5615 209.327 62.2781C209.213 61.9888 209.009 61.7438 208.745 61.5792C208.481 61.4145 208.172 61.339 207.862 61.3638C207.862 60.997 207.862 60.8129 207.495 60.8129C207.679 60.2796 207.679 59.7 207.495 59.1667C207.431 59.038 207.341 58.9246 207.229 58.8345C207.117 58.7443 206.987 58.6796 206.848 58.6447C206.709 58.6098 206.564 58.6056 206.423 58.6324C206.282 58.6593 206.148 58.7165 206.031 58.8C206.116 58.436 206.071 58.0537 205.904 57.7194C205.737 57.3851 205.458 57.1199 205.115 56.9697H204.566C204.605 56.8134 204.611 56.6509 204.586 56.4919C204.561 56.3328 204.504 56.1805 204.419 56.0439C204.333 55.9073 204.221 55.7892 204.09 55.6965C203.958 55.6039 203.809 55.5386 203.652 55.5045C203.334 55.4563 203.01 55.5215 202.736 55.6886C202.725 55.2373 202.599 54.7961 202.369 54.4076C202.286 54.321 202.187 54.252 202.077 54.2049C201.967 54.1578 201.848 54.1335 201.729 54.1335C201.609 54.1335 201.49 54.1578 201.38 54.2049C201.27 54.252 201.171 54.321 201.088 54.4076C201.062 54.1989 200.992 53.998 200.883 53.8179C200.774 53.6378 200.629 53.4824 200.457 53.3617C200.284 53.2411 200.088 53.1578 199.882 53.1173C199.676 53.0768 199.463 53.0799 199.258 53.1265C199.075 53.1265 199.075 53.1265 198.891 53.3091C198.987 53.2062 199.059 53.0836 199.103 52.9497C199.146 52.8159 199.159 52.6742 199.142 52.5346C199.125 52.395 199.077 52.2609 199.002 52.1418C198.927 52.0227 198.827 51.9216 198.708 51.8455C198.543 51.7179 198.353 51.6258 198.15 51.5749C197.948 51.5241 197.737 51.5155 197.53 51.5497C197.324 51.584 197.127 51.6603 196.952 51.774C196.777 51.8877 196.627 52.0363 196.511 52.2106C196.593 52.0144 196.601 51.7954 196.534 51.5938C196.467 51.3922 196.329 51.2217 196.146 51.1136H195.962C195.708 51.0312 195.436 51.0217 195.177 51.0862C194.918 51.1508 194.682 51.2868 194.497 51.4788C194.22 51.0807 193.841 50.7644 193.4 50.5628C192.851 50.3802 192.484 50.5628 192.119 51.1136C192.04 50.8543 191.898 50.6184 191.706 50.4268C191.514 50.2352 191.278 50.0938 191.019 50.0151C190.471 49.831 189.92 50.1977 189.92 50.5628C189.826 50.2978 189.652 50.068 189.423 49.9046C189.194 49.7411 188.921 49.6517 188.639 49.6484C188.409 49.6516 188.187 49.7366 188.013 49.8882C187.84 50.0399 187.725 50.2483 187.691 50.4763C187.446 49.5155 185.869 49.5155 184.979 51.2962C184.247 50.0151 182.964 49.831 182.232 51.2962C182.232 49.2817 179.304 50.3802 179.486 51.4788C179.121 49.4643 177.107 51.6629 177.289 51.8455C176.557 51.2962 176.008 50.9295 175.276 51.8455C174.91 52.2106 174.36 52.944 174.91 53.3091C173.731 52.5244 171.941 53.5236 172.897 54.9568C172.659 54.7904 172.384 54.6865 172.096 54.6546C171.808 54.6227 171.517 54.6638 171.249 54.7743C170.977 54.9836 170.79 55.2843 170.723 55.6207C170.655 55.9572 170.712 56.3067 170.882 56.6046C170.628 56.3997 170.319 56.2733 169.994 56.2408C169.669 56.2084 169.342 56.2714 169.052 56.4221C168.919 56.4816 168.802 56.5703 168.709 56.6817C168.616 56.793 168.549 56.9241 168.514 57.0649C168.478 57.2058 168.475 57.3529 168.505 57.495C168.535 57.6372 168.596 57.7707 168.685 57.8857C168.687 57.9305 168.702 57.9737 168.73 58.009C168.439 57.9243 168.129 57.9344 167.845 58.038C167.56 58.1416 167.316 58.3331 167.148 58.5849C166.98 58.8366 166.896 59.1354 166.909 59.4379C166.923 59.7404 167.032 60.0307 167.222 60.2668C167.101 60.2188 166.973 60.1949 166.843 60.1965C166.714 60.1981 166.586 60.2252 166.467 60.2762C166.348 60.3272 166.241 60.4011 166.15 60.4937C166.06 60.5864 165.989 60.6959 165.94 60.8161C165.892 60.9363 165.869 61.0647 165.87 61.1942C165.872 61.3236 165.899 61.4514 165.95 61.5704C166.001 61.6893 166.075 61.7971 166.167 61.8875C166.26 61.9779 166.37 62.0491 166.49 62.0972C166.239 62.1774 166.011 62.3183 165.827 62.5076C165.644 62.6968 165.51 62.9285 165.437 63.1819C165.365 63.4354 165.356 63.7029 165.412 63.9606C165.467 64.2183 165.586 64.4583 165.756 64.6593C165.624 64.6951 165.5 64.7566 165.392 64.8405C165.283 64.9243 165.192 65.0287 165.124 65.1478C165.056 65.2668 165.012 65.3981 164.995 65.5341C164.978 65.6701 164.988 65.8082 165.025 65.9403C165.033 66.199 165.128 66.4475 165.293 66.6464C165.459 66.8454 165.686 66.9835 165.939 67.0389C165.391 67.5865 164.658 68.1358 165.025 69.0517C165.068 69.1755 165.136 69.2889 165.226 69.3847C165.315 69.4806 165.424 69.5567 165.544 69.6084C165.665 69.6601 165.795 69.6861 165.926 69.6848C166.057 69.6835 166.186 69.655 166.306 69.601C166.169 69.6328 166.041 69.6917 165.928 69.7741C165.815 69.8566 165.719 69.9609 165.647 70.081C165.575 70.201 165.528 70.3342 165.509 70.4728C165.49 70.6114 165.498 70.7525 165.534 70.8877C165.571 71.0229 165.634 71.1494 165.72 71.2597C165.806 71.3701 165.913 71.462 166.035 71.5301C166.158 71.5981 166.292 71.6409 166.431 71.6558C166.571 71.6708 166.711 71.6576 166.845 71.6171C165.761 72.9253 167.827 74.9943 169.223 72.8981C168.674 73.6299 169.772 74.911 170.504 75.0935C170.88 75.0835 171.242 74.9538 171.538 74.7233C171.835 74.4929 172.05 74.1737 172.152 73.8125C172.23 74.1733 172.446 74.4896 172.753 74.6946C173.06 74.8995 173.435 74.9771 173.798 74.911C174.17 74.7807 174.489 74.5335 174.708 74.2064C174.719 74.389 174.775 74.566 174.872 74.721C174.969 74.876 175.104 75.0041 175.263 75.0935H175.446C175.923 75.1196 176.393 74.9698 176.767 74.6727C177.141 74.3755 177.394 73.9516 177.476 73.481C177.507 73.8045 177.651 74.1068 177.882 74.3349C178.113 74.5631 178.418 74.7024 178.741 74.7284H179.108C179.532 74.6518 179.914 74.4242 180.183 74.0877C180.452 73.7512 180.59 73.3286 180.572 72.8981C180.572 73.4474 183.318 73.2632 183.318 71.6171C183.333 71.9707 183.468 72.3087 183.701 72.5752C183.934 72.8416 184.251 73.0205 184.599 73.0823C184.933 73.1071 185.267 73.0336 185.559 72.8708C185.852 72.708 186.09 72.4631 186.245 72.1663C186.42 72.5262 186.728 72.804 187.104 72.9409C187.48 73.0778 187.894 73.063 188.26 72.8997C188.355 72.893 188.444 72.8521 188.511 72.7847C188.578 72.7173 188.619 72.6279 188.625 72.533C188.796 72.9509 189.113 73.2924 189.517 73.4944C189.921 73.6964 190.385 73.7451 190.822 73.6315C191.004 73.6315 191.189 73.449 191.371 73.449C191.328 73.6191 191.323 73.7968 191.357 73.9691C191.392 74.1413 191.464 74.3036 191.57 74.444C191.675 74.5845 191.811 74.6995 191.966 74.7806C192.122 74.8617 192.294 74.9068 192.47 74.9126C192.71 74.9196 192.95 74.874 193.171 74.7792C193.392 74.6843 193.59 74.5424 193.751 74.3633C193.766 74.7169 193.901 75.0548 194.134 75.3212C194.367 75.5876 194.683 75.7665 195.032 75.8285C195.385 75.8258 195.725 75.6975 195.993 75.4666C195.881 75.6686 195.835 75.8999 195.86 76.1292C195.885 76.3585 195.98 76.5744 196.132 76.7477C196.257 76.86 196.406 76.9417 196.568 76.9865C196.73 77.0312 196.901 77.0377 197.065 77.0055C196.85 77.1089 196.677 77.2847 196.578 77.5023C196.478 77.7199 196.458 77.9655 196.521 78.1963C196.584 78.4271 196.726 78.6284 196.923 78.7652C197.119 78.902 197.357 78.9655 197.596 78.9447H197.778C197.575 79.0003 197.389 79.108 197.24 79.2572C197.091 79.4063 196.984 79.5917 196.928 79.7951C196.873 79.9986 196.871 80.2129 196.924 80.4171C196.977 80.6212 197.082 80.8081 197.229 80.9592C197.462 81.2042 197.775 81.3575 198.111 81.391C198.447 81.4245 198.784 81.336 199.061 81.1418L199.243 80.9592C199.132 81.091 199.049 81.2436 198.997 81.408C198.946 81.5725 198.927 81.7455 198.943 81.9171C198.959 82.0887 199.009 82.2554 199.09 82.4075C199.171 82.5597 199.281 82.6942 199.415 82.8033C199.548 82.9124 199.702 82.9938 199.867 83.043C200.032 83.0921 200.206 83.108 200.377 83.0896C200.548 83.0711 200.714 83.0189 200.865 82.9357C201.016 82.8526 201.149 82.7403 201.256 82.6054C201.44 82.4228 201.44 82.2403 201.623 82.0577C201.703 82.4353 201.881 82.7855 202.137 83.0741C202.394 83.3626 202.721 83.5796 203.086 83.7039C203.45 83.7705 203.825 83.6931 204.133 83.4881C204.44 83.2831 204.656 82.9665 204.734 82.6054V82.4228C204.979 82.7117 205.327 82.8927 205.704 82.9269C206.081 82.961 206.456 82.8455 206.749 82.6054C206.981 82.4083 207.142 82.1409 207.208 81.8438C207.274 81.5467 207.242 81.2361 207.115 80.9592C207.298 81.5085 208.579 79.1273 208.579 79.1273C208.946 78.3955 210.227 77.4811 209.495 76.3826C210.437 76.7029 211.311 74.9078 209.678 73.8205C210.227 73.6379 210.594 73.2712 210.594 72.9061C210.6 72.6656 210.554 72.4266 210.459 72.2054C210.364 71.9843 210.223 71.7863 210.044 71.6251C210.425 71.2792 210.658 70.7999 210.695 70.2866C210.732 69.7733 210.569 69.2657 210.241 68.8692Z" fill="#FCD7C1"/>
<path d="M192.106 78.2704C191.992 78.2705 191.879 78.2461 191.775 78.1989C191.67 78.1517 191.578 78.0827 191.502 77.9966C190.962 77.3619 190.253 76.8934 189.458 76.6454C188.662 76.3974 187.813 76.38 187.007 76.5954C186.906 76.6231 186.8 76.6304 186.696 76.6172C186.591 76.6039 186.491 76.5702 186.399 76.518C186.308 76.4658 186.228 76.3961 186.164 76.313C186.099 76.2298 186.052 76.1348 186.024 76.0333C185.997 75.9319 185.989 75.8259 186.003 75.7216C186.016 75.6173 186.049 75.5166 186.102 75.4253C186.154 75.334 186.224 75.2539 186.307 75.1895C186.39 75.1251 186.485 75.0778 186.586 75.0501C187.681 74.7554 188.837 74.7767 189.921 75.1117C191.004 75.4467 191.971 76.0815 192.708 76.9429C192.809 77.0586 192.875 77.201 192.897 77.3531C192.92 77.5052 192.898 77.6605 192.834 77.8004C192.771 77.9404 192.669 78.0592 192.539 78.1425C192.41 78.2258 192.26 78.2702 192.106 78.2704Z" fill="#562C13"/>
<path d="M173.986 76.9932C173.827 76.9935 173.672 76.9467 173.54 76.8587C173.408 76.7707 173.305 76.6456 173.245 76.4991C173.184 76.3526 173.168 76.1914 173.199 76.0359C173.23 75.8804 173.307 75.7376 173.419 75.6256C174.124 74.9733 175.014 74.5556 175.967 74.4303C176.919 74.305 177.887 74.4781 178.737 74.9259C178.831 74.9729 178.916 75.038 178.985 75.1177C179.055 75.1973 179.108 75.2898 179.142 75.39C179.175 75.4901 179.189 75.5959 179.182 75.7014C179.174 75.8068 179.147 75.9097 179.1 76.0044C179.053 76.099 178.987 76.1834 178.908 76.2529C178.828 76.3223 178.736 76.3754 178.635 76.4091C178.535 76.4428 178.429 76.4564 178.324 76.4492C178.219 76.442 178.116 76.4141 178.021 76.3671C177.471 76.0732 176.844 75.9539 176.224 76.0251C175.604 76.0963 175.02 76.3547 174.551 76.7658C174.4 76.9131 174.197 76.9948 173.986 76.9932Z" fill="#562C13"/>
<path d="M175.218 80.2836C175.037 79.6991 175.076 79.0685 175.327 78.5107C175.579 77.9529 176.026 77.5064 176.584 77.2555C177.674 77.1562 178.072 78.4213 177.91 79.531C177.63 81.475 175.852 81.7184 175.218 80.2836Z" fill="#562C13"/>
<path d="M187.136 81.5899C186.955 81.0052 186.994 80.3745 187.245 79.8165C187.497 79.2585 187.944 78.8117 188.502 78.5602C189.592 78.4609 189.989 79.7259 189.829 80.8373C189.547 82.7797 187.77 83.0231 187.136 81.5899Z" fill="#562C13"/>
<path d="M59.3906 98.8901C63.647 103.146 77.1301 105.308 88.1329 98.7076C84.2064 92.3647 74.0412 75.6484 74.0412 75.6484C74.0412 75.6484 62.1401 94.7555 59.3906 98.8901Z" fill="white"/>
<path d="M88.3155 99.0781C83.9933 101.919 78.9341 103.433 73.7618 103.433C68.5895 103.433 63.5303 101.919 59.2081 99.0781C58.2233 100.719 45.7858 118.696 39.9922 129.467C49.984 135.743 61.5242 139.119 73.3236 139.216C85.123 139.313 96.7171 136.128 106.811 130.016C94.6776 110.31 100.687 120.754 88.3155 99.0781Z" fill="#FCD7C1"/>
<path d="M107.896 22C105.814 26.1731 88.6797 52.2043 88.6797 52.2043C101.755 58.0155 101.639 75.6333 101.676 75.8206C101.836 75.8206 134.503 75.4619 137.008 75.8206C137.129 65.115 134.519 54.5552 129.425 45.1383C124.331 35.7214 116.922 27.758 107.896 22Z" fill="#FCD7C1"/>
<path d="M88.3142 52.2188C85.4831 56.4639 77.1722 69.353 74.0352 75.2779C74.1953 75.2619 73.2937 74.7302 101.312 75.643C101.312 64.0205 95.1343 55.2469 88.3142 52.2188Z" fill="white"/>
<path d="M101.126 76.0105C100.966 76.0025 74.7422 75.8504 74.582 76.0105C78.2186 82.5759 84.3966 92.1839 88.4944 99.2602C89.9404 97.8142 101.126 91.2872 101.126 76.0105Z" fill="#FEECE1"/>
<path d="M59.75 52.0321C71.6575 71.517 74.029 75.6469 74.029 75.6469C74.029 75.6469 83.376 59.8866 88.1207 52.7639C80.2086 46.9479 71.0426 46.3858 59.75 52.0321Z" fill="#FEECE1"/>
<path d="M59.5727 52.3981C39.8764 20.1554 40.802 21.2555 40.7171 21.0938C31.4521 26.7105 23.7787 34.605 18.4273 44.0258C13.0759 53.4465 10.2245 64.0801 10.1445 74.9144C33.4775 74.9144 27.165 75.2555 46.5747 74.9144C46.4034 70.3186 47.5323 65.7676 49.8315 61.7846C52.1308 57.8016 55.5072 54.5481 59.5727 52.3981Z" fill="#FCD7C1"/>
<path d="M73.4829 75.2736C68.0528 67.5872 70.2322 68.8683 59.9357 52.3906C51.0804 55.9328 45.4149 69.243 46.3901 75.0895C70.9737 75.0943 48.8897 74.979 73.4829 75.2736Z" fill="white"/>
<path d="M46.3899 75.2812C45.2193 80.5432 48.2026 90.4618 59.2005 98.7135C60.1917 97.7223 73.723 75.8433 73.8463 75.6544C70.1008 75.4526 54.6607 75.2812 46.3899 75.2812Z" fill="#FEECE1"/>
<path d="M137.781 73.5844C137.412 60.948 133.327 48.7004 126.037 38.3721C118.748 28.0437 108.576 20.0924 96.7931 15.5117C85.0103 10.931 72.1389 9.92395 59.7871 12.6164C47.4353 15.3088 36.1507 21.5813 27.3433 30.6503C18.5358 39.7192 12.596 51.1824 10.266 63.6077C7.93603 76.033 9.31913 88.8694 14.2425 100.513C19.1659 112.157 27.4113 122.092 37.9484 129.076C48.4856 136.061 60.8474 139.786 73.4892 139.785C82.091 139.774 90.6033 138.04 98.5238 134.685C106.444 131.33 113.613 126.423 119.605 120.252C125.598 114.081 130.294 106.773 133.416 98.7575C136.537 90.7422 138.022 82.1828 137.781 73.5844ZM87.5057 52.535L73.9809 73.9768L60.8131 52.1875C64.9043 49.9066 69.5221 48.7383 74.2058 48.7993C78.8894 48.8603 83.4752 50.1483 87.5057 52.535ZM88.8588 53.3933C92.3761 55.7651 95.281 58.9368 97.3356 62.6484C99.3901 66.3599 100.536 70.5056 100.678 74.7454H75.3772L88.8588 53.3933ZM72.5797 74.7518H47.0257C47.1742 70.3932 48.3819 66.1363 50.5444 62.3492C52.707 58.562 55.7593 55.3584 59.4376 53.0154L72.5797 74.7518ZM47.0193 76.3531H72.4804L58.8803 97.9118C55.3275 95.5244 52.3972 92.322 50.3339 88.5717C48.2706 84.8214 47.1341 80.632 47.0193 76.3531ZM73.952 77.0241L87.1918 98.9303C83.0849 101.288 78.4265 102.515 73.691 102.487C68.9556 102.459 64.3121 101.176 60.2334 98.7701L73.952 77.0241ZM75.4188 76.3531H100.685C100.568 80.6864 99.4037 84.927 97.2916 88.7125C95.1795 92.498 92.1823 95.7159 88.5561 98.0912L75.4188 76.3531ZM136.204 74.7518H102.281C102.138 70.2413 100.923 65.8296 98.7376 61.8813C96.5521 57.9329 93.4585 54.5613 89.7123 52.045L107.977 23.0962C116.549 28.7398 123.605 36.4007 128.527 45.4069C133.448 54.4131 136.084 64.4894 136.204 74.7518ZM40.702 22.0073L58.6097 51.6318C54.6946 54.1183 51.4466 57.524 49.1483 61.5524C46.85 65.5808 45.571 70.1098 45.4228 74.7454H10.7684C10.8946 64.1415 13.7064 53.7426 18.941 44.52C24.1757 35.2974 31.6625 27.552 40.702 22.0073ZM41.0687 129.136L59.3783 100.122C63.7082 102.688 68.6425 104.057 73.6755 104.088C78.7086 104.12 83.6596 102.813 88.0213 100.301L105.57 129.339C95.8133 135.164 84.6549 138.223 73.2917 138.187C61.9286 138.152 50.7894 135.024 41.0687 129.139V129.136Z" fill="#562C13"/>
<path d="M71.3987 237.812H115.591L112.844 258.092H57.6289L71.3987 237.812Z" fill="white"/>
<path d="M90.6309 210.078L82.1055 222.74H117.788L119.437 210.078H90.6309Z" fill="white"/>
<path d="M81.2516 222.742L71.1328 237.923H115.815L117.783 222.742H81.2516Z" fill="#FEECE1"/>
<path d="M98.1441 200.766C97.7626 200.76 97.3856 200.849 97.0477 201.026C96.7097 201.203 96.4216 201.462 96.2097 201.78L90.6211 210.082H119.531L120.182 202.507C120.196 202.33 120.174 202.152 120.117 201.985C120.06 201.817 119.97 201.663 119.851 201.531C119.732 201.4 119.588 201.294 119.426 201.221C119.265 201.148 119.09 201.109 118.913 201.105L98.1441 200.766Z" fill="#FEECE1"/>
<path d="M57.1595 258.094L43.1831 278.62C42.8551 279.138 42.668 279.732 42.6403 280.345C42.6126 280.957 42.7452 281.566 43.025 282.112C43.3048 282.657 43.7221 283.12 44.2357 283.455C44.7493 283.79 45.3413 283.985 45.9534 284.021H103.427C104.905 284.062 106.348 283.565 107.488 282.623C108.628 281.68 109.388 280.356 109.625 278.897L112.849 258.097L57.1595 258.094Z" fill="#FEECE1"/>
<path d="M121.153 202.327C121.124 201.735 120.876 201.176 120.457 200.757C120.038 200.339 119.478 200.091 118.887 200.062H98.3899C97.7922 200.083 97.2072 200.241 96.6798 200.523C96.1524 200.805 95.6966 201.204 95.3474 201.689L42.4331 278.039C41.9822 278.684 41.7442 279.454 41.7526 280.241C41.7043 280.836 41.7785 281.434 41.9705 281.999C42.1626 282.564 42.4684 283.083 42.869 283.525C43.2697 283.967 43.7568 284.323 44.3001 284.569C44.8435 284.816 45.4316 284.948 46.0281 284.959H103.327C105.182 284.922 106.964 284.225 108.351 282.992C109.738 281.759 110.64 280.071 110.893 278.233C120 216.161 121.265 204.673 121.09 202.33L121.153 202.327ZM72.6662 237.225L82.0868 223.632H117.082C116.463 228.165 115.833 232.695 115.194 237.225H72.6662ZM114.967 238.826C114.211 244.181 113.334 250.322 112.315 257.361H58.7106L71.5565 238.826H114.967ZM83.1965 222.031L90.8413 211.001H118.748C118.407 213.723 117.939 217.314 117.298 222.031H83.1965ZM109.308 278.006C109.113 279.465 108.403 280.806 107.307 281.789C106.21 282.771 104.799 283.33 103.327 283.364H46.0281C45.648 283.353 45.2742 283.264 44.93 283.103C44.5857 282.941 44.2784 282.711 44.0272 282.425C43.776 282.14 43.5863 281.805 43.4699 281.444C43.3535 281.082 43.3129 280.699 43.3507 280.321C43.3355 279.831 43.4781 279.35 43.7574 278.947L57.6009 258.971H112.083C111.252 264.715 110.331 271.033 109.308 278.006ZM118.945 209.406H91.951L96.6445 202.633C96.8461 202.354 97.1066 202.124 97.4075 201.958C97.7084 201.792 98.0422 201.694 98.3851 201.672H118.882C119.049 201.696 119.204 201.774 119.324 201.894C119.444 202.013 119.522 202.168 119.547 202.335C119.547 202.457 119.575 202.578 119.627 202.689C119.63 203.188 119.511 204.761 118.945 209.4V209.406Z" fill="#562C13"/>
<path d="M247.597 182.176C247.366 181.904 247.062 181.704 246.721 181.601C246.4 181.441 246.037 181.281 245.659 181.121C245.824 179.548 245.646 177.959 245.14 176.461C244.633 174.963 243.809 173.593 242.724 172.443C243.566 172.703 244.32 173.191 244.901 173.854C245.462 174.77 247.944 174.672 246.428 172.245C245.475 170.796 244.698 169.24 244.112 167.609C236.464 148.676 232.102 128.416 226.75 108.934C226.138 106.564 224.907 104.4 223.183 102.662C221.423 101.509 219.44 100.74 217.363 100.406C213.586 99.5027 211.254 98.5387 199.108 96.1783C198.567 95.1306 197.75 94.2507 196.745 93.6338C196.578 93.5327 196.381 93.4957 196.189 93.5297L195.452 92.0597C196.201 91.0204 196.827 89.8979 197.318 88.7145C198.01 88.913 198.737 88.9505 199.446 88.8242C200.154 88.6979 200.824 88.4112 201.405 87.9859C202.52 87.0018 203.41 85.7894 204.015 84.431C204.471 84.2798 204.867 83.9891 205.149 83.5999C205.488 83.7447 205.861 83.7902 206.226 83.7313C206.59 83.6723 206.93 83.5112 207.206 83.2668C207.496 83.0629 207.726 82.7849 207.872 82.4618C208.017 82.1386 208.073 81.7823 208.034 81.4301C208.54 80.8357 208.97 80.1811 209.315 79.4812C209.547 79.0185 210.577 78.1393 210.537 76.9832C210.769 76.8149 210.965 76.6017 211.113 76.3562C211.261 76.1107 211.359 75.838 211.399 75.5542C211.44 75.2704 211.423 74.9813 211.35 74.7041C211.276 74.4269 211.148 74.1673 210.973 73.9407C211.248 73.6609 211.406 73.2861 211.415 72.8934C211.424 72.443 211.306 71.9991 211.075 71.6123C211.329 71.2075 211.477 70.745 211.505 70.2677C211.533 69.7905 211.44 69.3139 211.235 68.8821C211.492 68.4224 211.675 67.9253 211.778 67.4088C211.781 67.1211 211.722 66.8361 211.604 66.5739C211.485 66.3116 211.311 66.0785 211.093 65.8908C211.166 65.4413 211.11 64.9803 210.931 64.5616C210.752 64.1428 210.457 63.7835 210.082 63.5256C210.19 63.2368 210.234 62.9285 210.214 62.6211C210.193 62.3136 210.107 62.0142 209.961 61.7426C209.815 61.471 209.614 61.2335 209.369 61.0459C209.125 60.8583 208.843 60.7248 208.543 60.6544C208.508 60.5669 208.462 60.484 208.406 60.4078C208.487 59.8365 208.402 59.2537 208.161 58.7296C208.013 58.4888 207.815 58.2833 207.579 58.1275C207.344 57.9717 207.077 57.8695 206.798 57.8281C206.694 57.4678 206.511 57.1355 206.262 56.8557C206.012 56.576 205.703 56.3561 205.357 56.2123C205.26 55.8541 205.069 55.5284 204.803 55.2688C204.538 55.0092 204.208 54.8252 203.848 54.7359C203.693 54.7063 203.535 54.6993 203.377 54.7151C203.297 54.4899 203.201 54.2705 203.091 54.0586C202.922 53.8061 202.686 53.6061 202.409 53.4815C202.132 53.3569 201.826 53.3127 201.525 53.354C201.354 53.067 201.12 52.8228 200.84 52.6399C200.561 52.4571 200.244 52.3404 199.912 52.2987C199.827 52.0101 199.684 51.7421 199.491 51.5112C199.298 51.2803 199.059 51.0914 198.791 50.9563C198.522 50.8212 198.228 50.7428 197.928 50.7258C197.627 50.7088 197.327 50.7536 197.044 50.8575C196.944 50.7067 196.812 50.5799 196.657 50.4861C196.503 50.3922 196.329 50.3337 196.149 50.3147C195.646 50.1945 195.119 50.2354 194.641 50.4316C194.353 50.1074 193.973 49.8799 193.552 49.7801C193.131 49.6804 192.689 49.7133 192.287 49.8743C192.005 49.5604 191.634 49.3399 191.224 49.2423C190.814 49.1448 190.383 49.1747 189.99 49.3282C189.656 49.053 189.242 48.8924 188.81 48.8699C188.378 48.8474 187.949 48.9643 187.588 49.2033C187.118 49.0265 186.603 49.0063 186.12 49.1456C185.637 49.285 185.212 49.5765 184.908 49.9768C184.572 49.6784 184.147 49.5007 183.699 49.4717C183.251 49.4426 182.806 49.5641 182.435 49.8166C181.987 49.5079 181.448 49.3576 180.905 49.3895C180.361 49.4214 179.844 49.6337 179.434 49.9928C179.011 49.8417 178.55 49.8316 178.121 49.9641C177.691 50.0965 177.316 50.3645 177.052 50.7278C176.862 50.6079 176.651 50.527 176.429 50.4897C176.208 50.4525 175.982 50.4596 175.764 50.5107C175.545 50.5618 175.339 50.6559 175.158 50.7875C174.976 50.9191 174.822 51.0855 174.706 51.2771C174.424 51.5517 174.194 51.8743 174.025 52.2298C173.529 52.1994 173.037 52.3458 172.638 52.643C172.239 52.9403 171.959 53.3691 171.846 53.8536C171.483 53.8634 171.127 53.9496 170.8 54.1066C170.354 54.4202 170.046 54.8941 169.94 55.4293C169.506 55.387 169.069 55.481 168.691 55.6983C168.395 55.8271 168.142 56.0396 167.964 56.3099C167.787 56.5801 167.692 56.8963 167.692 57.2196C167.209 57.371 166.792 57.6813 166.508 58.0999C166.224 58.5186 166.09 59.021 166.127 59.5255C165.686 59.729 165.343 60.0994 165.174 60.5555C165.005 61.0116 165.025 61.516 165.227 61.9579C164.926 62.2821 164.717 62.6807 164.62 63.1127C164.524 63.5447 164.545 63.9945 164.68 64.4159C164.469 64.629 164.317 64.8925 164.237 65.1813C164.157 65.4701 164.153 65.7745 164.225 66.0653C164.249 66.4763 164.413 66.8667 164.689 67.1718C164.418 67.4471 164.233 67.7955 164.157 68.1744C164.081 68.5532 164.117 68.946 164.26 69.3048C164.361 69.6114 164.547 69.883 164.797 70.0879C164.684 70.5055 164.718 70.9493 164.893 71.345C165.067 71.7407 165.373 72.0646 165.757 72.2625C165.728 72.6183 165.788 72.976 165.932 73.3026C166.077 73.6293 166.301 73.9145 166.584 74.1322C166.867 74.3498 167.2 74.4929 167.553 74.5484C167.906 74.604 168.267 74.5701 168.603 74.4499C168.794 74.8173 169.064 75.1375 169.395 75.3868C169.726 75.6362 170.108 75.8085 170.513 75.8911C171.128 75.8842 171.72 75.6524 172.176 75.2393C172.382 75.4053 172.615 75.5338 172.866 75.6188C171.992 78.1653 171.63 80.859 171.799 83.5458C171.968 86.2326 172.665 88.8596 173.851 91.2766C174.844 93.2077 176.34 94.8342 178.182 95.9841C180.024 97.134 182.143 97.7643 184.314 97.8084C174.489 101.011 169.024 103.078 167.567 104.18C166.267 105.554 165.235 107.159 164.524 108.912C162.465 112.382 161.099 114.73 155.16 123.436C150.955 111.436 145.552 102.066 144.807 101.533C144.735 101.433 144.641 101.352 144.532 101.294C144.423 101.237 144.303 101.205 144.18 101.202C142.803 99.6287 141.251 98.2184 139.553 96.9982C138.182 95.8545 136.598 94.9945 134.892 94.4681C133.999 94.1705 133.054 94.0578 132.116 94.1368C131.178 94.2158 130.265 94.4849 129.435 94.9277C127.172 96.4361 127.969 98.4218 130.52 99.5267C127.335 100.769 125.415 105.546 125.788 108.864C125.984 110.585 126.83 112.167 128.153 113.285C128.988 113.844 128.985 113.634 128.863 113.801C128.25 114.243 128.61 114.89 128.986 115.54C130.897 123.209 135.292 129.712 139.299 135.236C141.192 137.759 143.333 140.085 145.691 142.18C147.848 143.866 150.224 145.251 152.755 146.297C154.041 147.025 155.555 147.24 156.993 146.899C158.447 146.156 159.75 145.149 160.837 143.93C165.624 138.775 169.657 132.968 172.816 126.682C175.057 133.829 178.423 140.574 182.789 146.66C176.238 149.647 169.908 153.098 163.849 156.987C159.115 160.07 151.96 164.728 149.265 171.266C148.45 173.212 148.419 175.398 149.179 177.366C149.939 179.334 151.431 180.931 153.342 181.824C155.696 182.845 158.236 183.367 160.801 183.356C170.976 183.436 184.312 179.814 197.622 170.92C197.682 171.369 197.715 171.821 197.72 172.273C197.51 172.328 197.305 172.398 197.105 172.483C196.689 172.657 196.315 172.916 196.005 173.244C195.695 173.571 195.457 173.96 195.307 174.384C195.156 174.809 195.096 175.261 195.129 175.71C195.163 176.16 195.291 176.597 195.504 176.994C197.457 179.599 200.308 178.972 203.467 178.413C204.131 178.433 204.792 178.312 205.405 178.057C206.018 177.803 206.571 177.421 207.025 176.936C206.726 178.527 206.958 180.172 207.687 181.617C207.998 182.159 208.423 182.627 208.933 182.988C209.444 183.35 210.026 183.595 210.641 183.708C213.806 184.244 217.055 183.992 220.1 182.975C221.105 182.91 222.044 182.451 222.713 181.698C223.382 180.945 223.726 179.958 223.671 178.953C223.889 177.114 223.491 175.256 222.539 173.668C223.062 173.361 223.459 172.878 223.66 172.305C223.856 171.707 224.027 171.107 224.172 170.507C224.665 173.221 225.565 178.663 225.565 178.663C225.597 178.873 225.711 179.061 225.882 179.187C226.053 179.313 226.267 179.366 226.477 179.334C226.687 179.303 226.876 179.189 227.002 179.018C227.128 178.847 227.181 178.633 227.149 178.423C227.362 177.878 227.696 177.389 228.126 176.993C227.692 178.672 226.822 180.208 225.604 181.444C225.325 181.669 225.095 181.949 224.93 182.267C224.765 182.585 224.667 182.933 224.643 183.291C224.643 184.091 225.292 184.756 226.626 185.183C227.442 185.284 228.271 185.201 229.051 184.94C229.831 184.679 230.543 184.246 231.135 183.675C231.973 182.851 232.683 181.906 233.241 180.871C236.584 183.382 242.335 186.796 246.304 185.472C247.243 185.031 247.473 184.857 247.694 184.501C247.979 184.175 248.128 183.752 248.11 183.319C248.092 182.886 247.908 182.477 247.597 182.176ZM198.258 98.5755C198.525 99.889 198.393 101.252 197.879 102.49C197.365 103.728 196.494 104.785 195.376 105.524C194.388 106.055 193.238 106.205 192.148 105.943C191.057 105.681 190.1 105.026 189.462 104.103C188.97 103.422 188.618 102.65 188.426 101.832C188.233 101.013 188.204 100.165 188.341 99.3361C188.45 100.407 188.886 101.418 189.59 102.232C190.295 103.047 191.233 103.624 192.277 103.885C192.523 103.919 192.772 103.927 193.02 103.91C194.389 103.8 195.672 103.2 196.634 102.22C197.596 101.24 198.173 99.9461 198.258 98.5755ZM195.971 96.6939C196.033 96.8179 196.126 96.9236 196.241 97.0008C196.357 97.078 196.49 97.124 196.628 97.1343C197.065 99.445 195.374 102.308 193.026 102.308H192.581C192.013 102.144 191.492 101.846 191.063 101.438C190.635 101.03 190.311 100.525 190.118 99.9654C190.267 99.8832 190.385 99.7558 190.457 99.6019C190.528 99.4479 190.549 99.2752 190.516 99.1087C190.34 98.2919 190.105 97.4891 189.813 96.7067C191.53 95.9369 193.069 94.8216 194.336 93.4304L195.971 96.6939ZM172.931 73.6252C172.887 73.4528 172.787 73.2999 172.647 73.1908C172.506 73.0816 172.333 73.0223 172.156 73.0223C171.978 73.0223 171.805 73.0816 171.664 73.1908C171.524 73.2999 171.424 73.4528 171.38 73.6252C171.327 73.7967 171.228 73.9501 171.093 74.0681C170.958 74.1861 170.793 74.264 170.616 74.2929C170.296 74.1328 169.847 73.59 169.866 73.3882C169.924 73.2999 169.963 73.2012 169.982 73.0977C170.001 72.9943 169.999 72.8881 169.977 72.7853C169.955 72.6825 169.913 72.585 169.853 72.4984C169.793 72.4119 169.717 72.338 169.629 72.2809C169.54 72.2238 169.442 72.1846 169.338 72.1657C169.235 72.1467 169.129 72.1484 169.026 72.1704C168.923 72.1925 168.825 72.2346 168.739 72.2944C168.652 72.3541 168.578 72.4304 168.521 72.5187C168.281 72.855 168.023 73.0327 167.801 72.9991C167.724 72.9824 167.651 72.9496 167.587 72.903C167.523 72.8563 167.47 72.7968 167.431 72.7283C167.391 72.6597 167.367 72.5837 167.359 72.5051C167.351 72.4265 167.36 72.3471 167.384 72.2721C167.523 72.1839 167.637 72.0616 167.715 71.917C167.793 71.7723 167.832 71.6101 167.83 71.4458C167.83 71.2919 167.786 71.1413 167.702 71.0119C167.619 70.8825 167.5 70.7798 167.36 70.7162C167.22 70.6525 167.065 70.6305 166.913 70.6528C166.76 70.6751 166.618 70.7409 166.502 70.8421C166.419 70.8013 166.356 70.7302 166.324 70.6435C166.287 70.5314 166.44 70.4113 166.55 70.3745C166.752 70.3074 166.918 70.163 167.013 69.973C167.108 69.7831 167.124 69.5632 167.057 69.3617C166.99 69.1601 166.845 68.9935 166.655 68.8985C166.466 68.8034 166.246 68.7877 166.044 68.8548C165.94 68.8901 165.812 68.9093 165.759 68.7684C165.637 68.4481 165.815 68.288 166.497 67.6186C166.594 67.5216 166.664 67.4014 166.701 67.2695C166.739 67.1376 166.741 66.9984 166.709 66.8651C166.677 66.7319 166.611 66.6092 166.518 66.5087C166.425 66.4082 166.307 66.3333 166.177 66.2911C165.809 66.1694 165.809 66.0189 165.809 65.9532C165.808 65.8672 165.794 65.7818 165.767 65.7002C165.73 65.5881 165.882 65.4696 165.993 65.4312C166.123 65.3888 166.239 65.3139 166.332 65.2136C166.425 65.1134 166.49 64.9911 166.522 64.8584C166.554 64.7257 166.552 64.587 166.515 64.4554C166.479 64.3239 166.409 64.2039 166.313 64.1069C166.24 64.0075 166.192 63.8928 166.171 63.7715C166.15 63.6502 166.157 63.5258 166.192 63.4077C166.227 63.2897 166.288 63.1813 166.372 63.0909C166.455 63.0006 166.558 62.9307 166.673 62.8867C166.841 62.8445 166.991 62.749 167.1 62.6146C167.209 62.4802 167.272 62.314 167.278 62.141C167.285 61.9681 167.235 61.7976 167.137 61.6552C167.039 61.5127 166.897 61.406 166.733 61.351C166.614 61.311 166.675 61.1108 166.675 61.1108C166.699 61.0371 166.725 60.9603 166.958 61.0387C167.117 61.0916 167.288 61.0936 167.447 61.0445C167.607 60.9954 167.747 60.8977 167.848 60.765C167.949 60.6323 168.007 60.4713 168.012 60.3045C168.017 60.1377 167.97 59.9734 167.878 59.8345C167.474 59.2276 167.948 58.6816 168.358 58.7521C168.472 58.8144 168.598 58.8514 168.727 58.8606C168.857 58.8698 168.987 58.851 169.109 58.8054C169.23 58.7598 169.341 58.6885 169.432 58.5964C169.524 58.5043 169.594 58.3935 169.639 58.2717C169.675 58.1181 169.665 57.9573 169.61 57.8094C169.555 57.6616 169.458 57.5332 169.33 57.4406C169.308 57.405 169.294 57.3654 169.288 57.324C169.282 57.2826 169.285 57.2405 169.296 57.2004C169.364 57.1782 169.428 57.147 169.487 57.1075C169.718 56.9474 170.137 57.0947 170.43 57.29C170.584 57.3921 170.769 57.4378 170.952 57.4193C171.136 57.4009 171.308 57.3194 171.439 57.1888C171.569 57.0582 171.651 56.8864 171.669 56.7026C171.688 56.5188 171.642 56.3343 171.54 56.1803C171.493 56.0721 171.476 55.9533 171.491 55.8364C171.506 55.7195 171.552 55.6088 171.625 55.5158C171.853 55.4455 172.099 55.4551 172.321 55.543C172.462 55.6845 172.65 55.7686 172.849 55.7788C173.048 55.7891 173.243 55.7248 173.397 55.5985C173.551 55.4722 173.653 55.293 173.682 55.0959C173.711 54.8988 173.665 54.6979 173.554 54.5325C173.327 54.1915 173.442 54.0762 173.49 54.0281C173.627 53.9223 173.793 53.8621 173.965 53.8561C174.138 53.8501 174.308 53.8985 174.451 53.9945C174.611 54.101 174.803 54.1467 174.993 54.1233C175.184 54.0999 175.359 54.009 175.488 53.867C175.617 53.7251 175.691 53.5415 175.696 53.3498C175.701 53.1581 175.637 52.9709 175.516 52.8223C175.622 52.6562 175.747 52.5026 175.887 52.3644C175.957 52.2609 176.047 52.1735 176.153 52.1081C176.385 52.2077 176.601 52.3416 176.794 52.5053C176.903 52.5872 177.032 52.6398 177.167 52.658C177.302 52.6763 177.44 52.6596 177.567 52.6095C177.694 52.5594 177.807 52.4776 177.893 52.3719C177.98 52.2662 178.038 52.1401 178.062 52.0057C178.226 51.8025 178.426 51.631 178.651 51.4996C178.661 51.5365 178.674 51.5829 178.683 51.6406C178.718 51.8521 178.835 52.0416 179.007 52.1689C179.18 52.2963 179.395 52.3514 179.607 52.3227C179.709 52.3091 179.806 52.2752 179.894 52.2231C179.982 52.1711 180.059 52.1018 180.12 52.0195C180.181 51.9372 180.224 51.8436 180.248 51.7441C180.272 51.6446 180.276 51.5413 180.259 51.4404C180.382 51.2915 180.538 51.174 180.715 51.0977C180.892 51.0214 181.085 50.9885 181.278 51.0016C181.346 51.0144 181.417 51.0272 181.417 51.3219C181.417 51.502 181.478 51.6768 181.59 51.8179C181.702 51.9591 181.859 52.0583 182.034 52.0996C182.209 52.1409 182.393 52.1218 182.557 52.0455C182.72 51.9692 182.853 51.84 182.933 51.679C183.116 51.3171 183.338 51.0961 183.532 51.0913C183.724 51.1153 184 51.2514 184.269 51.719C184.341 51.8447 184.446 51.9484 184.572 52.0193C184.698 52.0901 184.841 52.1253 184.986 52.1212C185.131 52.1171 185.272 52.0738 185.394 51.9959C185.516 51.9181 185.615 51.8085 185.68 51.679C186.09 50.8591 186.565 50.699 186.7 50.6701C186.789 50.6509 186.847 50.6589 186.881 50.707C186.873 50.8263 186.891 50.9459 186.934 51.0575C186.977 51.1691 187.043 51.27 187.129 51.3531C187.215 51.4363 187.318 51.4998 187.431 51.5391C187.544 51.5785 187.664 51.5928 187.783 51.581C187.902 51.5692 188.017 51.5316 188.12 51.4709C188.223 51.4101 188.311 51.3277 188.379 51.2292C188.447 51.1308 188.493 51.0188 188.513 50.9009C188.533 50.7831 188.528 50.6623 188.496 50.5468C188.672 50.3739 189.058 50.5805 189.146 50.8463C189.202 51.0147 189.313 51.1599 189.46 51.2589C189.607 51.3579 189.783 51.4051 189.96 51.3932C190.137 51.3813 190.305 51.3109 190.438 51.193C190.571 51.0752 190.661 50.9166 190.693 50.7422C190.693 50.779 190.703 50.8015 190.751 50.8047C190.892 50.8436 191.021 50.9185 191.125 51.022C191.229 51.1256 191.304 51.2543 191.343 51.3955C191.391 51.5381 191.477 51.6645 191.592 51.7603C191.708 51.8562 191.848 51.9177 191.997 51.9377C192.146 51.9577 192.297 51.9355 192.434 51.8737C192.57 51.8118 192.687 51.7127 192.77 51.5877C192.922 51.3587 193.001 51.3267 193.026 51.3107C193.311 51.4391 193.564 51.6289 193.766 51.8663C193.823 51.9796 193.906 52.0778 194.008 52.1528C194.11 52.2278 194.229 52.2775 194.354 52.2978C194.479 52.3181 194.607 52.3085 194.727 52.2697C194.848 52.2308 194.958 52.164 195.047 52.0745C195.128 51.99 195.231 51.9291 195.343 51.8986C195.456 51.8682 195.575 51.8692 195.688 51.9016L195.757 51.9224C195.679 52.1022 195.669 52.3044 195.73 52.4907C195.791 52.677 195.919 52.8344 196.088 52.9331C196.257 53.0318 196.457 53.065 196.649 53.0262C196.841 52.9875 197.013 52.8796 197.131 52.7231C197.183 52.6331 197.253 52.5554 197.338 52.4953C197.422 52.4351 197.519 52.3939 197.621 52.3744C197.723 52.355 197.828 52.3577 197.929 52.3825C198.03 52.4073 198.124 52.4536 198.205 52.5181L198.303 52.7759C198.155 52.9229 198.071 53.1218 198.067 53.3303C198.064 53.5387 198.142 53.7402 198.285 53.892C198.427 54.0438 198.624 54.1339 198.832 54.1432C199.04 54.1525 199.244 54.0802 199.4 53.9417C199.501 53.9205 199.606 53.921 199.708 53.9433C199.809 53.9656 199.905 54.0091 199.988 54.071C200.071 54.1329 200.141 54.2117 200.191 54.3023C200.242 54.3929 200.273 54.4932 200.282 54.5966C200.329 54.7395 200.41 54.8689 200.517 54.9739C200.625 55.0788 200.757 55.1562 200.901 55.1995C201.045 55.2427 201.197 55.2505 201.345 55.2222C201.492 55.1939 201.631 55.1304 201.749 55.037C201.854 55.2497 201.908 55.4836 201.909 55.7207C201.89 55.8736 201.919 56.0284 201.992 56.1643C202.064 56.3002 202.176 56.4106 202.314 56.4805C202.451 56.5504 202.606 56.5765 202.759 56.5551C202.911 56.5338 203.053 56.4661 203.166 56.3613C203.278 56.3413 203.391 56.3333 203.504 56.3373C203.588 56.3665 203.661 56.4223 203.711 56.4962C203.761 56.5701 203.785 56.6581 203.781 56.7472C203.741 56.8676 203.729 56.9959 203.748 57.1214C203.767 57.247 203.816 57.3663 203.89 57.4694C204.16 57.8425 204.518 57.8009 204.873 57.8009C205.012 57.8858 205.121 58.012 205.185 58.1619C205.248 58.3117 205.264 58.4778 205.229 58.6368C205.189 58.7935 205.198 58.9585 205.254 59.1101C205.311 59.2616 205.411 59.3926 205.543 59.4858C205.675 59.5791 205.833 59.6301 205.994 59.6324C206.156 59.6346 206.314 59.5878 206.449 59.4983C206.534 59.4406 206.662 59.4983 206.747 59.5783C206.982 60.4687 206.426 60.6993 206.833 61.295C206.889 61.3755 206.959 61.4445 207.041 61.4983C207.067 61.6922 207.162 61.87 207.31 61.9983C207.457 62.1266 207.646 62.1966 207.842 62.1949C207.983 62.1754 208.127 62.2004 208.253 62.2665C208.379 62.3325 208.482 62.4362 208.547 62.5632C208.583 62.7053 208.586 62.8537 208.556 62.9972C208.526 63.1407 208.464 63.2754 208.374 63.3911C208.261 63.4971 208.183 63.6351 208.15 63.7866C208.118 63.9382 208.133 64.096 208.192 64.2389C208.252 64.3819 208.354 64.5032 208.485 64.5866C208.615 64.6701 208.768 64.7116 208.923 64.7058C209.097 64.8803 209.376 64.9028 209.48 65.3463C209.504 65.4323 209.51 65.5225 209.495 65.6107C209.481 65.6989 209.448 65.783 209.398 65.8571C209.309 65.9761 209.255 66.1175 209.242 66.2656C209.228 66.4137 209.256 66.5626 209.323 66.6956C209.389 66.8286 209.492 66.9405 209.618 67.0186C209.745 67.0968 209.89 67.1382 210.039 67.1382C210.098 67.1896 210.138 67.2606 210.149 67.3384C210.059 67.7001 209.895 68.0395 209.669 68.336C209.519 68.4861 209.435 68.6893 209.435 68.9013C209.435 69.5114 209.964 69.4409 209.896 70.2032C209.863 70.5336 209.718 70.8429 209.487 71.0807C209.336 71.2308 209.252 71.4344 209.252 71.6467C209.252 71.8591 209.336 72.0627 209.487 72.2128C209.583 72.2912 209.661 72.3886 209.718 72.4988C209.775 72.609 209.808 72.7297 209.816 72.8533C209.715 72.9679 209.582 73.0489 209.434 73.0855C209.291 73.1329 209.165 73.2192 209.069 73.3348C208.974 73.4505 208.912 73.5906 208.892 73.7394C208.873 73.8881 208.895 74.0395 208.957 74.1761C209.019 74.3128 209.118 74.4293 209.243 74.5123C209.399 74.5929 209.532 74.7122 209.629 74.8588C209.726 75.0054 209.784 75.1745 209.797 75.3498C209.797 75.5276 209.712 75.6317 209.754 75.6493C209.596 75.5975 209.425 75.5962 209.267 75.6457C209.108 75.6952 208.968 75.793 208.867 75.9254C208.767 76.0579 208.71 76.2184 208.704 76.3847C208.699 76.5511 208.746 76.7149 208.838 76.8535C209.158 77.3467 208.233 78.0785 207.877 78.7751C207.616 79.2655 207.324 79.7389 207.003 80.1922C206.887 80.2095 206.777 80.252 206.679 80.3166C206.581 80.3813 206.499 80.4665 206.438 80.5664C206.377 80.6662 206.339 80.7782 206.326 80.8945C206.312 81.0108 206.325 81.1286 206.362 81.2395C206.635 82.0578 205.898 82.4709 205.309 81.88C205.197 81.7684 205.054 81.6924 204.899 81.6617C204.744 81.631 204.583 81.6468 204.437 81.7073C204.291 81.7677 204.166 81.8701 204.078 82.0014C203.99 82.1327 203.943 82.2872 203.943 82.4453V82.4853C203.901 82.6229 203.813 82.7419 203.694 82.8221C203.574 82.9023 203.431 82.9389 203.288 82.9257C203.064 82.8349 202.866 82.6899 202.713 82.5038C202.559 82.3176 202.454 82.0961 202.407 81.8592C202.373 81.7217 202.302 81.5957 202.203 81.4942C202.104 81.3928 201.98 81.3194 201.844 81.2816C201.707 81.2438 201.563 81.243 201.426 81.2792C201.289 81.3154 201.164 81.3874 201.064 81.4877C200.911 81.6482 200.787 81.8341 200.698 82.037C200.503 82.2307 200.218 82.4325 200 82.2195C199.782 82.0065 199.605 81.7391 199.818 81.5213C199.954 81.3578 200.019 81.147 199.999 80.9353C199.98 80.7236 199.877 80.5283 199.714 80.3924C199.55 80.2565 199.339 80.1911 199.128 80.2106C198.916 80.2302 198.721 80.333 198.585 80.4965C197.904 80.8872 197.368 79.8736 197.981 79.7182C198.171 79.6707 198.336 79.5555 198.447 79.3943C198.557 79.2332 198.605 79.0371 198.581 78.8432C198.557 78.6492 198.463 78.4708 198.316 78.3414C198.17 78.2121 197.981 78.1408 197.786 78.1409C197.616 78.1409 197.331 78.1585 197.305 77.992C197.305 77.9439 197.316 77.8965 197.338 77.8532C197.359 77.81 197.389 77.772 197.427 77.7422C199.07 77.2618 198.351 75.6605 197.352 75.9807C197.168 76.0413 196.991 76.1185 196.822 76.2113C196.781 76.2097 196.741 76.197 196.706 76.1745C196.664 76.0932 196.653 75.9991 196.676 75.9103C196.767 75.83 196.84 75.7305 196.888 75.6188C196.936 75.5072 196.959 75.3863 196.955 75.2647C196.951 75.1431 196.92 75.024 196.865 74.9158C196.809 74.8076 196.73 74.7131 196.634 74.639C196.537 74.565 196.426 74.5132 196.307 74.4875C196.188 74.4618 196.065 74.4627 195.946 74.4903C195.828 74.5178 195.717 74.5713 195.621 74.6468C195.526 74.7223 195.449 74.818 195.395 74.9271C195.314 74.9713 195.225 75.0011 195.134 75.0151C194.981 74.9809 194.844 74.8989 194.741 74.7811C194.639 74.6633 194.577 74.5158 194.564 74.3602C194.564 74.2018 194.517 74.0469 194.429 73.9152C194.34 73.7835 194.215 73.6809 194.069 73.6204C193.923 73.5599 193.761 73.5442 193.606 73.5752C193.451 73.6063 193.308 73.6828 193.196 73.7949C193.111 73.9006 193.001 73.9847 192.877 74.0403C192.753 74.096 192.618 74.1216 192.482 74.1152C192.428 74.1094 192.376 74.0921 192.33 74.0644C192.284 74.0366 192.244 73.9992 192.214 73.9545C192.183 73.9099 192.163 73.8592 192.154 73.806C192.145 73.7527 192.148 73.6981 192.162 73.646C192.322 73.0183 191.768 72.3826 190.679 72.8453C190.426 72.918 190.154 72.896 189.916 72.7835C189.678 72.6709 189.488 72.4755 189.383 72.2336C189.326 72.0895 189.228 71.9651 189.101 71.8757C188.974 71.7862 188.824 71.7355 188.669 71.7298C188.514 71.724 188.361 71.7634 188.228 71.8432C188.095 71.923 187.988 72.0397 187.92 72.1792C187.745 72.2487 187.55 72.2489 187.374 72.18C187.199 72.111 187.056 71.9779 186.975 71.8077C186.904 71.6663 186.793 71.5491 186.656 71.4708C186.518 71.3925 186.361 71.3567 186.203 71.3678C186.045 71.379 185.894 71.4366 185.769 71.5334C185.644 71.6302 185.551 71.7618 185.5 71.9118C185.406 72.0288 185.285 72.1225 185.149 72.1858C185.012 72.2491 184.863 72.2803 184.712 72.2769C184.558 72.243 184.418 72.1605 184.313 72.0416C184.209 71.9226 184.145 71.7733 184.131 71.6155C184.131 71.4032 184.047 71.1995 183.897 71.0494C183.746 70.8992 183.543 70.8149 183.33 70.8149C183.118 70.8149 182.914 70.8992 182.764 71.0494C182.614 71.1995 182.53 71.4032 182.53 71.6155C182.53 72.1488 181.689 72.3922 181.191 72.3762C181.085 72.2524 180.943 72.1641 180.785 72.1232C180.626 72.0823 180.46 72.0908 180.306 72.1474C180.153 72.204 180.021 72.3062 179.928 72.4401C179.834 72.574 179.784 72.7333 179.783 72.8966C179.805 73.118 179.752 73.3403 179.631 73.5275C179.511 73.7146 179.331 73.8557 179.121 73.9278H178.754C178.554 73.9278 178.35 73.6908 178.291 73.4202C178.309 73.3103 178.304 73.1978 178.277 73.0898C178.25 72.9817 178.201 72.8804 178.133 72.792C178.065 72.7037 177.98 72.6302 177.883 72.576C177.785 72.5219 177.678 72.4883 177.567 72.4774C177.456 72.4664 177.344 72.4783 177.238 72.5123C177.132 72.5463 177.034 72.6017 176.95 72.675C176.866 72.7484 176.798 72.8381 176.75 72.9387C176.703 73.0394 176.676 73.1487 176.672 73.2601C176.672 73.3382 176.675 73.4162 176.683 73.4939C176.599 73.7169 176.452 73.9109 176.26 74.0529C176.069 74.1948 175.84 74.2787 175.602 74.2945L175.585 74.2625C176.193 72.7236 174.27 72.136 173.947 73.8942C173.857 73.9963 173.744 74.0754 173.617 74.1248C173.461 74.1394 173.306 74.0967 173.18 74.0047C173.053 73.9127 172.965 73.7777 172.931 73.6252ZM183.699 96.1767C176.858 95.7155 171.039 87.4094 174.744 75.7149C174.894 75.831 175.078 75.8961 175.268 75.9007L175.293 75.8863C175.701 75.9382 176.116 75.8926 176.503 75.7535C176.889 75.6143 177.238 75.3854 177.519 75.0856C177.818 75.3004 178.163 75.4435 178.527 75.5038C178.89 75.5641 179.262 75.54 179.615 75.4333C179.968 75.3267 180.291 75.1403 180.56 74.8887C180.829 74.6371 181.037 74.327 181.167 73.9823C181.937 74.0085 182.693 73.7681 183.306 73.3017C183.625 73.5726 184.003 73.7647 184.41 73.8622C185.065 73.9291 185.723 73.7586 186.264 73.3818C186.571 73.6144 186.931 73.7657 187.312 73.8217C187.693 73.8776 188.081 73.8365 188.442 73.7021C188.726 74.0004 189.079 74.2256 189.469 74.3586C189.86 74.4915 190.276 74.5284 190.684 74.4659C190.896 74.9587 191.291 75.3505 191.785 75.5594C192.28 75.7682 192.836 75.7781 193.337 75.5868C193.541 75.8897 193.812 76.1415 194.129 76.3226C194.447 76.5037 194.801 76.6092 195.166 76.6309C195.273 76.9736 195.487 77.2729 195.778 77.4844C195.685 77.7968 195.683 78.1289 195.771 78.4424C195.859 78.756 196.034 79.0384 196.276 79.2571C196.173 79.4986 196.12 79.7584 196.12 80.0209C196.12 80.2834 196.173 80.5432 196.276 80.7847C196.401 81.1929 196.654 81.5496 196.999 81.8016C197.344 82.0536 197.761 82.1873 198.188 82.1827C198.25 82.5307 198.4 82.857 198.624 83.1309C198.848 83.4048 199.137 83.6172 199.466 83.7481C199.794 83.879 200.151 83.9241 200.501 83.8791C200.852 83.8341 201.185 83.7005 201.47 83.491C201.698 83.7927 201.983 84.0463 202.309 84.2372C201.853 85.1926 201.207 86.0448 200.41 86.7417C200.046 86.9961 199.631 87.1696 199.193 87.2505C198.756 87.3315 198.307 87.3179 197.875 87.2109C197.919 87.0763 198.125 86.3974 198.143 86.2693C198.143 85.8257 197.898 85.3757 197.432 85.3757C197.269 85.3786 197.11 85.417 196.964 85.4884C196.818 85.5598 196.69 85.6624 196.588 85.7889C195.891 88.5316 194.505 91.051 192.562 93.1086C191.374 94.1996 189.974 95.0349 188.45 95.5627C186.925 96.0904 185.309 96.2994 183.7 96.1767H183.699ZM130.226 96.3192C130.861 95.9909 131.555 95.7933 132.268 95.7383C132.98 95.6833 133.697 95.7719 134.375 95.999C135.921 96.4774 137.356 97.2585 138.597 98.2969C139.185 98.6705 139.74 99.092 140.258 99.5571C139.391 99.3647 138.492 99.3696 137.627 99.5715C137.016 99.6611 136.422 99.8425 135.865 100.11C134.92 99.3775 133.828 98.8596 132.663 98.5915C131.089 98.1111 128.858 97.2512 130.227 96.3192H130.226ZM127.367 108.694C127.034 105.729 129.129 100.835 132.125 100.835C132.801 100.853 133.457 101.062 134.019 101.439C133.492 101.874 133.111 102.461 132.928 103.119C132.745 103.778 132.769 104.477 132.996 105.122C133.262 105.619 133.653 106.04 134.13 106.342C134.607 106.643 135.154 106.817 135.718 106.845C135.917 106.845 136.109 106.845 136.298 106.822C136.125 108.343 135.58 109.797 134.711 111.056C134.077 111.908 133.139 112.482 132.093 112.661C131.046 112.84 129.971 112.609 129.09 112.017C128.125 111.16 127.512 109.977 127.369 108.694H127.367ZM130.306 114.192C131.372 114.406 132.477 114.311 133.491 113.917C134.505 113.523 135.385 112.847 136.027 111.969C136.351 111.486 136.64 110.981 136.893 110.457C137.139 111.249 137.579 111.966 138.173 112.544C138.766 113.122 139.495 113.542 140.293 113.766C140.397 113.797 140.506 113.807 140.614 113.795C140.722 113.783 140.826 113.75 140.92 113.696C141.015 113.642 141.097 113.57 141.163 113.484C141.229 113.398 141.276 113.299 141.302 113.193C141.329 113.088 141.333 112.979 141.316 112.872C141.299 112.765 141.26 112.662 141.202 112.57C141.143 112.479 141.067 112.4 140.978 112.339C140.888 112.277 140.787 112.235 140.681 112.214C140.113 112.047 139.6 111.735 139.191 111.307C138.783 110.88 138.493 110.353 138.352 109.778C138.15 108.445 138.371 107.082 138.985 105.881C139.067 105.737 139.102 105.571 139.086 105.406C139.069 105.241 139.002 105.085 138.893 104.959C138.784 104.834 138.639 104.746 138.478 104.707C138.317 104.668 138.148 104.679 137.994 104.741C137.281 105.06 136.509 105.227 135.728 105.232C135.46 105.206 135.203 105.116 134.977 104.97C134.752 104.824 134.564 104.626 134.431 104.393C134.05 103.634 135.449 101.5 137.925 101.138C138.965 100.916 140.049 101.043 141.01 101.499C141.971 101.956 142.755 102.716 143.24 103.663C144.351 105.767 143.517 109.748 142.668 111.972C142.162 113.3 141.354 114.492 140.308 115.455C139.262 116.418 138.007 117.124 136.642 117.519C135.361 117.853 134.002 117.697 132.83 117.082C131.658 116.466 130.758 115.436 130.306 114.192ZM188.274 168.477C179.444 173.016 169.86 175.904 159.993 176.999C159.887 177.009 159.784 177.039 159.69 177.089C159.596 177.139 159.513 177.207 159.446 177.289C159.378 177.371 159.328 177.466 159.298 177.568C159.268 177.67 159.258 177.777 159.269 177.883C159.281 177.988 159.313 178.091 159.365 178.184C159.416 178.277 159.486 178.359 159.569 178.425C159.653 178.49 159.748 178.539 159.851 178.568C159.953 178.596 160.06 178.604 160.166 178.591C169.997 177.502 179.554 174.664 188.387 170.212C191.265 169.489 194.23 169.174 197.195 169.277C185.354 177.303 172.169 181.849 160.813 181.753C158.467 181.765 156.145 181.29 153.992 180.359C152.474 179.621 151.294 178.333 150.691 176.757C150.088 175.181 150.108 173.434 150.747 171.871C153.251 165.786 160.154 161.303 164.723 158.324C170.667 154.509 176.874 151.121 183.298 148.186C185.788 149.215 188.451 149.759 191.145 149.788C193.783 156.263 197.187 162.398 201.285 168.064C201.115 168.078 190.977 167.104 188.269 168.477H188.274ZM223.168 165.346C223.133 167.575 222.772 169.787 222.097 171.912C221.82 172.289 221.887 172.232 221.269 172.232C217.567 169.143 210.801 170.563 208.079 174.498C199.573 163.65 191.388 151.469 189.063 135.936C186.472 118.629 195.468 114.124 201.704 117.028C209.45 120.126 215.094 129.415 216.21 133.987C218.678 144.087 221.112 154.624 223.176 165.242C223.169 165.278 223.165 165.314 223.163 165.351L223.168 165.346ZM226.765 176.093C223.368 155.629 218.177 135.054 213.578 116.821C213.555 116.716 213.511 116.617 213.449 116.53C213.387 116.442 213.308 116.368 213.217 116.311C213.126 116.255 213.024 116.218 212.918 116.201C212.812 116.185 212.704 116.19 212.6 116.216C212.496 116.243 212.398 116.289 212.312 116.354C212.227 116.419 212.155 116.5 212.102 116.593C212.048 116.686 212.014 116.789 212.001 116.896C211.988 117.002 211.997 117.11 212.026 117.213C212.783 120.216 213.553 123.278 214.335 126.399C211.57 121.619 207.374 117.828 202.34 115.559C200.894 114.874 199.303 114.553 197.705 114.623C196.107 114.693 194.55 115.153 193.171 115.963C183.931 121.455 186.871 138.061 190.544 148.181C188.705 148.109 186.887 147.764 185.15 147.158C178.905 138.922 174.608 129.379 172.581 119.244C172.563 119.138 172.524 119.037 172.467 118.947C172.41 118.857 172.335 118.779 172.247 118.718C172.159 118.657 172.06 118.614 171.955 118.592C171.85 118.57 171.742 118.569 171.637 118.59C171.532 118.61 171.432 118.652 171.344 118.712C171.255 118.771 171.179 118.848 171.12 118.938C171.062 119.028 171.022 119.128 171.003 119.233C170.984 119.339 170.986 119.447 171.01 119.551C171.33 121.183 171.712 122.803 172.155 124.413C168.946 131.166 164.726 137.39 159.64 142.87C158.736 143.884 157.663 144.734 156.468 145.382C155.414 145.581 154.323 145.385 153.403 144.833C151.005 143.85 148.75 142.549 146.7 140.963C144.445 138.953 142.396 136.724 140.583 134.309C136.741 129.385 133.647 123.921 131.399 118.094C132.227 118.629 133.153 118.992 134.124 119.159C135.095 119.327 136.09 119.297 137.049 119.071C138.659 118.611 140.141 117.782 141.375 116.65C142.609 115.518 143.563 114.114 144.16 112.549C145.02 110.305 145.429 107.914 145.365 105.512C150.253 114.124 153.954 123.358 156.367 132.962C156.391 133.066 156.436 133.165 156.498 133.251C156.56 133.338 156.639 133.411 156.73 133.467C156.821 133.522 156.923 133.559 157.028 133.575C157.134 133.591 157.241 133.585 157.345 133.559C157.448 133.533 157.545 133.486 157.63 133.422C157.715 133.358 157.787 133.277 157.84 133.185C157.894 133.092 157.928 132.99 157.942 132.885C157.955 132.779 157.948 132.671 157.919 132.568C157.297 130.134 156.588 127.722 155.794 125.338C160.355 118.672 162.822 114.946 165.929 109.658C166.561 108.09 167.468 106.647 168.606 105.397C169.509 104.72 173.41 103.006 186.847 98.6716C186.607 99.7656 186.6 100.898 186.827 101.995C187.054 103.092 187.51 104.128 188.165 105.037C189.034 106.278 190.33 107.155 191.805 107.501C193.281 107.847 194.831 107.637 196.162 106.912C197.618 105.974 198.747 104.605 199.39 102.997C200.033 101.388 200.159 99.6187 199.75 97.935C211.057 100.156 213.354 101.094 216.986 101.962C218.8 102.253 220.541 102.895 222.11 103.852C223.604 105.384 224.67 107.282 225.2 109.356C230.568 128.929 234.941 149.193 242.604 168.161C242.965 169.213 243.418 170.231 243.957 171.204C241.003 170.148 237.788 170.066 234.784 170.97C232.767 171.391 230.892 172.323 229.34 173.678C228.407 174.403 227.543 175.213 226.76 176.097L226.765 176.093ZM244.684 184.186C241.212 184.453 236.113 181.172 233.444 179.004C233.348 178.926 233.235 178.871 233.114 178.844C232.993 178.817 232.868 178.818 232.747 178.848C232.627 178.877 232.515 178.934 232.421 179.015C232.326 179.095 232.252 179.196 232.203 179.31C231.688 180.522 230.937 181.62 229.993 182.538C229.592 182.92 229.116 183.214 228.595 183.401C228.075 183.588 227.52 183.665 226.968 183.625C226.712 183.54 226.466 183.426 226.235 183.286C226.235 183.09 226.395 182.909 226.731 182.572C228.682 180.569 229.861 177.94 230.059 175.151C231.498 173.838 233.261 172.932 235.167 172.525C236.612 172.135 238.104 171.945 239.601 171.961C241.053 172.838 242.239 174.093 243.033 175.591C243.828 177.09 244.201 178.775 244.112 180.469C242.914 180.048 241.811 179.395 240.865 178.547C240.796 178.468 240.711 178.402 240.617 178.355C240.523 178.308 240.42 178.28 240.315 178.272C240.21 178.265 240.104 178.279 240.004 178.312C239.904 178.346 239.811 178.399 239.732 178.468C239.653 178.538 239.588 178.622 239.541 178.717C239.494 178.811 239.467 178.914 239.46 179.019C239.453 179.125 239.467 179.23 239.501 179.33C239.535 179.43 239.589 179.522 239.659 179.601C240.989 181.121 243.822 182.025 245.704 182.884C247.233 183.59 245.709 184.112 244.671 184.19L244.684 184.186Z" fill="#562C13"/>
<path d="M186.309 86.7197C186.309 87.9611 186.802 89.1517 187.68 90.0295C188.557 90.9073 189.748 91.4004 190.989 91.4004C192.231 91.4004 193.421 90.9073 194.299 90.0295C195.177 89.1517 195.67 87.9611 195.67 86.7197C195.67 85.4784 195.177 84.2878 194.299 83.41C193.421 82.5322 192.231 82.0391 190.989 82.0391C189.748 82.0391 188.557 82.5322 187.68 83.41C186.802 84.2878 186.309 85.4784 186.309 86.7197Z" fill="white"/>
<path d="M168.57 83.1537C168.57 83.6642 168.671 84.1698 168.866 84.6415C169.062 85.1133 169.348 85.5419 169.709 85.9029C170.07 86.2639 170.499 86.5503 170.97 86.7457C171.442 86.9411 171.948 87.0417 172.458 87.0417C172.969 87.0417 173.475 86.9411 173.946 86.7457C174.418 86.5503 174.847 86.2639 175.208 85.9029C175.569 85.5419 175.855 85.1133 176.05 84.6415C176.246 84.1698 176.346 83.6642 176.346 83.1537C176.346 82.6431 176.246 82.1375 176.05 81.6658C175.855 81.1941 175.569 80.7654 175.208 80.4044C174.847 80.0434 174.418 79.757 173.946 79.5616C173.475 79.3662 172.969 79.2656 172.458 79.2656C171.948 79.2656 171.442 79.3662 170.97 79.5616C170.499 79.757 170.07 80.0434 169.709 80.4044C169.348 80.7654 169.062 81.1941 168.866 81.6658C168.671 82.1375 168.57 82.6431 168.57 83.1537Z" fill="white"/>
<path d="M207.871 179.984C207.769 179.944 207.676 179.883 207.598 179.805C207.52 179.727 207.459 179.634 207.419 179.532C207.379 179.43 207.36 179.32 207.364 179.21C207.368 179.101 207.394 178.993 207.442 178.893C207.489 178.794 207.556 178.706 207.639 178.634C207.722 178.562 207.819 178.507 207.924 178.475C208.029 178.442 208.14 178.431 208.249 178.442C208.358 178.454 208.464 178.488 208.56 178.543C212.188 180.27 219.449 179.135 222.27 177.478C222.361 177.424 222.461 177.389 222.565 177.375C222.67 177.36 222.776 177.366 222.877 177.393C222.979 177.419 223.075 177.465 223.159 177.529C223.243 177.592 223.313 177.671 223.367 177.762C223.42 177.853 223.455 177.953 223.469 178.057C223.484 178.161 223.478 178.267 223.451 178.369C223.425 178.471 223.379 178.566 223.315 178.65C223.252 178.734 223.173 178.805 223.082 178.858C219.684 180.855 211.947 181.925 207.871 179.984Z" fill="white"/>
<path d="M189.915 68.9844C187.945 68.987 186.042 69.7047 184.561 71.0041C183.08 72.3035 182.121 74.0963 181.862 76.0494C181.497 76.0011 181.126 76.0234 180.77 76.1151C180.515 74.0515 179.477 72.1645 177.872 70.8432C176.266 69.5218 174.215 68.8668 172.141 69.0132C170.067 69.1596 168.128 70.0962 166.724 71.63C165.32 73.1637 164.558 75.1777 164.595 77.2566C164.632 79.3356 165.465 81.3211 166.923 82.8038C168.381 84.2865 170.352 85.1533 172.43 85.2256C174.508 85.2979 176.535 84.5702 178.092 83.1924C179.649 81.8146 180.619 79.8919 180.8 77.8205C180.95 77.7283 181.117 77.6674 181.291 77.6415C181.465 77.6156 181.642 77.6253 181.812 77.67C181.922 79.249 182.49 80.7616 183.448 82.022C184.405 83.2823 185.71 84.2355 187.202 84.7644C188.693 85.2934 190.307 85.375 191.845 84.9992C193.382 84.6235 194.777 83.8067 195.856 82.6493C196.936 81.492 197.654 80.0444 197.922 78.4845C198.191 76.9246 197.997 75.3203 197.366 73.8688C196.735 72.4173 195.694 71.1817 194.37 70.314C193.046 69.4462 191.498 68.9841 189.915 68.9844ZM172.707 83.6285C171.417 83.6285 170.156 83.246 169.083 82.5292C168.011 81.8125 167.175 80.7937 166.681 79.6019C166.188 78.41 166.059 77.0985 166.31 75.8333C166.562 74.5681 167.183 73.4059 168.096 72.4938C169.008 71.5818 170.17 70.9607 171.436 70.7092C172.701 70.4577 174.012 70.5871 175.204 71.081C176.396 71.5749 177.414 72.4111 178.131 73.4839C178.847 74.5567 179.23 75.8179 179.229 77.1079C179.227 78.8369 178.539 80.4945 177.317 81.7169C176.094 82.9393 174.436 83.6268 172.707 83.6285ZM189.915 83.6285C184.903 83.6285 183.085 78.4899 183.478 76.0638C183.677 74.8344 184.224 73.6876 185.054 72.7592C185.884 71.8307 186.962 71.1593 188.162 70.8244C189.362 70.4894 190.632 70.505 191.823 70.8691C193.014 71.2333 194.076 71.9309 194.883 72.8794C195.69 73.8279 196.209 74.9877 196.378 76.2217C196.547 77.4556 196.359 78.7121 195.836 79.8427C195.314 80.9732 194.479 81.9305 193.429 82.6014C192.38 83.2723 191.16 83.6287 189.915 83.6285Z" fill="#562C13"/>
<path d="M188.084 85.2782C187.192 85.2431 186.347 84.8691 185.722 84.2326C185.571 84.0867 185.369 84.006 185.159 84.0078C184.949 84.0097 184.748 84.0939 184.6 84.2423C184.451 84.3908 184.367 84.5916 184.365 84.8015C184.363 85.0115 184.444 85.2137 184.59 85.3647C184.85 85.624 185.137 85.8559 185.445 86.0565C181.791 92.1575 182.426 91.1199 181.965 91.6371C181.965 91.6371 181.76 91.7636 181.078 91.3168C180.618 90.9485 178.971 89.6675 178.516 89.3024C178.35 89.1774 178.141 89.1221 177.935 89.1482C177.728 89.1742 177.54 89.2795 177.41 89.4419C177.28 89.6042 177.218 89.8108 177.238 90.0179C177.258 90.225 177.357 90.4163 177.515 90.5514C177.978 90.9213 179.624 92.2024 180.135 92.6075C180.516 92.9531 180.999 93.1659 181.511 93.2138C182.023 93.2617 182.537 93.1423 182.976 92.8733C183.752 92.1303 183.344 92.6828 186.913 86.7226C187.295 86.8275 187.688 86.8814 188.084 86.8828C188.296 86.8828 188.5 86.7984 188.65 86.6483C188.8 86.4981 188.885 86.2945 188.885 86.0821C188.885 85.8698 188.8 85.6661 188.65 85.5159C188.5 85.3658 188.296 85.2814 188.084 85.2814V85.2782Z" fill="#562C13"/>
</svg>
