<svg width="194" height="154" viewBox="0 0 194 154" fill="none" xmlns="http://www.w3.org/2000/svg">
<path d="M51.4279 77.5234C29.9521 79.3104 17.5996 82.7444 17.5996 82.7444C17.5996 82.7444 17.3278 83.6976 18.5641 87.2737C19.4338 89.6443 20.6768 91.8607 22.2462 93.839C21.936 94.213 21.7034 94.645 21.5621 95.1098C21.4207 95.5746 21.3733 96.063 21.4227 96.5463C21.5051 97.5111 21.7878 98.4482 22.2525 99.2977C22.7173 100.147 23.354 100.891 24.122 101.48C24.89 102.07 25.7725 102.494 26.7132 102.723C27.6539 102.953 28.6322 102.984 29.5856 102.815C29.5856 103.33 34.2466 107.334 34.3156 107.672C33.9625 108.78 33.5662 110.572 33.3747 111.488C34.2141 112.636 35.4485 113.434 36.8404 113.727C38.2324 114.02 39.6836 113.788 40.9149 113.076C41.0192 113.029 41.1069 112.952 41.1661 112.855C41.2253 112.757 41.2533 112.643 41.2464 112.529C41.4234 111.294 41.3225 110.152 42.5176 109.847C43.6314 109.656 44.1739 109.866 45.0736 109.719C50.7413 108.471 55.5609 103.028 56.0467 96.3806C56.346 89.7821 54.7428 83.2366 51.4279 77.5234Z" fill="white"/>
<path d="M179.217 183.218C181.258 184.49 183.466 185.47 185.779 186.13C186.049 186.26 186.343 186.329 186.643 186.334C186.942 186.339 187.239 186.278 187.513 186.158C187.787 186.037 188.031 185.858 188.229 185.633C188.428 185.409 188.575 185.144 188.661 184.858C191.531 180.341 194.081 175.629 196.291 170.755C197.759 168.047 199.034 165.239 200.106 162.35C201.086 159.613 200.62 156.319 200.209 153.513C199.196 147.061 197.526 140.729 195.223 134.617C193.046 128.686 190.531 120.159 183.538 118.25C180.791 120.424 177.485 122.866 174.078 123.858C171.634 124.379 169.137 124.613 166.639 124.557C162.673 124.703 157.943 123.713 154.749 121.238C154.062 120.706 152.766 118.696 151.927 118.58C151.75 118.569 151.575 118.619 151.431 118.72C143.093 122.961 137.946 134.601 132.663 141.675C125.869 137.288 117.634 133.397 111.987 127.422C109.762 128.767 107.787 130.488 106.15 132.508C109.677 140.281 114.777 147.239 121.129 152.942C123.869 155.301 126.945 157.238 130.256 158.689C134.991 160.666 139.58 158.944 142.924 154.544C142.759 157.555 142.759 160.573 142.924 163.585C142.926 164.317 143.119 165.036 143.484 165.67C144.023 166.291 144.736 166.734 145.531 166.941C157.307 171.391 170.132 172.276 182.406 169.485C181.594 174.117 180.529 178.702 179.217 183.218Z" fill="#FCD7C1"/>
<path d="M111.17 128.159C111.194 126.071 110.881 123.993 110.244 122.004C110.147 121.596 109.94 121.222 109.646 120.923C109.496 120.775 109.299 120.685 109.09 120.669C108.881 120.653 108.672 120.711 108.502 120.835C107.965 121.751 107.78 122.831 107.98 123.873C107.198 122.025 105.911 120.434 104.267 119.283C103.773 118.938 102.996 118.647 102.614 119.067C102.232 119.487 102.474 120.329 102.82 120.817C103.443 121.71 104.069 122.6 104.765 123.437C103.632 122.264 102.176 121.454 100.582 121.11C100.449 121.053 100.307 121.024 100.162 121.024C100.018 121.024 99.8754 121.053 99.743 121.11C99.2725 121.441 99.5628 122.179 99.921 122.636C100.596 123.494 101.373 124.267 102.235 124.938C101.559 124.924 100.894 124.758 100.29 124.454C98.7126 123.981 97.5998 125.371 99.6277 126.641C102.1 128.211 104.357 130.096 106.342 132.249L111.17 128.159Z" fill="white"/>
<path d="M62.2122 166.564C63.7018 157.34 63.8007 147.944 62.5056 138.691C62.3118 135.434 61.5901 132.23 60.3686 129.205C58.6866 125.163 55.3947 122.061 52.3323 118.943C50.5214 117.075 48.5888 115.329 46.5472 113.717C46.0447 113.271 45.4591 112.93 44.824 112.712C44.1888 112.493 43.5168 112.403 42.8466 112.446C40.9299 112.776 39.3684 113.815 37.288 113.628C36.131 113.526 33.4731 112.764 33.1293 111.391C33.109 112.089 32.9933 112.782 32.7855 113.449C32.7855 113.449 26.0791 115.478 24.3961 116.214C23.4774 116.508 22.6722 117.079 22.0912 117.848C21.5102 118.618 21.1819 119.549 21.1515 120.513C20.1468 127.315 19.1525 134.424 21.3677 140.934C23.8722 148.296 29.79 153.28 36.6899 169.112C38.6838 173.685 40.4019 178.446 43.2779 182.527C47.2822 188.212 53.5171 187.38 57.2651 181.942C60.3347 177.486 61.3414 171.775 62.2122 166.564Z" fill="#FCD7C1"/>
<path d="M56.2106 114.761C52.3906 112.839 48.2628 112.943 44.1309 112.383C49.217 115.867 51.3365 122.586 52.7138 128.253C53.5352 131.471 53.9202 134.786 53.8585 138.107L56.6306 138.476C56.7695 138.476 60.1181 126.343 60.4392 125.213C60.6288 124.581 60.8581 123.963 61.1258 123.36C61.1258 123.36 63.4337 123.328 64.8264 123.407C62.9666 119.668 59.9431 116.634 56.2106 114.761Z" fill="white"/>
<path d="M34.3535 108.37C35.5795 110.577 37.4044 112.393 39.6177 113.608C40.0876 113.487 40.5405 113.308 40.9662 113.075C41.0709 113.029 41.1588 112.952 41.2179 112.854C41.277 112.756 41.3045 112.642 41.2966 112.528C41.4109 111.536 41.3728 110.62 41.9709 110.125C39.3024 109.737 36.7236 108.88 34.3535 107.594C34.373 107.852 34.373 108.112 34.3535 108.37Z" fill="#FEECE1"/>
<path d="M37.7088 89.7348C36.9883 88.4151 35.5955 88.5407 35.5214 89.9252C35.4534 90.4837 35.5648 91.0493 35.8395 91.5403C35.9121 91.7487 36.0411 91.9329 36.2121 92.0723C36.3832 92.2117 36.5896 92.3009 36.8084 92.3299C37.0272 92.359 37.2497 92.3267 37.4512 92.2367C37.6527 92.1467 37.8253 92.0026 37.9497 91.8203C38.0696 91.4771 38.1102 91.1111 38.0685 90.7499C38.0268 90.3887 37.9038 90.0417 37.7088 89.7348Z" fill="#562C13"/>
<path d="M51.6953 87.4765C50.7689 83.4907 47.7837 87.6237 49.686 89.0916C49.9283 89.2201 50.203 89.2748 50.4761 89.2489C50.7492 89.223 51.0087 89.1176 51.2225 88.9457C51.4363 88.7738 51.5951 88.5431 51.6791 88.2819C51.7632 88.0208 51.7688 87.7408 51.6953 87.4765Z" fill="#562C13"/>
<path d="M48.6418 96.449C48.5568 96.4491 48.4731 96.428 48.3982 96.3878C48.3233 96.3475 48.2595 96.2894 48.2126 96.2185C46.8239 94.1216 44.056 90.8071 44.6695 88.1893L45.2871 85.5078C45.3015 85.4411 45.329 85.3779 45.368 85.3219C45.4071 85.2659 45.4569 85.2182 45.5145 85.1816C45.5722 85.1451 45.6365 85.1203 45.7038 85.1089C45.7711 85.0974 45.8401 85.0994 45.9066 85.1149C45.9731 85.1303 46.0358 85.1588 46.0912 85.1987C46.1466 85.2387 46.1935 85.2892 46.2291 85.3474C46.2648 85.4057 46.2885 85.4704 46.2989 85.5379C46.3093 85.6053 46.3062 85.6742 46.2897 85.7405L45.6721 88.4199C45.1749 90.5435 47.8976 93.8756 49.069 95.6492C49.1205 95.7267 49.1501 95.8166 49.1546 95.9095C49.1591 96.0024 49.1383 96.0948 49.0945 96.1768C49.0507 96.2589 48.9855 96.3275 48.9058 96.3755C48.826 96.4234 48.7348 96.4488 48.6418 96.449Z" fill="#562C13"/>
<path d="M52.8561 82.9698C52.2574 82.6549 51.5857 82.5048 50.9099 82.5351C50.2341 82.5653 49.5785 82.7746 49.0103 83.1417C48.8725 83.2216 48.7697 83.3504 48.7222 83.5025C48.6748 83.6546 48.6861 83.819 48.7541 83.9631C48.822 84.1073 48.9415 84.2207 49.0891 84.2809C49.2366 84.3411 49.4013 84.3438 49.5507 84.2884C49.952 84.0818 50.3927 83.9633 50.8435 83.9409C51.2943 83.9186 51.7446 83.9928 52.1643 84.1587C52.9158 84.7681 53.7722 83.4556 52.8561 82.9698Z" fill="#562C13"/>
<path d="M38.4596 85.5086C37.6958 85.3462 36.9035 85.3775 36.1549 85.5995C35.4063 85.8215 34.7251 86.2273 34.1733 86.7799C34.114 86.8391 34.067 86.9095 34.0349 86.987C34.0028 87.0644 33.9863 87.1474 33.9863 87.2312C33.9863 87.3151 34.0028 87.3981 34.0349 87.4755C34.067 87.553 34.114 87.6234 34.1733 87.6826C34.2326 87.7419 34.3029 87.7889 34.3804 87.821C34.4578 87.8531 34.5408 87.8696 34.6247 87.8696C34.7085 87.8696 34.7915 87.8531 34.869 87.821C34.9464 87.7889 35.0168 87.7419 35.0761 87.6826C36.1466 86.4649 38.1168 86.891 38.3917 86.7706C38.8847 86.5575 38.9753 85.6568 38.4596 85.5086Z" fill="#562C13"/>
<path d="M39.7573 100.589C39.7004 100.553 39.6511 100.506 39.6124 100.45C39.5737 100.395 39.5462 100.332 39.5316 100.266C39.5171 100.2 39.5156 100.132 39.5274 100.066C39.5392 99.999 39.564 99.9354 39.6004 99.8784C39.6367 99.8215 39.684 99.7722 39.7394 99.7335C39.7948 99.6948 39.8572 99.6673 39.9232 99.6527C39.9892 99.6382 40.0575 99.6367 40.124 99.6485C40.1906 99.6603 40.2542 99.6851 40.3111 99.7215C41.3839 100.411 42.6162 100.813 43.8893 100.888C45.1623 100.963 46.4333 100.709 47.5796 100.15C47.6406 100.118 47.7075 100.099 47.776 100.094C47.8446 100.088 47.9136 100.097 47.9789 100.118C48.0441 100.14 48.1044 100.175 48.1561 100.22C48.2078 100.265 48.2498 100.321 48.2798 100.383C48.3097 100.445 48.3269 100.512 48.3304 100.581C48.3339 100.649 48.3235 100.718 48.3 100.783C48.2765 100.847 48.2402 100.907 48.1934 100.957C48.1465 101.007 48.0901 101.048 48.0273 101.076C46.7233 101.713 45.2771 102.002 43.8285 101.917C42.3799 101.832 40.9777 101.374 39.7573 100.589Z" fill="#562C13"/>
<path d="M23.2149 89.503C23.1273 89.5029 23.0413 89.4805 22.9648 89.4378C22.8884 89.3951 22.8241 89.3337 22.778 89.2592C22.732 89.1847 22.7057 89.0997 22.7017 89.0123C22.6977 88.9248 22.7161 88.8378 22.7552 88.7594L22.8436 88.5815C22.8738 88.521 22.9156 88.4671 22.9666 88.4228C23.0176 88.3786 23.0769 88.3447 23.141 88.3233C23.205 88.302 23.2727 88.2934 23.3401 88.2982C23.4075 88.3029 23.4733 88.3209 23.5337 88.3511C23.5942 88.3813 23.6481 88.4231 23.6924 88.4741C23.7367 88.5251 23.7705 88.5844 23.7919 88.6484C23.8133 88.7125 23.8218 88.7802 23.8171 88.8476C23.8123 88.915 23.7943 88.9808 23.7641 89.0412C23.6952 89.179 23.5852 89.503 23.2149 89.503Z" fill="#562C13"/>
<path d="M25.1554 87.7629H25.067C24.9306 87.7629 24.7998 87.7087 24.7034 87.6123C24.6069 87.5158 24.5527 87.385 24.5527 87.2487C24.5527 87.1123 24.6069 86.9815 24.7034 86.885C24.7998 86.7886 24.9306 86.7344 25.067 86.7344C25.208 86.733 25.3443 86.7854 25.4481 86.8809C25.5518 86.9765 25.6153 87.108 25.6255 87.2487C25.6304 87.3137 25.6219 87.3791 25.6006 87.4408C25.5793 87.5025 25.5456 87.5592 25.5016 87.6074C25.4576 87.6555 25.4041 87.6942 25.3446 87.7209C25.2851 87.7477 25.2207 87.762 25.1554 87.7629Z" fill="#562C13"/>
<path d="M21.6339 87.3723H21.4693C21.3329 87.3723 21.2021 87.3181 21.1057 87.2216C21.0093 87.1252 20.9551 86.9944 20.9551 86.858C20.9551 86.7216 21.0093 86.5908 21.1057 86.4944C21.2021 86.3979 21.3329 86.3438 21.4693 86.3438H21.6339C21.7703 86.3438 21.9011 86.3979 21.9975 86.4944C22.094 86.5908 22.1481 86.7216 22.1481 86.858C22.1481 86.9944 22.094 87.1252 21.9975 87.2216C21.9011 87.3181 21.7703 87.3723 21.6339 87.3723Z" fill="#562C13"/>
<path d="M25.6023 91.2264C25.5158 91.2265 25.4306 91.2047 25.3547 91.163C25.2789 91.1214 25.2147 91.0613 25.1683 90.9882C25.1218 90.9152 25.0945 90.8316 25.089 90.7453C25.0834 90.6589 25.0997 90.5725 25.1364 90.4941L25.2259 90.3039C25.2538 90.2416 25.2938 90.1856 25.3436 90.139C25.3933 90.0923 25.4519 90.0561 25.5158 90.0323C25.5797 90.0085 25.6477 89.9977 25.7158 90.0004C25.784 90.0032 25.8509 90.0194 25.9127 90.0483C25.9745 90.0771 26.0299 90.118 26.0758 90.1685C26.1216 90.2189 26.157 90.278 26.1798 90.3423C26.2026 90.4066 26.2124 90.4747 26.2086 90.5428C26.2048 90.6109 26.1875 90.6776 26.1577 90.7389C26.1094 90.8428 25.9973 91.2264 25.6023 91.2264Z" fill="#562C13"/>
<path d="M27.5989 92.8644C27.4578 92.8661 27.3214 92.8138 27.2176 92.7182C27.1137 92.6226 27.0504 92.491 27.0404 92.3502C27.0355 92.2851 27.044 92.2197 27.0653 92.158C27.0866 92.0963 27.1203 92.0397 27.1643 91.9915C27.2083 91.9433 27.2618 91.9047 27.3213 91.8779C27.3808 91.8512 27.4452 91.8369 27.5105 91.8359H27.5989C27.7353 91.8359 27.8661 91.8901 27.9625 91.9866C28.059 92.083 28.1132 92.2138 28.1132 92.3502C28.1132 92.4866 28.059 92.6174 27.9625 92.7138C27.8661 92.8103 27.7353 92.8644 27.5989 92.8644Z" fill="#562C13"/>
<path d="M27.1803 89.2916C27.0439 89.2916 26.9131 89.2374 26.8166 89.141C26.7202 89.0445 26.666 88.9137 26.666 88.7774V88.4986C26.666 88.3622 26.7202 88.2314 26.8166 88.135C26.9131 88.0386 27.0439 87.9844 27.1803 87.9844C27.3167 87.9844 27.4475 88.0386 27.5439 88.135C27.6403 88.2314 27.6945 88.3622 27.6945 88.4986V88.7774C27.6945 88.9137 27.6403 89.0445 27.5439 89.141C27.4475 89.2374 27.3167 89.2916 27.1803 89.2916Z" fill="#562C13"/>
<path d="M22.7135 91.6699C22.5771 91.6699 22.4463 91.6157 22.3498 91.5193C22.2534 91.4228 22.1992 91.292 22.1992 91.1556V90.8893C22.1992 90.7529 22.2534 90.6221 22.3498 90.5256C22.4463 90.4292 22.5771 90.375 22.7135 90.375C22.8499 90.375 22.9807 90.4292 23.0771 90.5256C23.1735 90.6221 23.2277 90.7529 23.2277 90.8893V91.1556C23.2277 91.292 23.1735 91.4228 23.0771 91.5193C22.9807 91.6157 22.8499 91.6699 22.7135 91.6699Z" fill="#562C13"/>
<path d="M27.627 97.8906C27.1826 97.217 26.6254 96.625 25.98 96.1407C25.6942 95.9259 25.3645 95.777 25.0145 95.7046C24.6644 95.6322 24.3027 95.638 23.9552 95.7217C23.8224 95.7535 23.6824 95.7312 23.5659 95.6598C23.4495 95.5884 23.3663 95.4737 23.3345 95.3408C23.3027 95.208 23.3249 95.068 23.3964 94.9516C23.4678 94.8352 23.5825 94.7519 23.7153 94.7201C24.2101 94.6017 24.7249 94.5937 25.2231 94.6969C25.7213 94.8001 26.1906 95.0119 26.5976 95.3172C27.3379 95.874 27.9766 96.5544 28.4855 97.3286C28.5475 97.4421 28.5645 97.5749 28.533 97.7004C28.5016 97.826 28.424 97.9351 28.3157 98.0059C28.2074 98.0768 28.0764 98.1043 27.9488 98.0829C27.8211 98.0616 27.7062 97.9929 27.627 97.8906Z" fill="#562C13"/>
<path d="M47.4879 169.015C48.1978 166.186 49.1981 163.437 50.4731 160.813C50.7911 160.025 51.9605 152.942 52.2909 152.887C49.9388 153.243 47.8646 150.917 47.6114 148.551C47.5601 146.16 48.1486 143.798 49.316 141.71L45.3519 142.982C41.7656 136.256 37.9229 129.456 32.5599 123.909C30.4785 121.757 26.7099 117.692 23.6589 117.132C20.6078 116.572 15.918 120.554 13.4856 122.548C6.00715 128.682 4.39103 138.503 5.42452 147.675C6.10906 153.748 8.08546 158.767 10.3069 164.358C11.3836 167.068 10.3748 169.368 9.83643 172.317C9.20576 175.777 8.70549 179.257 8.3356 182.757C8.15387 183.696 8.22492 184.666 8.54147 185.567C9.22807 187.119 11.084 187.67 12.7619 188.047C16.7765 188.948 20.6963 191.786 24.7531 192.205C31.899 192.944 38.9585 193.931 45.8996 191.454C47.0193 191.048 48.0509 190.431 48.9383 189.637C49.98 188.518 49.8071 169.564 49.9306 168.898C49.0896 168.913 48.3392 168.989 47.4879 169.015Z" fill="white"/>
<path d="M173.465 114.407C173.35 112.451 173.21 105.507 172.941 104.082C175.519 101.65 177.347 98.5301 178.208 95.0921C178.704 93.2474 179.835 89.8907 178.844 88.1489C177.853 86.4072 175.22 85.3768 173.528 84.4226C168.473 81.6062 160.888 75.2498 156.045 77.532C153.018 79.0184 151.735 82.44 150.958 85.5045C150.361 87.838 150.084 90.2421 150.135 92.6504C150.147 95.0116 150.649 97.3445 151.607 99.5023C152.566 101.66 153.961 103.596 155.705 105.188C156.989 106.301 158.493 107.131 160.119 107.626C161.745 108.12 163.457 108.266 165.143 108.056C164.918 110.067 164.831 112.092 164.885 114.115C161.188 115.056 157.546 116.198 153.973 117.535C153.473 117.712 153.005 117.97 152.588 118.298C155.194 122.507 162.075 124.007 166.665 124.16C169.547 124.249 173.174 124.16 175.744 122.799C177.015 122.087 178.426 121.604 179.723 120.892C180.143 120.663 183.309 118.247 183.462 118.349C180.234 116.784 176.892 115.466 173.465 114.407Z" fill="white"/>
<path d="M156.345 89.2046C156.149 88.5332 155.835 87.902 155.419 87.3404C155.321 87.2304 155.198 87.1468 155.059 87.0969C154.921 87.0471 154.772 87.0328 154.627 87.0552C154.049 87.0235 153.493 86.82 153.031 86.4705C152.677 86.2472 152.122 86.6455 152.522 87.0562C153.048 87.4235 153.639 87.6879 154.264 87.8355C153.956 88.2529 153.759 88.7417 153.693 89.256C153.648 89.5322 153.687 89.8152 153.804 90.0695C153.92 90.3237 154.109 90.5377 154.347 90.6846C154.585 90.8314 154.862 90.9045 155.141 90.8947C155.421 90.8848 155.691 90.7925 155.918 90.6292C156.1 90.4446 156.234 90.2183 156.309 89.9699C156.383 89.7216 156.396 89.4589 156.345 89.2046Z" fill="#562C13"/>
<path d="M167.702 87.8725C167.533 87.9221 167.353 87.914 167.189 87.8495C167.026 87.785 166.888 87.6677 166.799 87.5163C166.752 87.4684 166.695 87.4317 166.632 87.409C166.568 87.3864 166.501 87.3782 166.434 87.3853C166.367 87.3923 166.303 87.4144 166.246 87.4498C166.189 87.4851 166.141 87.533 166.105 87.5896C166.069 87.6463 166.046 87.7104 166.038 87.7771C166.03 87.8438 166.038 87.9114 166.06 87.9748C166.082 88.0382 166.118 88.0958 166.165 88.1434C166.213 88.1909 166.27 88.2271 166.334 88.2493C166.584 88.3979 166.846 88.5253 167.117 88.6301C166.891 89.0672 166.753 89.5442 166.71 90.0342C166.637 90.3642 166.691 90.7096 166.86 91.0021C167.03 91.2945 167.303 91.5126 167.626 91.6133C169.714 91.954 169.852 87.643 167.702 87.8725Z" fill="#562C13"/>
<path d="M160.326 102.706C159.868 102.708 159.419 102.573 159.038 102.319C158.656 102.065 158.359 101.704 158.183 101.28C158.157 101.218 158.144 101.151 158.144 101.083C158.144 101.016 158.158 100.949 158.184 100.886C158.21 100.824 158.248 100.767 158.296 100.719C158.344 100.672 158.401 100.634 158.463 100.608C158.526 100.582 158.593 100.569 158.66 100.569C158.728 100.569 158.795 100.583 158.857 100.609C158.92 100.635 158.976 100.673 159.024 100.721C159.072 100.769 159.109 100.826 159.135 100.888C159.243 101.149 159.434 101.366 159.678 101.508C159.922 101.649 160.206 101.705 160.486 101.668C161.581 101.473 162.178 100.629 162.709 99.5396C161.153 99.8609 159.559 99.9648 157.974 99.8484C157.907 99.8434 157.841 99.8251 157.78 99.7946C157.72 99.7641 157.666 99.722 157.621 99.6707C157.577 99.6194 157.543 99.5598 157.522 99.4955C157.501 99.4311 157.492 99.3632 157.498 99.2956C157.503 99.228 157.521 99.1621 157.551 99.1015C157.582 99.041 157.624 98.9871 157.675 98.9428C157.727 98.8986 157.786 98.8649 157.85 98.8436C157.915 98.8224 157.983 98.814 158.05 98.819C159.861 98.9543 161.682 98.7834 163.436 98.3136C163.526 98.2901 163.62 98.2914 163.71 98.3173C163.799 98.3432 163.879 98.3928 163.943 98.4607C164.006 98.5287 164.05 98.6125 164.069 98.7033C164.089 98.7941 164.083 98.8885 164.054 98.9765C163.783 99.7687 163.402 100.519 162.921 101.204C162.633 101.637 162.25 101.998 161.799 102.259C161.349 102.519 160.845 102.672 160.326 102.706Z" fill="#562C13"/>
<path d="M171.121 87.7477C170.995 87.7475 170.874 87.701 170.78 87.617C169.995 86.9151 169.044 86.4257 168.017 86.1956C166.99 85.9655 165.921 86.0023 164.912 86.3025C164.781 86.341 164.64 86.3258 164.52 86.2604C164.4 86.195 164.311 86.0846 164.273 85.9535C164.234 85.8225 164.249 85.6815 164.315 85.5616C164.38 85.4418 164.491 85.3528 164.622 85.3143C165.799 84.964 167.046 84.9211 168.244 85.1896C169.443 85.4581 170.552 86.029 171.467 86.8481C171.546 86.9176 171.601 87.0094 171.626 87.1112C171.65 87.213 171.644 87.3199 171.606 87.4177C171.568 87.5156 171.502 87.5995 171.415 87.6585C171.329 87.7175 171.226 87.7486 171.121 87.7477Z" fill="#562C13"/>
<path d="M151.782 85.757C151.674 85.757 151.569 85.7231 151.481 85.6599C151.394 85.5967 151.328 85.5076 151.294 85.4051C151.26 85.3026 151.259 85.192 151.291 85.0889C151.323 84.9858 151.387 84.8954 151.473 84.8306C152.226 84.2683 153.155 83.9934 154.092 84.0555C154.935 84.107 155.769 84.2594 156.576 84.5094C156.706 84.5504 156.815 84.6415 156.878 84.7626C156.942 84.8837 156.954 85.025 156.913 85.1554C156.872 85.2857 156.781 85.3945 156.66 85.4577C156.539 85.5209 156.398 85.5334 156.267 85.4925C155.538 85.2665 154.785 85.1282 154.023 85.0807C153.33 85.0345 152.643 85.2379 152.087 85.6541C151.999 85.7201 151.892 85.7562 151.782 85.757Z" fill="#562C13"/>
<path d="M143.53 142.73C143.465 142.708 143.404 142.673 143.352 142.627C143.3 142.582 143.258 142.526 143.228 142.463C143.198 142.401 143.181 142.333 143.178 142.264C143.175 142.195 143.186 142.126 143.21 142.061C143.235 141.996 143.272 141.937 143.319 141.887C143.367 141.837 143.424 141.796 143.488 141.769C143.551 141.741 143.62 141.727 143.689 141.727C143.758 141.726 143.827 141.74 143.891 141.766C156.314 146.408 169.764 147.591 182.806 145.188C182.873 145.174 182.943 145.173 183.01 145.186C183.077 145.199 183.141 145.226 183.199 145.264C183.256 145.302 183.304 145.351 183.342 145.409C183.38 145.466 183.406 145.53 183.418 145.598C183.431 145.665 183.43 145.735 183.415 145.802C183.4 145.869 183.372 145.932 183.333 145.988C183.293 146.044 183.243 146.092 183.184 146.128C183.126 146.165 183.061 146.189 182.993 146.2C169.768 148.637 156.128 147.438 143.53 142.73Z" fill="white"/>
<path d="M142.661 151.433C142.598 151.404 142.542 151.362 142.497 151.311C142.451 151.26 142.415 151.2 142.393 151.135C142.371 151.069 142.362 151 142.366 150.932C142.371 150.863 142.39 150.796 142.421 150.735C142.452 150.673 142.496 150.619 142.548 150.574C142.601 150.53 142.662 150.496 142.728 150.476C142.794 150.456 142.863 150.449 142.931 150.456C143 150.463 143.066 150.483 143.127 150.516C156.515 157.356 172.058 158.651 186.393 154.119C186.457 154.099 186.525 154.091 186.592 154.097C186.66 154.103 186.725 154.122 186.785 154.154C186.845 154.185 186.898 154.228 186.942 154.28C186.985 154.331 187.018 154.391 187.038 154.456C187.058 154.52 187.066 154.588 187.06 154.655C187.054 154.723 187.035 154.788 187.003 154.848C186.972 154.908 186.929 154.961 186.878 155.005C186.826 155.048 186.766 155.081 186.701 155.101C172.11 159.714 156.288 158.397 142.661 151.433Z" fill="white"/>
<path d="M107.905 136.938C110.778 135.759 113.231 133.743 114.946 131.153C114.982 131.094 115.029 131.043 115.085 131.002C115.142 130.962 115.206 130.934 115.273 130.919C115.341 130.904 115.411 130.902 115.479 130.915C115.547 130.927 115.612 130.954 115.669 130.992C115.727 131.03 115.776 131.08 115.814 131.137C115.853 131.195 115.879 131.26 115.891 131.328C115.904 131.396 115.902 131.466 115.887 131.534C115.872 131.601 115.843 131.665 115.803 131.721C113.976 134.483 111.361 136.632 108.297 137.889C108.172 137.936 108.033 137.932 107.911 137.879C107.788 137.826 107.691 137.727 107.64 137.603C107.589 137.48 107.589 137.341 107.638 137.217C107.687 137.093 107.783 136.993 107.905 136.938Z" fill="white"/>
<path d="M111.625 142.647C113.569 142.094 115.375 141.139 116.927 139.845C118.48 138.55 119.743 136.945 120.637 135.132C120.667 135.072 120.709 135.017 120.759 134.972C120.81 134.928 120.87 134.893 120.934 134.871C120.998 134.85 121.066 134.84 121.133 134.845C121.201 134.849 121.267 134.867 121.328 134.897C121.389 134.926 121.443 134.968 121.488 135.019C121.533 135.07 121.567 135.129 121.589 135.193C121.611 135.257 121.62 135.325 121.615 135.393C121.611 135.46 121.593 135.526 121.564 135.587C120.606 137.529 119.252 139.249 117.589 140.635C115.926 142.022 113.991 143.044 111.909 143.637C111.844 143.656 111.776 143.661 111.709 143.654C111.642 143.646 111.577 143.625 111.517 143.592C111.458 143.56 111.406 143.516 111.364 143.463C111.322 143.41 111.291 143.349 111.272 143.284C111.253 143.219 111.248 143.151 111.255 143.084C111.263 143.016 111.284 142.951 111.317 142.892C111.349 142.833 111.393 142.781 111.446 142.739C111.499 142.697 111.56 142.665 111.625 142.647Z" fill="white"/>
<path d="M47.5756 146.312C47.3402 147.734 47.563 149.195 48.2118 150.483C48.5432 151.118 49.0443 151.65 49.6594 152.018C50.2744 152.386 50.9795 152.576 51.6962 152.568L56.6928 138.344C53.3844 136.81 48.359 140.573 47.5756 146.312Z" fill="white"/>
<path d="M48.7848 142.531C48.1348 143.716 47.7042 145.008 47.5135 146.346C47.281 147.768 47.5033 149.228 48.1486 150.516C48.5631 151.192 49.1444 151.75 49.8366 152.136C50.5288 152.523 51.3086 152.725 52.1014 152.723L53.4262 147.757C50.861 147.926 48.7178 145.327 48.7848 142.531Z" fill="#FEECE1"/>
<path d="M83.2552 153.842C82.7518 155.947 82.1332 158.022 81.4023 160.059C82.1957 160.952 82.6028 162.123 82.5347 163.315C82.464 164.497 82.2377 165.664 81.8614 166.786C84.0154 162.685 84.7485 157.985 83.9459 153.422L83.2552 153.842Z" fill="white"/>
<path d="M79.0593 169.039H47.5625L60.9907 123.148H92.4875L79.0593 169.039Z" fill="white"/>
<path d="M92.4872 122.63H65.1213C64.2002 120.491 62.8185 118.582 61.0748 117.038C59.3311 115.494 57.2682 114.354 55.0334 113.699C50.7482 112.383 46.2686 111.814 41.7905 112.016C41.9068 111.485 42.017 110.956 42.0993 110.423C44.6706 110.412 47.1898 109.697 49.3835 108.355C51.5771 107.014 53.3613 105.097 54.5424 102.813C56.6413 99.0739 56.7813 94.9286 56.2851 90.7576C55.7252 86.1091 54.2397 81.6198 51.9165 77.5548C52.1166 77.1805 52.2076 76.7575 52.1789 76.334C52.5689 76.4893 52.9981 76.5172 53.4049 76.4137C53.8117 76.3101 54.1753 76.0804 54.4436 75.7575C54.6355 75.4498 54.7372 75.0944 54.7372 74.7317C54.7372 74.3691 54.6355 74.0137 54.4436 73.706C54.3517 73.5551 54.252 73.4091 54.145 73.2685C54.5751 73.1384 54.9585 72.887 55.2493 72.5445C55.5401 72.2019 55.7259 71.7828 55.7845 71.3373C55.843 70.8918 55.7719 70.4389 55.5795 70.0329C55.3871 69.6268 55.0817 69.2849 54.6999 69.048C55.2084 68.0125 54.2696 66.9574 53.2207 66.7608C53.0011 66.7196 52.7832 66.6695 52.567 66.6105C52.8182 66.2473 52.9695 65.8244 53.0056 65.3843C53.0417 64.9441 52.9615 64.5022 52.7729 64.1029C52.5558 63.74 52.2253 63.4587 51.8323 63.3024C51.4394 63.1461 51.0059 63.1236 50.5989 63.2383C50.5342 62.7542 50.349 62.2941 50.0605 61.9001C49.7127 61.6218 49.2911 61.4515 48.8477 61.4102C48.4043 61.3689 47.9585 61.4583 47.5653 61.6674C47.7331 59.7322 46.4474 59.0291 45.0021 59.7682C44.9102 59.4012 44.7312 59.0617 44.4804 58.7785C44.2295 58.4952 43.9142 58.2765 43.561 58.1408C43.1904 58.0205 42.794 58.0036 42.4146 58.092C42.0351 58.1803 41.6869 58.3705 41.4076 58.6421C41.2466 58.3975 41.0336 58.1915 40.7837 58.0389C40.5339 57.8863 40.2533 57.7909 39.9622 57.7594C39.6712 57.7279 39.3767 57.7612 39.1 57.8568C38.8233 57.9525 38.5711 58.1082 38.3616 58.3127C38.1553 58.0559 37.9129 57.8302 37.6421 57.6426C36.2504 56.8654 34.6569 57.8937 33.9168 59.2824C32.6342 58.3631 30.4694 58.5464 29.7736 59.9422C29.4299 59.6955 29.0236 59.5507 28.6013 59.5245C28.1791 59.4983 27.758 59.5917 27.3864 59.794C26.8072 60.1645 26.3695 60.7193 26.144 61.3689C25.8146 61.1209 25.4268 60.962 25.0181 60.9076C24.6093 60.8531 24.1935 60.905 23.8106 61.0581C23.4278 61.2112 23.0909 61.4605 22.8325 61.7818C22.574 62.1031 22.4028 62.4856 22.3353 62.8924C21.9429 62.7221 21.5136 62.6544 21.0878 62.6957C20.662 62.737 20.2537 62.8859 19.9014 63.1284C19.549 63.371 19.2641 63.6991 19.0735 64.0821C18.8829 64.4651 18.7928 64.8902 18.8118 65.3176C18.4415 65.2762 18.0668 65.3251 17.7196 65.4601C17.3724 65.5951 17.0631 65.8123 16.8182 66.0929C16.5732 66.3736 16.3999 66.7094 16.3131 67.0717C16.2263 67.434 16.2285 67.8119 16.3196 68.1731C15.9075 68.2143 15.5122 68.3579 15.1697 68.5908C14.8272 68.8237 14.5483 69.1386 14.3585 69.5067C14.1687 69.8748 14.0738 70.2846 14.0827 70.6987C14.0915 71.1128 14.2037 71.5181 14.4091 71.8778C14.0654 71.9952 13.7561 72.196 13.5091 72.4623C13.2621 72.7286 13.0851 73.052 12.9939 73.4036C12.9026 73.7552 12.9001 74.1239 12.9865 74.4767C13.0729 74.8295 13.2455 75.1554 13.4889 75.425C13.1901 75.6345 12.9538 75.9211 12.8052 76.2543C12.6565 76.5875 12.6011 76.9548 12.6449 77.317C12.6886 77.6793 12.8299 78.0228 13.0536 78.3111C13.2773 78.5993 13.575 78.8214 13.915 78.9537C12.8959 80.6007 14.0313 83.0496 16.2085 82.5061C16.2064 82.5683 16.2084 82.6305 16.2146 82.6924C16.1706 83.0996 16.2845 83.5082 16.5327 83.834C16.7504 84.0601 17.0346 84.2109 17.3439 84.2643C18.0711 87.7288 19.5081 91.0052 21.5643 93.8869C21.0411 94.6856 20.8092 95.6402 20.9076 96.59C21.3471 101.461 26.3282 104.286 29.4431 103.237C30.6927 104.84 32.1624 106.259 33.8087 107.452C33.8087 107.452 32.7979 111.55 32.5385 112.645C24.4218 114.986 18.0613 118.116 13.1862 122.164C6.62601 127.593 3.69847 136.678 4.94195 147.744C5.5009 152.721 6.98835 160.37 10.935 166.257C9.61496 171.433 8.62953 176.689 7.98479 181.991C7.76055 183.064 7.8466 184.179 8.23287 185.205C8.8648 186.274 9.83092 187.106 10.9823 187.572C12.0158 188.109 13.0634 188.609 14.125 189.072C14.0813 192.799 13.7229 196.516 13.0534 200.183C13.0385 200.251 13.0374 200.321 13.0501 200.389C13.0627 200.457 13.089 200.521 13.1272 200.579C13.1655 200.637 13.215 200.686 13.2727 200.724C13.3305 200.762 13.3953 200.788 13.4633 200.8C13.5313 200.813 13.6012 200.812 13.6687 200.796C13.7361 200.781 13.7999 200.753 13.8561 200.712C13.9123 200.672 13.9597 200.621 13.9957 200.562C14.0316 200.503 14.0553 200.437 14.0653 200.368C14.7205 196.783 15.0831 193.15 15.1492 189.506C25.3459 193.708 36.6217 194.528 47.3193 191.846C47.9887 191.751 48.6033 191.423 49.0548 190.92C49.3887 190.394 49.5493 189.776 49.5139 189.154L49.5932 187.142C51.7485 186.984 53.8067 186.182 55.5007 184.84C55.3635 186.478 55.1717 188.112 54.9253 189.742C54.912 189.829 54.921 189.917 54.9513 189.999C54.9817 190.081 55.0324 190.154 55.0987 190.211C55.1651 190.268 55.2448 190.307 55.3305 190.325C55.4161 190.342 55.5048 190.338 55.5882 190.311C58.6264 189.356 61.4337 187.781 63.8335 185.688V191.003C63.8335 191.14 63.8877 191.271 63.9843 191.367C64.0808 191.464 64.2117 191.518 64.3482 191.518C64.4847 191.518 64.6156 191.464 64.7122 191.367C64.8087 191.271 64.8629 191.14 64.8629 191.003V184.731C66.0711 183.669 67.011 182.336 67.6062 180.841C67.8882 179.727 67.958 178.57 67.8121 177.43C67.6521 174.796 67.4259 172.167 67.1337 169.545H79.06C79.1713 169.545 79.2795 169.509 79.3686 169.442C79.4577 169.376 79.5228 169.282 79.5541 169.175L92.9813 123.289C93.0037 123.212 93.0079 123.131 92.9936 123.053C92.9793 122.974 92.9469 122.9 92.899 122.836C92.851 122.772 92.7888 122.72 92.7174 122.684C92.6459 122.649 92.5671 122.63 92.4872 122.63ZM54.7184 114.679C56.7399 115.275 58.6127 116.292 60.2141 117.662C61.8154 119.032 63.1092 120.725 64.0106 122.63H60.9914C60.8801 122.63 60.7717 122.666 60.6826 122.733C60.5935 122.8 60.5285 122.894 60.4973 123.001L57.298 133.932C57.0518 133.876 56.8133 133.791 56.5877 133.677C56.3819 133.597 56.3695 134.457 57.5914 121.452C57.7019 120.886 57.6517 120.3 57.4463 119.761C55.8612 117.538 53.9433 115.572 51.76 113.932C52.7544 114.144 53.7477 114.368 54.7184 114.679ZM49.4079 113.501C51.9534 115.193 54.22 117.271 56.1266 119.66C56.2716 119.812 56.3961 119.982 56.4972 120.166C56.703 120.731 56.703 119.848 55.4616 133.118C55.3848 133.411 55.4131 133.721 55.5416 133.995C55.6701 134.268 55.8906 134.488 56.1647 134.616C56.4318 134.751 56.7137 134.855 57.0047 134.925L56.2141 137.625C55.759 137.503 55.2875 137.455 54.8172 137.481C54.6507 137.361 54.4856 137.239 54.3221 137.115C54.0549 130.175 52.2498 123.381 49.0373 117.223C48.3618 115.633 47.3165 114.227 45.9883 113.123C47.1371 113.2 48.2769 113.326 49.4079 113.501ZM55.9238 138.617L51.9844 152.084C51.3222 152.083 50.671 151.915 50.0911 151.595C49.5112 151.275 49.0213 150.815 48.6667 150.255C48.0635 149.061 47.8586 147.704 48.082 146.385C48.3941 144.13 49.4315 142.038 51.0374 140.425C52.2819 139.191 54.2192 138.183 55.9279 138.614L55.9238 138.617ZM18.4649 84.5638C18.6063 84.7877 18.7914 84.9809 19.009 85.1319C19.2266 85.2829 19.4724 85.3885 19.7317 85.4426C19.991 85.4967 20.2585 85.498 20.5183 85.4466C20.7782 85.3952 21.025 85.2921 21.2442 85.1434C22.3353 84.4691 21.5592 84.4228 22.3518 85.4522C22.5432 85.7031 22.7955 85.901 23.0848 86.0271C23.3741 86.1532 23.6908 86.2034 24.0049 86.1727C25.0199 85.8858 25.8795 85.208 26.3952 84.2879C26.5737 84.6235 26.8224 84.9167 27.1244 85.1476C27.4263 85.3785 27.7745 85.5417 28.1451 85.6261C28.0601 88.8703 28.7555 92.0874 30.173 95.0068C29.5059 94.9234 28.8348 94.872 28.1626 94.8524C27.4873 93.0582 25.1774 91.4555 23.1516 92.4735C22.8261 92.6393 22.5236 92.847 22.2519 93.0912C20.4564 90.5167 19.1709 87.6221 18.4649 84.5638ZM30.2193 102.887C30.633 102.644 31.0023 102.332 31.3115 101.965C31.3564 101.914 31.3906 101.854 31.4122 101.789C31.4337 101.724 31.4422 101.656 31.437 101.588C31.4318 101.52 31.4131 101.453 31.382 101.392C31.3509 101.332 31.308 101.278 31.2558 101.234C31.2036 101.19 31.1431 101.156 31.078 101.136C31.0128 101.115 30.9442 101.108 30.8762 101.114C30.8082 101.121 30.7421 101.14 30.6818 101.173C30.6215 101.205 30.5682 101.249 30.525 101.301C30.1773 101.715 29.7291 102.033 29.2233 102.225C28.7176 102.416 28.1713 102.474 27.6366 102.394C26.1573 102.204 24.7864 101.517 23.7496 100.445C22.7128 99.3731 22.0717 97.9801 21.9318 96.4953C21.8658 95.8665 21.9919 95.2325 22.2935 94.6768C22.595 94.1211 23.0579 93.6699 23.621 93.3825C24.3861 93.1945 25.1942 93.308 25.878 93.6995C26.5617 94.091 27.0686 94.7305 27.2938 95.4855C27.3229 95.5936 27.3865 95.6893 27.4749 95.7581C27.5634 95.8268 27.6718 95.8648 27.7838 95.8664C28.8944 95.8817 30.002 95.9849 31.0963 96.1752C31.1858 96.1751 31.2736 96.1518 31.3513 96.1075C31.429 96.0632 31.4938 95.9994 31.5393 95.9224C31.5848 95.8454 31.6095 95.7579 31.6109 95.6684C31.6122 95.579 31.5903 95.4908 31.5472 95.4124C29.8941 92.4032 29.0766 89.0064 29.1796 85.5747C29.7367 85.3944 30.2306 85.0586 30.6032 84.607C30.8055 84.8544 31.0619 85.0519 31.3527 85.1843C31.6435 85.3166 31.9609 85.3803 32.2803 85.3703C32.5996 85.3604 32.9124 85.2771 33.1944 85.1269C33.4764 84.9767 33.7201 84.7636 33.9065 84.5041C34.1265 84.2179 34.3091 83.9049 34.45 83.5725C34.7542 83.828 35.118 84.0024 35.5076 84.0798C35.8972 84.1571 36.3 84.1347 36.6786 84.0148C37.0573 83.8949 37.3995 83.6813 37.6736 83.3938C37.9477 83.1063 38.1447 82.7542 38.2463 82.3702C38.5262 82.5271 38.8379 82.6187 39.1582 82.6382C39.4784 82.6578 39.7989 82.6048 40.0958 82.4832C40.3927 82.3615 40.6583 82.1744 40.8728 81.9358C41.0873 81.6972 41.2451 81.4132 41.3345 81.1051C41.6264 81.3767 41.9713 81.5851 42.3475 81.717C42.7238 81.849 43.1233 81.9018 43.5209 81.872C43.9116 81.794 44.2756 81.6165 44.5777 81.3567C44.8797 81.0968 45.1096 80.7634 45.2451 80.3887C46.714 81.4952 48.6183 80.4144 48.9168 78.5121C49.3016 78.7057 49.7337 78.785 50.1621 78.7405C50.5905 78.6959 50.9971 78.5295 51.3338 78.261C53.1176 81.474 54.374 84.9526 55.055 88.564C55.792 92.4756 56.1359 96.8803 54.6093 100.657C53.2261 104.136 50.5713 106.959 47.1834 108.553C45.4288 109.254 43.5425 109.563 41.656 109.46C39.7696 109.357 37.9284 108.843 36.2607 107.955C33.9324 106.679 31.8792 104.956 30.2193 102.884V102.887ZM41.213 110.371C41.1101 110.943 40.9886 111.504 40.8692 112.072C40.6353 112.422 40.3183 112.709 39.9464 112.906C39.5746 113.104 39.1595 113.206 38.7384 113.204C37.7973 113.296 36.8487 113.137 35.9889 112.743C35.1291 112.35 34.3886 111.736 33.8427 110.964C33.8427 110.964 34.3574 108.979 34.5931 107.986C36.5786 109.296 38.8482 110.113 41.213 110.368V110.371ZM32.2935 113.804C32.2708 113.964 32.2533 114.124 32.241 114.285C32.2465 114.399 32.2958 114.507 32.3787 114.586C32.4616 114.665 32.5717 114.709 32.6862 114.709C32.8007 114.709 32.9108 114.665 32.9937 114.586C33.0766 114.507 33.1259 114.399 33.1314 114.285C33.2095 113.586 33.3472 112.895 33.5431 112.22C35.6534 114.485 38.9443 114.708 40.5913 113.672C40.5249 114.201 40.4837 114.732 40.4677 115.264C40.4732 115.378 40.5225 115.486 40.6054 115.565C40.6883 115.644 40.7984 115.688 40.9129 115.688C41.0275 115.688 41.1376 115.644 41.2205 115.565C41.3033 115.486 41.3526 115.378 41.3582 115.264C41.3781 114.524 41.4514 113.786 41.5774 113.057C42.4215 113.025 43.2642 113.019 44.1055 113.037C44.121 113.05 44.1372 113.061 44.1539 113.071C45.9224 114.149 47.307 115.756 48.1119 117.664C51.1286 123.438 52.8831 129.787 53.2588 136.29C51.2916 134.739 48.0964 132.203 45.7145 131.584C44.9548 131.386 44.0263 131.332 43.7803 132.079C43.5847 132.672 44.0356 133.403 45.3079 134.497C46.7982 135.772 48.3684 136.95 50.009 138.024C50.4204 138.345 50.8699 138.614 51.3472 138.824C50.3132 139.593 49.4338 140.55 48.7552 141.645C47.9153 141.884 47.0715 142.138 46.224 142.407C40.8054 132.973 34.1731 122.62 24.0924 116.769C26.7598 115.605 29.4991 114.614 32.2935 113.801V113.804ZM21.1598 118.17C21.7362 117.871 22.3264 117.581 22.9303 117.298C33.0892 122.91 39.777 133.269 45.2245 142.735C43.3977 143.341 41.5912 144.007 39.8079 144.732C38.4166 143.493 37.1499 142.121 36.026 140.636L40.2135 138.253C40.2869 138.211 40.3488 138.152 40.3939 138.081C40.439 138.009 40.4659 137.928 40.4721 137.843C40.4783 137.759 40.4637 137.675 40.4295 137.598C40.3954 137.52 40.3427 137.453 40.2763 137.401C34.1389 132.609 27.5026 128.493 20.4824 125.124L21.1598 118.17ZM5.96001 147.628C5.10871 140.052 5.78501 129.622 13.8399 122.956C15.7786 121.36 17.8641 119.951 20.0686 118.747L19.4191 125.384C19.4089 125.489 19.4315 125.595 19.4839 125.687C19.5362 125.779 19.6157 125.853 19.7114 125.898C26.5526 129.15 33.0296 133.118 39.0338 137.736L35.0121 140.024C34.9491 140.06 34.8944 140.109 34.8515 140.167C34.8086 140.226 34.7786 140.293 34.7633 140.364C34.7481 140.434 34.7479 140.508 34.763 140.578C34.778 140.649 34.8078 140.716 34.8504 140.775C36.0031 142.362 37.3114 143.831 38.7559 145.158C35.2891 146.609 31.9264 148.297 28.6917 150.21L26.1574 140.946C27.1322 140.04 24.6133 139.189 25.094 140.96L27.8785 151.132C27.8996 151.209 27.9382 151.28 27.9913 151.34C28.0445 151.399 28.1107 151.445 28.1847 151.475C28.2588 151.504 28.3386 151.516 28.418 151.509C28.4974 151.503 28.5742 151.478 28.6423 151.436C34.7104 147.755 41.2368 144.888 48.0532 142.911C47.5586 143.958 47.2265 145.074 47.0681 146.22C46.8113 147.753 47.0523 149.328 47.7557 150.714C48.1426 151.422 48.7106 152.016 49.4018 152.433C50.093 152.851 50.8826 153.078 51.69 153.09L49.0291 162.187C44.5744 166.997 38.8838 170.49 32.5786 172.285C28.6907 173.433 23.0754 174.284 18.4031 171.826C9.41562 167.134 6.74954 154.651 5.96001 147.628ZM48.2128 190.329C47.91 190.608 47.5288 190.788 47.1206 190.844C35.1045 193.859 22.4 192.364 11.4116 186.643C10.4796 186.276 9.69008 185.62 9.1593 184.77C8.86364 183.931 8.80663 183.026 8.9946 182.157C9.60035 177.174 10.5075 172.233 11.7111 167.36C17.0062 174.365 24.1666 175.849 32.8607 173.282C38.7063 171.617 44.0483 168.53 48.4094 164.296L47.065 168.891C47.0426 168.968 47.0384 169.049 47.0527 169.127C47.067 169.206 47.0994 169.28 47.1474 169.344C47.1953 169.408 47.2575 169.46 47.3289 169.496C47.4004 169.531 47.4792 169.55 47.5591 169.55H49.2524L48.4825 189.173C48.5109 189.577 48.4169 189.98 48.2128 190.329ZM49.6343 186.109L50.2869 169.546H55.0952C55.7185 174.128 55.8909 178.761 55.6098 183.377C53.9965 184.955 51.8834 185.921 49.6343 186.109ZM66.6252 180.538C66.2575 181.499 65.6995 182.377 64.9844 183.118C62.5249 185.78 59.4681 187.819 56.0659 189.068C56.979 182.594 57.0015 176.026 56.1328 169.546H66.0992C66.1403 170.089 66.477 172.437 66.7878 177.529C66.9204 178.534 66.8653 179.556 66.6252 180.542V180.538ZM78.6689 168.517C78.5659 168.517 49.0229 168.372 48.2447 168.517C51.8989 156.029 48.2447 168.983 61.3713 123.655C61.4454 123.655 83.3031 123.664 91.7955 123.655L78.6689 168.517Z" fill="#562C13"/>
<path d="M84.4493 153.339C84.4404 153.271 84.4179 153.205 84.3832 153.145C84.3484 153.086 84.302 153.034 84.2469 152.993C84.1917 152.952 84.1288 152.922 84.0619 152.906C83.9951 152.889 83.9256 152.886 83.8576 152.897C83.7896 152.908 83.7244 152.932 83.666 152.969C83.6077 153.005 83.5572 153.053 83.5176 153.11C83.4781 153.166 83.4502 153.23 83.4357 153.297C83.4213 153.364 83.4204 153.434 83.4333 153.502C83.9245 156.556 83.7567 159.679 82.9413 162.663C82.8462 161.672 82.502 160.721 81.9407 159.898C81.0215 158.646 79.7315 157.715 78.2535 157.237C77.0677 156.832 75.0974 156.177 73.8982 156.879C73.6922 156.995 73.5126 157.152 73.3709 157.341C73.2292 157.53 73.1284 157.747 73.0751 157.977C73.0219 158.207 73.0172 158.446 73.0614 158.678C73.1057 158.91 73.1978 159.13 73.3321 159.325C73.578 159.591 73.8805 159.8 74.2173 159.934C74.5813 160.123 74.9064 160.379 75.1757 160.688C73.59 160.932 71.968 160.766 70.4653 160.204C67.4934 159.086 66.8799 161.825 68.6844 163.358C69.1683 163.737 69.7093 164.037 70.2872 164.247C69.9236 164.289 69.5555 164.265 69.2001 164.178C68.6155 163.93 67.7683 163.307 66.8563 163.789C66.5491 164.012 66.3272 164.333 66.2271 164.7C66.127 165.066 66.1546 165.455 66.3055 165.804C66.6297 166.523 67.1827 167.115 67.8784 167.488C66.5608 167.597 66.1511 169.294 67.4286 170.446C68.1943 171.121 69.0877 171.635 70.0558 171.958C71.024 172.28 72.0471 172.405 73.0644 172.325C75.0509 172.415 77.0193 171.913 78.7197 170.882C80.4202 169.851 81.776 168.338 82.615 166.536C84.532 162.419 85.171 157.822 84.4493 153.339ZM80.4347 167.981C78.376 170.796 74.5673 171.658 71.157 171.132C70.0223 170.966 68.9644 170.461 68.1224 169.682C67.8043 169.396 67.4739 168.778 67.8331 168.55C68.0246 168.427 68.5599 168.631 68.9274 168.714C69.4363 168.834 69.9654 168.844 70.4783 168.741C70.9912 168.638 71.4759 168.426 71.8992 168.119C71.9891 168.052 72.0548 167.958 72.0864 167.851C72.1181 167.743 72.1138 167.629 72.0744 167.524C72.0349 167.419 71.9624 167.33 71.8678 167.27C71.7733 167.21 71.6617 167.183 71.5502 167.192C70.5732 167.27 69.592 167.11 68.6906 166.725C68.3734 166.609 68.0825 166.431 67.835 166.201C67.5875 165.971 67.3885 165.695 67.2495 165.387C67.1962 165.266 67.1819 165.132 67.2084 165.003C67.235 164.874 67.3012 164.756 67.3977 164.666C67.7065 164.503 68.2871 164.921 68.8738 165.153C69.4343 165.297 70.0179 165.327 70.5903 165.243C71.1628 165.159 71.7127 164.961 72.208 164.662C72.296 164.609 72.366 164.53 72.4089 164.437C72.4519 164.343 72.4658 164.239 72.449 164.138C72.4321 164.036 72.3853 163.942 72.3144 163.867C72.2436 163.793 72.152 163.741 72.0515 163.719C71.3947 163.574 70.7567 163.354 70.1503 163.063C68.739 162.446 68.4765 161.266 68.8543 161.041C69.2738 160.928 69.7203 160.973 70.1081 161.169C72.0454 161.895 74.1551 162.025 76.167 161.544C76.2439 161.526 76.3156 161.49 76.3764 161.44C76.4373 161.389 76.4858 161.325 76.518 161.253C76.5503 161.181 76.5655 161.103 76.5624 161.024C76.5594 160.945 76.5382 160.867 76.5005 160.798C76.0796 160.025 75.4333 159.398 74.6476 159.002C74.4663 158.927 74.2989 158.823 74.1525 158.693C74.0653 158.534 74.0445 158.348 74.0947 158.174C74.1448 158 74.2619 157.854 74.4201 157.766C75.1973 157.265 77.0409 157.909 77.9941 158.236C79.241 158.646 80.3284 159.436 81.1038 160.495C82.5975 162.638 81.9397 165.984 80.4358 167.981H80.4347Z" fill="#562C13"/>
<path d="M186.776 76.2873C186.274 74.3139 185.341 72.4768 184.042 70.9088C182.606 69.5333 180.931 68.4304 179.101 67.6539C179.203 67.0751 179.104 66.4786 178.819 65.9643C178.534 65.4501 178.082 65.0493 177.537 64.8291C176.992 64.6088 176.387 64.5825 175.825 64.7546C175.263 64.9267 174.777 65.2867 174.449 65.7743C171.47 64.6811 168.358 63.9915 165.196 63.7237C160.752 63.4015 156.015 64.8427 153.049 68.1748C151.902 69.5515 150.964 71.0893 150.265 72.739C149.53 74.2645 149.411 76.0147 149.933 77.6255C148.87 78.2348 147.28 79.5216 148.268 80.2411C148.619 80.4414 149.023 80.5304 149.426 80.4964C151.073 80.5849 152.782 81.0306 154.435 81.2169C163.789 82.3853 172.552 85.705 181.236 89.0978C181.754 89.3723 182.277 89.6359 182.804 89.8884C183.472 90.2754 184.233 90.4733 185.004 90.4607C186.848 90.2549 187.611 87.9902 187.763 86.1374C187.99 82.8218 187.656 79.4919 186.776 76.2873Z" fill="#FCD7C1"/>
<path d="M200.666 162.558C201.714 159.626 201.15 156.068 200.788 153.479C199.773 146.995 198.094 140.631 195.779 134.489C193.918 129.295 192.168 123.063 187.33 119.91C183.128 117.369 178.647 115.319 173.977 113.801C173.711 111.644 173.545 109.478 173.478 107.304C178.044 108.201 182.71 108.478 187.351 108.127C188.858 108.191 190.996 107.561 191.248 106.077C191.503 104.563 189.425 103.267 189.086 102.362C188.918 101.907 189.261 101.332 189.692 100.689C190.619 99.294 190.382 98.4242 190.019 97.9435C189.488 97.2425 188.24 97.085 188.166 96.6558C188.083 96.1647 188.859 95.8323 189.092 95.0592C189.703 93.0457 187.32 92.8028 186.786 92.2799C186.488 91.9886 186.772 91.1918 186.303 90.5135C187.538 89.6725 188.136 87.8567 188.274 86.1767C188.505 82.805 188.165 79.4184 187.268 76.1599C186.739 74.0932 185.756 72.1704 184.391 70.5313C183.02 69.2226 181.441 68.1515 179.718 67.3618C179.785 66.6996 179.636 66.0334 179.292 65.4635C178.948 64.8936 178.429 64.4507 177.811 64.2017C177.194 63.9526 176.513 63.9108 175.87 64.0825C175.226 64.2542 174.657 64.6302 174.246 65.1538C171.332 64.1178 168.297 63.4628 165.215 63.2052C162.908 62.9805 160.58 63.2805 158.405 64.0827C156.23 64.8848 154.265 66.1684 152.657 67.8374C151.464 69.2397 150.502 70.8223 149.806 72.5262C149.652 72.8731 148.378 75.8408 149.377 77.3488C147.949 78.2083 146.663 79.7164 148.013 80.685C148.254 80.8229 148.516 80.9199 148.789 80.9722C147.945 81.8853 146 82.3433 145.907 84.0274C145.91 84.204 145.926 84.3801 145.954 84.5544C146.066 85.3635 145.924 85.5642 144.79 86.2642C144.053 86.6103 143.46 87.2026 143.112 87.939C142.967 88.4744 142.96 89.0378 143.092 89.5767C143.275 90.7091 143.251 90.9036 142.049 91.6273C141.438 91.9193 140.929 92.3894 140.59 92.9757C140.408 93.4816 140.372 94.0287 140.488 94.5539C140.603 95.0791 140.864 95.5611 141.241 95.9445C140.68 96.2853 140.207 96.7542 139.863 97.3128C139.518 97.8715 139.31 98.5039 139.257 99.1582C139.258 99.8393 139.486 100.501 139.904 101.038C140.323 101.575 140.909 101.958 141.569 102.125C141.445 102.423 141.416 102.752 141.486 103.068C141.555 103.383 141.72 103.669 141.957 103.888C142.503 104.243 141.648 104.051 155.773 105.821C157.883 107.453 160.431 108.418 163.092 108.593C163.636 108.594 164.179 108.564 164.72 108.503C164.692 110.128 164.577 111.75 164.375 113.363C156.29 115.716 148.331 117.015 140.948 129.163C140.134 130.479 133.672 139.586 132.285 141.141C125.644 136.758 117.9 132.735 112.146 127.417C112.083 127.358 112.006 127.316 111.922 127.295C111.838 127.274 111.75 127.274 111.667 127.296C111.61 125.455 111.296 123.63 110.733 121.875C110.612 121.375 110.357 120.916 109.996 120.549C109.746 120.308 109.417 120.167 109.07 120.153C108.723 120.14 108.384 120.253 108.115 120.473C107.934 120.665 107.801 120.896 107.726 121.149C107.637 121.399 107.566 121.655 107.512 121.916C106.729 120.715 105.723 119.675 104.55 118.852C102.534 117.456 101.05 119.108 102.429 121.175C101.898 120.935 101.342 120.754 100.772 120.633C100.559 120.541 100.329 120.498 100.097 120.507C99.8654 120.516 99.6388 120.577 99.4337 120.684C98.6946 121.199 98.9375 122.222 99.5037 122.949C99.7748 123.292 100.061 123.622 100.361 123.937C98.2149 123.356 96.8366 125.546 99.3369 127.069C101.761 128.63 103.983 130.485 105.951 132.592C105.838 132.913 105.803 133.256 105.848 133.593C105.893 133.931 106.017 134.252 106.21 134.533C109.298 141.457 115.359 148.395 124.739 155.738C128.154 158.414 132.204 160.874 136.422 159.916C138.789 159.382 140.92 158.097 142.496 156.251C142.518 158.71 142.631 161.171 142.837 163.637C142.783 164.32 142.97 165 143.367 165.559C143.763 166.117 144.344 166.518 145.006 166.691C147.192 167.616 149.431 168.409 151.713 169.064C151.61 173.902 151.639 173.882 151.516 174.308C151.37 174.617 151.18 174.904 150.952 175.159C145.393 181.58 141.536 189.727 137.664 197.484C137.633 197.545 137.616 197.611 137.611 197.679C137.606 197.747 137.615 197.815 137.637 197.879C137.658 197.943 137.692 198.003 137.737 198.054C137.782 198.105 137.836 198.147 137.897 198.177C137.958 198.208 138.024 198.225 138.092 198.23C138.159 198.235 138.227 198.226 138.292 198.204C138.356 198.183 138.416 198.149 138.467 198.104C138.518 198.059 138.56 198.005 138.59 197.944C141.998 191.115 145.51 184.082 149.967 178.089C152.811 180.25 156.43 181.074 159.931 181.641C166.224 182.658 173.48 182.773 179.448 180.621C179.242 181.422 179.019 182.251 178.781 183.12C178.749 183.235 178.758 183.357 178.806 183.466C178.854 183.575 178.938 183.663 179.045 183.717C177.997 184.521 177.026 185.42 176.143 186.401C175.93 186.598 175.779 186.852 175.707 187.133C175.635 187.414 175.645 187.71 175.737 187.985C175.862 188.242 176.064 188.452 176.316 188.586C176.568 188.72 176.856 188.77 177.138 188.729C176.583 189.794 176.214 190.945 176.048 192.134C176.013 192.355 176.031 192.581 176.1 192.794C176.17 193.007 176.289 193.2 176.447 193.357C176.71 193.536 177.031 193.609 177.345 193.562C177.659 193.515 177.944 193.351 178.144 193.104C178.041 193.954 178.321 194.944 179.193 194.944C180.029 194.765 180.771 194.287 181.279 193.599C181.25 193.801 181.271 194.008 181.342 194.199C181.412 194.391 181.529 194.562 181.683 194.697C181.89 194.82 182.127 194.886 182.368 194.888C182.609 194.89 182.846 194.828 183.056 194.709C183.383 194.529 183.668 194.284 183.895 193.988C185.585 191.957 186.67 189.492 187.026 186.874C187.518 186.819 187.983 186.625 188.368 186.313C188.752 186.002 189.039 185.587 189.195 185.118C189.446 184.722 189.695 184.325 189.941 183.925C192.814 188.867 195.305 194.02 197.393 199.34C197.419 199.402 197.458 199.459 197.506 199.506C197.554 199.554 197.611 199.592 197.673 199.617C197.736 199.643 197.803 199.656 197.871 199.655C197.938 199.655 198.005 199.641 198.067 199.615C198.13 199.589 198.186 199.55 198.234 199.502C198.281 199.454 198.319 199.397 198.344 199.335C198.37 199.272 198.383 199.205 198.383 199.137C198.382 199.07 198.368 199.003 198.342 198.941C196.179 193.406 193.57 188.056 190.542 182.943C192.861 179.1 194.954 175.124 196.809 171.036C198.293 168.305 199.581 165.472 200.666 162.558ZM178.698 66.9367C177.539 66.4971 177.284 66.2758 175.314 65.5378C175.598 65.2807 175.95 65.1095 176.327 65.044C176.705 64.9786 177.094 65.0216 177.448 65.168C177.802 65.3145 178.108 65.5584 178.329 65.8715C178.55 66.1845 178.678 66.5539 178.698 66.9367ZM150.758 72.9318C151.411 71.3272 152.315 69.8363 153.435 68.5147C154.938 66.9659 156.772 65.7766 158.8 65.0355C160.827 64.2944 162.996 64.0206 165.144 64.2346C171.24 64.6782 179.816 67.5821 183.645 71.2343C184.895 72.7481 185.793 74.5199 186.277 76.4224C187.144 79.5682 187.473 82.8378 187.251 86.0933C187.12 87.6837 186.55 89.4203 185.381 89.8536C185.344 89.8392 181.167 88.4733 181.129 88.4609C175.038 85.2019 169.697 80.791 163.4 77.8583C158.501 75.5783 154.437 73.676 150.284 76.8382C149.683 76.1187 150.249 74.0744 150.757 72.9318H150.758ZM149.918 78.2279C152.035 76.8496 154.613 76.3683 157.085 76.8897C163.132 77.778 170.43 83.0927 175.614 86.3929C168.818 83.6865 161.732 81.779 154.496 80.7087C153.718 80.6191 151.023 80.0633 149.383 79.9819C147.84 80.1189 148.585 79.0236 149.918 78.2279ZM164.446 107.616C156.32 108.019 150.825 100.651 150.625 92.916C150.506 88.9974 151.227 85.0988 152.739 81.4817C159.479 82.3107 166.096 83.94 172.45 86.3352C172.533 86.7274 174.167 87.484 173.44 89.1259C173.151 89.7775 172.328 90.5948 172.623 91.6221C172.901 92.5877 174.281 92.9716 174.436 93.6212C174.562 94.1461 173.467 94.8698 173.105 95.6799C172.466 97.1334 173.87 98.277 173.311 99.0151C173.105 99.291 172.561 99.6152 172.433 100.219C172.402 100.473 172.425 100.73 172.5 100.975C172.574 101.219 172.699 101.445 172.866 101.638C173.024 101.82 173.127 102.043 173.162 102.281C173.075 103.116 171.274 103.549 171 105.175C169.09 106.593 166.818 107.439 164.446 107.617V107.616ZM173.093 113.932C171.091 115.635 168.915 117.124 166.602 118.374C166.105 116.811 165.699 115.222 165.387 113.613C165.61 111.868 165.734 110.113 165.758 108.355C167.691 107.994 169.53 107.243 171.164 106.149C171.5 106.628 172.007 106.959 172.581 107.075C172.648 109.368 172.819 111.654 173.094 113.933L173.093 113.932ZM164.549 114.595C164.851 116.049 165.232 117.485 165.689 118.897C165.04 119.422 164.619 120.179 164.515 121.008C164.397 121.356 164.418 121.737 164.572 122.071C164.726 122.405 165.002 122.668 165.343 122.805C165.685 122.942 166.066 122.944 166.408 122.809C166.751 122.674 167.029 122.413 167.185 122.08C167.4 121.627 167.52 121.135 167.538 120.633C167.555 120.132 167.47 119.632 167.288 119.165C169.55 117.929 171.681 116.468 173.651 114.805C175.981 115.707 179.312 116.917 182.503 118.441C179.079 121.224 174.96 123.019 170.59 123.633C166.221 124.247 161.766 123.656 157.708 121.925C155.848 121.184 154.216 119.969 152.973 118.4C156.645 116.622 160.538 115.342 164.55 114.596L164.549 114.595ZM152.048 118.881C153.415 120.664 155.237 122.044 157.324 122.877C160.483 124.21 163.872 124.914 167.3 124.95C173.252 124.908 179.003 122.788 183.557 118.956C183.9 119.129 184.24 119.307 184.575 119.487C181.149 122.359 177.082 124.365 172.718 125.334C168.354 126.304 163.821 126.21 159.501 125.059C157.582 124.559 153.001 122.986 151.587 119.156C151.745 119.059 151.899 118.968 152.049 118.882L152.048 118.881ZM99.0446 125.167C99.1331 124.885 99.7034 124.817 100.051 124.913C100.723 125.25 101.461 125.434 102.213 125.451C102.321 125.454 102.427 125.422 102.516 125.36C102.605 125.299 102.672 125.211 102.709 125.109C102.745 125.008 102.748 124.897 102.718 124.793C102.688 124.689 102.626 124.598 102.54 124.531C101.714 123.885 100.967 123.142 100.316 122.319C100.126 122.11 100.021 121.836 100.024 121.553C100.173 121.529 100.326 121.549 100.463 121.612C101.958 121.933 103.323 122.693 104.384 123.794C104.475 123.896 104.603 123.957 104.739 123.965C104.876 123.972 105.01 123.925 105.111 123.834C105.213 123.743 105.274 123.615 105.282 123.478C105.289 123.342 105.242 123.208 105.151 123.107C104.468 122.283 103.849 121.405 103.223 120.512C102.947 120.116 102.847 119.561 102.986 119.408C103.072 119.314 103.506 119.382 103.963 119.699C105.527 120.796 106.752 122.311 107.498 124.07C107.547 124.185 107.637 124.278 107.75 124.332C107.863 124.386 107.992 124.397 108.112 124.363C108.233 124.328 108.336 124.251 108.404 124.146C108.472 124.04 108.499 123.914 108.48 123.79C108.361 123.008 108.44 122.208 108.709 121.464C108.738 121.361 108.794 121.258 108.794 121.248C108.864 121.196 108.95 121.171 109.037 121.177C109.124 121.183 109.206 121.219 109.269 121.278C109.505 121.523 109.669 121.826 109.745 122.156C110.365 124.085 110.67 126.101 110.649 128.127L106.912 131.432C106.776 131.512 106.649 131.605 106.533 131.711C101.803 126.718 98.7677 126.05 99.0446 125.167ZM160.103 180.631C156.734 180.091 153.262 179.306 150.597 177.275C151.832 175.67 151.767 175.845 152.016 175.505C159.049 179.59 167.596 179.79 175.583 178.456C177.244 178.14 178.859 177.621 180.394 176.912C180.193 177.724 179.987 178.553 179.769 179.411C173.095 182.072 164.984 181.42 160.103 180.63V180.631ZM152.749 169.356C162.374 171.94 172.49 172.095 182.189 169.807C181.664 171.738 181.202 173.616 180.712 175.614C179.041 176.474 177.255 177.09 175.409 177.441C166.111 178.995 158.412 178.04 152.509 174.603C152.699 173.945 152.654 173.933 152.749 169.355V169.356ZM183.091 193.361C182.948 193.551 182.765 193.708 182.556 193.822C182.48 193.866 182.389 193.879 182.304 193.857C182.417 192.981 182.635 192.122 182.951 191.298C182.982 191.172 182.964 191.039 182.902 190.925C182.839 190.812 182.736 190.726 182.612 190.685C182.489 190.645 182.355 190.652 182.237 190.706C182.119 190.76 182.026 190.857 181.976 190.976C181.688 191.672 179.765 193.983 179.258 193.944C179.18 193.804 179.145 193.645 179.155 193.486C179.166 192.971 179.209 192.978 180.363 190.132C180.413 190.011 180.415 189.875 180.367 189.752C180.32 189.63 180.228 189.53 180.11 189.473C179.991 189.416 179.856 189.407 179.731 189.447C179.605 189.486 179.5 189.573 179.437 189.688C178.91 190.623 178.27 191.491 177.53 192.269C176.398 193.634 177.407 189.49 179.428 187.244C179.515 187.147 179.561 187.021 179.559 186.891C179.556 186.761 179.504 186.637 179.414 186.544C179.324 186.451 179.202 186.395 179.072 186.388C178.942 186.381 178.815 186.423 178.715 186.506C177.629 187.417 177.498 187.565 177.062 187.705C176.696 187.82 176.561 187.435 176.886 187.13C177.83 186.08 178.877 185.129 180.013 184.292C181.784 185.294 183.668 186.083 185.625 186.64C185.749 186.698 185.876 186.748 186.007 186.787C185.667 189.207 184.657 191.484 183.091 193.36V193.361ZM188.238 184.756C188.179 184.952 188.082 185.134 187.953 185.293C187.824 185.451 187.665 185.583 187.485 185.68C187.305 185.777 187.107 185.838 186.904 185.858C186.7 185.879 186.494 185.859 186.299 185.801C184.048 185.157 181.89 184.223 179.881 183.021C182.054 175.038 182.844 170.04 185.68 162.134C187.245 157.791 187.636 154.716 185.461 149.958C183.55 145.78 181.549 141.645 179.461 137.553C179.432 137.491 179.39 137.435 179.339 137.389C179.287 137.343 179.227 137.308 179.162 137.286C179.097 137.264 179.028 137.255 178.959 137.26C178.89 137.265 178.823 137.284 178.762 137.315C178.701 137.347 178.646 137.39 178.602 137.443C178.558 137.495 178.525 137.557 178.504 137.622C178.484 137.688 178.477 137.757 178.484 137.826C178.491 137.894 178.512 137.961 178.545 138.021C180.626 142.1 182.62 146.222 184.525 150.386C187.59 157.077 185.154 159.308 182.505 168.666C170.125 171.71 157.093 170.679 145.346 165.725C144.893 165.61 144.495 165.336 144.227 164.954C143.958 164.571 143.835 164.105 143.88 163.639C142.765 150.461 144.336 137.194 148.497 124.64C148.54 124.511 148.529 124.369 148.468 124.247C148.406 124.126 148.299 124.033 148.169 123.99C148.039 123.948 147.898 123.958 147.776 124.02C147.654 124.081 147.562 124.188 147.519 124.318C144.271 134.13 142.581 144.39 142.51 154.725C140.565 156.966 138.934 158.307 136.208 158.921C132.262 159.816 128.352 157.261 125.386 154.935C116.122 147.681 110.152 140.857 107.14 134.075C107.104 134.008 107.064 133.943 107.02 133.881C106.945 133.743 106.898 133.591 106.882 133.434C106.867 133.278 106.882 133.12 106.929 132.969C106.975 132.819 107.051 132.679 107.152 132.559C107.253 132.438 107.377 132.339 107.517 132.267L111.801 128.49C117.702 133.826 125.47 137.839 132.04 142.212C132.162 142.291 132.31 142.32 132.452 142.291C133.392 142.091 141.754 129.836 141.833 129.706C144.121 125.843 147.136 122.461 150.711 119.746C152.313 123.71 156.712 125.399 159.239 126.058C163.781 127.271 168.55 127.356 173.132 126.303C177.714 125.251 181.969 123.094 185.525 120.021C186.005 120.298 186.472 120.585 186.922 120.879C190.991 123.864 192.528 128.291 194.156 132.975C196.749 139.644 198.631 146.568 199.77 153.632C200.117 156.112 200.657 159.53 199.697 162.214C198.627 165.092 197.356 167.891 195.893 170.591C193.661 175.478 191.104 180.21 188.24 184.755L188.238 184.756Z" fill="#562C13"/>
<path d="M30.125 97.9861C30.125 99.2318 30.6199 100.427 31.5007 101.307C32.3816 102.188 33.5763 102.683 34.822 102.683C36.0678 102.683 37.2625 102.188 38.1433 101.307C39.0242 100.427 39.5191 99.2318 39.5191 97.9861C39.5191 96.7404 39.0242 95.5457 38.1433 94.6648C37.2625 93.7839 36.0678 93.2891 34.822 93.2891C33.5763 93.2891 32.3816 93.7839 31.5007 94.6648C30.6199 95.5457 30.125 96.7404 30.125 97.9861Z" fill="#FEECE1"/>
<path d="M51.1191 93.4544C51.1191 94.4907 51.5308 95.4846 52.2636 96.2174C52.9964 96.9502 53.9903 97.3619 55.0266 97.3619C56.063 97.3619 57.0569 96.9502 57.7897 96.2174C58.5225 95.4846 58.9342 94.4907 58.9342 93.4544C58.9342 92.4181 58.5225 91.4242 57.7897 90.6914C57.0569 89.9586 56.063 89.5469 55.0266 89.5469C53.9903 89.5469 52.9964 89.9586 52.2636 90.6914C51.5308 91.4242 51.1191 92.4181 51.1191 93.4544Z" fill="#FEECE1"/>
<path d="M148.127 95.1267C148.127 95.6009 148.22 96.0705 148.402 96.5086C148.583 96.9467 148.849 97.3448 149.185 97.6801C149.52 98.0154 149.918 98.2814 150.356 98.4628C150.794 98.6443 151.264 98.7377 151.738 98.7377C152.212 98.7377 152.682 98.6443 153.12 98.4628C153.558 98.2814 153.956 98.0154 154.291 97.6801C154.627 97.3448 154.893 96.9467 155.074 96.5086C155.256 96.0705 155.349 95.6009 155.349 95.1267C155.349 94.6525 155.256 94.1829 155.074 93.7448C154.893 93.3067 154.627 92.9086 154.291 92.5733C153.956 92.238 153.558 91.972 153.12 91.7905C152.682 91.609 152.212 91.5156 151.738 91.5156C151.264 91.5156 150.794 91.609 150.356 91.7905C149.918 91.972 149.52 92.238 149.185 92.5733C148.849 92.9086 148.583 93.3067 148.402 93.7448C148.22 94.1829 148.127 94.6525 148.127 95.1267Z" fill="#FEECE1"/>
<path d="M166.145 95.3812C166.145 95.9371 166.254 96.4875 166.467 97.001C166.679 97.5146 166.991 97.9812 167.384 98.3743C167.777 98.7673 168.244 99.0791 168.758 99.2918C169.271 99.5045 169.821 99.614 170.377 99.614C170.933 99.614 171.484 99.5045 171.997 99.2918C172.511 99.0791 172.977 98.7673 173.37 98.3743C173.763 97.9812 174.075 97.5146 174.288 97.001C174.501 96.4875 174.61 95.9371 174.61 95.3812C174.61 94.8254 174.501 94.275 174.288 93.7614C174.075 93.2479 173.763 92.7812 173.37 92.3882C172.977 91.9951 172.511 91.6834 171.997 91.4706C171.484 91.2579 170.933 91.1484 170.377 91.1484C169.821 91.1484 169.271 91.2579 168.758 91.4706C168.244 91.6834 167.777 91.9951 167.384 92.3882C166.991 92.7812 166.679 93.2479 166.467 93.7614C166.254 94.275 166.145 94.8254 166.145 95.3812Z" fill="#FEECE1"/>
<path d="M155.227 95.6995C155.131 95.6995 155.036 95.6723 154.954 95.621C154.873 95.5698 154.807 95.4965 154.765 95.4097C154.722 95.3228 154.706 95.2258 154.716 95.1298C154.726 95.0338 154.763 94.9426 154.823 94.8667C156.265 93.0333 157.586 91.1077 158.778 89.1022C158.884 88.9823 158.951 88.8327 158.969 88.6737C158.987 88.5147 158.957 88.3538 158.881 88.2128C158.634 87.5019 158.328 86.8132 157.966 86.1541C157.9 86.0345 157.884 85.8936 157.922 85.7625C157.96 85.6313 158.048 85.5206 158.168 85.4546C158.287 85.3887 158.428 85.373 158.56 85.4109C158.691 85.4488 158.801 85.5373 158.867 85.6569C159.253 86.3584 159.58 87.0912 159.843 87.8474C159.97 88.1383 160.019 88.4575 159.985 88.7731C159.95 89.0887 159.834 89.3899 159.648 89.6467C158.438 91.685 157.097 93.6422 155.633 95.5059C155.584 95.5668 155.523 95.6158 155.453 95.6493C155.382 95.6828 155.305 95.7 155.227 95.6995Z" fill="#562C13"/>
<path d="M118.459 69L125.776 98.4384L104.97 100.51C104.97 100.51 104.395 101.904 102.441 101.369L100.488 100.835L78.5206 102.428L70.9922 70.075L118.459 69Z" fill="#0A0D14"/>
<path d="M97.4747 72.5306C97.4747 72.5306 100.889 64.3244 117.644 64.1421L122.808 90.1347L122.321 95.1521C122.321 95.1521 115.9 93.0383 104.92 98.2228C104.92 98.2228 102.662 98.8456 101.865 98.7416C101.068 98.6376 99.1234 97.454 97.7598 97.1864C96.3962 96.92 92.0273 95.776 86.2119 99.8762L80.81 97.4329L73.2676 68.8184L77.286 63.9096C77.286 63.9096 86.6722 60.9814 97.4736 72.5306H97.4747Z" fill="#FEF2EB"/>
<path d="M117.653 64.2909L122.774 89.6794C111.125 88.2153 103.025 95.4855 103.025 95.4855C93.8512 91.2907 84.6507 95.1162 84.6507 95.1162L77.252 63.4531" stroke="#562C13" stroke-width="0.497796" stroke-miterlimit="10"/>
<path d="M97.4727 72.51C97.4727 72.51 101.496 64.3203 117.642 64.1216L122.763 89.5101L122.32 95.1316C122.32 95.1316 116.558 92.7549 104.571 98.3624C104.571 98.3624 101.939 98.9174 101.066 98.6159C100.193 98.3145 95.144 94.0227 86.2099 99.8545L80.8081 97.4112L73.2656 68.7967L77.284 63.8879C77.284 63.8879 86.2859 60.684 97.4716 72.5089L97.4727 72.51Z" stroke="#562C13" stroke-width="0.497796" stroke-miterlimit="10"/>
<path d="M97.5273 72.4219L103.027 95.4827" stroke="#562C13" stroke-width="0.497796" stroke-miterlimit="10"/>
<path d="M84.7929 95.0312L80.8633 97.3214" stroke="#562C13" stroke-width="0.497796" stroke-miterlimit="10"/>
<path d="M116.082 80.7717C117.892 76.9875 116.303 72.4582 112.533 70.6551C108.762 68.852 104.239 70.4579 102.429 74.242C100.619 78.0261 102.209 82.5555 105.979 84.3586C109.749 86.1617 114.272 84.5558 116.082 80.7717Z" fill="#FCD7C1"/>
<path d="M106.436 77.7453L105.574 74.6419C105.468 74.2575 105.817 73.9011 106.203 74.0016L109.322 74.8066L112.442 75.6117C112.829 75.711 112.962 76.1925 112.683 76.4764L110.427 78.7748L108.17 81.0731C107.891 81.3582 107.407 81.2332 107.301 80.8488L106.439 77.7453H106.436Z" fill="#562C13" stroke="#20232D" stroke-width="0.497796" stroke-miterlimit="10"/>
</svg>
