<svg width="116" height="120" viewBox="0 0 116 120" fill="none" xmlns="http://www.w3.org/2000/svg">
<path d="M55.5885 17.0246C53.9985 18.0043 52.6196 19.2909 51.5322 20.8092C47.6834 20.3184 45.2354 21.7013 43.9732 23.7577C41.5562 27.694 43.8994 31.709 47.3656 33.7474C47.3213 34.6996 47.3265 35.6533 47.3815 36.6049C47.3846 38.0279 47.8229 39.4159 48.6375 40.5826C49.9349 42.2095 52.0933 43.2767 54.1628 42.7707C54.1781 42.5021 54.2709 42.2438 54.43 42.0269C54.589 41.8099 54.8075 41.6438 55.059 41.5484C54.5413 41.1272 53.7589 39.9022 54.2876 39.5189C54.8164 39.1356 55.6395 39.6388 56.0111 39.9697C56.3434 40.3313 56.5978 40.7575 56.7583 41.2216C58.0743 39.7715 59.1343 38.1083 59.8929 36.3029C61.731 32.524 62.7744 28.4082 62.9586 24.2099C63.0089 20.3743 60.2031 14.2354 55.5885 17.0246Z" fill="white"/>
<path d="M70.3109 5.08594H118.55C118.55 5.08594 123.533 5.08594 123.533 10.0687V115.458C123.533 115.458 123.533 120.44 118.55 120.44H70.3109C70.3109 120.44 65.3281 120.44 65.3281 115.458V10.0687C65.3281 10.0687 65.3281 5.08594 70.3109 5.08594Z" fill="#FCD7C1"/>
<path d="M127.285 8.39941C127.261 6.98953 126.685 5.64531 125.682 4.65495C124.678 3.66459 123.326 3.10694 121.916 3.10156H73.6458C71.5765 3.28649 69.6005 4.04761 67.9419 5.2986C67.0538 5.74008 66.3064 6.42044 65.7836 7.26326C65.2608 8.10608 64.9833 9.07797 64.9824 10.0698V115.459C64.9841 116.872 65.5459 118.226 66.5446 119.225C67.5434 120.223 68.8975 120.785 70.3099 120.787H118.549C123.306 120.787 127.285 116.488 127.285 113.792V8.39941ZM70.3099 120.097C69.0802 120.096 67.9012 119.607 67.0317 118.738C66.1621 117.868 65.6731 116.689 65.6718 115.459V10.0705C65.6696 9.46233 65.7883 8.85983 66.021 8.29799C66.2537 7.73615 66.5958 7.22618 67.0274 6.79774C67.459 6.3693 67.9714 6.03094 68.5349 5.80234C69.0985 5.57373 69.7018 5.45944 70.3099 5.46612H118.566C119.172 5.46312 119.773 5.58006 120.334 5.8102C120.895 6.04035 121.404 6.37916 121.834 6.80712C122.263 7.23508 122.603 7.74374 122.835 8.3038C123.067 8.86387 123.186 9.46428 123.185 10.0705V115.459C123.184 116.689 122.695 117.868 121.825 118.738C120.956 119.607 119.777 120.096 118.547 120.097H70.3099Z" fill="#562C13"/>
<path d="M72.7041 9.59375H116.144C116.144 9.59375 120.633 9.59375 120.633 14.083V103.726C120.633 103.726 120.633 108.215 116.144 108.215H72.7041C72.7041 108.215 68.2148 108.215 68.2148 103.726V14.083C68.2148 14.083 68.2148 9.59375 72.7041 9.59375Z" fill="white"/>
<path d="M120.978 103.727C120.977 105.009 120.467 106.237 119.561 107.143C118.655 108.05 117.426 108.559 116.145 108.561H72.705C71.4235 108.559 70.1948 108.05 69.2886 107.144C68.3823 106.238 67.8726 105.009 67.8711 103.727V14.0839C67.8724 12.8023 68.3821 11.5735 69.2883 10.6672C70.1946 9.76097 71.4234 9.25128 72.705 9.25H116.145C117.426 9.25146 118.655 9.76121 119.561 10.6674C120.467 11.5736 120.977 12.8023 120.978 14.0839V103.727ZM72.705 9.93937C71.6062 9.94065 70.5528 10.3777 69.7758 11.1547C68.9988 11.9317 68.5617 12.9851 68.5605 14.0839V103.727C68.5617 104.826 68.9988 105.88 69.7758 106.656C70.5528 107.433 71.6063 107.87 72.705 107.871H116.145C117.243 107.87 118.297 107.433 119.074 106.656C119.851 105.88 120.288 104.826 120.289 103.727V14.0839C120.288 12.9851 119.851 11.9317 119.074 11.1547C118.297 10.3777 117.243 9.94065 116.145 9.93937H72.705Z" fill="#562C13"/>
<path d="M93.7833 118.231C92.9516 118.231 92.1386 117.984 91.447 117.522C90.7555 117.06 90.2165 116.403 89.8982 115.635C89.5799 114.866 89.4967 114.021 89.6589 113.205C89.8212 112.389 90.2217 111.64 90.8098 111.052C91.3979 110.464 92.1472 110.063 92.9629 109.901C93.7787 109.739 94.6242 109.822 95.3926 110.14C96.161 110.459 96.8177 110.998 97.2798 111.689C97.7419 112.381 97.9885 113.194 97.9885 114.026C97.9872 115.14 97.5438 116.209 96.7554 116.998C95.9671 117.786 94.8982 118.229 93.7833 118.231ZM93.7833 110.51C93.088 110.51 92.4082 110.716 91.83 111.102C91.2519 111.489 90.8012 112.038 90.5351 112.68C90.269 113.322 90.1994 114.029 90.3351 114.711C90.4707 115.393 90.8056 116.02 91.2973 116.512C91.789 117.003 92.4154 117.338 93.0974 117.474C93.7794 117.609 94.4863 117.54 95.1288 117.274C95.7712 117.008 96.3203 116.557 96.7066 115.979C97.0929 115.401 97.2991 114.721 97.2991 114.026C97.2989 113.093 96.9286 112.198 96.2694 111.538C95.6102 110.879 94.716 110.507 93.7833 110.506V110.51Z" fill="white"/>
<path d="M94.7467 8.48953C94.5592 8.48953 94.3759 8.43392 94.22 8.32974C94.0641 8.22555 93.9426 8.07747 93.8709 7.90422C93.7992 7.73098 93.7805 7.54035 93.8171 7.35646C93.8537 7.17257 93.9441 7.00368 94.0767 6.87114C94.2093 6.7386 94.3783 6.64838 94.5622 6.61188C94.7461 6.57538 94.9368 6.59425 95.1099 6.6661C95.2831 6.73795 95.4311 6.85955 95.5352 7.01552C95.6393 7.17149 95.6947 7.35483 95.6946 7.54233C95.6942 7.79355 95.5942 8.03437 95.4165 8.21194C95.2388 8.38952 94.9979 8.48935 94.7467 8.48953Z" fill="#562C13"/>
<path d="M79.2601 45.2519C79.2824 45.2934 79.3169 45.327 79.359 45.3482C79.401 45.3694 79.4486 45.377 79.4952 45.3702C79.5418 45.3633 79.5851 45.3422 79.6193 45.3099C79.6535 45.2775 79.6768 45.2353 79.6862 45.1892C79.8485 44.418 80.1524 43.6836 80.5824 43.0231C81.0084 42.3544 81.8074 41.6575 82.4837 42.058C82.6899 42.1848 82.8555 42.3681 82.9607 42.5861C83.2445 43.074 83.4004 43.6257 83.4141 44.19C83.4278 44.7543 83.2988 45.3129 83.0391 45.8141C82.7793 46.3152 82.3972 46.7427 81.9282 47.0568C81.4593 47.3709 80.9185 47.5615 80.3563 47.6109C80.0212 49.5453 79.4683 51.6975 77.6677 52.895C73.457 56.7183 65.9897 53.6905 66.1269 44.4784C66.0932 42.8692 66.6509 41.3035 67.6945 40.0781C70.0156 41.8705 73.8244 41.188 76.0194 42.3737C77.3612 42.9905 78.4892 43.9923 79.2601 45.2519Z" fill="white"/>
<path d="M67.7728 45.6938C67.5274 46.2819 67.8707 47.1774 68.5566 47.1284C69.2426 47.0795 69.2632 46.1206 69.0743 45.6938C68.8855 45.2671 68.5594 44.959 68.1313 45.0734C67.8717 45.1355 67.6007 45.1308 67.3434 45.0598C67.0862 44.9888 66.8511 44.8538 66.6601 44.6674C66.2121 44.2337 65.9742 44.8356 66.3658 45.1499C66.7662 45.4743 67.2584 45.6646 67.7728 45.6938Z" fill="#562C13"/>
<path d="M74.3132 44.4514C74.0685 45.0394 74.4111 45.9349 75.097 45.8859C75.7829 45.837 75.8036 44.8781 75.6147 44.4514C75.4259 44.0246 75.0998 43.7165 74.6717 43.8309C74.4122 43.8932 74.1412 43.8887 73.8839 43.8178C73.6266 43.7469 73.3915 43.612 73.2006 43.4256C72.7525 42.9913 72.5112 43.5931 72.9069 43.9081C73.307 44.2323 73.799 44.4224 74.3132 44.4514Z" fill="#562C13"/>
<path d="M94.2101 38.6226C93.9664 36.3389 93.2474 34.1316 92.0992 32.1425C91.5142 31.1468 90.7145 30.2941 89.7583 29.6465C88.8021 28.9989 87.7135 28.5728 86.5718 28.3992C87.5958 27.8853 88.7802 27.7922 89.8718 28.14C88.224 27.1563 86.4237 26.4544 84.545 26.0629C82.8864 25.8303 81.1959 26.0699 79.6672 26.7542C78.1386 27.4385 76.8337 28.5397 75.9023 29.9317L80.9858 36.6317C81.5643 37.1372 82.1773 37.6018 82.8202 38.0222C84.0352 38.9695 84.9776 40.2218 85.5513 41.6517C86.125 43.0816 86.3097 44.6379 86.0865 46.1623C87.3143 44.4865 87.8482 42.4016 87.5769 40.3419C89.4367 43.2103 90.318 46.6037 90.089 50.0145C92.0572 47.3598 92.719 43.9343 92.6018 40.5846C92.6327 38.9018 92.1668 37.2473 91.2623 35.8279C91.9454 36.0158 92.5717 36.3691 93.0858 36.8565C93.5999 37.3439 93.9861 37.9505 94.2101 38.6226Z" fill="#FCD7C1"/>
<path d="M94.5571 38.5829C94.3116 36.2499 93.5771 33.9949 92.4014 31.9649C91.3863 30.2288 89.7595 28.9342 87.8398 28.3347C88.4842 28.2204 89.1468 28.2651 89.7701 28.465C89.8507 28.4908 89.9381 28.4861 90.0154 28.4516C90.0928 28.4172 90.1548 28.3555 90.1896 28.2783C90.2243 28.201 90.2295 28.1137 90.204 28.033C90.1785 27.9522 90.1241 27.8837 90.0513 27.8404C88.3643 26.8332 86.5204 26.116 84.5963 25.7185C82.8739 25.4832 81.1201 25.7349 79.5335 26.4452C77.9469 27.1556 76.5909 28.2961 75.6193 29.7376C75.6035 29.7605 75.5909 29.7856 75.582 29.812C75.8196 29.858 76.0556 29.9131 76.29 29.9775C77.1962 28.6883 78.439 27.6726 79.8827 27.0412C81.3265 26.4099 82.916 26.187 84.4777 26.3968C85.7348 26.6588 86.958 27.0629 88.1238 27.6012C87.5304 27.6552 86.9525 27.8205 86.4204 28.0886C86.3553 28.1215 86.3024 28.1743 86.2693 28.2392C86.2361 28.3042 86.2244 28.378 86.2358 28.45C86.2472 28.522 86.2812 28.5885 86.3328 28.64C86.3844 28.6915 86.4511 28.7253 86.5231 28.7366C87.6144 28.9002 88.6552 29.3063 89.569 29.925C90.4828 30.5437 91.2464 31.3592 91.8037 32.3117C92.624 33.7287 93.222 35.2632 93.5768 36.8616C92.982 36.2038 92.2116 35.7297 91.3563 35.4952C91.2892 35.4769 91.2182 35.4793 91.1525 35.5021C91.0868 35.5249 91.0296 35.567 90.9883 35.6229C90.947 35.6789 90.9236 35.746 90.9211 35.8154C90.9186 35.8849 90.9372 35.9535 90.9744 36.0122C91.8462 37.3799 92.2936 38.9751 92.2601 40.5966C92.4335 43.4455 91.8148 46.2868 90.4725 48.8057C90.4392 45.7317 89.5372 42.7298 87.8708 40.1464C87.8284 40.0805 87.7648 40.031 87.6905 40.0062C87.6161 39.9813 87.5355 39.9824 87.462 40.0095C87.3884 40.0366 87.3263 40.0879 87.2858 40.155C87.2453 40.2221 87.229 40.3011 87.2394 40.3788C87.4404 41.881 87.1924 43.4092 86.5265 44.7708C86.4909 42.4234 85.549 40.1808 83.898 38.5119C83.9324 38.8691 83.9476 39.2279 83.9435 39.5867C84.6801 40.4883 85.2211 41.5333 85.5321 42.6553C85.843 43.7774 85.9171 44.9518 85.7496 46.104C85.7379 46.1805 85.7522 46.2588 85.7904 46.3261C85.8285 46.3935 85.8882 46.4461 85.9599 46.4754C86.0315 46.5047 86.1109 46.509 86.1854 46.4876C86.2598 46.4663 86.3248 46.4205 86.3701 46.3577C87.3638 45.0071 87.9288 43.389 87.9915 41.7134C89.3284 44.2563 89.9375 47.1189 89.7514 49.9859C89.7466 50.0601 89.7659 50.1339 89.8065 50.1962C89.847 50.2585 89.9066 50.3061 89.9764 50.3317C90.0462 50.3574 90.1224 50.3598 90.1937 50.3386C90.265 50.3174 90.3275 50.2737 90.3719 50.2141C92.6751 47.1077 93.046 43.2514 92.9522 40.5849C92.9793 39.174 92.6695 37.7771 92.0484 36.51C92.9186 36.9918 93.5754 37.7836 93.8884 38.7277C93.9161 38.8071 93.9719 38.8736 94.0453 38.9147C94.1187 38.9559 94.2045 38.9687 94.2867 38.9509C94.3689 38.9331 94.4418 38.8859 94.4916 38.8181C94.5414 38.7503 94.5647 38.6667 94.5571 38.5829Z" fill="#562C13"/>
<path d="M69.2701 49.1775C69.2117 49.1775 69.1543 49.1626 69.1032 49.1342C69.0521 49.1058 69.0091 49.065 68.9781 49.0154C68.9472 48.9658 68.9293 48.9092 68.9263 48.8509C68.9232 48.7925 68.935 48.7344 68.9606 48.6819C69.4828 47.61 69.933 46.5045 70.3083 45.3729C70.3413 45.3011 70.3583 45.223 70.358 45.144C70.1519 44.7604 69.9026 44.4016 69.6148 44.0748C69.5827 44.0411 69.5578 44.0014 69.5415 43.9579C69.5252 43.9143 69.5178 43.868 69.5199 43.8216C69.522 43.7751 69.5334 43.7296 69.5535 43.6877C69.5736 43.6458 69.602 43.6084 69.6369 43.5778C69.6718 43.5471 69.7126 43.5239 69.7568 43.5094C69.8009 43.4949 69.8475 43.4895 69.8938 43.4935C69.9401 43.4974 69.9851 43.5107 70.0262 43.5326C70.0672 43.5544 70.1034 43.5843 70.1325 43.6205C70.4044 43.9301 70.6469 44.2643 70.8571 44.6187C70.9593 44.7619 71.022 44.9295 71.0388 45.1046C71.0556 45.2797 71.026 45.4562 70.9529 45.6162C70.5704 46.7674 70.1118 47.892 69.5803 48.9824C69.5522 49.0408 69.5082 49.0901 69.4533 49.1246C69.3984 49.1591 69.335 49.1775 69.2701 49.1775Z" fill="#562C13"/>
<path d="M79.6811 46.0274C79.2503 45.049 78.6089 44.1777 77.8026 43.4756C76.9964 42.7735 76.0452 42.2579 75.0168 41.9656C73.7404 41.7088 72.4473 41.5436 71.1473 41.4714C69.8334 41.3965 68.584 40.8767 67.6047 39.9975C66.4722 41.6924 65.9767 43.7337 66.2059 45.7593C66.3583 47.299 66.7599 48.8038 67.3951 50.2147C67.8866 51.2708 68.4926 53.2797 69.7989 53.6312C68.1827 53.1692 66.7194 52.2835 65.5606 51.0658C64.4017 49.8482 63.5894 48.3429 63.2078 46.7058C63.0949 48.253 63.414 49.8013 64.1295 51.1778C62.5549 50.2189 61.3893 48.7128 60.8561 46.948C60.3229 45.1832 60.4594 43.2837 61.2397 41.6134C60.4211 42.6447 59.8681 43.8612 59.6293 45.1561C58.9399 43.121 59.61 40.8875 60.542 38.9586C62.1072 35.6479 64.7175 32.9437 67.9707 31.2624C69.6411 30.4165 71.0529 29.6162 72.9956 29.5872C77.2766 29.5245 81.5783 31.767 83.2293 35.8102C84.1804 38.1515 84.1804 40.7715 83.2293 43.1128C83.6368 42.127 81.3866 41.3293 80.4491 43.2382C80.1782 43.7952 79.515 45.4325 79.6811 46.0274Z" fill="#FCD7C1"/>
<path d="M75.831 43.0594C75.7239 42.8758 75.5744 42.7205 75.3951 42.6066C75.2157 42.4926 75.0116 42.4233 74.7999 42.4044C74.5882 42.3855 74.3751 42.4175 74.1783 42.4979C73.9816 42.5783 73.807 42.7047 73.6691 42.8664C73.6403 42.9026 73.6045 42.9326 73.5638 42.9547C73.5231 42.9768 73.4785 42.9904 73.4324 42.9949C73.3863 42.9993 73.3399 42.9944 73.2957 42.9805C73.2516 42.9666 73.2107 42.9439 73.1755 42.9139C73.1404 42.8838 73.1116 42.847 73.0909 42.8056C73.0703 42.7642 73.0582 42.7191 73.0553 42.6729C73.0525 42.6267 73.059 42.5804 73.0744 42.5368C73.0899 42.4932 73.1139 42.4531 73.1452 42.419C73.3547 42.1739 73.6198 41.9824 73.9183 41.8606C74.2169 41.7389 74.5403 41.6903 74.8615 41.7189C75.1826 41.7476 75.4923 41.8527 75.7646 42.0255C76.0368 42.1982 76.2638 42.4336 76.4266 42.712C76.4727 42.791 76.4855 42.885 76.4622 42.9734C76.4389 43.0619 76.3815 43.1374 76.3025 43.1835C76.2235 43.2296 76.1295 43.2424 76.041 43.2191C75.9526 43.1959 75.877 43.1384 75.831 43.0594Z" fill="#562C13"/>
<path d="M66.5534 44.2157C66.7368 42.9789 67.8391 42.3034 68.9069 43.083C68.9808 43.1371 69.0301 43.2182 69.0442 43.3087C69.0582 43.3991 69.0357 43.4914 68.9817 43.5653C68.9277 43.6391 68.8465 43.6885 68.7561 43.7025C68.6657 43.7166 68.5733 43.6941 68.4995 43.6401C68.4031 43.5505 68.2845 43.4884 68.1559 43.4604C68.0274 43.4324 67.8936 43.4394 67.7687 43.4808C67.6181 43.5656 67.4906 43.6862 67.3975 43.8319C67.3045 43.9776 67.2487 44.144 67.2352 44.3163C67.2199 44.405 67.1706 44.4842 67.0977 44.5371C67.0248 44.5899 66.9342 44.6121 66.8451 44.5989C66.7561 44.5858 66.6757 44.5383 66.6212 44.4667C66.5667 44.3951 66.5424 44.305 66.5534 44.2157Z" fill="#562C13"/>
<path d="M81.1203 44.9369C81.0671 44.9369 81.0147 44.9246 80.967 44.901C80.9194 44.8774 80.8779 44.8431 80.8457 44.8008C80.8135 44.7585 80.7916 44.7093 80.7816 44.6571C80.7715 44.6049 80.7738 44.551 80.788 44.4998C80.8942 44.1153 81.0784 43.7567 81.3292 43.4464C81.4868 43.2573 81.6972 43.1193 81.9335 43.0501C82.1698 42.9808 82.4214 42.9835 82.6562 43.0576C82.7011 43.0697 82.7431 43.0907 82.7797 43.1195C82.8162 43.1482 82.8466 43.184 82.8689 43.2248C82.8913 43.2655 82.9052 43.3104 82.9097 43.3567C82.9143 43.4029 82.9095 43.4497 82.8955 43.494C82.8815 43.5384 82.8587 43.5794 82.8285 43.6147C82.7983 43.65 82.7612 43.6789 82.7195 43.6995C82.6778 43.7201 82.6324 43.7321 82.586 43.7347C82.5396 43.7373 82.4931 43.7304 82.4494 43.7146C82.3456 43.6819 82.2345 43.6806 82.13 43.7109C82.0254 43.7412 81.9322 43.8017 81.862 43.8849C81.6726 44.1207 81.5337 44.3929 81.4539 44.6846C81.4337 44.7574 81.39 44.8215 81.3298 44.8671C81.2695 44.9127 81.1959 44.9372 81.1203 44.9369Z" fill="#562C13"/>
<path d="M74.1631 47.8695H74.3244C74.4158 47.8669 74.5024 47.828 74.5652 47.7615C74.628 47.695 74.6617 47.6063 74.6591 47.5149C74.6564 47.4235 74.6176 47.3368 74.5511 47.2741C74.4846 47.2113 74.3958 47.1775 74.3044 47.1802C74.0362 47.1901 73.7684 47.153 73.513 47.0706C73.4698 47.057 73.4244 47.052 73.3793 47.056C73.3342 47.06 73.2903 47.0728 73.2502 47.0938C73.2101 47.1147 73.1744 47.1433 73.1454 47.178C73.1163 47.2127 73.0944 47.2528 73.0808 47.296C73.0672 47.3392 73.0623 47.3846 73.0662 47.4297C73.0702 47.4748 73.083 47.5187 73.104 47.5588C73.1249 47.5989 73.1535 47.6346 73.1882 47.6636C73.2229 47.6927 73.263 47.7147 73.3062 47.7282L73.3965 47.7544C73.2239 48.3866 72.857 48.9487 72.3478 49.3612C71.8386 49.7737 71.2126 50.0158 70.5584 50.0535C70.4669 50.0592 70.3815 50.1009 70.3209 50.1696C70.2602 50.2382 70.2294 50.3281 70.235 50.4195C70.2407 50.511 70.2825 50.5964 70.3511 50.657C70.4198 50.7177 70.5097 50.7485 70.6011 50.7429C71.2515 50.7055 71.8814 50.5021 72.4309 50.1521C72.9803 49.8021 73.431 49.3172 73.7398 48.7437C74.0893 49.4446 74.2659 50.219 74.2548 51.0021C74.2518 51.1092 74.2199 51.2136 74.1625 51.3041C74.1051 51.3946 74.0243 51.4679 73.9287 51.5163C73.2921 51.4867 72.6702 51.3154 72.1081 51.0152C72.068 50.9941 72.0242 50.9811 71.9791 50.9769C71.934 50.9728 71.8886 50.9775 71.8453 50.9909C71.8021 51.0043 71.7619 51.0261 71.7271 51.0551C71.6923 51.084 71.6635 51.1195 71.6424 51.1596C71.6213 51.1997 71.6083 51.2435 71.6041 51.2886C71.6 51.3336 71.6048 51.3791 71.6182 51.4223C71.6316 51.4656 71.6534 51.5058 71.6823 51.5406C71.7112 51.5754 71.7468 51.6042 71.7868 51.6253C72.4194 51.9591 73.1141 52.1586 73.8274 52.2112C73.9426 52.2135 74.0575 52.1977 74.1679 52.1644C74.3894 52.0712 74.5799 51.9172 74.7173 51.7201C74.8547 51.523 74.9333 51.291 74.9442 51.051C75.0765 49.9122 74.4761 48.8816 74.1631 47.8695Z" fill="#562C13"/>
<path d="M83.2587 59.9221C88.0423 57.7505 89.1184 52.4768 87.7307 47.7891C85.7475 48.6058 83.8916 49.7028 82.2198 51.0464C81.5786 50.2018 80.958 49.3419 80.3585 48.4674C80.0288 49.8261 79.3605 51.0793 78.4158 52.1101L79.3623 53.1903L76.4511 55.0075C75.781 55.4342 74.565 55.8451 74.6422 56.7309C74.7801 58.3227 76.6041 59.7801 77.9919 60.2468C79.7252 60.8096 81.6076 60.6935 83.2587 59.9221Z" fill="white"/>
<path d="M52.0153 42.8044C52.7183 43.0524 53.4903 43.0176 54.1682 42.7072C54.1948 42.4517 54.2922 42.2088 54.4494 42.0058C54.6067 41.8027 54.8175 41.6476 55.0582 41.558C54.5404 41.1368 53.758 39.9118 54.2867 39.5285C54.8155 39.1452 55.6393 39.6484 56.0102 39.9793C56.7633 40.8962 57.1657 42.051 57.1456 43.2373C57.1812 43.9538 57.1256 44.6719 56.9801 45.3744C56.3786 45.7121 55.7081 45.9088 55.0194 45.9495C54.3307 45.9903 53.6417 45.874 53.0045 45.6094C52.1056 44.4796 51.8002 43.6406 52.0153 42.8044Z" fill="white"/>
<path d="M51.6413 31.9248C51.625 32.9901 51.8878 34.0411 52.4038 34.9732C52.65 35.4399 53.0326 35.8206 53.5006 36.0644C53.9686 36.3083 54.4998 36.4037 55.0234 36.3382C56.0706 36.112 56.7469 35.0973 57.2432 34.1356C58.1772 32.3186 58.8945 30.3982 59.3803 28.4138C59.9097 26.2457 59.3437 21.0954 55.9472 22.6692C55.1716 23.0485 54.5228 23.6448 54.0797 24.3858C52.611 26.6373 51.7693 29.2397 51.6413 31.9248Z" fill="white"/>
<path d="M54.7049 36.696C54.1686 36.6977 53.642 36.5523 53.1824 36.2757C52.7229 35.9991 52.3479 35.6017 52.0984 35.1269C51.5596 34.1435 51.2837 33.0378 51.2974 31.9165V31.9048C51.4272 29.1588 52.288 26.4974 53.7908 24.1955C54.8249 22.4776 57.0633 21.3463 58.5103 22.5651C59.9249 23.7571 60.1214 26.8269 59.7153 28.4938C59.2234 30.5039 58.4971 32.4493 57.5514 34.29C56.9406 35.4806 56.0499 36.696 54.7049 36.696ZM51.9867 31.9296C51.9671 32.9341 52.2155 33.9257 52.7064 34.8022C52.9185 35.2093 53.2503 35.5416 53.6571 35.7543C54.0639 35.9669 54.5261 36.0497 54.9814 35.9914C55.9086 35.7901 56.5435 34.743 56.9385 33.9729C57.8586 32.1812 58.5658 30.2879 59.0459 28.3318C59.4092 26.8386 59.2079 24.0576 58.0663 23.0925C56.9371 22.1419 55.1613 23.2559 54.3747 24.5623C52.9167 26.7519 52.0904 29.301 51.9867 31.9296Z" fill="#562C13"/>
<path d="M94.0407 91.6464C90.3871 92.162 86.6562 90.5344 83.9862 87.9161C81.478 85.2388 79.6417 82.0039 78.6284 78.4779C78.615 78.4341 78.6104 78.3882 78.615 78.3426C78.6196 78.2971 78.6332 78.2529 78.655 78.2127C78.6768 78.1724 78.7064 78.1369 78.7421 78.1083C78.7778 78.0796 78.8188 78.0583 78.8628 78.0457C78.9068 78.0331 78.9529 78.0293 78.9983 78.0347C79.0438 78.0401 79.0877 78.0544 79.1276 78.0769C79.1674 78.0995 79.2024 78.1297 79.2304 78.1659C79.2585 78.202 79.279 78.2434 79.2909 78.2876C80.2721 81.7043 82.0502 84.8394 84.4791 87.435C87.1904 90.0925 90.7324 91.4175 93.9442 90.9639C97.156 90.5103 100.32 88.2064 102.424 84.8009C104.369 81.6525 105.344 78.016 106.284 74.4995C106.311 74.4146 106.369 74.3433 106.447 74.3004C106.525 74.2576 106.616 74.2465 106.702 74.2696C106.788 74.2927 106.862 74.348 106.908 74.4242C106.954 74.5003 106.969 74.5913 106.949 74.6781C105.995 78.2428 105.006 81.9282 103.007 85.1628C100.799 88.7434 97.4456 91.1665 94.0407 91.6464Z" fill="#562C13"/>
<path d="M105.727 57.9718C105.636 57.9718 105.548 57.9355 105.484 57.8709C105.419 57.8062 105.383 57.7185 105.383 57.6271C105.361 54.8369 105.083 52.0545 104.551 49.3153C104.01 46.6211 102.494 44.221 100.294 42.5739C97.9883 40.9884 94.8013 41.0132 92.8938 42.636C92.8239 42.6919 92.7349 42.7184 92.6458 42.7098C92.5566 42.7013 92.4743 42.6583 92.4162 42.5902C92.3582 42.522 92.3289 42.4339 92.3347 42.3445C92.3405 42.2551 92.3808 42.1715 92.4471 42.1114C94.5842 40.2928 98.1303 40.2501 100.696 42.0142C103.038 43.7644 104.652 46.3173 105.227 49.1837C105.767 51.9652 106.05 54.7904 106.072 57.6237C106.072 57.6692 106.064 57.7144 106.047 57.7567C106.03 57.7989 106.004 57.8373 105.972 57.8696C105.94 57.902 105.902 57.9277 105.86 57.9453C105.818 57.9628 105.773 57.9718 105.727 57.9718Z" fill="#562C13"/>
<path d="M106.114 90.824C106.055 90.8239 105.997 90.8086 105.946 90.7795C105.894 90.7505 105.851 90.7087 105.82 90.6581C105.79 90.6076 105.772 90.55 105.77 90.4909C105.768 90.4319 105.782 90.3733 105.809 90.3208C110.093 82.0558 112.108 72.0523 111.8 60.5908C111.588 52.8243 110.338 46.9019 107.867 41.9508C107.515 41.0118 106.832 40.2341 105.945 39.7648C105.904 39.7447 105.866 39.7164 105.836 39.6816C105.805 39.6468 105.782 39.6061 105.767 39.5621C105.753 39.5181 105.747 39.4716 105.751 39.4254C105.755 39.3793 105.768 39.3343 105.79 39.2933C105.811 39.2523 105.841 39.2161 105.877 39.1868C105.913 39.1576 105.954 39.1358 105.999 39.123C106.043 39.1101 106.09 39.1063 106.136 39.1119C106.182 39.1174 106.226 39.1322 106.267 39.1553C107.292 39.6948 108.086 40.5907 108.497 41.6743C111.001 46.6868 112.275 52.7043 112.489 60.5722C112.801 72.1537 110.759 82.2682 106.422 90.6379C106.393 90.6943 106.349 90.7415 106.295 90.7744C106.24 90.8072 106.178 90.8244 106.114 90.824Z" fill="#562C13"/>
<path d="M74.5575 86.7831C72.5845 81.324 72.0461 75.03 72.8637 66.976C72.8728 66.8846 72.9179 66.8005 72.989 66.7424C73.0601 66.6842 73.1514 66.6566 73.2429 66.6658C73.3343 66.6749 73.4183 66.72 73.4765 66.7911C73.5347 66.8622 73.5622 66.9535 73.5531 67.0449C72.7458 74.9921 73.2725 81.1902 75.2076 86.5487C78.4862 95.6188 86.6381 102.588 95.6627 101.066C104.343 99.458 108.528 89.7902 109.924 85.7084C109.938 85.6644 109.961 85.6236 109.99 85.5884C110.02 85.5532 110.056 85.5243 110.097 85.5035C110.139 85.4826 110.183 85.4702 110.229 85.4669C110.275 85.4637 110.321 85.4697 110.365 85.4846C110.409 85.4994 110.449 85.5229 110.483 85.5536C110.517 85.5843 110.545 85.6215 110.565 85.6631C110.585 85.7047 110.596 85.7499 110.598 85.7959C110.6 85.8419 110.593 85.8879 110.577 85.9311C109.141 90.128 104.827 100.069 95.7827 101.745C86.2472 103.352 77.8968 96.0221 74.5575 86.7831Z" fill="#562C13"/>
<path d="M114.781 67.3575C114.733 67.3577 114.686 67.3479 114.642 67.3288C114.598 67.3097 114.559 67.2817 114.526 67.2465C114.494 67.2114 114.469 67.1699 114.453 67.1247C114.438 67.0795 114.432 67.0315 114.436 66.9839C114.903 61.4689 115.311 55.0701 114.222 48.9753C113.403 44.3868 111.337 37.9536 106.151 33.3617C101.402 29.1565 94.9143 27.7088 89.6323 29.6666C89.5466 29.6983 89.4517 29.6947 89.3686 29.6565C89.2856 29.6183 89.2211 29.5487 89.1894 29.4629C89.1577 29.3772 89.1613 29.2823 89.1995 29.1993C89.2377 29.1162 89.3073 29.0517 89.3931 29.02C94.9136 26.9725 101.672 28.4747 106.608 32.8453C111.943 37.5682 114.062 44.1587 114.901 48.8547C116.004 55.0308 115.594 61.4813 115.123 67.0418C115.115 67.1276 115.076 67.2076 115.013 67.2661C114.95 67.3245 114.867 67.3571 114.781 67.3575Z" fill="#562C13"/>
<path d="M114.674 25.4481C114.619 25.4482 114.565 25.4352 114.516 25.4102C114.467 25.3851 114.425 25.3487 114.393 25.304C112.362 22.4714 109.709 20.1426 106.637 18.4967C103.565 16.8509 100.157 15.932 96.674 15.8108C93.1911 15.6896 89.7269 16.3693 86.548 17.7976C83.3691 19.2259 80.5605 21.3647 78.3383 24.0493C78.3101 24.0859 78.2748 24.1165 78.2345 24.1391C78.1942 24.1618 78.1498 24.1762 78.1039 24.1813C78.058 24.1865 78.0115 24.1824 77.9672 24.1692C77.9229 24.156 77.8817 24.1341 77.8461 24.1047C77.8104 24.0753 77.781 24.039 77.7597 23.998C77.7383 23.957 77.7255 23.9122 77.7218 23.8661C77.7181 23.82 77.7238 23.7737 77.7384 23.7299C77.753 23.686 77.7762 23.6456 77.8068 23.6109C80.0962 20.8453 82.9898 18.6419 86.2647 17.1705C89.5396 15.699 93.1084 14.9988 96.6966 15.1236C100.285 15.2484 103.796 16.1949 106.961 17.8903C110.126 19.5857 112.859 21.9848 114.951 24.9028C114.988 24.9541 115.01 25.0145 115.014 25.0774C115.019 25.1403 115.007 25.2033 114.978 25.2596C114.949 25.3158 114.906 25.3631 114.852 25.3964C114.799 25.4296 114.737 25.4475 114.674 25.4481Z" fill="#562C13"/>
<path d="M79.8559 107.29C75.9998 105.141 72.8346 101.939 70.7297 98.0589C68.6248 94.1785 67.6671 89.7793 67.9683 85.375C67.971 85.3297 67.9827 85.2854 68.0028 85.2447C68.0229 85.204 68.0509 85.1677 68.0852 85.1379C68.1195 85.1082 68.1594 85.0856 68.2025 85.0715C68.2457 85.0574 68.2912 85.0521 68.3364 85.0559C68.3816 85.059 68.4257 85.071 68.4663 85.0912C68.5068 85.1114 68.543 85.1394 68.5727 85.1736C68.6024 85.2078 68.6251 85.2475 68.6394 85.2905C68.6538 85.3334 68.6595 85.3788 68.6563 85.424C68.3644 89.7001 69.2951 93.971 71.3399 97.7379C73.3847 101.505 76.4591 104.612 80.204 106.697C81.3959 107.451 82.7947 107.811 84.2024 107.726C84.2938 107.72 84.3837 107.752 84.4522 107.812C84.5207 107.873 84.5623 107.959 84.5678 108.05C84.5733 108.141 84.5422 108.231 84.4814 108.3C84.4207 108.368 84.3352 108.41 84.2438 108.415C82.6994 108.51 81.1643 108.116 79.8559 107.29Z" fill="#562C13"/>
<path d="M108.903 108.456C108.812 108.452 108.726 108.412 108.664 108.345C108.602 108.278 108.569 108.189 108.573 108.098C108.573 108.052 108.583 108.008 108.602 107.966C108.62 107.924 108.647 107.887 108.681 107.856C108.714 107.825 108.754 107.801 108.796 107.786C108.839 107.771 108.885 107.764 108.93 107.767C110.195 107.819 111.442 107.147 112.854 105.647C116.973 101.295 119.461 94.984 120.248 86.8901C120.257 86.7986 120.302 86.7146 120.373 86.6564C120.444 86.5983 120.536 86.5707 120.627 86.5798C120.718 86.589 120.802 86.6341 120.861 86.7052C120.919 86.7763 120.946 86.8676 120.937 86.959C120.135 95.2101 117.585 101.658 113.354 106.124C112.132 107.417 110.677 108.524 108.903 108.456Z" fill="#562C13"/>
<path d="M34.3478 88.4697C32.2438 89.257 28.8852 89.6113 27.1625 87.8831C26.6396 87.3452 26.2168 86.7184 25.914 86.0321C24.646 83.7901 23.7576 81.3539 23.2847 78.8219C22.7861 76.2611 23.293 73.6067 24.7 71.4098C25.8988 69.5822 28.9541 67.4652 31.2911 68.4282C33.6281 69.3913 35.9527 72.4838 37.2453 74.4334C40.6418 79.5554 39.778 86.4368 34.3478 88.4697Z" fill="white"/>
<path d="M35.0961 71.2191C34.8557 71.8658 34.4226 72.4231 33.8552 72.8157C33.3299 73.1804 33.8986 75.1375 35.165 75.203C35.7627 75.2333 35.8158 74.3068 35.6524 73.8118C35.5854 73.6102 35.4787 73.4241 35.3387 73.2644C35.1986 73.1047 35.028 72.9746 34.8369 72.8819C35.2327 72.4759 35.5393 71.9917 35.7372 71.4604C35.7579 71.3782 35.7477 71.2913 35.7085 71.2162C35.6692 71.1412 35.6037 71.0832 35.5244 71.0533C35.4451 71.0235 35.3576 71.0239 35.2786 71.0545C35.1996 71.085 35.1346 71.1436 35.0961 71.2191Z" fill="#562C13"/>
<path d="M37.0916 82.0178C35.708 82.0178 34.7574 79.2734 34.5506 77.9029C34.5415 77.8417 34.5491 77.7792 34.5726 77.722C34.596 77.6647 34.6344 77.6148 34.6837 77.5775C34.7331 77.5402 34.7916 77.5169 34.8531 77.51C34.9145 77.5031 34.9767 77.5128 35.0331 77.5382C35.9765 77.9705 37.01 78.1696 38.0464 78.1187C38.1378 78.1141 38.2273 78.1461 38.2952 78.2075C38.3631 78.2689 38.4038 78.3547 38.4083 78.4461C38.4129 78.5376 38.381 78.627 38.3196 78.6949C38.2581 78.7628 38.1723 78.8035 38.0809 78.8081C37.1525 78.8531 36.2242 78.7175 35.3475 78.4089C35.5397 79.2269 35.8683 80.0067 36.3195 80.7156C36.5036 81.0051 36.9572 81.4739 37.2343 81.2843C37.3283 81.2045 37.3997 81.1013 37.4411 80.9851C37.6227 80.5594 37.7322 80.1065 37.7651 79.645C37.7715 79.5535 37.814 79.4684 37.8832 79.4083C37.9523 79.3482 38.0425 79.318 38.134 79.3244C38.2254 79.3308 38.3105 79.3733 38.3706 79.4424C38.4307 79.5116 38.4609 79.6018 38.4545 79.6932C38.4176 80.2244 38.2928 80.7458 38.085 81.236C38.0206 81.4531 37.8905 81.6448 37.7125 81.7848C37.5346 81.9248 37.3177 82.0062 37.0916 82.0178Z" fill="#562C13"/>
<path d="M34.3545 84.7388C35.1983 86.2637 35.9608 87.8313 36.6577 89.4265C37.3547 91.0217 34.145 92.1482 32.7214 92.4832C32.3436 92.597 31.9427 92.6113 31.5577 92.5246C30.9382 92.248 30.445 91.7492 30.1756 91.1265L29.229 89.5099C28.741 88.8433 28.4906 88.0324 28.5176 87.2067C28.7557 86.3386 29.2775 85.5752 29.9998 85.038C31.06 84.2155 33.6376 83.4434 34.3545 84.7388Z" fill="white"/>
<path d="M67.8476 91.9544C68.1233 89.685 69.2725 88.8612 69.8737 87.8181C69.9601 87.6986 70.0153 87.5594 70.0344 87.4132C70.0534 87.2669 70.0356 87.1182 69.9826 86.9805C69.9138 86.8766 69.8161 86.7951 69.7016 86.7461C69.587 86.6971 69.4606 86.6828 69.338 86.7048C69.0918 86.7524 68.8598 86.8557 68.6597 87.0067C68.1997 87.3549 67.7831 87.7569 67.4188 88.2042C67.6787 87.7216 67.9462 87.0564 68.164 86.529C68.357 86.1519 68.6466 85.5908 68.357 85.2061C68.2619 85.1008 68.1338 85.031 67.9938 85.0081C67.8537 84.9852 67.7101 85.0105 67.5863 85.0799C67.2009 85.3655 66.8787 85.7277 66.6398 86.1436C66.3037 86.5734 66.0224 87.0432 65.8022 87.5424C65.8836 86.9249 66.0124 86.3146 66.1876 85.7169C66.5054 84.6139 65.7243 84.3954 65.1576 85.0386C64.2153 86.1064 64.0602 87.6265 63.943 89.0418C63.7946 88.8461 63.607 88.6837 63.3921 88.565C63.1772 88.4463 62.9398 88.3738 62.6952 88.3524C61.3516 88.2304 61.2751 89.0073 61.808 89.232C62.5395 89.6581 63.0724 90.3566 63.2901 91.1747C64.8537 90.8881 66.4682 91.1643 67.8476 91.9544Z" fill="white"/>
<path d="M56.1739 90.6988C56.1089 90.6988 56.0452 90.6804 55.9902 90.6458C55.9352 90.6111 55.8911 90.5616 55.863 90.503C55.4508 89.646 55.2789 88.6932 55.3657 87.7462C55.4525 86.7993 55.7947 85.8936 56.3559 85.1259C56.4098 85.052 56.4909 85.0026 56.5813 84.9885C56.6717 84.9744 56.7639 84.9968 56.8378 85.0507C56.9116 85.1047 56.9611 85.1857 56.9752 85.2761C56.9893 85.3665 56.9669 85.4587 56.9129 85.5326C56.4252 86.1996 56.1277 86.9864 56.0522 87.8092C55.9767 88.632 56.126 89.4599 56.4841 90.2045C56.5094 90.257 56.521 90.3151 56.5178 90.3733C56.5145 90.4315 56.4965 90.4879 56.4656 90.5373C56.4346 90.5867 56.3916 90.6274 56.3406 90.6556C56.2895 90.6839 56.2322 90.6987 56.1739 90.6988Z" fill="#562C13"/>
<path d="M58.2018 89.6543C58.1358 89.6544 58.0711 89.6356 58.0155 89.6C57.9599 89.5645 57.9157 89.5137 57.8881 89.4537C57.4857 88.575 57.3806 87.589 57.5887 86.6451C57.7968 85.7012 58.3068 84.8508 59.0414 84.2228C59.1111 84.1635 59.2014 84.1344 59.2926 84.1417C59.3837 84.1491 59.4682 84.1924 59.5274 84.2621C59.5867 84.3317 59.6158 84.4221 59.6084 84.5132C59.6011 84.6043 59.5578 84.6888 59.4881 84.7481C58.8678 85.2784 58.4371 85.9963 58.2613 86.7933C58.0856 87.5903 58.1743 88.4228 58.5141 89.1649C58.5383 89.2174 58.549 89.2751 58.5451 89.3328C58.5413 89.3905 58.5229 89.4463 58.4918 89.4951C58.4607 89.5438 58.4178 89.5839 58.3672 89.6118C58.3165 89.6396 58.2596 89.6543 58.2018 89.6543Z" fill="#562C13"/>
<path d="M73.3681 93.5525C73.3041 93.5525 73.2414 93.5347 73.1869 93.5011C73.1325 93.4674 73.0885 93.4193 73.0598 93.362C73.0312 93.3048 73.0191 93.2407 73.0248 93.1769C73.0306 93.1131 73.054 93.0523 73.0924 93.001C73.406 92.5905 73.6224 92.1141 73.7253 91.6078C73.8281 91.1015 73.8146 90.5785 73.6859 90.0781C73.6658 89.9903 73.6808 89.8982 73.7277 89.8213C73.7746 89.7444 73.8498 89.689 73.9371 89.6668C74.0243 89.6447 74.1168 89.6576 74.1947 89.7027C74.2726 89.7479 74.3298 89.8217 74.3539 89.9085C74.5084 90.5093 74.5246 91.1373 74.4011 91.7453C74.2776 92.3532 74.0178 92.9252 73.6411 93.4181C73.6089 93.4599 73.5676 93.4938 73.5203 93.5171C73.4729 93.5404 73.4209 93.5525 73.3681 93.5525Z" fill="#562C13"/>
<path d="M73.5419 96.0085C73.4734 96.0085 73.4065 95.9881 73.3497 95.9499C73.2929 95.9117 73.2487 95.8575 73.2229 95.7941C73.197 95.7308 73.1905 95.6611 73.2044 95.5941C73.2182 95.527 73.2517 95.4656 73.3006 95.4177C73.8341 94.8928 74.2557 94.2653 74.5401 93.573C74.8244 92.8807 74.9656 92.138 74.9551 91.3897C74.9544 91.3444 74.9626 91.2994 74.9792 91.2573C74.9959 91.2152 75.0207 91.1768 75.0522 91.1443C75.0837 91.1118 75.1213 91.0858 75.1628 91.0678C75.2043 91.0498 75.249 91.0402 75.2943 91.0395C75.3399 91.0372 75.3855 91.0443 75.4283 91.0604C75.471 91.0765 75.51 91.1013 75.5428 91.1331C75.5756 91.1649 75.6015 91.2031 75.6188 91.2454C75.6362 91.2876 75.6447 91.333 75.6438 91.3787C75.6559 92.2205 75.4971 93.0561 75.1772 93.8349C74.8573 94.6137 74.3828 95.3196 73.7825 95.9099C73.7185 95.9733 73.632 96.0088 73.5419 96.0085Z" fill="#562C13"/>
<path d="M29.6263 81.0327C28.9942 79.9414 29.2561 78.2945 30.5225 77.9877C30.0491 77.5023 29.6973 76.9117 29.496 76.2643C29.8559 76.3601 30.2354 76.3537 30.5918 76.2458C30.9482 76.1379 31.2675 75.9328 31.5138 75.6535C31.6325 75.5086 31.7204 75.3411 31.7722 75.1612C31.8241 74.9812 31.8387 74.7926 31.8152 74.6068C31.7917 74.4211 31.7306 74.242 31.6357 74.0806C31.5407 73.9192 31.4139 73.7788 31.2629 73.6681C31.4518 73.7569 31.6682 73.767 31.8646 73.6963C32.0609 73.6256 32.2212 73.4798 32.3101 73.291C32.3725 73.093 32.3591 72.8788 32.2725 72.6902C32.1858 72.5015 32.0322 72.3517 31.8413 72.27C32.6617 71.6834 33.4992 71.5496 33.7667 70.3935C33.8252 70.1476 33.8336 69.8924 33.7913 69.6432C33.7491 69.3939 33.6571 69.1558 33.5208 68.9428C33.3846 68.7299 33.2068 68.5466 32.9982 68.4038C32.7896 68.261 32.5544 68.1617 32.3066 68.1117C32.4985 68.0415 32.6728 67.9306 32.8178 67.7866C32.9627 67.6427 33.0747 67.469 33.1462 67.2777C33.2176 67.0863 33.2468 66.8817 33.2317 66.678C33.2166 66.4743 33.1576 66.2762 33.0587 66.0975C32.9598 65.9187 32.8234 65.7635 32.6588 65.6425C32.4942 65.5215 32.3054 65.4375 32.1053 65.3963C31.9053 65.3552 31.6986 65.3578 31.4997 65.4041C31.3007 65.4504 31.1141 65.5392 30.9527 65.6644C31.1166 65.5008 31.2447 65.305 31.3291 65.0893C31.4134 64.8737 31.452 64.6428 31.4426 64.4115C31.4331 64.1801 31.3758 63.9532 31.2741 63.7451C31.1725 63.5371 31.0287 63.3524 30.8521 63.2027C30.0825 62.6415 29.1389 62.3714 28.189 62.4402C24.1905 62.4823 20.3246 63.8793 17.2228 66.4029C14.1211 68.9266 11.967 72.4276 11.1125 76.3339C10.9009 77.236 10.8788 78.1721 11.0476 79.0832C11.2163 79.9943 11.5722 80.8604 12.0928 81.6269C12.6289 82.3187 13.3346 82.8603 14.1415 83.1993C14.9484 83.5384 15.8291 83.6633 16.6985 83.562C16.375 83.9782 16.2172 84.4995 16.2554 85.0252C16.2936 85.551 16.5251 86.044 16.9053 86.4091C17.202 86.6167 17.569 86.698 17.9256 86.6352C18.2823 86.5724 18.5994 86.3706 18.8073 86.0741C19.2943 86.9142 19.9892 87.6149 20.8251 88.1091C21.2493 88.3439 21.7425 88.4222 22.2185 88.3303C22.6945 88.2385 23.1232 87.9823 23.4295 87.6066C23.9247 88.1461 24.6019 88.4832 25.3308 88.5531C25.4856 88.5471 25.6376 88.5098 25.7776 88.4435C25.9176 88.3772 26.0428 88.2833 26.1455 88.1673C26.2482 88.0514 26.3264 87.9159 26.3754 87.7689C26.4244 87.6219 26.4431 87.4666 26.4304 87.3122C26.6647 87.7407 27.047 88.0692 27.5059 88.2364C27.9648 88.4036 28.4688 88.3981 28.9239 88.2208C29.1574 88.1025 29.36 87.931 29.5154 87.7203C29.6707 87.5096 29.7745 87.2654 29.8185 87.0073C29.8625 86.7492 29.8454 86.4844 29.7685 86.2341C29.6917 85.9838 29.5573 85.755 29.3761 85.566C30.0207 86.2023 31.1767 85.566 31.3856 84.7284C31.4893 83.8988 31.3176 83.0581 30.8969 82.3356C30.3443 82.0491 29.8988 81.5922 29.6263 81.0327Z" fill="white"/>
<path d="M30.6324 80.592C30.5756 80.5921 30.5195 80.5781 30.4694 80.5513C30.4192 80.5244 30.3765 80.4856 30.345 80.4383C30.1817 80.1903 30.1129 79.892 30.1508 79.5975C30.1888 79.303 30.331 79.0319 30.5518 78.8334C31.4328 78.1047 32.662 78.9844 32.167 79.4311C32.0991 79.4923 32.0098 79.5241 31.9185 79.5194C31.8272 79.5148 31.7416 79.4741 31.6803 79.4063C31.5954 79.3117 31.4771 79.2537 31.3503 79.2446C31.2235 79.2355 31.0982 79.2759 31.0006 79.3573C30.9057 79.4448 30.8452 79.5633 30.8299 79.6915C30.8146 79.8196 30.8455 79.949 30.9172 80.0564C30.9516 80.1081 30.9714 80.1682 30.9745 80.2303C30.9775 80.2924 30.9637 80.3542 30.9346 80.4091C30.9054 80.464 30.8619 80.51 30.8087 80.5422C30.7555 80.5744 30.6946 80.5916 30.6324 80.592Z" fill="#562C13"/>
<path d="M67.4456 91.8962C66.1162 91.2276 64.6071 91.0045 63.1411 91.2599C62.7226 91.3284 62.3364 91.5278 62.0381 91.8293C61.8188 92.125 61.6672 92.4653 61.5942 92.8261C60.2431 97.7979 58.2746 102.581 55.7345 107.063C54.9072 108.478 53.6905 106.611 53.1466 105.891C51.5517 103.785 50.113 101.566 48.8421 99.2497C48.0899 97.7849 47.0102 96.5132 45.6868 95.5333C45.4844 94.9471 45.2078 94.3892 44.8637 93.8733C44.8637 93.8733 45.5531 93.0005 45.3415 92.4835C45.1196 91.9887 44.7549 91.5715 44.2943 91.2854C40.1581 88.2956 35.7461 88.9891 31.0873 89.7115C29.6132 89.9209 28.1808 90.3587 26.8414 91.0089C26.6201 91.1025 26.42 91.2398 26.253 91.4125C26.086 91.5852 25.9555 91.7898 25.8694 92.014C25.7439 92.4745 26.1293 93.0695 26.5987 92.9606C24.5382 93.8905 23.6586 93.6554 22.9554 96.0841C22.8444 96.3523 22.8444 96.6535 22.9554 96.9217C23.0551 97.0525 23.1932 97.1489 23.3504 97.1975C22.5754 97.9775 21.9302 98.8765 21.4395 99.8605C19.9844 102.846 18.8367 105.972 18.014 109.191C16.6676 114.139 15.6742 119.176 15.0414 124.265C14.8401 125.856 13.8184 129.466 14.6277 130.847C15.4371 132.229 18.4303 132.69 19.9042 132.933C23.3824 133.491 26.8773 133.915 30.3889 134.206C35.7323 134.616 41.2762 134.65 46.2446 132.698C47.2792 132.509 48.2099 131.95 48.8631 131.126C49.5163 130.302 49.8474 129.268 49.7948 128.217C49.8458 124.955 49.0799 121.759 48.6787 118.56C50.4587 120.123 52.5186 121.224 55.2471 120.835C60.1968 120.123 62.1815 116.423 64.2331 112.461C66.5749 108.012 68.5352 103.372 70.0928 98.5921C70.9966 95.7567 70.2458 93.2694 67.4456 91.8962Z" fill="#FCD7C1"/>
<path d="M68.2022 91.9035C68.4966 89.7768 69.5493 89.0771 70.1538 88.0175C70.6957 87.2661 70.2621 86.1755 69.268 86.363C68.9743 86.4221 68.6973 86.5452 68.4566 86.7235C68.6117 86.343 69.1039 85.6123 68.6158 84.9718C68.4692 84.8101 68.2725 84.7022 68.0572 84.6656C67.842 84.629 67.6206 84.6657 67.4287 84.7698C67.0691 84.9929 66.7694 85.3006 66.556 85.666C66.8607 84.2783 65.6598 83.9467 64.9015 84.8071C64.1395 85.8234 63.7078 87.0492 63.6647 88.3187C63.383 88.1419 63.0629 88.0355 62.7313 88.0085C60.9658 87.8348 60.7756 89.186 61.6359 89.5252C62.1968 89.8497 62.6294 90.3568 62.8616 90.9618C62.4408 91.0754 62.0592 91.3024 61.7586 91.6181C61.5138 91.9481 61.3433 92.3272 61.2588 92.7294C59.915 97.6719 57.9576 102.427 55.4322 106.883C55.3019 107.105 55.1675 107.228 55.0331 107.228C54.5574 107.242 53.8694 106.287 53.4186 105.679C49.0714 99.8189 48.7694 97.3889 46.0043 95.1187C45.8972 94.6535 45.7061 94.2117 45.4404 93.8151C45.604 93.6094 45.7094 93.3636 45.7458 93.1033C45.7821 92.843 45.7481 92.5777 45.6472 92.335C45.4021 91.7844 44.9984 91.3193 44.4877 90.999C42.2832 89.411 39.6145 88.5986 36.8991 88.6889C36.7102 88.3792 36.5264 88.0657 36.3476 87.7486C40.5093 84.594 40.4659 78.5331 37.5195 74.2314C36.5294 72.8063 35.3898 71.4911 34.1202 70.3081C34.1916 69.8642 34.1273 69.409 33.9357 69.0022C33.744 68.5954 33.434 68.256 33.0462 68.0284C33.2969 67.7762 33.4656 67.4541 33.5299 67.1044C33.5943 66.7546 33.5513 66.3936 33.4068 66.0687C33.2622 65.7437 33.0227 65.4702 32.7198 65.2839C32.4168 65.0976 32.0647 65.0072 31.7095 65.0248C31.8146 64.6482 31.8083 64.2493 31.6912 63.8763C31.5741 63.5034 31.3512 63.1724 31.0497 62.9235C30.2203 62.3185 29.204 62.0256 28.1799 62.0963C24.1002 62.1236 20.1518 63.5414 16.9868 66.1157C13.8218 68.69 11.6294 72.2668 10.7718 76.2554C10.5502 77.2077 10.5286 78.1956 10.7083 79.1567C10.8879 80.1179 11.2649 81.0313 11.8155 81.8393C12.3235 82.4906 12.9726 83.0182 13.714 83.3824C14.4554 83.7466 15.2698 83.9379 16.0958 83.9419C15.9484 84.3194 15.8889 84.7255 15.9218 85.1295C15.9546 85.5334 16.079 85.9246 16.2854 86.2734C16.4193 86.4641 16.5908 86.6254 16.7892 86.7475C16.9877 86.8696 17.209 86.95 17.4396 86.9836C17.6702 87.0172 17.9052 87.0034 18.1303 86.9431C18.3553 86.8827 18.5657 86.777 18.7485 86.6325C19.2465 87.3578 19.8974 87.9651 20.6553 88.4118C21.0943 88.6549 21.5982 88.755 22.0967 88.6983C22.5953 88.6416 23.0638 88.4308 23.437 88.0954C23.9701 88.5564 24.6353 88.8371 25.3376 88.8971C25.6007 88.8809 25.8556 88.7995 26.0794 88.6603C26.3033 88.5211 26.489 88.3284 26.6198 88.0995C26.8579 88.3126 27.137 88.4749 27.44 88.5764C27.7429 88.678 28.0634 88.7168 28.3818 88.6903C28.5294 89.0453 28.6741 89.4383 28.8175 89.8443C28.09 90.0656 27.3824 90.3481 26.7025 90.6888C26.4338 90.8038 26.1913 90.9724 25.9898 91.1842C25.7883 91.396 25.6321 91.6466 25.5306 91.9207C25.4885 92.0958 25.4865 92.2781 25.525 92.4539C25.5634 92.6298 25.6412 92.7947 25.7526 92.9362C24.0415 93.6076 23.2612 93.7634 22.6304 95.9494C22.5537 96.1331 22.5166 96.3308 22.5215 96.5298C22.5264 96.7287 22.5731 96.9244 22.6587 97.1041C17.6131 104.167 14.7308 121.201 14.0877 130.411C14.0845 130.457 14.0904 130.502 14.1048 130.545C14.1192 130.588 14.142 130.628 14.1718 130.662C14.232 130.731 14.3171 130.773 14.4086 130.78C14.5 130.786 14.5902 130.756 14.6593 130.696C14.7284 130.635 14.7707 130.55 14.777 130.459C15.4106 121.327 18.2556 104.46 23.2136 97.515C23.843 97.7287 25.8174 97.515 26.7673 97.2937C29.9764 96.836 32.991 95.6978 36.1084 94.9857C38.0793 94.5355 41.6861 94.0206 44.7538 95.2883C46.3856 95.9618 47.6657 97.8873 48.5364 99.4163C49.8788 101.798 51.3716 104.091 53.0056 106.283C53.4992 106.951 54.2465 107.949 55.0696 107.92C55.2754 107.898 55.4719 107.823 55.64 107.702C55.8081 107.581 55.9422 107.419 56.0292 107.231C58.5876 102.717 60.5697 97.8996 61.9289 92.892C61.9887 92.5968 62.1084 92.3169 62.2805 92.0696C62.5295 91.8175 62.8528 91.6518 63.2029 91.5967C64.5983 91.357 66.0339 91.5706 67.2991 92.2061C69.7809 93.4256 70.6805 95.6123 69.7643 98.487C68.2101 103.249 66.2561 107.871 63.9233 112.304C61.9241 116.158 60.0414 119.799 55.1951 120.496C51.5476 121.012 49.1568 118.766 46.8309 116.218C43.8776 112.954 43.3427 111.775 41.1311 107.822C41.1096 107.781 41.0801 107.745 41.0446 107.716C41.009 107.687 40.9679 107.666 40.9239 107.653C40.8798 107.64 40.8336 107.636 40.788 107.641C40.7424 107.646 40.6983 107.661 40.6582 107.683C40.6182 107.706 40.583 107.736 40.5548 107.772C40.5266 107.808 40.506 107.85 40.494 107.894C40.4821 107.938 40.4791 107.985 40.4853 108.03C40.4915 108.076 40.5067 108.119 40.53 108.159C42.7298 112.088 43.3309 113.378 46.3208 116.681C46.9452 117.38 47.6044 118.047 48.2958 118.68C48.9403 121.91 49.4007 125.175 49.6746 128.457C49.6822 128.548 49.7258 128.633 49.7958 128.692C49.8658 128.752 49.9565 128.781 50.0479 128.773C50.1393 128.765 50.2239 128.722 50.2832 128.652C50.3425 128.582 50.3715 128.491 50.3639 128.4C50.1116 125.374 49.702 122.364 49.1369 119.381C49.9789 120.097 50.9626 120.628 52.0237 120.938C53.0849 121.249 54.1996 121.332 55.295 121.182C60.4929 120.434 62.5493 116.464 64.5375 112.627C66.8886 108.159 68.8576 103.501 70.4234 98.7014C71.3644 95.7357 70.5516 93.294 68.2022 91.9035ZM33.8968 71.0402C35.0351 72.1303 36.0619 73.3312 36.9618 74.625C39.6042 78.4855 39.8861 84.0777 36.0132 87.1241C35.5996 86.3416 35.2232 85.5385 34.884 84.725C34.8468 84.644 34.7796 84.5805 34.6966 84.548C34.6135 84.5154 34.5211 84.5163 34.4387 84.5505C34.3563 84.5847 34.2904 84.6495 34.2548 84.7313C34.2192 84.8131 34.2166 84.9055 34.2477 84.9891C34.7805 86.2719 35.4025 87.5158 36.1091 88.7117C33.8832 88.8977 31.6702 89.2142 29.4814 89.6596C29.3435 89.2666 29.2056 88.884 29.0595 88.5304C29.245 88.441 29.415 88.3222 29.5627 88.1788C29.8281 87.9239 30.0188 87.6014 30.1143 87.246C30.2098 86.8906 30.2064 86.516 30.1046 86.1624C30.4841 86.1214 30.8423 85.966 31.1315 85.7168C31.4207 85.4676 31.6273 85.1364 31.7239 84.7671C31.8008 84.1464 31.7372 83.5164 31.5378 82.9237C31.7995 82.9807 32.067 83.0061 32.3347 82.9995C33.6383 82.8803 34.489 82.3653 34.3208 81.0624C34.315 81.0174 34.3003 80.9741 34.2777 80.9348C34.2551 80.8955 34.225 80.861 34.1891 80.8334C34.1532 80.8057 34.1122 80.7854 34.0684 80.7736C34.0247 80.7618 33.979 80.7587 33.9341 80.7646C33.8891 80.7704 33.8458 80.785 33.8065 80.8076C33.7672 80.8302 33.7327 80.8603 33.7051 80.8963C33.6774 80.9322 33.6571 80.9732 33.6453 81.0169C33.6335 81.0607 33.6304 81.1064 33.6363 81.1513C33.6641 81.2756 33.6663 81.4044 33.6426 81.5296C33.6189 81.6547 33.5698 81.7738 33.4984 81.8793C33.1651 82.1708 32.7338 82.3252 32.2913 82.3115C30.4031 82.3619 29.1119 80.3434 29.8523 78.8743C29.9302 78.7404 30.0337 78.6231 30.157 78.5292C30.2802 78.4353 30.4208 78.3667 30.5706 78.3271C30.7204 78.2875 30.8765 78.2779 31.0301 78.2987C31.1836 78.3195 31.3315 78.3703 31.4654 78.4483C31.544 78.4877 31.6346 78.4957 31.7188 78.4705C31.803 78.4453 31.8744 78.389 31.9184 78.3129C31.9625 78.2368 31.9758 78.1468 31.9556 78.0613C31.9355 77.9757 31.8834 77.9011 31.8101 77.8526C31.4553 77.645 31.0417 77.5611 30.634 77.6141C30.3836 77.332 30.1747 77.0156 30.0136 76.6745C30.3462 76.6705 30.6744 76.5971 30.977 76.4589C31.2796 76.3207 31.55 76.1208 31.7708 75.8721C31.9798 75.6148 32.1104 75.3029 32.1471 74.9735C32.1838 74.6441 32.1249 74.3111 31.9776 74.0142C32.2669 73.9001 32.5002 73.6774 32.6277 73.3938C32.6863 73.2082 32.698 73.011 32.662 72.8197C32.6259 72.6285 32.5431 72.4492 32.4209 72.2977C33.0323 72.0433 33.5486 71.6035 33.8968 71.0402ZM28.7955 87.8962C28.4249 88.041 28.0147 88.0482 27.6392 87.9164C27.2638 87.7846 26.9481 87.5226 26.7494 87.1778C26.7155 87.0671 26.6636 86.9628 26.5957 86.869C26.5464 86.8007 26.4738 86.7528 26.3916 86.7343C26.3094 86.7159 26.2233 86.7282 26.1495 86.769C26.0758 86.8097 26.0195 86.876 25.9913 86.9554C25.9632 87.0348 25.965 87.1218 25.9966 87.1999C26.0269 87.2774 26.0612 87.3534 26.0993 87.4274C26.1476 87.7666 25.7112 88.1974 25.361 88.2091C24.7168 88.1478 24.1183 87.8499 23.681 87.3729C23.6475 87.3365 23.6066 87.3077 23.561 87.2885C23.5154 87.2693 23.4662 87.2602 23.4168 87.2617C23.3673 87.2632 23.3188 87.2753 23.2745 87.2973C23.2301 87.3192 23.191 87.3504 23.1598 87.3888C22.9054 87.7006 22.5499 87.9136 22.1549 87.9908C21.7599 88.068 21.3504 88.0045 20.9973 87.8114C20.2123 87.3473 19.5597 86.6892 19.1022 85.9004C19.0731 85.8503 19.0319 85.8084 18.9824 85.7784C18.9329 85.7485 18.8766 85.7315 18.8187 85.729C18.7609 85.7265 18.7034 85.7387 18.6515 85.7643C18.5996 85.7899 18.5549 85.8282 18.5217 85.8756C18.4287 86.0075 18.3058 86.1154 18.1631 86.1908C18.0204 86.2661 17.8619 86.3065 17.7006 86.3089C17.5393 86.3112 17.3797 86.2754 17.2348 86.2043C17.09 86.1332 16.964 86.0288 16.8672 85.8997C16.6759 85.5715 16.5841 85.1948 16.6029 84.8154C16.6218 84.436 16.7505 84.0703 16.9734 83.7627C17.0126 83.7085 17.0352 83.6441 17.0385 83.5773C17.0417 83.5105 17.0255 83.4442 16.9917 83.3865C16.958 83.3288 16.9082 83.2821 16.8484 83.2522C16.7885 83.2223 16.7213 83.2104 16.6549 83.2181C15.8482 83.3105 15.0313 83.1948 14.2819 82.8822C13.5325 82.5695 12.8757 82.0702 12.3739 81.4319C11.8809 80.7035 11.544 79.8811 11.3842 79.0162C11.2244 78.1513 11.2452 77.2628 11.4453 76.4063C12.2718 72.5666 14.3836 69.1238 17.4317 66.6469C20.4799 64.1699 24.2819 62.8071 28.2095 62.7836C29.0686 62.7219 29.9223 62.9628 30.6223 63.4647C30.7624 63.5837 30.8763 63.7305 30.9569 63.8957C31.0374 64.0609 31.0829 64.2411 31.0904 64.4247C31.0979 64.6084 31.0673 64.7916 31.0005 64.9629C30.9337 65.1341 30.8322 65.2897 30.7023 65.4198C30.6398 65.4817 30.6033 65.5651 30.6004 65.653C30.5974 65.7409 30.6281 65.8266 30.6862 65.8925C30.7444 65.9585 30.8255 65.9998 30.9131 66.0079C31.0007 66.016 31.088 65.9903 31.1573 65.9361C31.2792 65.841 31.4203 65.7735 31.5708 65.7382C31.7213 65.7028 31.8777 65.7005 32.0293 65.7314C32.1808 65.7622 32.3238 65.8255 32.4485 65.9169C32.5732 66.0084 32.6766 66.1257 32.7517 66.2609C32.8267 66.3961 32.8715 66.5459 32.8831 66.7001C32.8947 66.8543 32.8728 67.0092 32.8188 67.1541C32.7649 67.299 32.6802 67.4305 32.5705 67.5395C32.4609 67.6485 32.3289 67.7325 32.1837 67.7857C32.1134 67.8116 32.0534 67.8597 32.0129 67.9227C31.9723 67.9857 31.9535 68.0603 31.9591 68.135C31.9647 68.2097 31.9945 68.2806 32.044 68.3369C32.0935 68.3931 32.16 68.4317 32.2334 68.4468C32.4355 68.4895 32.627 68.5721 32.7968 68.6897C32.9666 68.8072 33.1113 68.9575 33.2224 69.1316C33.3335 69.3057 33.4088 69.5002 33.4439 69.7038C33.4789 69.9073 33.4731 70.1158 33.4267 70.3171C33.1971 71.3063 32.485 71.3842 31.6343 71.9909C31.5846 72.0265 31.5453 72.0746 31.5204 72.1304C31.4954 72.1862 31.4857 72.2476 31.4923 72.3083C31.4989 72.3691 31.5216 72.427 31.5579 72.4761C31.5942 72.5252 31.643 72.5638 31.6991 72.5879C31.8058 72.6315 31.8937 72.7113 31.9473 72.8133C32.0009 72.9154 32.0167 73.033 31.9921 73.1456C31.9421 73.2517 31.8519 73.3336 31.7415 73.3733C31.6311 73.4129 31.5095 73.4072 31.4034 73.3572C31.3259 73.3204 31.2374 73.3138 31.1553 73.3388C31.0732 73.3637 31.0034 73.4183 30.9594 73.492C30.9155 73.5657 30.9006 73.6531 30.9177 73.7372C30.9348 73.8213 30.9826 73.896 31.0518 73.9467C31.1628 74.0299 31.2561 74.1345 31.3264 74.2542C31.3966 74.3739 31.4424 74.5063 31.461 74.6438C31.4796 74.7814 31.4707 74.9212 31.4347 75.0553C31.3988 75.1893 31.3366 75.3149 31.2517 75.4247C31.0454 75.6546 30.78 75.8234 30.4844 75.9129C30.1888 76.0024 29.8743 76.009 29.5752 75.932C29.5158 75.9171 29.4535 75.9181 29.3947 75.9352C29.3359 75.9523 29.2827 75.9847 29.2406 76.0291C29.1984 76.0736 29.1689 76.1284 29.155 76.1881C29.1411 76.2477 29.1434 76.3099 29.1615 76.3684C29.3294 76.9053 29.5933 77.4073 29.9405 77.8499C28.8506 78.4814 28.6824 80.0945 29.3146 81.1823C29.6036 81.7727 30.0658 82.2609 30.6395 82.5818C30.9859 83.2092 31.1287 83.9288 31.0483 84.6409C30.8988 85.2407 30.0481 85.7439 29.6151 85.3165C29.55 85.2572 29.4646 85.2251 29.3765 85.2268C29.2884 85.2284 29.2043 85.2638 29.1414 85.3256C29.0786 85.3874 29.0418 85.4709 29.0386 85.5589C29.0354 85.647 29.0661 85.7329 29.1243 85.7991C29.2664 85.9474 29.3724 86.1265 29.434 86.3224C29.4955 86.5184 29.511 86.7259 29.4793 86.9288C29.4475 87.1318 29.3694 87.3246 29.2509 87.4924C29.1324 87.6602 28.9768 87.7984 28.7962 87.8962H28.7955ZM44.8876 93.4056C42.2569 91.2913 39.3367 90.5454 35.4976 90.9928C35.4517 90.9969 35.4071 91.0101 35.3664 91.0317C35.3258 91.0533 35.2898 91.0828 35.2607 91.1185C35.2317 91.1542 35.21 91.1953 35.1971 91.2395C35.1842 91.2837 35.1803 91.3301 35.1856 91.3758C35.1909 91.4216 35.2053 91.4658 35.228 91.5059C35.2506 91.5459 35.2811 91.5811 35.3176 91.6092C35.354 91.6373 35.3958 91.6578 35.4403 91.6695C35.4848 91.6812 35.5313 91.6839 35.5769 91.6774C39.1237 91.2672 41.8378 91.9214 44.2678 93.7972C39.5801 91.2555 34.154 92.8569 28.5501 92.5991C28.4586 92.5929 28.3685 92.6232 28.2995 92.6835C28.2304 92.7437 28.1881 92.8289 28.1819 92.9203C28.1757 93.0117 28.2061 93.1019 28.2663 93.1709C28.3266 93.2399 28.4118 93.2822 28.5032 93.2885C33.5694 93.6331 38.8569 91.9731 43.4626 94.1571C37.5691 92.7487 32.3954 95.7957 26.6419 96.6202C25.3417 96.9201 22.7814 97.415 23.2819 96.1811C23.9326 93.9337 24.6172 94.2322 26.7356 93.2753C26.8136 93.2402 26.8758 93.1773 26.9099 93.0988C26.9441 93.0204 26.9479 92.9321 26.9206 92.851C26.8932 92.7699 26.8367 92.7019 26.762 92.6602C26.6873 92.6185 26.5998 92.606 26.5164 92.6253C26.3289 92.6694 26.14 92.3206 26.1876 92.1379C26.2592 91.954 26.3673 91.7866 26.5055 91.6457C26.6436 91.5048 26.8089 91.3934 26.9914 91.3182C28.2938 90.6633 29.698 90.2346 31.1442 90.0505C35.8926 89.1936 40.1447 88.7158 44.1079 91.5788C44.5073 91.8252 44.8242 92.1853 45.0178 92.6129C45.0712 92.7441 45.0874 92.8876 45.0645 93.0275C45.0416 93.1673 44.9806 93.2982 44.8882 93.4056H44.8876ZM63.5524 90.8481C63.2707 90.0276 62.6976 89.339 61.942 88.913C61.6766 88.8006 62.062 88.6372 62.6679 88.6951C62.8642 88.7113 63.0549 88.7688 63.2274 88.8638C63.3999 88.9589 63.5504 89.0893 63.6689 89.2466C63.7108 89.303 63.7689 89.3453 63.8354 89.3678C63.902 89.3902 63.9738 89.3918 64.0413 89.3723C64.1088 89.3528 64.1687 89.3132 64.213 89.2587C64.2574 89.2042 64.284 89.1374 64.2893 89.0674C64.4148 87.5508 64.5871 86.2141 65.4178 85.2648C65.7343 84.9098 66.0658 84.8788 65.8597 85.6157C65.6767 86.2308 65.5438 86.8597 65.4626 87.4963C65.4521 87.5786 65.4716 87.6619 65.5175 87.7309C65.5634 87.8 65.6327 87.8502 65.7126 87.8723C65.7925 87.8944 65.8778 87.887 65.9526 87.8514C66.0275 87.8157 66.0871 87.7543 66.1203 87.6783C66.3919 87.0942 66.7328 86.545 67.1358 86.0424C67.2887 85.7748 67.5024 85.5469 67.7596 85.3772C67.8104 85.3474 67.8694 85.3347 67.928 85.3409C67.9865 85.3471 68.0416 85.3719 68.085 85.4116C68.2429 85.6185 68.0161 86.0624 67.8479 86.3954C67.6411 86.8993 67.3653 87.5728 67.1171 88.0389C67.0765 88.1143 67.0654 88.2022 67.086 88.2854C67.1066 88.3686 67.1575 88.4411 67.2287 88.4888C67.2999 88.5365 67.3863 88.5559 67.4711 88.5434C67.5559 88.5308 67.633 88.4871 67.6873 88.4208C68.0352 87.9982 68.4298 87.6161 68.8633 87.2819C69.0227 87.166 69.2044 87.0843 69.3969 87.042C69.4476 87.0341 69.4994 87.0392 69.5476 87.0566C69.5958 87.0741 69.6388 87.1035 69.6727 87.142C69.9015 87.9072 68.0416 88.8282 67.5556 91.565C66.3189 90.9436 64.9285 90.6946 63.5531 90.8481H63.5524Z" fill="#562C13"/>
<path d="M96.7562 46.4969C95.6771 46.3023 94.5644 46.524 93.6423 47.1174C92.2379 46.937 90.8143 46.9686 89.4192 47.2111C86.7698 47.7169 84.2724 48.8255 82.1201 50.4512C82.0939 50.4174 80.5897 48.4961 80.5545 48.4678C80.5918 48.2907 80.6235 48.1121 80.649 47.9329C80.7976 47.9688 80.951 47.9804 81.1033 47.9674C81.1582 48.346 81.2916 48.709 81.4948 49.0331C81.5912 49.2094 81.7307 49.3582 81.9004 49.4657C82.07 49.5732 82.2642 49.6358 82.4647 49.6477C82.6652 49.6595 82.8654 49.6202 83.0466 49.5335C83.2277 49.4467 83.3838 49.3153 83.5002 49.1517C83.8245 48.7186 83.989 48.1867 83.9658 47.6461C83.9425 47.1055 83.733 46.5897 83.3727 46.186C83.5501 45.8168 83.6763 45.425 83.7477 45.0217C83.9524 44.265 83.9524 43.4675 83.7477 42.7109C84.5315 40.4197 84.4608 37.9224 83.5485 35.6792C81.903 31.6926 77.6605 29.1081 72.9962 29.2432C71.0281 29.2432 69.5714 30.0588 67.8135 30.9563C64.4886 32.6642 61.8223 35.4243 60.2304 38.8062C59.0005 41.2777 58.6876 43.4513 59.2997 45.2671C59.3214 45.3431 59.3684 45.4093 59.4331 45.4548C59.4977 45.5002 59.576 45.522 59.6549 45.5166C59.7337 45.5112 59.8083 45.4789 59.8661 45.425C59.9239 45.3712 59.9615 45.2991 59.9726 45.2209C60.0304 44.9054 60.1083 44.5938 60.2056 44.2882C60.114 45.714 60.4148 47.1376 61.0752 48.4045C61.7356 49.6715 62.7304 50.7334 63.9516 51.4749C64.0159 51.513 64.0908 51.5292 64.1651 51.521C64.2394 51.5128 64.309 51.4807 64.3635 51.4295C64.4179 51.3783 64.4543 51.3109 64.467 51.2372C64.4798 51.1636 64.4682 51.0878 64.4342 51.0213C64.1175 50.4124 63.8805 49.7652 63.729 49.0959C65.4689 52.4214 69.7686 54.6798 70.1202 53.7574C71.4121 54.5524 72.9394 54.8754 74.4426 54.6717C75.9458 54.468 77.332 53.7501 78.3658 52.6399C78.5457 52.8564 78.6732 52.9943 78.7946 53.1225C74.903 55.9062 67.7294 59.8025 63.021 58.9684C62.6147 58.9231 62.232 58.7548 61.9242 58.4858C61.731 58.2668 61.5804 58.0136 61.4802 57.7392C60.8136 56.2117 60.296 54.6234 59.9346 52.9963C59.4569 50.8076 59.9443 49.12 59.0902 47.4593C58.6727 46.3702 58.1116 45.3418 57.4219 44.4012C57.5706 43.3417 57.5033 42.263 57.224 41.2301C58.4585 39.8037 59.4622 38.1929 60.1987 36.4562C62.0641 32.6334 63.1202 28.4668 63.3009 24.217C63.3367 21.4485 62.0028 17.8003 59.7078 16.4857C59.0402 16.1189 58.2828 15.9475 57.5223 15.991C56.7618 16.0345 56.0289 16.2912 55.4075 16.7318C53.8363 17.6993 52.4664 18.9607 51.3726 20.4468C47.4735 20.0173 44.9924 21.4368 43.673 23.5855C41.3291 27.3992 43.2759 31.6512 47.0075 33.9448C46.9744 34.8295 46.9833 35.7172 47.0344 36.6078C47.0366 38.1088 47.5015 39.5726 48.3655 40.7999C49.2022 41.8504 50.3399 42.6201 51.6263 43.0059C51.6216 43.7112 51.8102 44.4043 52.1716 45.0099C51.8073 45.8696 51.4972 46.7512 51.243 47.6496C51.0369 48.212 50.9206 48.8034 50.8983 49.4019C50.9344 50.0032 51.0551 50.5964 51.2568 51.164C52.3887 54.4599 53.4476 60.4306 56.1052 64.8874C57.7852 67.7028 60.4103 68.1695 62.9989 68.2543C67.4184 68.4158 71.828 67.7297 75.9895 66.233C78.4601 72.6023 82.8104 78.069 88.4624 81.9067C88.3155 82.5133 89.9907 83.2475 91.2847 83.2475C99.4737 83.2475 101.983 68.5018 102.265 61.6928C102.486 56.1819 101.785 47.3938 96.7562 46.4969ZM44.0239 29.8333C43.5788 28.9747 43.3491 28.0208 43.3544 27.0538C43.3597 26.0867 43.5999 25.1354 44.0543 24.2817C44.5087 23.428 45.1638 22.6975 45.963 22.1531C46.7623 21.6086 47.6819 21.2665 48.6427 21.1562C49.3932 21.0601 50.1515 21.0407 50.9059 21.0983C48.6063 24.7141 47.2767 28.8614 47.0454 33.1403C45.771 32.3156 44.7305 31.1768 44.0239 29.8333ZM56.6704 44.8328C56.3893 45.1901 56.0098 45.4575 55.5787 45.602C55.1475 45.7465 54.6836 45.7619 54.2438 45.6462C53.9127 45.607 53.5925 45.503 53.3015 45.3401C52.7043 44.7771 52.3541 44.0007 52.3274 43.1803C52.8112 43.2675 53.3062 43.2724 53.7916 43.1948C53.8175 43.4111 53.8815 43.6212 53.9805 43.8153C54.0222 43.8966 54.0945 43.9581 54.1815 43.9861C54.2685 44.0142 54.3631 44.0065 54.4445 43.9648C54.5258 43.9232 54.5873 43.8509 54.6153 43.7639C54.6434 43.6768 54.6357 43.5823 54.594 43.5009C54.5202 43.3564 54.4783 43.1978 54.4711 43.0357C54.464 42.8736 54.4918 42.7119 54.5527 42.5615C54.6136 42.4111 54.7061 42.2755 54.824 42.1641C54.9418 42.0526 55.0823 41.9677 55.2359 41.9153C55.2883 41.8974 55.3357 41.8672 55.374 41.8271C55.4123 41.787 55.4403 41.7382 55.4557 41.685C55.4711 41.6317 55.4735 41.5756 55.4626 41.5212C55.4517 41.4669 55.4278 41.416 55.393 41.3728L54.8312 40.6765C54.5685 40.3532 54.361 39.9306 54.4996 39.7927C54.5813 39.7309 54.6799 39.6952 54.7823 39.6906C54.8847 39.6859 54.9861 39.7124 55.0732 39.7666C55.4674 39.9494 55.8143 40.2204 56.0871 40.5587C56.3598 40.897 56.5512 41.2935 56.6463 41.7175C56.8529 42.7449 56.8611 43.8023 56.6704 44.8328ZM56.9221 40.5586C56.5662 39.9446 56.0306 39.4545 55.3875 39.1544C55.1782 39.0361 54.9379 38.9842 54.6984 39.0056C54.459 39.0271 54.2317 39.1208 54.0467 39.2743C53.6124 39.6983 53.7061 40.3849 54.2955 41.1101L54.5878 41.4728C54.2281 41.7145 53.9661 42.0765 53.8488 42.4937C52.9142 42.6061 51.9665 42.4705 51.1008 42.1007C50.2352 41.7309 49.482 41.1399 48.917 40.387C48.1379 39.2729 47.7208 37.9459 47.7224 36.5865C47.3191 29.579 49.7333 20.9694 55.7674 17.3239C56.2831 16.9467 56.8955 16.7239 57.5331 16.6818C58.1707 16.6397 58.8071 16.7799 59.368 17.0861C61.4154 18.258 62.6466 21.6967 62.6149 24.1991C62.4371 28.3526 61.4045 32.4247 59.5817 36.1611C58.8986 37.7414 58.0039 39.2215 56.9221 40.5607V40.5586ZM82.9474 48.7367C82.8997 48.8123 82.8322 48.8734 82.7523 48.9134C82.6724 48.9534 82.583 48.9708 82.4939 48.9637C82.4049 48.9566 82.3194 48.9253 82.2468 48.8731C82.1743 48.8209 82.1173 48.7499 82.0822 48.6678C81.9188 48.4072 81.8152 48.1136 81.7789 47.8081C82.2858 47.6184 82.7179 47.27 83.0108 46.8147C83.1888 47.1064 83.2777 47.4437 83.2664 47.7852C83.2551 48.1267 83.1442 48.4574 82.9474 48.7367ZM63.5421 46.6307C63.5232 46.5507 63.4762 46.4801 63.4098 46.4317C63.3434 46.3833 63.2618 46.3602 63.1799 46.3666C63.098 46.373 63.021 46.4085 62.9629 46.4667C62.9048 46.5248 62.8694 46.6018 62.8631 46.6837C62.7766 47.8613 62.9304 49.0441 63.3153 50.1603C62.1499 49.1416 61.3475 47.7714 61.0293 46.2566C60.711 44.7418 60.8942 43.1645 61.5512 41.763C61.587 41.6864 61.5934 41.5994 61.5692 41.5185C61.545 41.4375 61.4919 41.3683 61.4201 41.3239C61.3482 41.2795 61.2625 41.263 61.1793 41.2776C61.0961 41.2922 61.0211 41.3369 60.9687 41.4031C60.4316 42.0808 60.0025 42.8375 59.6968 43.6464C59.6904 42.0599 60.0893 40.498 60.8556 39.1089C62.3805 35.8624 64.9371 33.2121 68.1265 31.5713C69.8265 30.7026 71.1832 29.9326 73.0073 29.9326C79.9072 29.7182 85.1223 35.6475 83.2162 42.1104C82.9111 41.8618 82.5346 41.7169 82.1415 41.6968C81.7172 41.7379 81.3106 41.8872 80.9606 42.1305C80.6106 42.3737 80.3288 42.7026 80.1423 43.0859C79.8583 43.6641 79.6324 44.2691 79.4681 44.8921C78.4615 43.2984 76.8995 42.1348 75.0843 41.6265C73.7923 41.3665 72.4833 41.1995 71.1673 41.1267C69.9312 41.056 68.7554 40.5688 67.8314 39.7445C67.7947 39.7115 67.7514 39.6868 67.7043 39.6721C67.6573 39.6573 67.6076 39.6528 67.5586 39.6589C67.5097 39.665 67.4626 39.6815 67.4206 39.7073C67.3786 39.7331 67.3426 39.7677 67.3151 39.8086C65.9032 41.9105 65.3903 44.0021 66.1114 47.3745C66.2919 48.413 66.6184 49.4208 67.0814 50.3678C67.3806 50.9723 67.6612 51.8154 68.1299 52.5938C66.984 51.9847 65.9817 51.1375 65.1903 50.109C64.399 49.0804 63.837 47.8944 63.5421 46.6307ZM67.7094 50.0775C67.0838 48.6997 66.691 47.2277 66.5471 45.7214C66.3379 43.9083 66.7373 42.0771 67.6825 40.5159C68.6723 41.2903 69.8748 41.7444 71.1294 41.8174C72.4031 41.8884 73.6701 42.0496 74.921 42.3C75.9012 42.5771 76.808 43.0677 77.5762 43.7366C78.3445 44.4054 78.9552 45.236 79.3647 46.1688C79.3999 46.2484 79.464 46.3116 79.544 46.3459C79.624 46.3802 79.714 46.383 79.7959 46.3537C79.8779 46.3244 79.9457 46.2651 79.9858 46.1879C80.0259 46.1106 80.0352 46.021 80.012 45.9371C79.8886 45.4939 80.4815 43.96 80.76 43.3934C80.8909 43.1205 81.0888 42.8852 81.3351 42.7094C81.5815 42.5337 81.8684 42.4232 82.169 42.3882C83.8835 42.4213 83.2031 46.2487 81.8313 47.0326C81.8742 46.8692 81.9367 46.7115 82.0174 46.5631C82.0404 46.5233 82.0552 46.4792 82.0609 46.4336C82.0666 46.388 82.0632 46.3416 82.0507 46.2974C82.0382 46.2531 82.017 46.2118 81.9884 46.1758C81.9597 46.1398 81.9241 46.11 81.8837 46.088C81.8433 46.066 81.7989 46.0523 81.7532 46.0477C81.7074 46.0432 81.6612 46.0478 81.6172 46.0614C81.5733 46.0749 81.5325 46.0972 81.4973 46.1267C81.462 46.1563 81.4331 46.1926 81.4121 46.2336C81.2436 46.5433 81.1357 46.8823 81.0943 47.2325C80.9682 47.2421 80.8427 47.2456 80.7186 47.2525C80.7338 47.0167 80.7393 46.7789 80.7351 46.541C80.7351 46.4633 80.7043 46.3888 80.6493 46.3339C80.5944 46.2789 80.5199 46.2481 80.4422 46.2481C80.3645 46.2481 80.2899 46.2789 80.235 46.3339C80.18 46.3888 80.1492 46.4633 80.1492 46.541C80.2753 54.1269 71.0977 57.3539 67.7094 50.0789V50.0775ZM83.1101 59.6109C79.8996 61.1124 75.7137 60.01 74.9223 56.3639C76.422 55.5452 77.8698 54.6352 79.2578 53.6388C79.3143 53.7078 79.3757 53.7767 79.4453 53.8663C79.473 53.9036 79.5079 53.9349 79.548 53.9584C79.588 53.9818 79.6324 53.9969 79.6785 54.0028C79.7245 54.0087 79.7713 54.0052 79.8159 53.9926C79.8606 53.9799 79.9023 53.9584 79.9384 53.9293C79.9745 53.9002 80.0044 53.864 80.0263 53.8231C80.0481 53.7821 80.0615 53.7371 80.0655 53.6909C80.0695 53.6447 80.0642 53.5981 80.0498 53.5539C80.0354 53.5098 80.0122 53.4691 79.9817 53.4341C79.3895 52.6985 79.3426 52.7447 78.8283 52.1181C79.5033 51.2782 80.0153 50.3196 80.3381 49.2916C80.871 49.9734 81.4411 50.6876 81.865 51.2426C81.9084 51.3004 81.969 51.3432 82.038 51.3648C82.1071 51.3863 82.1812 51.3856 82.2498 51.3628C82.3184 51.3399 82.3781 51.296 82.4204 51.2373C82.4627 51.1786 82.4855 51.1081 82.4855 51.0358C84.0262 49.8856 85.7448 48.9953 87.5731 48.4003C88.7884 53.845 87.2084 57.8227 83.1101 59.6123V59.6109ZM94.8549 47.2966C95.5064 47.0857 96.2037 47.0608 96.8685 47.2246C97.5334 47.3884 98.1393 47.7344 98.6182 48.2238C97.394 47.8032 96.1345 47.4928 94.8549 47.2966ZM101.484 63.1488C99.9839 62.1409 98.5362 58.399 97.6421 56.7114C99.056 56.7962 100.58 56.8961 101.597 57.074C101.669 59.0995 101.631 61.1273 101.485 63.1488H101.484Z" fill="#562C13"/>
<path d="M64.6094 48.4447C64.6094 48.7186 64.6633 48.9898 64.7681 49.2428C64.8729 49.4958 65.0265 49.7257 65.2202 49.9193C65.4138 50.113 65.6437 50.2666 65.8967 50.3714C66.1497 50.4762 66.4209 50.5301 66.6947 50.5301C66.9686 50.5301 67.2398 50.4762 67.4928 50.3714C67.7458 50.2666 67.9757 50.113 68.1693 49.9193C68.363 49.7257 68.5166 49.4958 68.6214 49.2428C68.7262 48.9898 68.7801 48.7186 68.7801 48.4447C68.7801 48.1709 68.7262 47.8997 68.6214 47.6467C68.5166 47.3937 68.363 47.1638 68.1693 46.9702C67.9757 46.7765 67.7458 46.6229 67.4928 46.5181C67.2398 46.4133 66.9686 46.3594 66.6947 46.3594C66.4209 46.3594 66.1497 46.4133 65.8967 46.5181C65.6437 46.6229 65.4138 46.7765 65.2202 46.9702C65.0265 47.1638 64.8729 47.3937 64.7681 47.6467C64.6633 47.8997 64.6094 48.1709 64.6094 48.4447Z" fill="#FCD7C1"/>
<path d="M74.7207 48.1775C74.7207 48.8317 74.9806 49.4591 75.4431 49.9217C75.9057 50.3842 76.5331 50.6441 77.1873 50.6441C77.8415 50.6441 78.4689 50.3842 78.9314 49.9217C79.394 49.4591 79.6539 48.8317 79.6539 48.1775C79.6539 47.5233 79.394 46.896 78.9314 46.4334C78.4689 45.9708 77.8415 45.7109 77.1873 45.7109C76.5331 45.7109 75.9057 45.9708 75.4431 46.4334C74.9806 46.896 74.7207 47.5233 74.7207 48.1775Z" fill="#FCD7C1"/>
</svg>
