<svg width="159" height="131" viewBox="0 0 159 131" fill="none" xmlns="http://www.w3.org/2000/svg">
<path d="M78.3157 74.1283C78.2392 74.1279 78.1654 74.1002 78.1076 74.05C78.0499 73.9998 78.0121 73.9305 78.001 73.8548C77.9905 73.7789 78.0079 73.7018 78.0498 73.6377C78.0918 73.5736 78.1555 73.5269 78.2293 73.5061C80.859 72.7675 83.5117 72.1025 86.1105 71.2869C106.142 65.3253 124.262 57.4108 137.139 49.0009C149.933 40.6449 156.019 32.8216 154.276 26.9725C153.201 23.2078 148.851 20.4734 141.698 19.0579C141.657 19.0502 141.618 19.0343 141.584 19.0112C141.549 18.988 141.519 18.9581 141.496 18.9232C141.467 18.8799 141.449 18.8301 141.444 18.7781C141.438 18.7262 141.446 18.6737 141.466 18.6254C141.486 18.5771 141.518 18.5345 141.558 18.5015C141.598 18.4684 141.646 18.4458 141.698 18.4358C141.738 18.4277 141.78 18.4277 141.821 18.4358C149.223 19.8988 153.741 22.7893 154.885 26.7949C156.714 32.9333 150.535 41.0087 137.485 49.5319C124.558 57.9743 106.379 65.9158 86.296 71.8933C84.1474 72.5677 78.4005 74.1283 78.3149 74.1283H78.3157Z" fill="#562C13"/>
<path d="M47.6515 44.8685C53.4507 36.6259 78.0637 27.8047 93.6859 27.8047C93.7275 27.8047 93.7687 27.8129 93.8072 27.8288C93.8456 27.8448 93.8806 27.8681 93.91 27.8975C93.9395 27.927 93.9628 27.9619 93.9788 28.0004C93.9947 28.0389 94.0029 28.0801 94.0029 28.1217C94.0029 28.1633 93.9947 28.2046 93.9788 28.243C93.9628 28.2815 93.9395 28.3164 93.91 28.3459C93.8806 28.3753 93.8456 28.3987 93.8072 28.4146C93.7687 28.4305 93.7275 28.4387 93.6859 28.4387C78.2238 28.4387 53.8145 37.2124 48.1698 45.2331C48.1203 45.2988 48.0472 45.3427 47.9659 45.3555C47.8846 45.3683 47.8016 45.349 47.7342 45.3017C47.6669 45.2543 47.6207 45.1827 47.6052 45.1018C47.5898 45.021 47.6064 44.9374 47.6515 44.8685Z" fill="#562C13"/>
<path d="M21.6961 48.7812C48.9111 31.0072 96.4997 17.2031 127.709 17.2031C127.793 17.2031 127.874 17.2365 127.933 17.296C127.993 17.3554 128.026 17.4361 128.026 17.5201C128.026 17.6042 127.993 17.6849 127.933 17.7443C127.874 17.8038 127.793 17.8372 127.709 17.8372C96.5663 17.8372 49.095 31.6452 22.0425 49.313C9.24815 57.669 3.16207 65.4915 4.90491 71.3406C7.32698 79.466 24.5779 82.465 49.9224 79.1712C50.0038 79.1648 50.0846 79.1899 50.148 79.2414C50.2115 79.2929 50.2527 79.3668 50.2632 79.4478C50.2734 79.5288 50.2518 79.6106 50.2031 79.6762C50.1544 79.7418 50.0822 79.786 50.0017 79.7997C3.89202 85.7938 -11.3941 70.3943 21.6961 48.7812Z" fill="#562C13"/>
<path d="M115.447 33.2056C115.824 32.6456 116.081 32.0133 116.2 31.3488C116.32 30.6844 116.3 30.0023 116.142 29.3459C115.322 26.6638 111.105 24.9915 104.273 24.6579C104.189 24.6538 104.11 24.6164 104.053 24.5541C103.996 24.4917 103.967 24.4095 103.971 24.3254C103.975 24.2413 104.013 24.1623 104.075 24.1057C104.137 24.0492 104.219 24.0197 104.304 24.0238C111.526 24.3765 115.831 26.159 116.754 29.1794C116.935 29.9232 116.96 30.6965 116.825 31.4501C116.691 32.2038 116.402 32.9212 115.975 33.5567C115.939 33.6072 115.89 33.6462 115.832 33.6691C115.775 33.6919 115.712 33.6976 115.652 33.6854C115.591 33.6732 115.535 33.6437 115.491 33.6005C115.447 33.5572 115.417 33.5021 115.403 33.4418C115.386 33.3604 115.402 33.2756 115.447 33.2056Z" fill="#562C13"/>
<path d="M32.645 96.6624C26.2466 96.6624 17.9461 96.2542 12.0384 93.8313C11.9998 93.8155 11.9648 93.7923 11.9353 93.7629C11.9058 93.7335 11.8823 93.6987 11.8663 93.6602C11.8502 93.6218 11.8419 93.5806 11.8418 93.539C11.8417 93.4974 11.8498 93.4561 11.8656 93.4176C12.3173 92.3167 14.225 96.255 34.6731 96.0156C53.9427 95.7897 76.3746 90.8077 97.8363 81.9873C97.9135 81.9597 97.9983 81.963 98.0731 81.9964C98.148 82.0297 98.2071 82.0906 98.2382 82.1664C98.2694 82.2424 98.2697 82.3276 98.239 82.4038C98.2084 82.48 98.1492 82.5413 98.0741 82.5746C77.8408 90.8901 54.7099 96.6624 32.645 96.6624Z" fill="#FCD7C1"/>
<path d="M35.4443 63.5274C23.0502 61.2036 22.3726 54.046 32.1742 45.8755C32.2393 45.8268 32.3206 45.8051 32.4013 45.8147C32.482 45.8244 32.556 45.8646 32.6078 45.9272C32.6597 45.9897 32.6856 46.0698 32.6801 46.1509C32.6746 46.232 32.6382 46.3079 32.5784 46.3629C23.3688 54.0381 23.563 60.652 35.5576 62.9013C35.6405 62.9167 35.7139 62.9643 35.7619 63.0336C35.8098 63.1029 35.8284 63.1884 35.8136 63.2714C35.7982 63.3541 35.7508 63.4274 35.6816 63.4753C35.6124 63.5233 35.5272 63.542 35.4443 63.5274Z" fill="#FCD7C1"/>
<path d="M90.8113 25.4809C90.7273 25.4855 90.6449 25.4568 90.582 25.401C90.5191 25.3452 90.4807 25.2668 90.4752 25.1829C90.4726 25.1412 90.4783 25.0994 90.492 25.0599C90.5056 25.0204 90.5269 24.984 90.5547 24.9528C90.5825 24.9215 90.6162 24.8961 90.6538 24.8779C90.6914 24.8598 90.7323 24.8492 90.774 24.8469C92.1261 24.6884 94.7986 24.3539 94.7986 24.3539C94.8609 24.3463 94.924 24.3572 94.9801 24.3853C95.0362 24.4133 95.0828 24.4573 95.1141 24.5116C95.155 24.585 95.1658 24.6714 95.1442 24.7526C95.1215 24.8335 95.068 24.9024 94.9952 24.9444C94.959 24.9651 94.9192 24.9785 94.8779 24.984C94.7543 25.0006 90.8961 25.4809 90.8113 25.4809Z" fill="#562C13"/>
<path d="M99.1938 29.2665C99.4852 29.2665 99.7738 29.2091 100.043 29.0975C100.312 28.986 100.557 28.8226 100.763 28.6165C100.969 28.4104 101.133 28.1658 101.244 27.8965C101.356 27.6273 101.413 27.3387 101.413 27.0473C101.413 26.7559 101.356 26.4673 101.244 26.1981C101.133 25.9288 100.969 25.6842 100.763 25.4781C100.557 25.272 100.312 25.1086 100.043 24.997C99.7738 24.8855 99.4852 24.8281 99.1938 24.8281C98.6052 24.8281 98.0408 25.0619 97.6246 25.4781C97.2084 25.8943 96.9746 26.4587 96.9746 27.0473C96.9746 27.6359 97.2084 28.2003 97.6246 28.6165C98.0408 29.0327 98.6052 29.2665 99.1938 29.2665Z" fill="#FCD7C1"/>
<path d="M99.1914 29.5794C98.8531 29.5879 98.5165 29.5286 98.2015 29.4049C97.8865 29.2813 97.5994 29.0959 97.3572 28.8597C97.1149 28.6234 96.9224 28.341 96.791 28.0292C96.6595 27.7174 96.5918 27.3824 96.5918 27.044C96.5918 26.7056 96.6595 26.3706 96.791 26.0588C96.9224 25.747 97.1149 25.4646 97.3572 25.2284C97.5994 24.9921 97.8865 24.8067 98.2015 24.6831C98.5165 24.5595 98.8531 24.5001 99.1914 24.5086C99.8529 24.5251 100.482 24.7995 100.944 25.2732C101.406 25.7469 101.664 26.3824 101.664 27.044C101.664 27.7057 101.406 28.3411 100.944 28.8148C100.482 29.2885 99.8529 29.5629 99.1914 29.5794ZM99.1914 25.1411C98.8151 25.1408 98.4472 25.2523 98.1344 25.4615C97.8216 25.6706 97.5779 25.9679 97.4343 26.3157C97.2906 26.6632 97.253 27.0455 97.3264 27.4144C97.3997 27.7832 97.5807 28.1221 97.8464 28.3882C98.0675 28.6096 98.3398 28.773 98.6392 28.864C98.9386 28.955 99.2558 28.9707 99.5627 28.9097C99.8696 28.8488 100.157 28.7131 100.399 28.5147C100.641 28.3162 100.83 28.0611 100.95 27.7721C101.069 27.483 101.116 27.1689 101.085 26.8575C101.055 26.5461 100.948 26.2471 100.774 25.9869C100.6 25.7268 100.364 25.5136 100.088 25.3662C99.8124 25.2188 99.5043 25.1417 99.1914 25.1419V25.1411Z" fill="#562C13"/>
<path d="M47.2469 50.5446C47.661 50.5446 48.0581 50.3801 48.3509 50.0873C48.6437 49.7945 48.8082 49.3973 48.8082 48.9832C48.8082 48.5691 48.6437 48.172 48.3509 47.8792C48.0581 47.5864 47.661 47.4219 47.2469 47.4219C46.8328 47.4219 46.4357 47.5864 46.1429 47.8792C45.85 48.172 45.6855 48.5691 45.6855 48.9832C45.6855 49.3973 45.85 49.7945 46.1429 50.0873C46.4357 50.3801 46.8328 50.5446 47.2469 50.5446Z" fill="#FCD7C1"/>
<path d="M47.2501 50.8657C47.0003 50.8708 46.7519 50.8259 46.5196 50.7337C46.2873 50.6415 46.0757 50.5039 45.8973 50.329C45.7188 50.154 45.5771 49.9452 45.4804 49.7147C45.3836 49.4843 45.3339 49.2369 45.334 48.987C45.3341 48.737 45.3841 48.4896 45.481 48.2593C45.5779 48.0289 45.7198 47.8202 45.8984 47.6454C46.077 47.4706 46.2887 47.3332 46.5211 47.2412C46.7535 47.1492 47.0019 47.1045 47.2517 47.1098C47.7431 47.1201 48.2109 47.3226 48.5547 47.6738C48.8985 48.025 49.0909 48.497 49.0907 48.9885C49.0905 49.48 48.8977 49.9519 48.5536 50.3028C48.2095 50.6538 47.7415 50.8559 47.2501 50.8657ZM47.2501 47.743C47.0866 47.743 46.9247 47.7752 46.7737 47.8378C46.6226 47.9004 46.4853 47.9921 46.3697 48.1077C46.2541 48.2233 46.1624 48.3606 46.0998 48.5117C46.0372 48.6627 46.005 48.8246 46.005 48.9882C46.005 49.1517 46.0372 49.3136 46.0998 49.4646C46.1624 49.6157 46.2541 49.753 46.3697 49.8686C46.4853 49.9842 46.6226 50.0759 46.7737 50.1385C46.9247 50.2011 47.0866 50.2333 47.2501 50.2333C47.5804 50.2333 47.8971 50.1021 48.1306 49.8686C48.3641 49.6351 48.4953 49.3184 48.4953 48.9882C48.4953 48.6579 48.3641 48.3412 48.1306 48.1077C47.8971 47.8742 47.5804 47.743 47.2501 47.743Z" fill="#562C13"/>
<path d="M40.3477 65.7512C40.6969 65.7573 41.0437 65.6938 41.368 65.5644C41.6923 65.4349 41.9876 65.2422 42.2367 64.9975C42.4857 64.7527 42.6835 64.4608 42.8185 64.1388C42.9536 63.8168 43.0231 63.4711 43.0231 63.1219C43.0231 62.7727 42.9536 62.427 42.8185 62.105C42.6835 61.783 42.4857 61.4911 42.2367 61.2463C41.9876 61.0016 41.6923 60.8089 41.368 60.6795C41.0437 60.5501 40.6969 60.4865 40.3477 60.4926C39.6583 60.5046 39.0012 60.7868 38.5178 61.2786C38.0345 61.7704 37.7637 62.4324 37.7637 63.1219C37.7637 63.8114 38.0345 64.4734 38.5178 64.9652C39.0012 65.457 39.6583 65.7393 40.3477 65.7512Z" fill="#FCD7C1"/>
<path d="M40.3468 66.067C39.5651 66.0677 38.8151 65.7579 38.2618 65.2056C37.7085 64.6534 37.3972 63.9039 37.3965 63.1222C37.3957 62.3405 37.7056 61.5904 38.2578 61.0372C38.8101 60.4839 39.5595 60.1726 40.3412 60.1719C40.7283 60.1715 41.1117 60.2474 41.4694 60.3952C41.8272 60.543 42.1523 60.7598 42.4263 61.0332C42.7002 61.3067 42.9177 61.6314 43.0661 61.9889C43.2146 62.3464 43.2912 62.7296 43.2916 63.1166C43.2919 63.5037 43.216 63.8871 43.0683 64.2448C42.9205 64.6026 42.7037 64.9277 42.4302 65.2017C42.1568 65.4756 41.832 65.6931 41.4746 65.8415C41.1171 65.99 40.7339 66.0666 40.3468 66.067ZM40.3468 60.8067C40.0393 60.8009 39.7338 60.8564 39.448 60.9699C39.1622 61.0835 38.902 61.2529 38.6824 61.4682C38.4629 61.6836 38.2884 61.9405 38.1693 62.224C38.0501 62.5075 37.9887 62.8119 37.9885 63.1194C37.9884 63.4269 38.0495 63.7314 38.1683 64.015C38.2872 64.2986 38.4614 64.5557 38.6807 64.7713C38.9001 64.9868 39.1602 65.1565 39.4458 65.2703C39.7315 65.3842 40.037 65.44 40.3444 65.4345C40.9507 65.4236 41.5285 65.1752 41.9535 64.7427C42.3785 64.3102 42.6168 63.7281 42.6171 63.1218C42.6174 62.5154 42.3797 61.9331 41.9551 61.5002C41.5306 61.0673 40.9531 60.8182 40.3468 60.8067Z" fill="#562C13"/>
<path d="M110.37 44.7212C111.656 44.7212 112.89 44.2104 113.799 43.301C114.708 42.3917 115.219 41.1583 115.219 39.8723C115.219 38.5863 114.708 37.353 113.799 36.4436C112.89 35.5343 111.656 35.0234 110.37 35.0234C109.084 35.0234 107.851 35.5343 106.942 36.4436C106.032 37.353 105.521 38.5863 105.521 39.8723C105.521 41.1583 106.032 42.3917 106.942 43.301C107.851 44.2104 109.084 44.7212 110.37 44.7212Z" fill="#FCD7C1"/>
<path d="M110.367 45.035C109.345 45.035 108.347 44.732 107.497 44.1643C106.648 43.5967 105.985 42.7899 105.594 41.846C105.203 40.902 105.101 39.8633 105.3 38.8612C105.5 37.8591 105.992 36.9387 106.714 36.2162C107.437 35.4937 108.357 35.0017 109.359 34.8024C110.361 34.6031 111.4 34.7054 112.344 35.0964C113.288 35.4874 114.095 36.1495 114.662 36.999C115.23 37.8485 115.533 38.8473 115.533 39.869C115.532 41.2387 114.987 42.5518 114.018 43.5203C113.05 44.4888 111.737 45.0335 110.367 45.035ZM110.367 35.3372C109.697 35.3375 109.035 35.4863 108.43 35.7729C107.824 36.0595 107.29 36.4768 106.865 36.9948C106.439 37.5128 106.135 38.1185 105.972 38.7684C105.809 39.4184 105.792 40.0963 105.922 40.7535C106.053 41.411 106.327 42.0314 106.726 42.5699C107.125 43.1084 107.639 43.5516 108.23 43.8675C108.821 44.1835 109.475 44.3643 110.144 44.3969C110.814 44.4295 111.482 44.3131 112.101 44.0561C112.79 43.7711 113.397 43.3207 113.87 42.7446C114.343 42.1686 114.666 41.4848 114.811 40.7539C114.957 40.023 114.919 39.2676 114.703 38.5545C114.486 37.8415 114.097 37.1929 113.57 36.6663C112.72 35.8166 111.569 35.3386 110.367 35.3372Z" fill="#562C13"/>
<path d="M108.583 39.1232C108.686 38.7665 108.629 38.2125 107.984 38.2125C107.922 38.2156 107.862 38.2314 107.807 38.259C107.751 38.2865 107.702 38.3252 107.663 38.3727C107.623 38.4201 107.594 38.4751 107.576 38.5345C107.559 38.5938 107.554 38.656 107.562 38.7174C107.562 38.8014 107.528 38.8821 107.469 38.9415C107.409 39.001 107.329 39.0344 107.245 39.0344C107.161 39.0344 107.08 39.001 107.021 38.9415C106.961 38.8821 106.928 38.8014 106.928 38.7174C106.928 36.9499 109.702 37.324 109.206 39.2523C109.206 39.8008 108.423 39.6851 108.583 39.1232Z" fill="#562C13"/>
<path d="M112.855 40.0533C113.049 39.8631 112.917 39.2037 112.37 39.1118C112.287 39.0994 112.202 39.1042 112.121 39.1258C112.04 39.1474 111.964 39.1854 111.899 39.2374C111.833 39.2893 111.778 39.3542 111.739 39.428C111.699 39.5018 111.675 39.583 111.667 39.6665C111.662 39.7081 111.649 39.7482 111.628 39.7845C111.607 39.8207 111.579 39.8523 111.545 39.8774C111.512 39.9025 111.473 39.9206 111.433 39.9305C111.392 39.9405 111.35 39.9421 111.308 39.9352C110.657 39.8425 111.277 38.2827 112.473 38.4872C112.691 38.5192 112.897 38.6072 113.07 38.7427C113.243 38.8781 113.378 39.0563 113.462 39.2598C113.546 39.4632 113.575 39.685 113.547 39.9032C113.519 40.1213 113.435 40.3285 113.302 40.5043C113.242 40.5635 113.162 40.5965 113.077 40.5962C112.993 40.5959 112.912 40.5623 112.853 40.5027C112.824 40.4731 112.8 40.4379 112.784 40.3993C112.769 40.3607 112.761 40.3193 112.761 40.2775C112.761 40.2357 112.77 40.1945 112.786 40.156C112.802 40.1175 112.826 40.0826 112.855 40.0533Z" fill="#562C13"/>
<path d="M108.086 40.6881C108.071 40.6277 108.073 40.5641 108.093 40.5051C108.113 40.446 108.15 40.3941 108.2 40.3559C108.249 40.3177 108.308 40.2948 108.37 40.29C108.433 40.2852 108.495 40.2988 108.549 40.3291C108.586 40.3497 108.617 40.3772 108.643 40.4101C108.669 40.443 108.687 40.4807 108.698 40.5209C108.756 40.7632 108.879 40.9851 109.054 41.1629C109.229 41.3406 109.449 41.4675 109.69 41.5298C109.932 41.5913 110.185 41.5856 110.424 41.5134C110.663 41.4412 110.877 41.3052 111.044 41.12C111.104 41.063 111.184 41.0317 111.267 41.0327C111.349 41.0337 111.428 41.0669 111.487 41.1253C111.545 41.1837 111.579 41.2627 111.58 41.3453C111.581 41.428 111.55 41.5078 111.493 41.5678C111.31 41.7659 111.088 41.9247 110.842 42.0348C110.596 42.1449 110.33 42.204 110.06 42.2084C109.79 42.2128 109.522 42.1626 109.272 42.0607C109.023 41.9587 108.796 41.8073 108.606 41.6154C108.353 41.3589 108.173 41.0384 108.086 40.6881Z" fill="#562C13"/>
<path d="M134.693 21.5376C135.739 21.5376 136.742 21.122 137.482 20.3823C138.222 19.6425 138.637 18.6392 138.637 17.593C138.637 16.5468 138.222 15.5435 137.482 14.8038C136.742 14.064 135.739 13.6484 134.693 13.6484C133.646 13.6484 132.643 14.064 131.903 14.8038C131.164 15.5435 130.748 16.5468 130.748 17.593C130.748 18.6392 131.164 19.6425 131.903 20.3823C132.643 21.122 133.646 21.5376 134.693 21.5376Z" fill="#FCD7C1"/>
<path d="M134.693 21.8529C133.849 21.8534 133.025 21.6038 132.324 21.1357C131.622 20.6676 131.076 20.002 130.753 19.2231C130.43 18.4443 130.345 17.5871 130.509 16.7601C130.674 15.9331 131.08 15.1734 131.676 14.5771C132.272 13.9808 133.031 13.5747 133.858 13.4101C134.685 13.2455 135.542 13.3299 136.321 13.6526C137.1 13.9752 137.766 14.5217 138.234 15.2228C138.703 15.9239 138.953 16.7482 138.953 17.5913C138.951 18.7209 138.502 19.8039 137.704 20.6028C136.905 21.4017 135.822 21.8512 134.693 21.8529ZM134.693 13.9638C134.156 13.963 133.626 14.0814 133.14 14.3105C132.655 14.5395 132.226 14.8735 131.886 15.2882C131.545 15.703 131.3 16.1882 131.17 16.7089C131.04 17.2296 131.027 17.7727 131.132 18.2991C131.236 18.8255 131.456 19.3223 131.775 19.7535C132.094 20.1848 132.506 20.5397 132.979 20.7928C133.452 21.0459 133.976 21.1908 134.512 21.217C135.048 21.2433 135.583 21.1503 136.079 20.9446C136.855 20.6243 137.496 20.0444 137.893 19.3041C138.289 18.5637 138.417 17.7086 138.253 16.8848C138.09 16.061 137.645 15.3194 136.996 14.7867C136.347 14.254 135.532 13.9632 134.693 13.9638Z" fill="#562C13"/>
<path d="M62.5388 86.4565C67.8038 86.4565 72.0717 82.1885 72.0717 76.9236C72.0717 71.6586 67.8038 67.3906 62.5388 67.3906C57.2738 67.3906 53.0059 71.6586 53.0059 76.9236C53.0059 82.1885 57.2738 86.4565 62.5388 86.4565Z" fill="white"/>
<path d="M62.5364 86.7727C61.0799 86.7722 59.6416 86.4489 58.325 85.8259C57.0084 85.203 55.8463 84.2959 54.9222 83.1699C53.9982 82.044 53.3353 80.7272 52.9812 79.3144C52.6271 77.9016 52.5906 76.4278 52.8743 74.9992C53.3534 72.602 54.7065 70.4686 56.6708 69.0135C58.6351 67.5584 61.0702 66.8856 63.5029 67.1258C65.9356 67.366 68.1922 68.5021 69.8339 70.3133C71.4757 72.1245 72.3855 74.4813 72.3864 76.9259C72.3826 79.5368 71.3436 82.0397 69.4971 83.8856C67.6506 85.7315 65.1474 86.7697 62.5364 86.7727ZM62.5364 67.706C60.7137 67.7059 58.9318 68.2463 57.4162 69.259C55.9007 70.2716 54.7194 71.711 54.022 73.395C53.4995 74.6542 53.2628 76.0135 53.329 77.3752C53.3952 78.7368 53.7626 80.0668 54.4048 81.2694C55.0469 82.4719 55.9478 83.517 57.0425 84.3295C58.1372 85.1419 59.3985 85.7014 60.7355 85.9676C62.0725 86.2338 63.4519 86.2002 64.7743 85.8691C66.0967 85.538 67.3293 84.9177 68.3831 84.0529C69.4369 83.1881 70.2858 82.1003 70.8685 80.8679C71.4513 79.6355 71.7534 78.2891 71.7531 76.9259C71.751 74.4818 70.7794 72.1384 69.0515 70.4099C67.3236 68.6814 64.9805 67.7089 62.5364 67.706Z" fill="#562C13"/>
<path d="M58.3834 78.116C57.5195 76.1029 58.3081 74.773 59.3266 74.4814C60.2848 74.1945 61.1701 74.8776 61.9246 75.5339C61.9832 75.5907 62.0177 75.6678 62.0211 75.7494C62.0245 75.8309 61.9965 75.9107 61.9428 75.9722C61.8886 76.0331 61.8131 76.0709 61.7319 76.0778C61.6506 76.0847 61.5698 76.0603 61.5061 76.0094C60.88 75.461 60.1588 74.8911 59.5049 75.0885C59.2705 75.1767 59.0663 75.3303 58.9166 75.531C58.7668 75.7317 58.6778 75.9712 58.66 76.221C58.616 76.7863 58.7215 77.3532 58.9659 77.8648C58.9824 77.9031 58.9912 77.9442 58.9919 77.9858C58.9925 78.0275 58.9848 78.0688 58.9695 78.1076C58.9541 78.1463 58.9312 78.1816 58.9022 78.2115C58.8732 78.2413 58.8386 78.2652 58.8003 78.2817C58.7621 78.2982 58.7209 78.307 58.6793 78.3076C58.6376 78.3082 58.5963 78.3006 58.5576 78.2852C58.5188 78.2698 58.4835 78.247 58.4537 78.2179C58.4238 78.1889 58.3999 78.1543 58.3834 78.116Z" fill="#562C13"/>
<path d="M64.8932 73.1336C64.54 72.5393 64.3551 71.8602 64.3582 71.1688C64.3499 70.9275 64.4051 70.6882 64.5183 70.4748C64.6315 70.2615 64.7988 70.0816 65.0033 69.9532C65.2079 69.8248 65.4426 69.7524 65.6839 69.7432C65.9252 69.734 66.1647 69.7883 66.3785 69.9007C66.932 70.1491 67.3869 70.575 67.6712 71.111C67.6947 71.1576 67.7063 71.2094 67.705 71.2616C67.7037 71.3139 67.6894 71.3649 67.6635 71.4103C67.6376 71.4557 67.6008 71.494 67.5565 71.5217C67.5122 71.5494 67.4617 71.5657 67.4096 71.5691C67.3259 71.5743 67.2435 71.5467 67.1798 71.4922C67.1482 71.4651 67.1223 71.432 67.1037 71.3947C66.8812 70.9811 66.5258 70.6547 66.0947 70.4682C65.9775 70.4049 65.8455 70.374 65.7123 70.3788C65.5791 70.3836 65.4496 70.4239 65.3372 70.4955C65.2248 70.5671 65.1336 70.6674 65.073 70.786C65.0123 70.9047 64.9845 71.0374 64.9923 71.1704C64.9906 71.7514 65.1464 72.3219 65.4433 72.8213C65.4779 72.8937 65.4838 72.9765 65.4598 73.0531C65.4358 73.1297 65.3836 73.1943 65.3138 73.2339C65.244 73.2735 65.1618 73.2852 65.0838 73.2666C65.0057 73.248 64.9376 73.2004 64.8932 73.1336Z" fill="#562C13"/>
<path d="M62.866 77.3336C63.5674 78.7365 65.1264 79.8342 66.4817 79.1415C68.3838 78.1714 67.4676 75.7723 66.4817 74.7031C66.5739 75.0559 66.552 75.4288 66.4191 75.7684C66.2863 76.108 66.0493 76.3968 65.7422 76.5934C65.3637 76.9488 64.9016 77.203 64.3987 77.3324C63.8958 77.4618 63.3683 77.4623 62.8652 77.3336H62.866Z" fill="#FCD7C1"/>
<path d="M62.5791 77.4793C62.5585 77.4388 62.547 77.3943 62.5452 77.3489C62.5434 77.3035 62.5514 77.2583 62.5687 77.2163C62.586 77.1743 62.6122 77.1365 62.6455 77.1056C62.6787 77.0747 62.7182 77.0513 62.7614 77.037C62.8189 77.0176 62.8808 77.0151 62.9397 77.0299C63.3894 77.1474 63.8615 77.1488 64.3119 77.0341C64.7623 76.9193 65.1761 76.692 65.5147 76.3736C65.953 75.99 66.4079 75.4226 66.1821 74.8186C66.1564 74.7498 66.1553 74.6743 66.1791 74.6048C66.2029 74.5354 66.2501 74.4764 66.3126 74.4378C66.3751 74.3993 66.449 74.3836 66.5218 74.3935C66.5945 74.4034 66.6616 74.4383 66.7115 74.4921C68.0913 75.9877 68.5265 78.4351 66.6251 79.4258C65.1176 80.1795 63.3867 79.0921 62.5791 77.4793ZM63.4794 77.7448C65.3451 80.3166 68.4607 78.6895 66.7852 75.6794C66.612 76.1317 66.3231 76.5307 65.9475 76.8365C65.6197 77.1481 65.2317 77.3894 64.8073 77.5455C64.3828 77.7017 63.931 77.7695 63.4794 77.7448Z" fill="#562C13"/>
<path d="M119.155 83.5727C126.547 83.5727 132.539 77.5809 132.539 70.1887C132.539 62.7972 126.547 56.8047 119.155 56.8047C111.764 56.8047 105.771 62.7972 105.771 70.1887C105.771 77.5809 111.764 83.5727 119.155 83.5727Z" fill="#562C13"/>
<path d="M131.816 66.8172C131.895 67.475 131.895 68.2145 131.98 68.8723C135.103 69.7759 136.993 70.7626 136.911 71.5845C136.746 73.2275 128.693 73.7244 118.831 72.6529C108.969 71.5813 101.244 69.3653 101.408 67.7215C101.488 66.8996 103.381 66.4067 106.421 66.1602C106.616 65.4722 106.892 64.8097 107.243 64.1875C100.176 64.3524 95.3152 65.5832 95.0806 67.6391C94.7342 70.6778 105.271 74.2966 118.502 75.6931C131.733 77.0896 142.668 75.8516 143.072 72.8169C143.348 70.7547 138.798 68.5434 131.816 66.8172Z" fill="#FCD7C1"/>
<path d="M128.888 76.583C125.407 76.5727 121.929 76.3825 118.467 76.0132C107.129 74.8156 97.6036 71.9901 95.3052 69.1416C95.1165 68.9359 94.9712 68.6941 94.8782 68.4309C94.7852 68.1676 94.7463 67.8883 94.7639 67.6096C95.1372 64.4925 103.609 63.9599 107.234 63.8751C107.277 63.8742 107.321 63.8822 107.361 63.8986C107.401 63.915 107.438 63.9395 107.468 63.9705C107.499 64.0015 107.522 64.0385 107.538 64.079C107.554 64.1196 107.561 64.1629 107.559 64.2064C107.556 64.2644 107.537 64.3205 107.505 64.3688C107.195 64.8227 106.988 65.3388 106.898 65.881C106.877 66.0316 106.596 66.4683 106.445 66.481C102.147 66.8297 101.743 67.5462 101.722 67.7578C101.609 68.8841 108.076 71.173 118.863 72.342C128.548 73.3898 135.132 72.8532 136.413 71.8142C136.504 71.7549 136.569 71.6626 136.594 71.5566C136.63 71.1904 135.681 70.2782 131.89 69.1789C131.488 69.0624 131.698 68.4379 131.499 66.8591C131.489 66.7822 131.508 66.7044 131.552 66.6406C131.596 66.5767 131.662 66.5312 131.737 66.5127C131.787 66.5002 131.839 66.4999 131.889 66.5119C136.385 67.6215 143.857 69.9255 143.386 72.8691C143.105 75.471 136.736 76.583 128.888 76.583ZM106.68 64.525C100.007 64.7405 95.5992 65.9658 95.3932 67.6817C95.3876 67.8768 95.4205 68.071 95.4902 68.2532C95.5598 68.4355 95.6648 68.6022 95.799 68.7438C97.965 71.4282 107.529 74.2204 118.534 75.3823C132.695 76.8778 142.491 75.2475 142.757 72.7874C143.031 71.0755 138.986 68.9673 132.174 67.2395C132.211 67.7087 132.226 68.1866 132.269 68.632C135.656 69.6322 137.323 70.638 137.225 71.6208C136.782 76.0306 100.649 72.1098 101.091 67.6952C101.188 66.7267 102.765 66.16 106.196 65.866C106.346 65.6797 106.281 65.3152 106.68 64.525Z" fill="#562C13"/>
<path d="M113.033 63.8025C112.726 63.1772 112.038 63.2667 111.635 63.7415C111.246 64.2718 111.065 64.9268 111.127 65.5818C111.356 66.498 112.029 66.6026 112.464 66.1564C112.81 65.8855 113.054 65.5057 113.158 65.0785C113.261 64.6513 113.217 64.2017 113.033 63.8025Z" fill="white"/>
<path d="M123.221 65.2045C123.118 65.0188 122.947 64.8802 122.744 64.8176C122.541 64.7551 122.322 64.7736 122.133 64.8693C122.007 64.9327 121.9 65.0278 121.822 65.1451C121.433 65.6756 121.253 66.33 121.315 66.9846C121.823 69.0168 124.034 66.8277 123.221 65.2045Z" fill="white"/>
<path d="M114.725 69.8135C114.485 69.3832 114.356 68.8995 114.35 68.4066C114.344 67.9137 114.462 67.4271 114.692 66.9912C114.731 66.9197 114.797 66.8663 114.875 66.8422C114.953 66.8181 115.037 66.8252 115.11 66.862C115.183 66.8988 115.239 66.9619 115.266 67.0386C115.294 67.1152 115.291 67.1995 115.259 67.2742C114.904 68.0667 116.836 68.8799 117.766 67.764C117.81 67.7133 117.869 67.678 117.935 67.663C118 67.6481 118.069 67.6542 118.13 67.6807C118.192 67.7071 118.244 67.7524 118.278 67.8101C118.312 67.8678 118.327 67.9349 118.321 68.0017C118.108 70.1535 115.882 71.2029 114.725 69.8135ZM114.977 68.3417C114.968 68.7309 115.061 69.1145 115.246 69.4569C115.78 70.0838 116.956 69.8532 117.477 68.7436C117.067 68.932 116.611 68.9945 116.166 68.9229C115.721 68.8514 115.307 68.6491 114.977 68.3417Z" fill="white"/>
<path d="M75.6081 57.4544C86.4559 57.4544 95.2493 48.6609 95.2493 37.8131C95.2493 26.9653 86.4559 18.1719 75.6081 18.1719C64.7603 18.1719 55.9668 26.9646 55.9668 37.8131C55.9668 48.6617 64.7603 57.4544 75.6081 57.4544Z" fill="#FCD7C1"/>
<path d="M75.6048 57.776C71.6574 57.776 67.7987 56.6054 64.5166 54.4124C61.2344 52.2193 58.6763 49.1023 57.1657 45.4554C55.6551 41.8085 55.2599 37.7955 56.03 33.924C56.8001 30.0525 58.7009 26.4962 61.4921 23.705C64.2834 20.9138 67.8396 19.013 71.7111 18.2429C75.5826 17.4728 79.5956 17.868 83.2425 19.3786C86.8894 20.8892 90.0064 23.4473 92.1995 26.7294C94.3925 30.0116 95.5631 33.8703 95.5631 37.8177C95.5576 43.1093 93.4531 48.1826 89.7114 51.9243C85.9697 55.666 80.8964 57.7705 75.6048 57.776ZM75.6048 18.4934C71.7824 18.4931 68.0457 19.6263 64.8673 21.7498C61.689 23.8732 59.2117 26.8915 57.7488 30.4229C56.2858 33.9543 55.903 37.8402 56.6486 41.5892C57.3943 45.3381 59.2349 48.7818 61.9378 51.4847C64.6406 54.1875 68.0843 56.0282 71.8333 56.7738C75.5823 57.5195 79.4682 57.1366 82.9996 55.6737C86.531 54.2108 89.5493 51.7335 91.6727 48.5551C93.7961 45.3768 94.9293 41.6401 94.929 37.8177C94.9236 32.6942 92.8859 27.7822 89.2631 24.1594C85.6402 20.5366 80.7282 18.4989 75.6048 18.4934Z" fill="#562C13"/>
<path d="M56.5403 18.8972C56.3168 18.8972 56.6758 19.2618 52.0164 13.27C51.9676 13.2034 51.9467 13.1203 51.9582 13.0386C51.9696 12.9568 52.0126 12.8827 52.0779 12.8321C52.1431 12.7815 52.2256 12.7584 52.3076 12.7676C52.3897 12.7769 52.4649 12.8178 52.5173 12.8816L56.7908 18.3876C56.8266 18.4344 56.8487 18.4904 56.8544 18.5491C56.8602 18.6079 56.8495 18.667 56.8235 18.72C56.7974 18.773 56.7571 18.8176 56.7071 18.8489C56.6571 18.8802 56.5993 18.8969 56.5403 18.8972Z" fill="#FCD7C1"/>
<path d="M74.4686 12.2809L73.9756 6.20034C73.9706 6.13811 73.9841 6.07577 74.0145 6.02124C74.0449 5.9667 74.0908 5.92241 74.1464 5.89398C74.202 5.86554 74.2648 5.85425 74.3268 5.86152C74.3888 5.8688 74.4473 5.89431 74.4948 5.93483C74.5587 5.9889 74.5993 6.06556 74.6081 6.14883L75.1011 12.2302C75.1078 12.314 75.0809 12.3971 75.0264 12.4612C74.9718 12.5253 74.8941 12.565 74.8102 12.5717C74.7263 12.5785 74.6432 12.5516 74.5792 12.4971C74.5151 12.4425 74.4753 12.3647 74.4686 12.2809Z" fill="#FCD7C1"/>
<path d="M95.4943 16.6043C95.4377 16.6042 95.3821 16.589 95.3334 16.5602C95.2846 16.5313 95.2445 16.49 95.2171 16.4404C95.1898 16.3908 95.1762 16.3348 95.1779 16.2782C95.1795 16.2216 95.1963 16.1664 95.2264 16.1185L98.4315 11.0239C98.4664 10.9747 98.5147 10.9365 98.5706 10.9138C98.6265 10.8911 98.6878 10.8849 98.7471 10.8959C98.8064 10.9069 98.8614 10.9347 98.9055 10.9759C98.9495 11.0171 98.9809 11.0701 98.9958 11.1285C99.0165 11.2067 99.0062 11.2898 98.9673 11.3607C95.4967 16.8785 95.7448 16.6043 95.4943 16.6043Z" fill="#FCD7C1"/>
<path d="M109.386 49.6395L103.168 48.5656C103.087 48.5493 103.015 48.502 102.968 48.4338C102.921 48.3656 102.903 48.2819 102.917 48.2002C102.931 48.1186 102.976 48.0457 103.044 47.9973C103.111 47.9488 103.194 47.9287 103.276 47.9411L109.439 49.0095C109.498 49.0187 109.553 49.0444 109.598 49.0837C109.643 49.123 109.676 49.1742 109.693 49.2314C109.71 49.2886 109.711 49.3495 109.695 49.407C109.679 49.4645 109.647 49.5163 109.603 49.5563C109.544 49.6106 109.466 49.6403 109.386 49.6395Z" fill="#FCD7C1"/>
<path d="M58.3981 65.6114L60.9453 60.845C60.9867 60.774 61.0539 60.7219 61.1328 60.6995C61.2118 60.6771 61.2964 60.6863 61.3688 60.725C61.4412 60.7637 61.4957 60.8289 61.521 60.9071C61.5462 60.9852 61.5402 61.07 61.5041 61.1438L58.9568 65.9102C58.9152 65.9807 58.848 66.0325 58.7692 66.0548C58.6903 66.0771 58.606 66.0682 58.5336 66.0299C58.4608 65.9917 58.4059 65.9265 58.3805 65.8483C58.3552 65.7701 58.3615 65.6851 58.3981 65.6114Z" fill="#FCD7C1"/>
<path d="M85.9847 64.9372L84.7523 60.4196C84.7339 60.3398 84.747 60.256 84.789 60.1857C84.831 60.1154 84.8985 60.0641 84.9775 60.0425C85.0564 60.0209 85.1407 60.0307 85.2126 60.0698C85.2846 60.1089 85.3386 60.1743 85.3633 60.2523L86.5966 64.7699C86.6081 64.8101 86.6113 64.8521 86.6061 64.8935C86.601 64.9349 86.5875 64.9748 86.5664 65.0109C86.5349 65.0649 86.4883 65.1084 86.4322 65.1361C86.3761 65.1637 86.3132 65.1743 86.2512 65.1664C86.1892 65.1586 86.1309 65.1326 86.0835 65.0919C86.0361 65.0511 86.0017 64.9973 85.9847 64.9372Z" fill="#FCD7C1"/>
<path d="M68.7714 38.188C68.437 37.0626 67.6397 36.339 66.9533 36.5419C66.1156 36.7907 66.0704 38.0438 66.328 38.9132C66.5903 39.7961 67.329 40.8035 68.1461 40.5601C68.8309 40.3565 69.1051 39.315 68.7714 38.188Z" fill="#562C13"/>
<path d="M85.7961 33.1771C85.5377 32.3053 84.8125 31.2789 83.9779 31.531C83.1434 31.783 83.099 33.044 83.3534 33.9015C83.6158 34.786 84.3592 35.791 85.1708 35.5484C85.8532 35.3456 86.1298 34.3033 85.7961 33.1771Z" fill="#562C13"/>
<path d="M72.914 41.2441C72.8559 41.1832 72.8243 41.1018 72.8263 41.0177C72.8282 40.9335 72.8635 40.8536 72.9243 40.7955C72.9852 40.7374 73.0666 40.7058 73.1507 40.7077C73.2349 40.7097 73.3148 40.7449 73.3729 40.8058C75.8378 43.3888 80.3728 41.7569 80.6343 38.3711C80.6426 38.2878 80.6826 38.211 80.7461 38.1565C80.8096 38.102 80.8916 38.0741 80.9751 38.0786C81.0167 38.0817 81.0572 38.0931 81.0944 38.112C81.1315 38.1309 81.1645 38.157 81.1915 38.1888C81.2185 38.2205 81.2391 38.2569 81.2526 38.2965C81.2652 38.3362 81.27 38.3782 81.2668 38.4194C80.9569 42.4329 75.6935 44.1552 72.914 41.2441Z" fill="#562C13"/>
<path d="M43.2263 41.3396C43.1422 41.3439 43.0598 41.3147 42.9973 41.2583C42.9348 41.2019 42.8973 41.1229 42.893 41.0388C42.8887 40.9548 42.918 40.8724 42.9744 40.8099C43.0308 40.7474 43.1097 40.7099 43.1938 40.7056L47.961 40.2126C48.0027 40.2083 48.0447 40.2123 48.0848 40.2243C48.1249 40.2363 48.1623 40.2561 48.1947 40.2825C48.2272 40.3089 48.2541 40.3415 48.274 40.3783C48.2939 40.4151 48.3063 40.4555 48.3105 40.4971C48.3148 40.5388 48.3108 40.5808 48.2989 40.6209C48.2869 40.661 48.2671 40.6984 48.2407 40.7308C48.2143 40.7633 48.1817 40.7902 48.1449 40.8101C48.108 40.83 48.0677 40.8424 48.026 40.8466L43.2263 41.3396Z" fill="#FCD7C1"/>
<path d="M45.6941 64.1788C45.6524 64.1796 45.6111 64.1721 45.5724 64.1567C45.5337 64.1414 45.4984 64.1186 45.4685 64.0895C45.4387 64.0605 45.4149 64.0259 45.3985 63.9876C45.3821 63.9493 45.3735 63.9082 45.3731 63.8666C45.372 63.7825 45.4043 63.7015 45.4628 63.6412C45.5213 63.5809 45.6013 63.5462 45.6853 63.5448C61.7228 63.2801 86.1187 57.7646 107.354 47.4693C107.429 47.4326 107.517 47.4275 107.596 47.455C107.675 47.4826 107.741 47.5406 107.777 47.6163C107.814 47.6919 107.819 47.7791 107.792 47.8585C107.764 47.938 107.706 48.0032 107.63 48.0399C85.8666 58.5913 60.9517 64.0528 45.6941 64.1788Z" fill="#FCD7C1"/>
<path d="M35.8549 53.2755C34.4401 48.4504 41.9695 41.5987 55.504 35.3921C55.58 35.3601 55.6654 35.3589 55.7422 35.3888C55.8191 35.4186 55.8812 35.4773 55.9155 35.5522C55.9499 35.6271 55.9537 35.7125 55.9261 35.7902C55.8986 35.8679 55.8418 35.9318 55.768 35.9683C42.7422 41.9419 35.1614 48.6652 36.4628 53.0964C39.2288 62.4343 77.8432 57.6679 104.214 42.8002C104.287 42.7654 104.371 42.7596 104.448 42.7841C104.525 42.8086 104.59 42.8615 104.629 42.9321C104.669 43.0027 104.68 43.0857 104.661 43.1642C104.641 43.2427 104.593 43.311 104.525 43.355C78.3718 58.0974 38.8793 63.4845 35.8549 53.2755Z" fill="#562C13"/>
<path d="M50.2785 51.5939C50.2028 51.5648 50.1411 51.5076 50.1064 51.4342C50.0718 51.3609 50.0667 51.277 50.0923 51.2C50.1175 51.1228 50.1713 51.0583 50.2427 51.0197C50.314 50.981 50.3975 50.9712 50.4759 50.9923C55.9445 52.7867 66.7757 51.754 78.0633 48.3594C93.6419 43.7348 105.232 36.28 103.901 31.741C103.681 31.0687 103.236 30.4931 102.64 30.1123C102.571 30.0668 102.523 29.996 102.505 29.9152C102.488 29.8345 102.503 29.7501 102.547 29.6803C102.591 29.6103 102.66 29.5601 102.74 29.5404C102.82 29.5207 102.905 29.5331 102.976 29.5749C103.7 30.0366 104.24 30.7353 104.506 31.5516C107.347 41.2375 65.1097 56.4641 50.2785 51.5939Z" fill="#562C13"/>
</svg>
