<svg width="48" height="48" viewBox="0 0 48 48" fill="none" xmlns="http://www.w3.org/2000/svg">
<g clip-path="url(#clip0_5256_125133)">
<rect y="-0.000488281" width="48" height="48" rx="24" fill="#CAC2FF"/>
<mask id="mask0_5256_125133" style="mask-type:luminance" maskUnits="userSpaceOnUse" x="1" y="32" width="45" height="24">
<path d="M1.0127 37.5143C1.0127 37.5143 2.79605 46.7652 2.9778 46.9465C3.15906 47.1278 23.1423 55.2603 23.1423 55.2603C23.1423 55.2603 36.021 53.174 36.021 52.9625C36.021 52.7509 45.2715 39.0255 45.2715 39.0255C45.2715 39.0255 44.3343 37.7258 42.0067 36.1536C41.6293 35.8992 41.0229 35.6511 40.2685 35.4126C40.1041 35.3607 39.9325 35.3088 39.7545 35.2578C39.7536 35.2573 39.7521 35.2573 39.7512 35.2568C39.1612 35.0871 38.5025 34.9222 37.8068 34.7635C35.9191 36.2007 27.762 33.2658 26.6258 33.6351C25.6233 33.9606 24.703 34.9208 24.1929 36.0848C24.1881 36.0944 24.1838 36.1045 24.1794 36.1146C24.1155 36.2632 24.0578 36.4147 24.0078 36.5685C23.9943 36.6108 23.9809 36.6531 23.9684 36.6955C23.9684 36.6955 23.953 36.6479 23.9222 36.5647C23.7102 35.9887 22.7774 33.6952 21.3041 33.5043C20.0896 33.347 17.861 33.2235 16.083 32.8984C15.0901 33.1643 13.7476 33.4846 12.3398 33.8077C12.1119 33.8601 11.8821 33.9125 11.6522 33.9644C11.1695 34.0745 10.6843 34.1837 10.2078 34.2899C7.62393 34.8688 5.2987 35.3727 5.003 35.4886C4.30774 35.7607 1.0127 37.5143 1.0127 37.5143Z" fill="white"/>
</mask>
<g mask="url(#mask0_5256_125133)">
<path d="M1.0127 37.5148C1.0127 37.5148 2.79605 46.7657 2.9778 46.947C3.15906 47.1282 23.1423 55.2608 23.1423 55.2608C23.1423 55.2608 36.021 53.1745 36.021 52.963C36.021 52.7514 45.2715 39.026 45.2715 39.026C45.2715 39.026 44.3343 37.7263 42.0067 36.1541C41.6293 35.8997 41.0229 35.6516 40.2685 35.4131C40.1041 35.3612 39.9325 35.3093 39.7545 35.2583C39.7536 35.2578 39.7521 35.2578 39.7512 35.2573C39.1612 35.0876 38.5025 34.9227 37.8068 34.764C35.9191 36.2012 27.762 33.2663 26.6258 33.6355C25.6233 33.9611 24.703 34.9212 24.1929 36.0853C24.1881 36.0949 24.1838 36.105 24.1794 36.1151C24.1155 36.2637 24.0578 36.4151 24.0078 36.569C23.9943 36.6113 23.9809 36.6536 23.9684 36.6959C23.9684 36.6959 23.953 36.6483 23.9222 36.5652C23.7102 35.9891 22.7774 33.6956 21.3041 33.5048C20.0896 33.3475 17.861 33.224 16.083 32.8989C15.0901 33.1648 13.7476 33.485 12.3398 33.8082C12.1119 33.8606 11.8821 33.913 11.6522 33.9649C11.1695 34.075 10.6843 34.1842 10.2078 34.2904C7.62393 34.8693 5.2987 35.3732 5.003 35.4891C4.30774 35.7612 1.0127 37.5148 1.0127 37.5148Z" fill="#4C70F5" stroke="black" stroke-width="0.427393" stroke-linecap="round" stroke-linejoin="round"/>
<path d="M32.9434 44.9502L28.8723 40.9546L27.5342 45.9214L32.9434 44.9502Z" fill="#F5D256" stroke="black" stroke-width="0.427393" stroke-linecap="round" stroke-linejoin="round"/>
<path d="M18.5095 45.5518L18.9365 39.8633L14.2783 42.0443L18.5095 45.5518Z" fill="#49A2A6" stroke="black" stroke-width="0.427393" stroke-linecap="round" stroke-linejoin="round"/>
<path d="M10.3003 44.9419L5.4248 47.9037L9.90843 50.4242L10.3003 44.9419Z" fill="#F5D256" stroke="black" stroke-width="0.427393" stroke-linecap="round" stroke-linejoin="round"/>
<path d="M42.1924 35.0327L37.3174 37.9941L41.801 40.5145L42.1924 35.0327Z" fill="#49A2A6" stroke="black" stroke-width="0.427393" stroke-linecap="round" stroke-linejoin="round"/>
<path d="M9.98672 41.493L11.0902 35.1582L3.375 38.7706L9.98672 41.493Z" fill="#BF9EF9" stroke="black" stroke-width="0.427393" stroke-linecap="round" stroke-linejoin="round"/>
<path d="M32.0878 38.8548L33.1918 32.5205L25.4766 36.1329L32.0878 38.8548Z" fill="#E938B5" stroke="black" stroke-width="0.427393" stroke-linecap="round" stroke-linejoin="round"/>
<path d="M37.6035 44.1915L40.7033 49.8247L44.4648 42.1812L37.6035 44.1915Z" fill="#BF9EF9" stroke="black" stroke-width="0.427393" stroke-linecap="round" stroke-linejoin="round"/>
<path d="M15.7535 37.386L21.6113 34.7333L14.2832 30.3887L15.7535 37.386Z" fill="#F5D256" stroke="black" stroke-width="0.427393" stroke-linecap="round" stroke-linejoin="round"/>
</g>
<path opacity="0.52" d="M24.0068 36.5684C24.0102 36.5838 24.0136 36.5987 24.0169 36.6141L24.1578 37.7724C24.1737 36.8406 25.0646 36.1184 25.9796 35.9434C26.8946 35.7684 27.8313 35.9996 28.7443 36.1857C30.3974 36.5218 32.0807 36.7117 33.7669 36.7516C36.009 36.8045 38.3496 36.5627 40.2676 35.4126C40.1032 35.3606 39.9315 35.3087 39.7536 35.2577C39.7526 35.2573 39.7512 35.2573 39.7502 35.2568C39.1603 35.087 38.5016 34.9221 37.8058 34.7635C35.9181 36.2006 27.7611 33.2657 26.6249 33.635C25.6137 33.9634 24.6862 34.937 24.1785 36.1146C24.1145 36.2631 24.0568 36.4146 24.0068 36.5684Z" fill="#0B41B7"/>
<path opacity="0.52" d="M11.6504 33.9644C14.1848 35.3174 17.3163 35.0554 19.9565 36.2021C20.8859 36.6055 21.7408 37.1811 22.464 37.8908C22.7111 38.1326 23.0602 38.4115 23.3597 38.2389C23.4521 38.186 23.5174 38.097 23.5761 38.0081C23.8906 37.5277 24.193 36.7185 24.1911 36.0848C24.1863 36.0944 24.1819 36.1045 24.1776 36.1146C24.1137 36.2632 24.056 36.4147 24.006 36.5685C23.9925 36.6108 23.979 36.6531 23.9665 36.6955C23.9665 36.6955 23.9511 36.6479 23.9204 36.5647C23.7083 35.9887 22.7755 33.6952 21.3023 33.5043C20.0878 33.347 17.8592 33.2235 16.0811 32.8984C15.0882 33.1643 13.7458 33.4846 12.338 33.8077C12.1101 33.8601 11.8802 33.9125 11.6504 33.9644Z" fill="#0B41B7"/>
<path d="M16.4337 17.6961C16.8558 18.4058 18.0531 19.176 18.9532 19.6833C19.2594 21.5368 18.8729 25.1463 18.4541 28.037C18.3738 28.5909 18.292 29.1188 18.2141 29.6026C18.0545 30.594 17.9098 31.4018 17.8194 31.8754C19.4359 32.0903 21.1577 32.1393 21.8842 32.1942C22.9314 32.273 23.4853 34.4059 23.7541 35.7094C23.8325 36.0878 23.8863 36.3965 23.9214 36.5648C23.9522 36.648 23.9676 36.6956 23.9676 36.6956C23.9777 36.2657 24.0315 35.8666 24.1191 35.4974C24.1503 35.3652 24.1864 35.2368 24.2263 35.1122C24.2734 34.9651 24.3258 34.8233 24.3835 34.6867C24.8504 33.5808 25.6404 32.8298 26.3962 32.4254C26.702 32.262 27.1559 32.224 27.7185 32.2668C27.6367 31.9249 27.6026 31.4455 27.5958 30.9214C27.5886 30.3041 27.6199 29.6247 27.6574 29.0371C27.7031 28.3298 27.7584 27.7553 27.767 27.5793C28.9354 27.9889 30.1764 28.1462 31.3568 27.7793C31.6088 27.7009 31.8578 27.599 32.103 27.4701C36.3861 25.2218 33.6301 18.5846 31.5203 14.7011C30.5784 12.9672 29.7653 11.7825 29.7653 11.7825C29.6836 11.7291 29.0797 11.608 28.2377 11.4906H28.2373C26.039 11.1839 22.2174 10.9016 21.827 11.908C21.2875 13.3 22.3415 14.0601 22.0573 14.6285C21.7731 15.1963 21.1769 16.6166 21.1769 16.6166C21.1769 16.6166 21.0817 16.4132 20.9149 16.1262C20.4721 15.3641 19.5263 14.014 18.5353 14.3443C18.0781 14.4967 17.6117 14.7895 17.2203 15.1569C17.1693 15.204 17.1198 15.253 17.0717 15.303C16.3846 16.0166 15.9928 16.9551 16.4337 17.6961Z" fill="#CC927A" stroke="black" stroke-width="0.427393" stroke-linecap="round" stroke-linejoin="round"/>
<path d="M31.0809 23.5664C30.9885 24.3834 30.8414 25.2046 30.928 26.0225C30.9914 26.622 31.1785 27.2 31.3564 27.7789C31.6083 27.7005 31.8574 27.5986 32.1026 27.4697C36.3857 25.2214 33.6297 18.5842 31.5198 14.7007C30.5779 12.9668 29.7649 11.7821 29.7649 11.7821C29.6831 11.7287 29.0792 11.6076 28.2373 11.4902C30.5255 15.0319 31.5545 19.3752 31.0809 23.5664Z" fill="#FFC7B3"/>
<path d="M17.2207 15.1562C17.8679 15.2042 18.5093 15.3067 19.0949 15.5769C19.5358 15.7807 19.9441 16.0789 20.4225 16.1635C20.5859 16.1928 20.7662 16.1904 20.9153 16.1255C20.4725 15.3634 19.5267 14.0133 18.5357 14.3436C18.0785 14.496 17.6121 14.7888 17.2207 15.1562Z" fill="#FFC7B3"/>
<path d="M23.2295 24.7617C23.2295 24.7617 23.3223 29.3338 27.5944 29.955L27.7665 27.5783C27.7665 27.5783 24.5719 26.2354 23.2295 24.7617Z" fill="#B27059"/>
<path d="M17.8193 31.8754C19.4358 32.0903 21.1577 32.1393 21.8842 32.1941C22.9314 32.273 23.4853 34.4059 23.7541 35.7094C23.8565 35.6854 23.9536 35.6479 24.0387 35.5772C24.0676 35.5531 24.0945 35.5267 24.119 35.4974C24.1926 35.4103 24.2488 35.3017 24.2902 35.1786C24.3402 35.031 24.369 34.8627 24.3835 34.6867C24.4243 34.1828 24.3455 33.6169 24.2907 33.2919C24.2176 32.8601 24.0608 32.4312 23.8166 32.0701C23.6334 31.7984 23.4011 31.5662 23.1175 31.4003C22.1727 30.8469 20.96 31.1561 19.9042 30.8671C19.2676 30.6926 18.6959 30.292 18.3141 29.7535C18.279 29.704 18.2458 29.654 18.2141 29.6025C18.0545 30.594 17.9097 31.4018 17.8193 31.8754Z" fill="#B27059"/>
<path d="M24.1892 35.1574C24.1825 35.1204 24.1753 35.0839 24.169 35.0468C24.0863 34.9497 24.0142 34.8439 23.9531 34.73L24.1892 35.1574Z" fill="#B27059"/>
<path d="M23.8169 32.4225C23.891 33.3024 24.0088 34.1784 24.1694 35.0468C24.1876 35.0689 24.2064 35.0905 24.2266 35.1117C24.2473 35.1343 24.2684 35.1564 24.2905 35.1781C24.3405 35.0304 24.3694 34.8622 24.3838 34.6862C24.8507 33.5803 25.6407 32.8293 26.3965 32.4249C26.7023 32.2614 27.1562 32.2234 27.7188 32.2662C27.637 31.9244 27.6029 31.445 27.5962 30.9209C27.1678 31.2089 26.8283 31.67 26.3268 31.796C25.694 31.9556 25.0464 31.5243 24.3968 31.5883C24.2122 31.6065 24.0194 31.6739 23.9107 31.8244C23.8583 31.897 23.8304 31.9806 23.8169 32.0691C23.7996 32.184 23.8073 32.3061 23.8169 32.4225Z" fill="#B27059"/>
<path d="M16.4337 17.6961C16.8558 18.4058 18.0531 19.1761 18.9532 19.6834C19.2594 21.5369 18.8729 25.1464 18.4541 28.0371C18.2093 29.7267 17.9535 31.171 17.8194 31.8754C19.4359 32.0904 21.1577 32.1394 21.8842 32.1942C23.2353 32.2962 23.7652 35.8177 23.9214 36.5649C23.9522 36.648 23.9676 36.6956 23.9676 36.6956C24.021 34.4536 25.2485 33.0395 26.3962 32.4255C26.702 32.262 27.1559 32.224 27.7185 32.2668C27.5406 31.5216 27.5877 30.1233 27.6574 29.0372C27.7031 28.3299 27.7584 27.7553 27.767 27.5793C29.1849 28.0765 30.7091 28.2015 32.103 27.4702C36.3861 25.2219 33.6301 18.5847 31.5203 14.7011C30.5784 12.9673 29.7653 11.7826 29.7653 11.7826C29.4706 11.5893 22.367 10.5161 21.827 11.9081C21.2875 13.3 22.3415 14.0602 22.0573 14.6285C21.7731 15.1964 21.1769 16.6167 21.1769 16.6167C21.1769 16.6167 19.8989 13.89 18.5353 14.3444C18.0189 14.5165 17.4905 14.868 17.0717 15.3031C16.3846 16.0166 15.9928 16.9552 16.4337 17.6961Z" stroke="black" stroke-width="0.427393" stroke-linecap="round" stroke-linejoin="round"/>
<path d="M1.01172 37.5143C1.01172 37.5143 2.79507 46.7652 2.97682 46.9465C3.15809 47.1278 23.1413 55.2603 23.1413 55.2603C23.1413 55.2603 36.02 53.174 36.02 52.9625C36.02 52.7509 45.2705 39.0255 45.2705 39.0255C45.2705 39.0255 44.3334 37.7258 42.0057 36.1536C41.5461 35.8434 40.7465 35.5434 39.7536 35.2578C39.7526 35.2573 39.7512 35.2573 39.7502 35.2568C39.1602 35.0871 38.5015 34.9222 37.8058 34.7635C35.9181 36.2007 27.761 33.2658 26.6249 33.6351C25.4512 34.0163 24.391 35.266 23.9674 36.6955C23.9674 36.6955 23.952 36.6479 23.9212 36.5647C23.7092 35.9887 22.7764 33.6952 21.3032 33.5043C20.0886 33.347 17.86 33.2235 16.082 32.8984C15.0891 33.1643 13.7466 33.4846 12.3388 33.8077C9.03944 34.5654 5.3785 35.3415 5.00202 35.4886C4.30676 35.7607 1.01172 37.5143 1.01172 37.5143Z" stroke="black" stroke-width="0.427393" stroke-linecap="round" stroke-linejoin="round"/>
<path d="M18.9531 19.6836C19.5652 20.0288 20.0407 20.2524 20.0407 20.2524" stroke="black" stroke-width="0.427393" stroke-linecap="round" stroke-linejoin="round"/>
<path d="M23.2295 24.7617C24.1762 25.5935 25.8764 26.9163 27.7665 27.5783" stroke="black" stroke-width="0.427393" stroke-linecap="round" stroke-linejoin="round"/>
<path d="M15.1916 10.3938C15.2329 10.5346 15.3599 10.6294 15.4618 10.7351C15.9792 11.2751 15.8676 12.1334 15.9926 12.8709C16.022 13.0436 16.1335 13.2594 16.3042 13.2181C16.1782 13.4229 16.1893 13.7037 16.3311 13.898C16.473 14.0927 16.7365 14.1889 16.9706 14.1321C16.9721 14.2884 16.9038 14.4437 16.7884 14.5485C16.8922 14.7644 16.8773 15.0332 16.7504 15.2361C16.86 15.2072 16.9817 15.2346 17.0716 15.3029C17.4904 14.8678 18.0188 14.5163 18.5352 14.3442C19.8988 13.8898 21.1768 16.6165 21.1768 16.6165C21.1768 16.6165 21.773 15.1962 22.0572 14.6283C22.3413 14.06 21.2874 13.2998 21.8269 11.9079C22.3668 10.5159 29.4704 11.5891 29.7652 11.7824C29.7652 11.7824 30.5782 12.9671 31.5201 14.7009C31.6855 14.3725 31.8125 14.0191 31.8904 13.6571C31.9437 13.4099 31.974 13.1585 31.9784 12.9075C31.9841 12.543 31.9462 12.1574 32.1135 11.8338C31.7976 11.667 31.9034 11.1996 31.8394 10.8481C31.7644 10.4337 31.3937 10.0658 31.4894 9.65523C31.2095 9.43213 31.084 9.03353 31.1845 8.69023C30.7787 8.51714 30.5133 8.06132 30.5633 7.62282C30.2224 7.53146 29.9431 7.24057 29.8657 6.8963C29.6603 7.02756 29.392 7.05449 29.1651 6.9665C29.0579 6.92467 28.9564 6.85832 28.842 6.85351C28.5997 6.84389 28.4145 7.1069 28.1722 7.10882C27.7751 7.11267 27.5991 6.44866 27.2048 6.49722C27.0221 6.51982 26.8971 6.69532 26.7245 6.75927C26.4321 6.86745 26.1345 6.63089 25.9119 6.4126C25.7571 6.7761 25.2811 6.96217 24.9209 6.79966C24.8075 6.74821 24.7065 6.66839 24.5877 6.63089C24.5666 6.62416 24.5449 6.61887 24.5238 6.6155C24.2483 6.56454 23.9699 6.73426 23.7073 6.85255C23.4241 6.98044 23.0174 7.01266 22.8717 6.73859C22.7673 7.04055 22.3562 7.08959 22.0456 7.01602C21.735 6.94198 21.4086 6.8011 21.1105 6.91457C20.834 7.01987 20.546 7.32904 20.3094 7.1521C20.2623 7.117 20.2286 7.06651 20.1801 7.03381C20.0541 6.94823 19.8767 7.0141 19.7651 7.11796C19.6531 7.22181 19.5747 7.35933 19.454 7.45261C19.1848 7.66032 18.7333 7.54877 18.5924 7.23912C18.3337 7.80841 17.4822 7.99016 17.0134 7.57666C16.8586 7.77572 16.8509 8.04786 16.785 8.29115C16.7191 8.53493 16.5263 8.79409 16.2763 8.76043C16.134 8.7412 16.0042 8.62772 15.8633 8.65705C15.7195 8.68638 15.6484 8.84505 15.5998 8.98353C15.4815 9.31914 15.3632 9.65475 15.2445 9.98988C15.1988 10.1202 15.1522 10.2611 15.1916 10.3938Z" fill="#3D0027" stroke="black" stroke-width="0.427393" stroke-linecap="round" stroke-linejoin="round"/>
<path d="M19.9725 18.2114C19.9922 18.0061 19.909 17.8041 19.8018 17.6277C19.5412 17.1997 19.1233 16.8694 18.6464 16.7146C18.4112 16.6386 18.1227 16.6156 17.9463 16.7886" stroke="black" stroke-width="0.427393" stroke-linecap="round" stroke-linejoin="round"/>
<path d="M19.3598 17.1729C19.2959 17.1094 19.1964 17.0926 19.1079 17.1099C19.0194 17.1272 18.9396 17.1734 18.8641 17.2224C18.7463 17.2979 18.6324 17.3825 18.5429 17.4902C18.4535 17.5979 18.3891 17.7306 18.3838 17.8706" stroke="black" stroke-width="0.427393" stroke-linecap="round" stroke-linejoin="round"/>
<path d="M30.2586 17.999C30.3297 18.0466 31.563 20.4425 30.9937 20.7743C30.4245 21.1065 29.333 19.6838 29.333 19.6838" stroke="black" stroke-width="0.427393" stroke-linecap="round" stroke-linejoin="round"/>
<path d="M26.926 20.7227L29.4969 23.2215C29.4969 23.2215 28.5478 24.6529 27.1597 23.5811C25.4984 22.2983 26.926 20.7227 26.926 20.7227Z" fill="white" stroke="black" stroke-width="0.427393" stroke-linecap="round" stroke-linejoin="round"/>
<path d="M24.4826 6.72032C24.4787 6.80158 24.547 6.86649 24.6095 6.9189C24.9576 7.21027 25.3081 7.50309 25.7063 7.7209C26.3015 8.0469 26.9771 8.19066 27.6069 8.44213C28.3709 8.74697 29.0638 9.20807 29.7091 9.71822C30.1904 10.0981 30.6568 10.5169 30.9635 11.0477C31.4265 11.8482 31.4847 12.8296 31.89 13.6571C31.9434 13.4099 31.9737 13.1585 31.978 12.9075C31.9838 12.543 31.9458 12.1574 32.1131 11.8338C31.7973 11.667 31.903 11.1996 31.8391 10.8481C31.7641 10.4337 31.3934 10.0658 31.489 9.65523C31.2092 9.43213 31.0837 9.03353 31.1842 8.69023C30.7784 8.51714 30.513 8.06132 30.563 7.62282C30.2221 7.53146 29.9427 7.24057 29.8653 6.8963C29.66 7.02756 29.3917 7.05449 29.1648 6.9665C29.0576 6.92467 28.9561 6.85832 28.8417 6.85351C28.5993 6.84389 28.4142 7.1069 28.1719 7.10882C27.7747 7.11267 27.5988 6.44866 27.2045 6.49722C27.0218 6.51982 26.8968 6.69532 26.7241 6.75927C26.4318 6.86745 26.1342 6.63089 25.9116 6.4126C25.7567 6.7761 25.2807 6.96217 24.9206 6.79966C24.8071 6.74821 24.7062 6.66839 24.5874 6.63089C24.5662 6.62416 24.5446 6.61887 24.5234 6.6155C24.5023 6.64772 24.4845 6.68234 24.4826 6.72032Z" fill="#6D1151"/>
<path d="M23.9668 36.6953C23.9134 38.9369 23.6201 49.2374 23.6201 49.2374" stroke="black" stroke-width="0.427393" stroke-linecap="round" stroke-linejoin="round"/>
<path d="M27.7182 32.2668C29.2659 32.3841 31.6388 33.113 34.0323 33.5222C36.1373 33.8823 38.288 33.3871 36.8407 32.0562C36.7619 31.9836 36.6681 31.911 36.5614 31.8374C36.5599 31.8369 36.559 31.8359 36.5575 31.835C36.5566 31.8345 36.5561 31.834 36.5561 31.834C34.4992 30.4344 27.6571 29.0371 27.6571 29.0371C27.5874 30.1233 27.5403 31.5215 27.7182 32.2668Z" fill="#0638C4" stroke="black" stroke-width="0.427393" stroke-linecap="round" stroke-linejoin="round"/>
<path d="M14.3334 30.2633C14.3022 31.1773 15.9942 31.6317 17.8203 31.8745C17.9545 31.1701 18.2103 29.7257 18.455 28.0361C18.455 28.0361 16.3043 28.303 15.11 29.1117C14.6623 29.4146 14.3493 29.7935 14.3334 30.2633Z" fill="#0638C4" stroke="black" stroke-width="0.427393" stroke-linecap="round" stroke-linejoin="round"/>
<path d="M23.9668 36.6951C24.3904 35.2656 25.4506 34.016 26.6243 33.6347C27.7604 33.2654 35.9175 36.2003 37.8052 34.7632C37.8677 34.716 37.9235 34.6636 37.9716 34.6064C38.5899 33.8708 38.0389 33.0702 37.4532 32.5192C37.4518 32.5178 37.4499 32.5163 37.4484 32.5149C37.0373 32.1292 36.6104 31.8667 36.5608 31.8369C36.6676 31.9105 36.7613 31.9831 36.8402 32.0557C38.2875 33.3866 36.1368 33.8818 34.0317 33.5217C31.6382 33.1125 29.2654 32.3836 27.7177 32.2663C27.1551 32.2235 26.7012 32.2615 26.3954 32.425C25.2477 33.039 24.0202 34.453 23.9668 36.6951Z" fill="#4C70F5" stroke="black" stroke-width="0.427393" stroke-linecap="round" stroke-linejoin="round"/>
<path d="M23.9671 36.6957C23.9589 36.7241 23.944 36.6741 23.9209 36.5649" stroke="black" stroke-width="0.427393" stroke-linecap="round" stroke-linejoin="round"/>
<path d="M13.4833 31.7799C13.7382 32.3194 14.7916 32.6622 16.0826 32.8983C17.8607 33.2233 20.0893 33.3469 21.3038 33.5041C22.777 33.695 23.7098 35.9885 23.9219 36.5645C23.7656 35.8173 23.2357 32.2958 21.8846 32.1939C21.1581 32.1391 19.4363 32.09 17.8198 31.8751C15.9937 31.6323 14.3017 31.1779 14.3329 30.2639C14.3488 29.7941 14.6618 29.4152 15.1094 29.1123C15.0652 29.1306 13.8867 29.6244 13.4684 30.4947C13.4684 30.4947 13.4684 30.4951 13.4675 30.4961C13.2934 30.8601 13.2521 31.2904 13.4833 31.7799Z" fill="#4C70F5" stroke="black" stroke-width="0.427393" stroke-linecap="round" stroke-linejoin="round"/>
<path d="M15.1084 29.1126L15.1108 29.1118" stroke="black" stroke-width="0.427393" stroke-linecap="round" stroke-linejoin="round"/>
<path d="M12.3389 33.8075C13.7467 33.4844 15.0891 33.1642 16.082 32.8983C14.791 32.6622 13.7376 32.3194 13.4827 31.7799C13.2515 31.2904 13.2928 30.8601 13.4669 30.4961C13.4337 30.5509 12.3706 32.3213 12.3389 33.8075Z" fill="#0638C4" stroke="black" stroke-width="0.427393" stroke-linecap="round" stroke-linejoin="round"/>
<path d="M13.4668 30.497L13.4684 30.4946" stroke="black" stroke-width="0.427393" stroke-linecap="round" stroke-linejoin="round"/>
<path d="M37.9723 34.6072C37.9243 34.6644 37.8685 34.7168 37.806 34.7639C38.5017 34.9226 39.1604 35.0875 39.7504 35.2572C39.7514 35.2577 39.7528 35.2577 39.7538 35.2582C39.1556 34.0009 37.4492 32.5156 37.4492 32.5156C38.0368 33.0666 38.5926 33.8696 37.9723 34.6072Z" fill="#0638C4" stroke="black" stroke-width="0.427393" stroke-linecap="round" stroke-linejoin="round"/>
<path d="M23.1419 38.8761C23.1419 39.2636 23.456 39.5776 23.8434 39.5776C24.2308 39.5776 24.5449 39.2636 24.5449 38.8761V37.7092C24.5449 37.3217 24.2308 37.0077 23.8434 37.0077C23.456 37.0077 23.1419 37.3217 23.1419 37.7092V38.8761Z" fill="#F5D256" stroke="black" stroke-width="0.427393" stroke-linecap="round" stroke-linejoin="round"/>
<path d="M15.1916 10.3938C15.2329 10.5346 15.3599 10.6294 15.4618 10.7351C15.9792 11.2751 15.8676 12.1334 15.9926 12.8709C16.022 13.0436 16.1335 13.2594 16.3042 13.2181C16.1782 13.4229 16.1893 13.7037 16.3311 13.898C16.473 14.0927 16.7365 14.1889 16.9706 14.1321C16.9721 14.2884 16.9038 14.4437 16.7884 14.5485C16.8922 14.7644 16.8773 15.0332 16.7504 15.2361C16.86 15.2072 16.9817 15.2346 17.0716 15.3029C17.4904 14.8678 18.0188 14.5163 18.5352 14.3442C19.8988 13.8898 21.1768 16.6165 21.1768 16.6165C21.1768 16.6165 21.773 15.1962 22.0572 14.6283C22.3413 14.06 21.2874 13.2998 21.8269 11.9079C22.3668 10.5159 29.4704 11.5891 29.7652 11.7824C29.7652 11.7824 30.5782 12.9671 31.5201 14.7009C31.7985 14.148 31.9683 13.5258 31.9784 12.9075C31.9841 12.543 31.9462 12.1574 32.1135 11.8338C31.7976 11.667 31.9034 11.1996 31.8394 10.8481C31.7644 10.4337 31.3937 10.0658 31.4894 9.65523C31.2095 9.43213 31.084 9.03353 31.1845 8.69023C30.7787 8.51714 30.5133 8.06132 30.5633 7.62282C30.2224 7.53146 29.9431 7.24057 29.8657 6.8963C29.6603 7.02756 29.392 7.05449 29.1651 6.9665C29.0579 6.92467 28.9564 6.85832 28.842 6.85351C28.5997 6.84389 28.4145 7.1069 28.1722 7.10882C27.7751 7.11267 27.5991 6.44866 27.2048 6.49722C27.0221 6.51982 26.8971 6.69532 26.7245 6.75927C26.4321 6.86745 26.1345 6.63089 25.9119 6.4126C25.7571 6.7761 25.2811 6.96217 24.9209 6.79966C24.8075 6.74821 24.7065 6.66839 24.5877 6.63089C24.2915 6.53761 23.9905 6.72513 23.7073 6.85255C23.4241 6.98044 23.0174 7.01266 22.8717 6.73859C22.7673 7.04055 22.3562 7.08959 22.0456 7.01602C21.735 6.94198 21.4086 6.8011 21.1105 6.91457C20.834 7.01987 20.546 7.32904 20.3094 7.1521C20.2623 7.117 20.2286 7.06651 20.1801 7.03381C20.0541 6.94823 19.8767 7.0141 19.7651 7.11796C19.6531 7.22181 19.5747 7.35933 19.454 7.45261C19.1848 7.66032 18.7333 7.54877 18.5924 7.23912C18.3337 7.80841 17.4822 7.99016 17.0134 7.57666C16.8586 7.77572 16.8509 8.04786 16.785 8.29115C16.7191 8.53493 16.5263 8.79409 16.2763 8.76043C16.134 8.7412 16.0042 8.62772 15.8633 8.65705C15.7195 8.68638 15.6484 8.84505 15.5998 8.98353C15.4815 9.31914 15.3632 9.65475 15.2445 9.98988C15.1988 10.1202 15.1522 10.2611 15.1916 10.3938Z" stroke="black" stroke-width="0.427393" stroke-linecap="round" stroke-linejoin="round"/>
<path opacity="0.52" d="M13.173 48.1843C13.2182 49.909 13.5471 51.7418 12.7682 53.2809C12.5008 53.8094 12.0614 54.3036 11.4786 54.4089C10.8502 54.5224 10.2434 54.1632 9.70537 53.8194C8.9 53.3045 8.09463 52.7895 7.28927 52.2746C6.70219 51.8991 6.10117 51.5106 5.69295 50.9461C5.20636 50.2725 5.04529 49.4161 5.00971 48.5858C4.95538 47.3188 5.16117 46.0538 5.44245 44.8171C5.9824 42.4404 6.83201 40.0743 8.39034 38.2001C8.712 37.813 9.06781 37.4447 9.50054 37.1865C10.7074 36.4667 12.8374 35.9249 13.4644 37.6044C14.2039 39.5853 13.6659 42.1774 13.4331 44.2098C13.2822 45.5287 13.1379 46.8543 13.173 48.1843Z" fill="#0B41B7"/>
<path d="M12.097 37.2569L7.31432 46.0833C7.31432 46.0833 -2.07604 32.6344 -1.90391 32.669C-1.81304 32.6868 2.15082 31.4347 5.87283 30.2485C6.08102 31.4328 6.59982 33.0103 7.66003 34.3764C8.88755 35.9582 10.7776 36.8987 12.097 37.2569Z" fill="#CC927A" stroke="black" stroke-width="0.427393" stroke-linecap="round" stroke-linejoin="round"/>
<path d="M21.0157 30.6032C20.7253 31.1532 15.8445 32.3255 14.8814 32.1192L14.4987 32.826L13.4491 34.7632L12.8904 35.7936C12.8904 35.7936 11.1008 35.0517 9.59965 33.1842C8.9895 32.425 8.60725 31.7297 8.36828 31.1571C7.9668 30.1974 7.9668 29.581 7.9668 29.581C8.33414 29.4636 8.68995 29.3497 9.0294 29.241C9.69822 29.0266 10.3036 28.8328 10.8079 28.6713C11.7479 28.3698 12.3379 28.1799 12.3379 28.1799C12.3379 28.1799 12.3249 25.9277 13.4649 24.9608C14.9858 23.6708 15.2353 20.8296 15.8791 20.7224C16.4263 20.631 16.9682 22.2759 16.8735 23.9246C16.8571 24.2155 16.8206 24.5069 16.7605 24.7887C16.7605 24.7887 19.8997 24.5492 20.2435 24.8242C20.5873 25.0997 20.8969 25.5123 20.381 26.1657C20.381 26.1657 21.1013 26.9913 20.6551 27.6447C20.6551 27.6447 21.358 28.5309 20.8008 29.154C20.8008 29.154 21.3061 30.0527 21.0157 30.6032Z" fill="#CC927A" stroke="black" stroke-width="0.427393" stroke-linecap="round" stroke-linejoin="round"/>
<path d="M13.4322 37.3906C13.2591 37.4425 12.9696 37.4372 12.6032 37.3733C12.6018 37.3733 12.6003 37.3728 12.5989 37.3723C12.4441 37.3449 12.2758 37.3069 12.0969 37.2583C10.7776 36.9001 8.88747 35.9597 7.65995 34.3778C6.59974 33.0118 6.08094 31.4342 5.87275 30.2499C5.79197 29.7917 5.75831 29.3926 5.75687 29.0878C5.75591 28.8498 5.77514 28.669 5.80784 28.5613C5.99103 27.9589 7.15413 27.9824 7.71476 27.9564C8.27587 27.93 9.02931 29.2417 9.02931 29.2417C8.68986 29.3503 8.33405 29.4643 7.96671 29.5816C7.96671 29.5816 7.96671 30.6798 8.92161 32.2276C9.10817 32.5309 9.33175 32.8517 9.59956 33.1849C11.1007 35.0524 12.8903 35.7943 12.8903 35.7943L13.449 34.7639C13.4764 34.7773 14.351 35.224 14.4847 35.7943C14.5342 36.0063 14.2178 37.155 13.4322 37.3906Z" fill="#49A2A6" stroke="black" stroke-width="0.427393" stroke-linecap="round" stroke-linejoin="round"/>
<path d="M13.449 34.7632H13.4482" stroke="black" stroke-width="0.427393" stroke-linecap="round" stroke-linejoin="round"/>
<path d="M13.4316 37.3902C13.4316 37.3902 12.3026 41.3689 11.8098 42.6931C11.7478 42.8604 11.6559 43.1104 11.5391 43.4182C11.3871 43.8172 11.1929 44.313 10.965 44.85C10.5404 45.8492 9.99902 46.9916 9.39896 47.9186H9.39848C8.79169 48.8543 8.12479 49.5707 7.45597 49.7001C5.82312 50.0159 2.41701 47.4412 0.0230184 44.8169C-0.461646 44.2856 -0.904959 43.7519 -1.28336 43.2403C-2.00892 42.2594 -2.64552 40.9189 -3.12778 39.5C-4.14038 36.5223 -4.47503 33.1984 -3.53166 32.1262C-3.22106 31.7737 -2.5883 31.4271 -1.79159 31.1015C-1.305 30.903 -0.756867 30.7121 -0.184214 30.5327C2.51221 29.6855 5.75629 29.0874 5.75629 29.0874C5.75773 29.3922 5.79138 29.7913 5.87216 30.2495C6.00102 30.9828 6.24912 31.867 6.67128 32.7584C6.93044 33.3066 7.25547 33.8576 7.65936 34.3774C7.66994 34.3913 7.68052 34.4048 7.69158 34.4182C8.41136 35.3313 9.35136 36.0275 10.2697 36.5189C10.9179 36.8661 11.5549 37.1108 12.0963 37.2579C12.7003 37.4224 13.1849 37.4642 13.4316 37.3902Z" fill="#4C70F5" stroke="black" stroke-width="0.427393" stroke-linecap="round" stroke-linejoin="round"/>
<path d="M14.4976 32.8258L13.448 34.763L12.8893 35.7934C12.8893 35.7934 11.0997 35.0515 9.59856 33.184C8.9884 32.4248 8.60615 31.7295 8.36719 31.1569C8.39267 31.1343 8.422 31.116 8.45518 31.103C8.59125 31.0501 8.74271 31.1092 8.87445 31.1718C10.1092 31.7574 11.2348 32.7359 12.6008 32.7868C13.0253 32.8027 13.4489 32.7253 13.8735 32.7383C14.0846 32.745 14.2937 32.7748 14.4976 32.8258Z" fill="#B27059"/>
<path d="M16.8741 23.9246C16.201 24.2477 15.4033 24.4396 14.9345 25.0132C14.6816 25.3224 14.5537 25.7118 14.4162 26.0869C14.0892 26.9778 13.6776 27.8457 13.105 28.603C12.83 28.9674 12.4765 29.3266 12.0231 29.3781C11.5289 29.4338 11.0855 29.0992 10.8086 28.6713C11.7486 28.3698 12.3386 28.1799 12.3386 28.1799C12.3386 28.1799 12.3256 25.9277 13.4656 24.9608C14.9864 23.6708 15.236 20.8296 15.8798 20.7224C16.4269 20.631 16.9688 22.2759 16.8741 23.9246Z" fill="#FFC7B3"/>
<path d="M13.431 37.39C13.431 37.39 12.302 41.3688 11.8092 42.693C11.7472 42.8603 11.6553 43.1103 11.5385 43.418C11.4462 43.3334 11.3582 43.244 11.2745 43.1526C10.649 42.4718 10.173 41.6688 9.73735 40.8538C9.1671 39.7879 8.65695 38.6901 8.20979 37.567C7.80927 36.5601 7.45924 35.5341 7.10968 34.5085C6.98275 34.1358 6.62694 33.3132 6.6707 32.7583C6.92986 33.3064 7.25489 33.8574 7.65878 34.3772C8.8863 35.9591 10.7764 36.8996 12.0958 37.2578C12.6997 37.4222 13.1843 37.4641 13.431 37.39Z" fill="#0638C4"/>
<path d="M13.4311 37.3906C13.258 37.4425 12.9685 37.4372 12.6022 37.3732C12.6007 37.3732 12.5993 37.3728 12.5978 37.3723C11.955 37.2064 11.3256 37.015 10.8361 36.5809C10.6529 36.4183 10.4971 36.227 10.3423 36.0371C10.0923 35.7298 9.84227 35.4226 9.59224 35.1153C9.28163 34.7336 8.9667 34.3451 8.77726 33.8912C8.58734 33.4378 8.53685 32.9007 8.75754 32.4612C8.80418 32.3675 8.85948 32.2915 8.92054 32.2275C9.1071 32.5309 9.33068 32.8516 9.59849 33.1848C11.0996 35.0523 12.8892 35.7942 12.8892 35.7942L13.4479 34.7639C13.4753 34.7773 14.3499 35.224 14.4836 35.7942C14.5331 36.0063 14.2167 37.155 13.4311 37.3906Z" fill="#2D8787"/>
<path d="M4.38821 43.0196L0.0228662 44.8174C-0.461798 44.2861 -0.905111 43.7524 -1.28351 43.2408C-2.00907 42.2599 -2.64567 40.9194 -3.12793 39.5005L4.38821 43.0196Z" fill="#BF9EF9" stroke="black" stroke-width="0.427393" stroke-linecap="round" stroke-linejoin="round"/>
<path d="M2.96908 32.4478L-1.51455 34.9683L-1.79102 31.1015C-1.30443 30.9029 -0.756297 30.7121 -0.183643 30.5327L2.96908 32.4478Z" fill="#F5D256" stroke="black" stroke-width="0.427393" stroke-linecap="round" stroke-linejoin="round"/>
<path d="M11.1 39.4824L4.83203 37.951L7.69145 34.418C8.41124 35.331 9.35123 36.0273 10.2696 36.5187L11.1 39.4824Z" fill="#E938B5" stroke="black" stroke-width="0.427393" stroke-linecap="round" stroke-linejoin="round"/>
<path d="M10.9653 44.8498C10.5408 45.8489 9.99936 46.9913 9.3993 47.9184H9.39882L7.84578 48.7915L7.41016 42.6904L10.9653 44.8498Z" fill="#49A2A6" stroke="black" stroke-width="0.427393" stroke-linecap="round" stroke-linejoin="round"/>
<path d="M13.4322 37.3906C13.1855 37.4646 12.7008 37.4228 12.0969 37.2583C10.7776 36.9001 8.88747 35.9597 7.65995 34.3778C6.59974 33.0118 6.08094 31.4342 5.87275 30.2499C5.79197 29.7917 5.75831 29.3926 5.75687 29.0878C5.75591 28.8498 5.77514 28.669 5.80784 28.5613C5.99103 27.9589 7.15413 27.9824 7.71476 27.9564C8.27587 27.93 9.02931 29.2417 9.02931 29.2417C8.68986 29.3503 8.33405 29.4643 7.96671 29.5816C7.96671 29.5816 7.96671 31.1524 9.59956 33.1849C11.1007 35.0524 12.8903 35.7943 12.8903 35.7943L13.449 34.7639C13.4764 34.7773 14.351 35.224 14.4847 35.7943C14.5342 36.0063 14.2178 37.155 13.4322 37.3906Z" stroke="black" stroke-width="0.427393" stroke-linecap="round" stroke-linejoin="round"/>
<path d="M11.8099 42.6926C11.3661 43.8855 9.41924 49.3197 7.45606 49.6996C5.49288 50.0794 0.965024 46.2795 -1.28328 43.2398C-3.53158 40.2001 -4.92451 33.7095 -3.53158 32.1262C-2.13817 30.5433 5.75637 29.0874 5.75637 29.0874C5.75781 29.3922 5.79147 29.7913 5.87225 30.2495C6.08044 31.4338 6.59924 33.0114 7.65944 34.3774C8.88697 35.9592 10.7771 36.8997 12.0964 37.2579C12.7003 37.4224 13.185 37.4642 13.4317 37.3902C13.4317 37.3902 12.3027 41.3689 11.8099 42.6931V42.6926Z" stroke="black" stroke-width="0.427393" stroke-linecap="round" stroke-linejoin="round"/>
<path d="M21.0157 30.6032C20.7253 31.1533 15.8445 32.3255 14.8814 32.1192L13.4491 34.7632L12.8904 35.7936C12.8904 35.7936 11.1008 35.0517 9.59965 33.1842C7.9668 31.1518 7.9668 29.581 7.9668 29.581C8.33414 29.4637 8.68995 29.3497 9.0294 29.241C10.9445 28.628 12.3379 28.1799 12.3379 28.1799C12.3379 28.1799 12.3249 25.9277 13.4649 24.9608C14.9858 23.6708 15.2353 20.8296 15.8791 20.7224C16.5229 20.6147 17.1591 22.9106 16.7605 24.7887C16.7605 24.7887 19.8997 24.5492 20.2435 24.8243C20.5873 25.0998 20.8969 25.5123 20.381 26.1657C20.381 26.1657 21.1013 26.9913 20.6551 27.6447C20.6551 27.6447 21.358 28.5309 20.8008 29.154C20.8008 29.154 21.3061 30.0527 21.0157 30.6032Z" stroke="black" stroke-width="0.427393" stroke-linecap="round" stroke-linejoin="round"/>
</g>
<defs>
<clipPath id="clip0_5256_125133">
<rect y="-0.000488281" width="48" height="48" rx="24" fill="white"/>
</clipPath>
</defs>
</svg>
